<?xml version="1.0" encoding="UTF-8" standalone="no"?>
<svg
   class="icon icon-tabler icon-tabler-cards"
   width="23.90325"
   height="23.90325"
   viewBox="0 0 23.90325 23.90325"
   stroke-width="2"
   stroke="currentColor"
   fill="none"
   stroke-linecap="round"
   stroke-linejoin="round"
   version="1.1"
   id="svg10"
   sodipodi:docname="cards.svg"
   inkscape:version="1.2.1 (9c6d41e410, 2022-07-14)"
   inkscape:export-filename="icon.png"
   inkscape:export-xdpi="771.10852"
   inkscape:export-ydpi="771.10852"
   xmlns:inkscape="http://www.inkscape.org/namespaces/inkscape"
   xmlns:sodipodi="http://sodipodi.sourceforge.net/DTD/sodipodi-0.dtd"
   xmlns="http://www.w3.org/2000/svg"
   xmlns:svg="http://www.w3.org/2000/svg">
  <defs
     id="defs14" />
  <sodipodi:namedview
     id="namedview12"
     pagecolor="#ffffff"
     bordercolor="#000000"
     borderopacity="0.25"
     inkscape:showpageshadow="2"
     inkscape:pageopacity="0.0"
     inkscape:pagecheckerboard="0"
     inkscape:deskcolor="#d1d1d1"
     showgrid="false"
     inkscape:zoom="19.666667"
     inkscape:cx="13.042373"
     inkscape:cy="5.9237288"
     inkscape:window-width="1920"
     inkscape:window-height="1121"
     inkscape:window-x="-9"
     inkscape:window-y="-9"
     inkscape:window-maximized="1"
     inkscape:current-layer="svg10" />
  <path
     stroke="none"
     d="M 0.02317068,-0.07279363 H 24.023171 V 23.927206 H 0.02317068 Z"
     fill="none"
     id="path2" />
  <g
     id="g1326"
     transform="matrix(1.154828,0,0,1.154828,-2.1061482,-2.3549078)">
    <path
       d="m 3.6271707,7.1242064 7.1380003,-3.109 a 0.96,0.96 0 0 1 1.27,0.527 l 4.924,11.9019996 a 1,1 0 0 1 -0.514,1.304 l -7.1370003,3.109 a 0.96,0.96 0 0 1 -1.271,-0.527 l -4.924,-11.9029996 a 1,1 0 0 1 0.514,-1.304 z"
       id="path4"
       style="stroke:#ff7f50;stroke-opacity:1" />
    <path
       d="m 15.023171,3.9272064 h 1 a 1,1 0 0 1 1,1 v 3.5"
       id="path6"
       style="stroke:#ff7f50;stroke-opacity:1" />
    <path
       d="m 20.023171,5.9272064 c 0.264,0.112 0.52,0.217 0.768,0.315 a 1,1 0 0 1 0.53,1.311 l -2.298,5.3739996"
       id="path8"
       style="stroke:#ff7f50;stroke-opacity:1" />
  </g>
</svg>
