<?xml version="1.0" encoding="UTF-8" standalone="no"?>
<!-- Created with Inkscape (http://www.inkscape.org/) -->

<svg
   width="288.81992mm"
   height="203.55829mm"
   viewBox="0 0 288.81991 203.55828"
   version="1.1"
   id="svg5"
   xml:space="preserve"
   inkscape:export-filename="homepage.svg"
   inkscape:export-xdpi="96"
   inkscape:export-ydpi="96"
   xmlns:inkscape="http://www.inkscape.org/namespaces/inkscape"
   xmlns:sodipodi="http://sodipodi.sourceforge.net/DTD/sodipodi-0.dtd"
   xmlns="http://www.w3.org/2000/svg"
   xmlns:svg="http://www.w3.org/2000/svg"><sodipodi:namedview
     id="namedview7"
     pagecolor="#ffffff"
     bordercolor="#000000"
     borderopacity="0.25"
     inkscape:showpageshadow="2"
     inkscape:pageopacity="0.0"
     inkscape:pagecheckerboard="0"
     inkscape:deskcolor="#d1d1d1"
     inkscape:document-units="mm"
     showgrid="false" /><defs
     id="defs2"><clipPath
       clipPathUnits="userSpaceOnUse"
       id="clipPath174"><path
         d="m 54,342.75 h 144.273 v 3.5 H 54 Z"
         id="path172" /></clipPath><clipPath
       clipPathUnits="userSpaceOnUse"
       id="clipPath196"><path
         d="m 54,454.125 h 117.801 v 39.75 H 54 Z"
         id="path194" /></clipPath><clipPath
       clipPathUnits="userSpaceOnUse"
       id="clipPath202"><path
         d="m 58.5,454.125 h 108.801 c 2.484,0 4.5,2.016 4.5,4.5 v 30.75 c 0,2.484 -2.016,4.5 -4.5,4.5 H 58.5 c -2.484,0 -4.5,-2.016 -4.5,-4.5 v -30.75 c 0,-2.484 2.016,-4.5 4.5,-4.5 z"
         id="path200" /></clipPath><clipPath
       clipPathUnits="userSpaceOnUse"
       id="clipPath216"><path
         d="M 418,279.762 H 732 V 445 H 418 Z"
         id="path214" /></clipPath><clipPath
       clipPathUnits="userSpaceOnUse"
       id="clipPath308"><path
         d="M 565.641,408.16 H 611 v 24.16 h -45.359 z"
         id="path306" /></clipPath><clipPath
       clipPathUnits="userSpaceOnUse"
       id="clipPath314"><path
         d="m 613.035,388.23 c -2.191,-11.929 -11.867,-14.66 -22.594,-13.957 v -0.003 c -0.078,0 -0.234,0 -0.312,0 v 0.003 c -10.559,-0.757 -20.219,2.309 -22.281,13.957 l -4.473,38.723 c 24.98,7.207 29.238,6.781 54.133,0 l -4.473,-38.723"
         id="path312" /></clipPath><clipPath
       clipPathUnits="userSpaceOnUse"
       id="clipPath376"><path
         d="m 655.875,430.922 h 1.781 v 2.289 h -1.781 z"
         id="path374" /></clipPath><clipPath
       clipPathUnits="userSpaceOnUse"
       id="clipPath382"><path
         d="m 655.543,427.758 1.273,5.402 1.594,-5.402 h -2.867"
         id="path380" /></clipPath><clipPath
       clipPathUnits="userSpaceOnUse"
       id="clipPath410"><path
         d="m 657.785,430.16 h 1.527 v 2.543 h -1.527 z"
         id="path408" /></clipPath><clipPath
       clipPathUnits="userSpaceOnUse"
       id="clipPath416"><path
         d="m 657.996,427.047 -0.105,5.551 2.882,-4.84 -2.777,-0.711"
         id="path414" /></clipPath><clipPath
       clipPathUnits="userSpaceOnUse"
       id="clipPath480"><path
         d="m 675.602,391 h 8.145 v 8.258 h -8.145 z"
         id="path478" /></clipPath><clipPath
       clipPathUnits="userSpaceOnUse"
       id="clipPath486"><path
         d="m 686.492,394.145 c -3.48,-6.575 -13.504,-1.336 -10.086,5.265 l 10.086,-5.265"
         id="path484" /></clipPath><clipPath
       clipPathUnits="userSpaceOnUse"
       id="clipPath502"><path
         d="m 697.113,390.23 h 11.328 v 3.941 h -11.328 z"
         id="path500" /></clipPath><clipPath
       clipPathUnits="userSpaceOnUse"
       id="clipPath508"><path
         d="m 708.055,397.562 c 2.195,-7.105 -8.602,-10.48 -10.856,-3.398 l 10.856,3.398"
         id="path506" /></clipPath><clipPath
       clipPathUnits="userSpaceOnUse"
       id="clipPath526"><path
         d="m 676.621,403.582 h 30.801 v 28.609 h -30.801 z"
         id="path524" /></clipPath><clipPath
       clipPathUnits="userSpaceOnUse"
       id="clipPath532"><path
         d="m 707.309,416.176 c -0.368,21.336 -32.133,21.332 -32.497,0 0.368,-21.336 32.133,-21.332 32.497,0"
         id="path530" /></clipPath><clipPath
       clipPathUnits="userSpaceOnUse"
       id="clipPath552"><path
         d="m 420,443 h 318 v 2.113 H 420 Z"
         id="path550" /></clipPath></defs><rect
     style="fill:#ffffff;fill-opacity:1;stroke-width:0.0819292;stroke-opacity:0"
     id="rect977"
     width="288.81992"
     height="203.55827"
     x="0"
     y="0" /><g
     id="g1152"
     transform="translate(16.989407)"><g
       id="g142"
       transform="matrix(0.35277776,0,0,0.35277778,-12.699999,-12.7)"><path
         d="M 36,36 H 756 V 576 H 36 Z"
         style="fill:#ffffff;fill-opacity:1;fill-rule:nonzero;stroke:none"
         id="path144" /><g
         id="g146"><path
           d="m 58.504,67.496 8.922,-3.887 c 0.301,-0.125 0.636,-0.129 0.933,-0.004 0.301,0.125 0.536,0.364 0.657,0.665 l 6.156,14.875 c 0.266,0.628 -0.024,1.355 -0.645,1.632 l -8.922,3.887 c -0.296,0.125 -0.632,0.129 -0.933,0.004 -0.297,-0.125 -0.535,-0.363 -0.656,-0.664 L 57.863,69.125 c -0.265,-0.629 0.02,-1.352 0.641,-1.629 z"
           style="fill:none;stroke:#ea7070;stroke-width:2.5;stroke-linecap:round;stroke-linejoin:round;stroke-miterlimit:4;stroke-dasharray:none;stroke-opacity:1"
           id="path148" /></g><g
         id="g150"><path
           d="M 72.75,63.5 H 74 c 0.691,0 1.25,0.559 1.25,1.25 v 4.375"
           style="fill:none;stroke:#ea7070;stroke-width:2.5;stroke-linecap:round;stroke-linejoin:round;stroke-miterlimit:4;stroke-dasharray:none;stroke-opacity:1"
           id="path152" /></g><g
         id="g154"><path
           d="m 79,66 c 0.328,0.141 0.648,0.27 0.961,0.395 0.633,0.269 0.93,1.003 0.66,1.636 L 77.75,74.75"
           style="fill:none;stroke:#ea7070;stroke-width:2.5;stroke-linecap:round;stroke-linejoin:round;stroke-miterlimit:4;stroke-dasharray:none;stroke-opacity:1"
           id="path156" /></g><path
         d="M 88.523,82.25 88.516,64.793 h 11.761 v 3.043 l -8.07,-0.008 v 4.168 h 7.465 v 3.043 l -7.465,-0.008 v 4.176 l 8.105,0.008 v 3.035 z m 19.45,0.211 c -0.996,0 -1.895,-0.258 -2.7,-0.77 -0.804,-0.515 -1.441,-1.273 -1.91,-2.277 -0.468,-1 -0.703,-2.234 -0.703,-3.695 0,-1.5 0.242,-2.746 0.727,-3.742 0.48,-1 1.125,-1.747 1.929,-2.243 0.805,-0.5 1.688,-0.746 2.645,-0.746 0.734,0 1.348,0.121 1.84,0.371 0.488,0.246 0.887,0.555 1.191,0.918 0.305,0.368 0.535,0.727 0.696,1.078 h 0.109 v -6.562 h 3.621 V 82.25 h -3.578 v -2.098 h -0.152 c -0.172,0.364 -0.411,0.723 -0.723,1.078 -0.309,0.356 -0.707,0.649 -1.199,0.883 -0.493,0.231 -1.09,0.348 -1.793,0.348 m 1.148,-2.887 c 0.586,0 1.082,-0.16 1.488,-0.484 0.407,-0.32 0.719,-0.77 0.938,-1.348 0.219,-0.582 0.328,-1.262 0.328,-2.039 0,-0.777 -0.109,-1.453 -0.324,-2.027 -0.215,-0.574 -0.528,-1.02 -0.938,-1.332 -0.41,-0.313 -0.906,-0.469 -1.492,-0.469 -0.598,0 -1.098,0.164 -1.508,0.488 -0.41,0.325 -0.718,0.774 -0.929,1.348 -0.211,0.57 -0.317,1.238 -0.317,1.992 0,0.762 0.11,1.434 0.321,2.016 0.214,0.582 0.523,1.039 0.929,1.363 0.406,0.328 0.906,0.492 1.504,0.492 z m 17.672,-2.898 v -7.52 h 3.629 V 82.25 h -3.484 v -2.379 h -0.137 c -0.297,0.766 -0.785,1.383 -1.469,1.848 -0.687,0.469 -1.52,0.699 -2.504,0.699 -0.875,0 -1.644,-0.199 -2.308,-0.594 -0.665,-0.398 -1.184,-0.965 -1.555,-1.699 -0.375,-0.73 -0.563,-1.609 -0.567,-2.633 v -8.336 h 3.629 v 7.688 c 0.008,0.773 0.215,1.386 0.621,1.836 0.411,0.445 0.957,0.672 1.645,0.672 0.437,0 0.848,-0.102 1.23,-0.305 0.379,-0.199 0.688,-0.5 0.922,-0.899 0.239,-0.398 0.352,-0.886 0.348,-1.472 z m 22,-5.77 h -3.734 c -0.067,-0.484 -0.207,-0.914 -0.418,-1.293 -0.211,-0.379 -0.481,-0.699 -0.809,-0.965 -0.332,-0.269 -0.711,-0.472 -1.137,-0.617 -0.429,-0.14 -0.894,-0.211 -1.394,-0.211 -0.903,0 -1.692,0.223 -2.363,0.668 -0.668,0.446 -1.188,1.094 -1.559,1.946 -0.367,0.847 -0.555,1.878 -0.555,3.089 0,1.243 0.188,2.289 0.559,3.133 0.375,0.848 0.894,1.489 1.566,1.918 0.668,0.434 1.446,0.649 2.324,0.649 0.497,0 0.954,-0.067 1.379,-0.196 0.422,-0.129 0.797,-0.324 1.129,-0.574 0.328,-0.254 0.602,-0.562 0.821,-0.926 0.218,-0.363 0.371,-0.777 0.457,-1.246 l 3.734,0.02 c -0.098,0.801 -0.34,1.57 -0.723,2.312 -0.382,0.742 -0.898,1.403 -1.543,1.989 -0.644,0.582 -1.41,1.039 -2.3,1.378 -0.887,0.34 -1.891,0.508 -3.012,0.508 -1.559,0 -2.949,-0.351 -4.172,-1.058 -1.223,-0.703 -2.191,-1.723 -2.898,-3.059 -0.707,-1.336 -1.059,-2.953 -1.059,-4.848 0,-1.906 0.355,-3.523 1.07,-4.859 0.719,-1.336 1.688,-2.355 2.918,-3.055 1.227,-0.703 2.606,-1.054 4.141,-1.054 1.012,0 1.949,0.144 2.816,0.425 0.867,0.286 1.637,0.7 2.305,1.243 0.672,0.543 1.219,1.207 1.641,1.988 0.425,0.785 0.695,1.684 0.816,2.695 z m 6.312,11.59 c -0.835,0 -1.578,-0.144 -2.23,-0.437 -0.656,-0.293 -1.172,-0.731 -1.547,-1.305 -0.379,-0.578 -0.566,-1.297 -0.566,-2.16 0,-0.727 0.133,-1.34 0.398,-1.832 0.266,-0.496 0.633,-0.895 1.09,-1.196 0.461,-0.3 0.984,-0.527 1.574,-0.679 0.586,-0.157 1.207,-0.262 1.852,-0.325 0.762,-0.082 1.375,-0.156 1.844,-0.226 0.464,-0.07 0.804,-0.18 1.011,-0.32 0.211,-0.141 0.317,-0.352 0.317,-0.629 v -0.051 c 0,-0.543 -0.168,-0.961 -0.508,-1.254 -0.336,-0.297 -0.817,-0.445 -1.434,-0.445 -0.656,0 -1.176,0.144 -1.562,0.433 -0.387,0.285 -0.641,0.645 -0.766,1.078 l -3.359,-0.273 c 0.172,-0.797 0.508,-1.484 1.008,-2.066 0.5,-0.582 1.144,-1.032 1.937,-1.348 0.793,-0.316 1.711,-0.473 2.758,-0.473 0.726,0 1.426,0.086 2.094,0.254 0.668,0.172 1.261,0.438 1.781,0.793 0.519,0.36 0.93,0.817 1.23,1.379 0.301,0.559 0.453,1.227 0.453,2.004 v 8.832 h -3.445 v -1.816 h -0.101 c -0.211,0.41 -0.493,0.769 -0.844,1.078 -0.352,0.308 -0.778,0.55 -1.27,0.722 -0.496,0.176 -1.066,0.262 -1.715,0.262 m 1.04,-2.504 c 0.535,0 1.007,-0.109 1.417,-0.32 0.407,-0.215 0.731,-0.504 0.961,-0.867 0.235,-0.364 0.352,-0.774 0.352,-1.235 v -1.39 c -0.113,0.074 -0.27,0.14 -0.465,0.203 -0.195,0.058 -0.418,0.113 -0.66,0.16 -0.246,0.047 -0.488,0.09 -0.734,0.129 -0.246,0.035 -0.465,0.07 -0.664,0.098 -0.426,0.062 -0.801,0.16 -1.118,0.296 -0.316,0.137 -0.566,0.321 -0.742,0.551 -0.176,0.231 -0.262,0.516 -0.262,0.856 0,0.496 0.18,0.871 0.54,1.129 0.359,0.257 0.82,0.39 1.375,0.39 z m 9.156,2.258 V 69.156 h 3.519 v 2.285 h 0.137 c 0.238,-0.812 0.637,-1.425 1.199,-1.843 0.563,-0.418 1.211,-0.629 1.946,-0.629 0.179,0 0.375,0.011 0.586,0.035 0.21,0.023 0.394,0.055 0.554,0.094 v 3.222 c -0.172,-0.05 -0.406,-0.097 -0.707,-0.136 -0.301,-0.039 -0.578,-0.059 -0.828,-0.059 -0.531,0 -1.008,0.113 -1.426,0.344 -0.418,0.23 -0.746,0.551 -0.988,0.961 -0.242,0.406 -0.363,0.879 -0.363,1.414 v 7.406 z m 14.023,0.211 c -0.996,0 -1.894,-0.258 -2.699,-0.77 -0.805,-0.515 -1.441,-1.273 -1.91,-2.277 -0.469,-1 -0.703,-2.234 -0.703,-3.695 0,-1.5 0.242,-2.746 0.726,-3.742 0.481,-1 1.125,-1.747 1.93,-2.243 0.805,-0.5 1.687,-0.746 2.644,-0.746 0.735,0 1.348,0.121 1.84,0.371 0.489,0.246 0.887,0.555 1.192,0.918 0.304,0.368 0.535,0.727 0.695,1.078 h 0.109 v -6.562 h 3.622 V 82.25 h -3.579 v -2.098 h -0.152 c -0.172,0.364 -0.41,0.723 -0.723,1.078 -0.308,0.356 -0.707,0.649 -1.199,0.883 -0.492,0.231 -1.09,0.348 -1.793,0.348 m 1.149,-2.887 c 0.586,0 1.082,-0.16 1.488,-0.484 0.406,-0.32 0.719,-0.77 0.937,-1.348 0.219,-0.582 0.329,-1.262 0.329,-2.039 0,-0.777 -0.11,-1.453 -0.325,-2.027 -0.214,-0.574 -0.527,-1.02 -0.937,-1.332 -0.41,-0.313 -0.906,-0.469 -1.492,-0.469 -0.598,0 -1.098,0.164 -1.508,0.488 -0.41,0.325 -0.719,0.774 -0.93,1.348 -0.211,0.57 -0.316,1.238 -0.316,1.992 0,0.762 0.109,1.434 0.32,2.016 0.215,0.582 0.523,1.039 0.93,1.363 0.406,0.328 0.906,0.492 1.504,0.492 z"
         style="fill:#21242c;fill-opacity:1;fill-rule:nonzero;stroke:none"
         id="path158" /><path
         d="M 636.586,54 H 733.5 c 2.484,0 4.5,2.016 4.5,4.5 v 30 c 0,2.484 -2.016,4.5 -4.5,4.5 h -96.914 c -2.481,0 -4.5,-2.016 -4.5,-4.5 v -30 c 0,-2.484 2.019,-4.5 4.5,-4.5 z m 96.914,1.5 h -96.914 c -1.652,0 -3,1.344 -3,3 v 30 c 0,1.656 1.348,3 3,3 H 733.5 c 1.656,0 3,-1.344 3,-3 v -30 c 0,-1.656 -1.344,-3 -3,-3 z"
         style="fill:#21242c;fill-opacity:1;fill-rule:nonzero;stroke:none"
         id="path160" /><path
         d="m 648.188,69.023 v 8.727 h -1.84 l -0.004,-8.727 z m 3.3,4.942 v 3.785 h -1.816 v -6.547 h 1.73 v 1.156 h 0.078 c 0.145,-0.382 0.387,-0.683 0.727,-0.906 0.344,-0.223 0.754,-0.336 1.242,-0.336 0.453,0 0.852,0.102 1.188,0.301 0.34,0.199 0.601,0.48 0.789,0.848 0.187,0.367 0.281,0.808 0.281,1.316 v 4.168 h -1.816 v -3.844 c 0.004,-0.402 -0.098,-0.715 -0.305,-0.941 -0.207,-0.227 -0.496,-0.34 -0.859,-0.34 -0.243,0 -0.457,0.055 -0.645,0.16 -0.187,0.106 -0.332,0.258 -0.434,0.457 -0.105,0.199 -0.156,0.442 -0.16,0.723 z m 5.649,3.785 v -6.547 h 1.816 v 6.547 h -1.816 m 0.918,-7.391 c -0.274,0 -0.508,-0.089 -0.7,-0.269 -0.191,-0.18 -0.285,-0.399 -0.285,-0.652 0,-0.25 0.094,-0.465 0.285,-0.645 0.192,-0.18 0.426,-0.27 0.696,-0.27 0.269,0 0.5,0.09 0.691,0.27 0.192,0.18 0.289,0.395 0.289,0.645 0,0.253 -0.097,0.472 -0.289,0.652 -0.191,0.18 -0.422,0.269 -0.687,0.269 z m 5.3,7.516 c -0.667,0 -1.246,-0.141 -1.726,-0.426 -0.481,-0.285 -0.852,-0.683 -1.109,-1.191 -0.258,-0.508 -0.383,-1.094 -0.383,-1.758 0,-0.668 0.129,-1.258 0.386,-1.766 0.262,-0.507 0.633,-0.902 1.114,-1.187 0.476,-0.285 1.051,-0.43 1.711,-0.43 0.57,0 1.07,0.106 1.5,0.313 0.429,0.207 0.769,0.5 1.019,0.875 0.25,0.375 0.387,0.812 0.414,1.32 h -1.715 c -0.046,-0.328 -0.175,-0.59 -0.382,-0.793 -0.204,-0.199 -0.473,-0.301 -0.805,-0.301 -0.281,0 -0.527,0.078 -0.734,0.231 -0.211,0.152 -0.375,0.371 -0.489,0.66 -0.117,0.293 -0.176,0.64 -0.176,1.055 0,0.418 0.059,0.773 0.172,1.066 0.118,0.293 0.278,0.516 0.489,0.668 0.211,0.152 0.457,0.23 0.738,0.23 0.207,0 0.394,-0.043 0.559,-0.129 0.167,-0.085 0.304,-0.21 0.414,-0.371 0.109,-0.164 0.179,-0.363 0.214,-0.589 h 1.715 c -0.031,0.5 -0.164,0.937 -0.41,1.316 -0.242,0.379 -0.574,0.676 -1,0.891 -0.43,0.211 -0.933,0.316 -1.516,0.316 z m 4.094,-0.125 v -6.547 h 1.817 v 6.547 h -1.817 m 0.918,-7.391 c -0.273,0 -0.508,-0.089 -0.699,-0.269 -0.191,-0.18 -0.285,-0.399 -0.285,-0.652 0,-0.25 0.094,-0.465 0.285,-0.645 0.191,-0.18 0.426,-0.27 0.695,-0.27 0.27,0 0.5,0.09 0.692,0.27 0.191,0.18 0.289,0.395 0.289,0.645 0,0.253 -0.098,0.472 -0.289,0.652 -0.192,0.18 -0.422,0.269 -0.688,0.269 z m 4.211,7.512 c -0.418,0 -0.789,-0.07 -1.117,-0.219 -0.324,-0.144 -0.582,-0.363 -0.773,-0.652 -0.188,-0.289 -0.282,-0.648 -0.282,-1.078 0,-0.363 0.067,-0.672 0.199,-0.918 0.133,-0.246 0.317,-0.445 0.547,-0.598 0.227,-0.148 0.493,-0.261 0.786,-0.34 0.292,-0.074 0.601,-0.128 0.925,-0.16 0.383,-0.039 0.688,-0.078 0.922,-0.113 0.231,-0.035 0.403,-0.09 0.508,-0.16 0.102,-0.071 0.156,-0.176 0.156,-0.317 v -0.023 c 0,-0.27 -0.086,-0.481 -0.254,-0.629 -0.168,-0.148 -0.41,-0.219 -0.718,-0.219 -0.325,0 -0.586,0.071 -0.778,0.215 -0.195,0.141 -0.324,0.32 -0.387,0.539 l -1.675,-0.137 c 0.082,-0.398 0.25,-0.742 0.5,-1.035 0.25,-0.289 0.574,-0.515 0.968,-0.672 0.399,-0.16 0.86,-0.238 1.379,-0.238 0.364,0 0.715,0.043 1.047,0.129 0.336,0.086 0.633,0.219 0.891,0.395 0.262,0.179 0.465,0.41 0.617,0.691 0.149,0.277 0.227,0.613 0.227,1.004 v 4.414 h -1.723 v -0.91 h -0.051 c -0.105,0.207 -0.246,0.387 -0.422,0.539 -0.175,0.156 -0.386,0.277 -0.636,0.363 -0.246,0.086 -0.532,0.129 -0.856,0.129 m 0.52,-1.25 c 0.265,0 0.504,-0.055 0.707,-0.16 0.207,-0.109 0.367,-0.25 0.48,-0.434 0.117,-0.183 0.176,-0.386 0.176,-0.617 v -0.695 c -0.055,0.035 -0.133,0.07 -0.231,0.101 -0.097,0.028 -0.21,0.055 -0.332,0.079 -0.121,0.027 -0.242,0.046 -0.367,0.066 -0.121,0.016 -0.23,0.035 -0.332,0.047 -0.211,0.031 -0.398,0.082 -0.558,0.148 -0.157,0.071 -0.282,0.16 -0.371,0.278 -0.086,0.113 -0.129,0.257 -0.129,0.425 0,0.25 0.089,0.438 0.269,0.567 0.18,0.129 0.41,0.195 0.688,0.195 z m 4.574,1.129 v -6.547 h 1.762 v 1.141 h 0.066 c 0.121,-0.406 0.32,-0.711 0.602,-0.922 0.281,-0.207 0.605,-0.313 0.972,-0.313 0.09,0 0.188,0.008 0.293,0.016 0.106,0.012 0.199,0.027 0.278,0.047 v 1.613 c -0.086,-0.027 -0.204,-0.051 -0.356,-0.07 -0.148,-0.02 -0.285,-0.027 -0.41,-0.027 -0.27,0 -0.508,0.054 -0.715,0.171 -0.211,0.114 -0.375,0.274 -0.496,0.481 -0.121,0.203 -0.18,0.437 -0.18,0.707 v 3.703 z m 12.457,-6.219 c -0.035,-0.343 -0.18,-0.609 -0.438,-0.801 -0.261,-0.191 -0.609,-0.285 -1.054,-0.285 -0.301,0 -0.555,0.043 -0.762,0.125 -0.207,0.086 -0.367,0.2 -0.477,0.348 -0.109,0.148 -0.164,0.316 -0.164,0.504 -0.004,0.156 0.028,0.293 0.102,0.406 0.07,0.117 0.172,0.219 0.301,0.301 0.125,0.086 0.273,0.156 0.441,0.219 0.168,0.062 0.348,0.113 0.539,0.156 l 0.781,0.187 c 0.383,0.086 0.731,0.2 1.051,0.34 0.317,0.141 0.594,0.317 0.824,0.524 0.235,0.207 0.415,0.453 0.543,0.734 0.133,0.281 0.196,0.602 0.2,0.969 -0.004,0.531 -0.137,0.996 -0.407,1.387 -0.269,0.39 -0.656,0.691 -1.16,0.906 -0.504,0.215 -1.109,0.32 -1.82,0.32 -0.703,0 -1.317,-0.105 -1.84,-0.324 -0.519,-0.215 -0.926,-0.535 -1.219,-0.961 -0.289,-0.422 -0.441,-0.949 -0.457,-1.578 h 1.785 c 0.02,0.293 0.106,0.539 0.254,0.73 0.149,0.196 0.348,0.344 0.602,0.442 0.25,0.097 0.535,0.144 0.851,0.144 0.313,0 0.586,-0.043 0.817,-0.136 0.234,-0.09 0.414,-0.215 0.539,-0.379 0.129,-0.161 0.191,-0.348 0.191,-0.559 0,-0.195 -0.054,-0.359 -0.172,-0.492 -0.113,-0.133 -0.281,-0.246 -0.5,-0.34 -0.222,-0.094 -0.492,-0.18 -0.808,-0.258 l -0.949,-0.238 c -0.739,-0.18 -1.321,-0.457 -1.746,-0.84 -0.426,-0.379 -0.637,-0.894 -0.633,-1.539 -0.004,-0.527 0.136,-0.988 0.422,-1.383 0.285,-0.394 0.679,-0.703 1.179,-0.926 0.5,-0.222 1.067,-0.332 1.703,-0.332 0.649,0 1.215,0.11 1.7,0.332 0.484,0.223 0.863,0.532 1.132,0.926 0.27,0.395 0.407,0.852 0.418,1.371 z m 6.078,6.344 c -0.676,0 -1.254,-0.137 -1.738,-0.41 -0.485,-0.274 -0.856,-0.664 -1.117,-1.168 -0.262,-0.504 -0.391,-1.102 -0.391,-1.789 0,-0.676 0.129,-1.266 0.391,-1.774 0.261,-0.507 0.628,-0.906 1.105,-1.191 0.477,-0.281 1.035,-0.426 1.676,-0.426 0.433,0 0.836,0.071 1.211,0.207 0.371,0.137 0.699,0.344 0.976,0.621 0.282,0.274 0.5,0.621 0.657,1.039 0.156,0.414 0.234,0.903 0.234,1.457 v 0.5 h -5.527 v -1.125 h 3.816 c 0,-0.261 -0.055,-0.492 -0.168,-0.695 -0.113,-0.203 -0.27,-0.359 -0.473,-0.476 -0.199,-0.114 -0.429,-0.172 -0.695,-0.172 -0.277,0 -0.519,0.062 -0.73,0.191 -0.211,0.125 -0.379,0.293 -0.496,0.508 -0.122,0.211 -0.18,0.445 -0.184,0.703 v 1.07 c 0,0.325 0.058,0.602 0.18,0.84 0.121,0.235 0.293,0.418 0.515,0.543 0.219,0.129 0.485,0.195 0.785,0.195 0.204,0 0.387,-0.031 0.555,-0.085 0.168,-0.059 0.313,-0.145 0.43,-0.258 0.121,-0.114 0.211,-0.25 0.273,-0.418 l 1.68,0.113 c -0.086,0.402 -0.258,0.754 -0.524,1.055 -0.261,0.297 -0.597,0.531 -1.011,0.699 -0.414,0.164 -0.891,0.246 -1.43,0.246 z m 9.637,-4.805 -1.66,0.102 c -0.028,-0.141 -0.09,-0.27 -0.184,-0.387 -0.094,-0.113 -0.215,-0.207 -0.367,-0.277 -0.153,-0.067 -0.336,-0.102 -0.543,-0.102 -0.281,0 -0.52,0.059 -0.715,0.176 -0.191,0.117 -0.289,0.273 -0.289,0.473 0,0.156 0.062,0.285 0.187,0.394 0.125,0.11 0.34,0.196 0.645,0.262 l 1.184,0.238 c 0.636,0.129 1.113,0.34 1.425,0.629 0.313,0.289 0.469,0.672 0.469,1.141 0,0.429 -0.129,0.808 -0.379,1.133 -0.25,0.32 -0.594,0.574 -1.031,0.753 -0.438,0.18 -0.938,0.27 -1.508,0.27 -0.863,0 -1.555,-0.18 -2.066,-0.543 -0.516,-0.359 -0.813,-0.855 -0.903,-1.48 l 1.786,-0.094 c 0.054,0.265 0.183,0.465 0.39,0.605 0.211,0.137 0.477,0.207 0.797,0.207 0.32,0 0.578,-0.062 0.77,-0.187 0.195,-0.125 0.293,-0.281 0.296,-0.481 -0.003,-0.164 -0.07,-0.3 -0.207,-0.406 -0.136,-0.105 -0.347,-0.187 -0.632,-0.246 l -1.133,-0.223 c -0.641,-0.129 -1.114,-0.351 -1.426,-0.668 -0.309,-0.312 -0.465,-0.714 -0.465,-1.203 0,-0.422 0.113,-0.785 0.344,-1.086 0.226,-0.304 0.551,-0.539 0.965,-0.703 0.418,-0.168 0.906,-0.25 1.465,-0.25 0.828,0 1.476,0.176 1.953,0.524 0.476,0.351 0.754,0.828 0.832,1.429 z m 1.293,4.68 v -6.547 h 1.816 v 6.547 h -1.816 m 0.918,-7.391 c -0.274,0 -0.508,-0.089 -0.7,-0.269 -0.191,-0.18 -0.285,-0.399 -0.285,-0.652 0,-0.25 0.094,-0.465 0.285,-0.645 0.192,-0.18 0.426,-0.27 0.696,-0.27 0.269,0 0.5,0.09 0.691,0.27 0.192,0.18 0.289,0.395 0.289,0.645 0,0.253 -0.097,0.472 -0.289,0.652 -0.191,0.18 -0.422,0.269 -0.687,0.269 z m 5.3,7.516 c -0.66,0 -1.234,-0.141 -1.714,-0.422 -0.481,-0.281 -0.852,-0.68 -1.114,-1.183 -0.261,-0.508 -0.39,-1.098 -0.39,-1.77 0,-0.676 0.129,-1.266 0.39,-1.773 0.262,-0.508 0.633,-0.903 1.114,-1.184 0.48,-0.285 1.054,-0.426 1.714,-0.426 0.665,0 1.235,0.141 1.715,0.426 0.485,0.281 0.856,0.676 1.118,1.184 0.261,0.507 0.39,1.097 0.39,1.773 0,0.672 -0.129,1.262 -0.39,1.77 -0.262,0.503 -0.633,0.902 -1.118,1.183 -0.48,0.281 -1.05,0.422 -1.715,0.422 m 0.008,-1.406 c 0.305,0 0.555,-0.086 0.758,-0.258 0.199,-0.172 0.352,-0.406 0.457,-0.703 0.102,-0.297 0.156,-0.637 0.156,-1.02 0,-0.379 -0.054,-0.718 -0.156,-1.019 -0.105,-0.297 -0.258,-0.531 -0.457,-0.707 -0.203,-0.172 -0.453,-0.258 -0.758,-0.258 -0.301,0 -0.558,0.086 -0.761,0.258 -0.207,0.176 -0.364,0.41 -0.465,0.707 -0.106,0.301 -0.157,0.64 -0.157,1.019 0,0.383 0.051,0.723 0.157,1.02 0.101,0.297 0.258,0.531 0.465,0.703 0.203,0.172 0.46,0.258 0.761,0.258 m -0.66,-6.11 0.906,-1.937 h 1.676 l -1.297,1.937 z m 6.875,3.606 v 3.785 h -1.816 v -6.547 h 1.73 v 1.156 h 0.078 c 0.145,-0.382 0.387,-0.683 0.727,-0.906 0.344,-0.223 0.754,-0.336 1.242,-0.336 0.453,0 0.852,0.102 1.188,0.301 0.339,0.199 0.601,0.48 0.789,0.848 0.187,0.367 0.281,0.808 0.281,1.316 v 4.168 h -1.817 v -3.844 c 0.004,-0.402 -0.097,-0.715 -0.304,-0.941 -0.207,-0.227 -0.496,-0.34 -0.86,-0.34 -0.242,0 -0.457,0.055 -0.644,0.16 -0.188,0.106 -0.332,0.258 -0.434,0.457 -0.105,0.199 -0.156,0.442 -0.16,0.723 z"
         style="fill:#21242c;fill-opacity:1;fill-rule:nonzero;stroke:none"
         id="path162" /><path
         d="m 55.895,260.75 v -21.82 h 8.609 c 1.652,0 3.062,0.316 4.23,0.945 1.164,0.629 2.051,1.496 2.668,2.609 0.614,1.11 0.922,2.391 0.922,3.84 0,1.449 -0.312,2.727 -0.937,3.836 -0.625,1.106 -1.532,1.969 -2.711,2.59 -1.184,0.617 -2.614,0.926 -4.289,0.926 h -5.489 v -3.699 h 4.743 c 0.886,0 1.621,-0.153 2.199,-0.461 0.578,-0.309 1.012,-0.739 1.301,-1.289 0.285,-0.551 0.429,-1.184 0.429,-1.903 0,-0.722 -0.144,-1.359 -0.429,-1.902 -0.289,-0.543 -0.723,-0.965 -1.305,-1.266 -0.582,-0.304 -1.32,-0.453 -2.219,-0.453 h -3.109 v 18.047 z m 26.472,0.32 c -1.656,0 -3.082,-0.355 -4.289,-1.062 -1.203,-0.707 -2.133,-1.692 -2.785,-2.961 -0.652,-1.27 -0.981,-2.738 -0.981,-4.414 0,-1.692 0.329,-3.172 0.981,-4.438 0.652,-1.269 1.582,-2.257 2.785,-2.965 1.207,-0.703 2.633,-1.058 4.289,-1.058 1.656,0 3.086,0.355 4.289,1.058 1.203,0.708 2.133,1.696 2.785,2.965 0.653,1.266 0.981,2.746 0.981,4.438 0,1.676 -0.328,3.144 -0.981,4.414 -0.652,1.269 -1.582,2.254 -2.785,2.961 -1.203,0.707 -2.633,1.062 -4.289,1.062 m 0.024,-3.515 c 0.75,0 1.379,-0.215 1.882,-0.645 0.504,-0.43 0.887,-1.019 1.145,-1.765 0.262,-0.747 0.391,-1.594 0.391,-2.547 0,-0.95 -0.129,-1.801 -0.391,-2.543 -0.258,-0.746 -0.641,-1.336 -1.145,-1.77 -0.503,-0.433 -1.132,-0.652 -1.882,-0.652 -0.762,0 -1.399,0.219 -1.914,0.652 -0.516,0.434 -0.903,1.024 -1.161,1.77 -0.261,0.742 -0.39,1.593 -0.39,2.543 0,0.953 0.129,1.8 0.39,2.547 0.258,0.746 0.645,1.335 1.161,1.765 0.515,0.43 1.152,0.645 1.914,0.645 z m 19.699,-13.168 v 3.406 h -9.856 v -3.406 h 9.856 m -7.617,-3.922 h 4.535 v 15.254 c 0,0.422 0.066,0.746 0.191,0.976 0.129,0.231 0.309,0.391 0.539,0.485 0.231,0.093 0.5,0.14 0.805,0.14 0.215,0 0.426,-0.019 0.641,-0.058 0.211,-0.039 0.375,-0.071 0.488,-0.094 l 0.715,3.379 c -0.227,0.07 -0.547,0.152 -0.961,0.25 -0.41,0.098 -0.91,0.156 -1.5,0.176 -1.094,0.043 -2.051,-0.102 -2.871,-0.438 -0.821,-0.332 -1.457,-0.851 -1.914,-1.555 -0.453,-0.703 -0.676,-1.589 -0.668,-2.664 z m 17.855,20.605 c -1.68,0 -3.129,-0.343 -4.34,-1.031 -1.211,-0.684 -2.144,-1.656 -2.797,-2.918 -0.652,-1.262 -0.98,-2.754 -0.98,-4.48 0,-1.684 0.328,-3.161 0.98,-4.43 0.653,-1.273 1.575,-2.262 2.766,-2.973 1.188,-0.711 2.586,-1.066 4.191,-1.066 1.079,0 2.086,0.172 3.02,0.516 0.934,0.347 1.75,0.863 2.453,1.55 0.699,0.692 1.242,1.555 1.633,2.594 0.391,1.043 0.586,2.258 0.586,3.648 v 1.247 h -13.817 v -2.813 h 9.547 c 0,-0.652 -0.144,-1.23 -0.429,-1.734 -0.282,-0.504 -0.676,-0.903 -1.176,-1.188 -0.5,-0.289 -1.082,-0.433 -1.742,-0.433 -0.688,0 -1.297,0.16 -1.828,0.476 -0.528,0.317 -0.942,0.738 -1.239,1.266 -0.301,0.531 -0.453,1.117 -0.461,1.765 v 2.672 c 0,0.809 0.153,1.512 0.453,2.098 0.305,0.59 0.731,1.047 1.286,1.367 0.554,0.317 1.211,0.477 1.972,0.477 0.504,0 0.965,-0.071 1.383,-0.211 0.418,-0.145 0.777,-0.356 1.078,-0.641 0.297,-0.285 0.524,-0.633 0.68,-1.043 l 4.199,0.277 c -0.215,1.008 -0.648,1.887 -1.305,2.637 -0.66,0.75 -1.503,1.332 -2.539,1.746 -1.031,0.414 -2.222,0.625 -3.574,0.625 z m 15.008,-9.781 v 9.461 h -4.539 v -16.363 h 4.328 v 2.886 h 0.191 c 0.36,-0.953 0.969,-1.707 1.821,-2.265 0.851,-0.559 1.886,-0.836 3.101,-0.836 1.137,0 2.125,0.25 2.973,0.746 0.844,0.496 1.5,1.207 1.969,2.125 0.468,0.922 0.703,2.016 0.703,3.285 v 10.422 h -4.539 v -9.609 c 0.008,-1.004 -0.246,-1.786 -0.766,-2.352 -0.519,-0.562 -1.23,-0.844 -2.14,-0.844 -0.614,0 -1.149,0.129 -1.614,0.391 -0.465,0.266 -0.828,0.644 -1.09,1.148 -0.257,0.5 -0.39,1.102 -0.398,1.805 z m 21.504,9.781 c -1.676,0 -3.117,-0.359 -4.32,-1.074 -1.204,-0.711 -2.125,-1.703 -2.77,-2.976 -0.641,-1.27 -0.965,-2.735 -0.965,-4.387 0,-1.68 0.324,-3.149 0.977,-4.418 0.648,-1.266 1.574,-2.258 2.773,-2.973 1.203,-0.715 2.629,-1.07 4.285,-1.07 1.426,0 2.676,0.258 3.75,0.777 1.071,0.52 1.918,1.246 2.543,2.184 0.625,0.937 0.973,2.039 1.035,3.305 h -4.281 c -0.121,-0.817 -0.441,-1.477 -0.953,-1.977 -0.516,-0.5 -1.191,-0.75 -2.019,-0.75 -0.704,0 -1.317,0.187 -1.84,0.566 -0.52,0.383 -0.926,0.934 -1.219,1.661 -0.293,0.722 -0.438,1.601 -0.438,2.628 0,1.043 0.145,1.934 0.434,2.664 0.285,0.731 0.691,1.29 1.219,1.672 0.523,0.383 1.14,0.575 1.844,0.575 0.515,0 0.984,-0.106 1.398,-0.317 0.418,-0.215 0.762,-0.523 1.035,-0.933 0.274,-0.411 0.453,-0.899 0.539,-1.477 h 4.281 c -0.07,1.25 -0.41,2.352 -1.015,3.297 -0.61,0.949 -1.445,1.691 -2.512,2.223 -1.062,0.531 -2.324,0.8 -3.781,0.8 z m 10.23,-0.32 v -16.363 h 4.539 v 16.363 h -4.539 m 2.293,-18.473 c -0.683,0 -1.261,-0.226 -1.742,-0.679 -0.48,-0.45 -0.719,-0.993 -0.719,-1.621 0,-0.625 0.239,-1.165 0.719,-1.618 0.481,-0.449 1.055,-0.675 1.731,-0.675 0.675,0 1.25,0.226 1.73,0.675 0.48,0.453 0.719,0.993 0.719,1.618 0,0.628 -0.239,1.171 -0.719,1.621 -0.48,0.453 -1.051,0.679 -1.719,0.679 z m 10.539,18.782 c -1.043,0 -1.976,-0.184 -2.793,-0.551 -0.816,-0.363 -1.461,-0.906 -1.933,-1.629 -0.473,-0.719 -0.707,-1.621 -0.707,-2.699 0,-0.91 0.168,-1.672 0.5,-2.293 0.336,-0.617 0.789,-1.114 1.363,-1.489 0.578,-0.378 1.23,-0.664 1.965,-0.855 0.738,-0.191 1.508,-0.324 2.32,-0.402 0.949,-0.102 1.719,-0.196 2.301,-0.286 0.582,-0.085 1.004,-0.218 1.266,-0.398 0.265,-0.176 0.394,-0.441 0.394,-0.789 v -0.063 c 0,-0.675 -0.211,-1.195 -0.633,-1.566 -0.422,-0.367 -1.019,-0.555 -1.797,-0.555 -0.816,0 -1.464,0.18 -1.949,0.539 -0.48,0.36 -0.801,0.809 -0.957,1.348 l -4.199,-0.34 c 0.215,-0.996 0.633,-1.855 1.258,-2.586 0.625,-0.726 1.433,-1.289 2.426,-1.683 0.988,-0.391 2.136,-0.59 3.445,-0.59 0.91,0 1.781,0.105 2.613,0.32 0.836,0.211 1.578,0.543 2.227,0.992 0.652,0.446 1.164,1.02 1.539,1.719 0.379,0.699 0.566,1.535 0.566,2.508 v 11.039 h -4.305 v -2.27 h -0.128 c -0.262,0.512 -0.614,0.961 -1.055,1.348 -0.438,0.387 -0.969,0.688 -1.586,0.906 -0.617,0.215 -1.332,0.325 -2.141,0.325 m 1.301,-3.133 c 0.668,0 1.254,-0.133 1.766,-0.399 0.511,-0.265 0.914,-0.629 1.207,-1.082 0.289,-0.453 0.433,-0.968 0.433,-1.547 v -1.734 c -0.14,0.094 -0.336,0.176 -0.578,0.25 -0.246,0.074 -0.519,0.141 -0.828,0.203 -0.305,0.059 -0.609,0.113 -0.914,0.16 -0.305,0.047 -0.582,0.086 -0.832,0.121 -0.531,0.079 -0.996,0.204 -1.395,0.375 -0.398,0.168 -0.707,0.399 -0.925,0.684 -0.223,0.289 -0.332,0.645 -0.332,1.074 0,0.617 0.226,1.086 0.675,1.41 0.454,0.325 1.024,0.485 1.723,0.485 z m 25.863,3.144 c -1.679,0 -3.128,-0.343 -4.339,-1.031 -1.211,-0.684 -2.145,-1.656 -2.797,-2.918 -0.653,-1.262 -0.981,-2.754 -0.981,-4.48 0,-1.684 0.328,-3.161 0.981,-4.43 0.652,-1.273 1.574,-2.262 2.765,-2.973 1.188,-0.711 2.586,-1.066 4.192,-1.066 1.078,0 2.086,0.172 3.019,0.516 0.934,0.347 1.75,0.863 2.453,1.55 0.7,0.692 1.243,1.555 1.633,2.594 0.391,1.043 0.586,2.258 0.586,3.648 v 1.247 h -13.816 v -2.813 h 9.547 c 0,-0.652 -0.145,-1.23 -0.43,-1.734 -0.281,-0.504 -0.676,-0.903 -1.176,-1.188 -0.5,-0.289 -1.082,-0.433 -1.742,-0.433 -0.688,0 -1.297,0.16 -1.828,0.476 -0.528,0.317 -0.942,0.738 -1.238,1.266 -0.301,0.531 -0.454,1.117 -0.461,1.765 v 2.672 c 0,0.809 0.152,1.512 0.453,2.098 0.304,0.59 0.73,1.047 1.285,1.367 0.555,0.317 1.211,0.477 1.973,0.477 0.503,0 0.964,-0.071 1.382,-0.211 0.418,-0.145 0.778,-0.356 1.078,-0.641 0.297,-0.285 0.524,-0.633 0.68,-1.043 l 4.199,0.277 c -0.214,1.008 -0.648,1.887 -1.304,2.637 -0.66,0.75 -1.504,1.332 -2.539,1.746 -1.032,0.414 -2.223,0.625 -3.575,0.625 z m 15.008,-22.14 v 21.82 h -4.527 l -0.012,-21.82 z"
         style="fill:#21242c;fill-opacity:1;fill-rule:nonzero;stroke:none"
         id="path164" /><path
         d="m 60.477,298.559 c -1.043,0 -1.977,-0.184 -2.793,-0.551 -0.817,-0.363 -1.461,-0.906 -1.934,-1.629 -0.473,-0.719 -0.707,-1.621 -0.707,-2.699 0,-0.91 0.168,-1.672 0.5,-2.293 0.336,-0.617 0.789,-1.114 1.363,-1.489 0.578,-0.378 1.231,-0.664 1.965,-0.855 0.738,-0.191 1.508,-0.324 2.32,-0.402 0.95,-0.102 1.719,-0.196 2.301,-0.286 0.582,-0.085 1.004,-0.218 1.266,-0.398 0.265,-0.176 0.394,-0.441 0.394,-0.789 v -0.063 c 0,-0.675 -0.211,-1.195 -0.632,-1.566 -0.422,-0.367 -1.02,-0.555 -1.797,-0.555 -0.817,0 -1.465,0.18 -1.95,0.539 -0.48,0.36 -0.8,0.809 -0.957,1.348 l -4.199,-0.34 c 0.215,-0.996 0.633,-1.855 1.258,-2.586 0.625,-0.726 1.434,-1.289 2.426,-1.683 0.988,-0.391 2.137,-0.59 3.445,-0.59 0.91,0 1.781,0.105 2.613,0.32 0.836,0.211 1.579,0.543 2.227,0.992 0.652,0.446 1.164,1.02 1.539,1.719 0.379,0.699 0.566,1.535 0.566,2.508 v 11.039 h -4.304 v -2.27 h -0.129 c -0.262,0.512 -0.613,0.961 -1.055,1.348 -0.437,0.387 -0.969,0.688 -1.586,0.906 -0.617,0.215 -1.332,0.325 -2.14,0.325 m 1.3,-3.133 c 0.668,0 1.254,-0.133 1.766,-0.399 0.512,-0.265 0.914,-0.629 1.207,-1.082 0.289,-0.453 0.434,-0.968 0.434,-1.547 v -1.734 c -0.141,0.094 -0.336,0.176 -0.579,0.25 -0.246,0.074 -0.519,0.141 -0.828,0.203 -0.304,0.059 -0.609,0.113 -0.914,0.16 -0.304,0.047 -0.582,0.086 -0.832,0.121 -0.531,0.079 -0.996,0.204 -1.394,0.375 -0.399,0.168 -0.707,0.399 -0.926,0.684 -0.223,0.289 -0.332,0.645 -0.332,1.074 0,0.617 0.226,1.086 0.676,1.41 0.453,0.325 1.023,0.485 1.722,0.485 z m 11.446,8.961 v -22.5 h 4.476 v 2.746 h 0.203 c 0.2,-0.438 0.489,-0.887 0.868,-1.348 0.378,-0.457 0.875,-0.84 1.492,-1.148 0.613,-0.309 1.379,-0.465 2.293,-0.465 1.195,0 2.297,0.312 3.304,0.933 1.008,0.622 1.813,1.555 2.418,2.801 0.606,1.246 0.907,2.809 0.907,4.684 0,1.824 -0.293,3.363 -0.879,4.617 -0.586,1.254 -1.383,2.203 -2.387,2.844 -1.004,0.644 -2.129,0.965 -3.371,0.965 -0.883,0 -1.629,-0.145 -2.242,-0.438 -0.617,-0.289 -1.117,-0.66 -1.508,-1.101 -0.391,-0.446 -0.692,-0.895 -0.895,-1.348 h -0.14 v 8.758 h -4.539 m 4.445,-14.321 c 0,0.973 0.133,1.825 0.402,2.547 0.27,0.723 0.66,1.289 1.172,1.688 0.512,0.402 1.133,0.601 1.867,0.601 0.739,0 1.364,-0.203 1.875,-0.609 0.508,-0.41 0.899,-0.977 1.164,-1.707 0.266,-0.727 0.399,-1.566 0.399,-2.52 0,-0.945 -0.129,-1.773 -0.391,-2.492 -0.265,-0.719 -0.652,-1.277 -1.164,-1.683 -0.512,-0.407 -1.14,-0.606 -1.883,-0.606 -0.742,0 -1.363,0.195 -1.871,0.586 -0.508,0.391 -0.898,0.941 -1.168,1.66 -0.269,0.719 -0.402,1.563 -0.402,2.535 z m 14.527,8.184 v -16.363 h 4.403 v 2.855 h 0.168 c 0.3,-1.015 0.8,-1.785 1.504,-2.308 0.703,-0.524 1.511,-0.782 2.429,-0.782 0.227,0 0.473,0.012 0.735,0.043 0.261,0.028 0.492,0.067 0.691,0.117 v 4.024 c -0.211,-0.063 -0.508,-0.117 -0.883,-0.168 -0.379,-0.051 -0.722,-0.074 -1.035,-0.074 -0.668,0 -1.262,0.144 -1.785,0.429 -0.52,0.289 -0.934,0.688 -1.234,1.2 -0.301,0.511 -0.454,1.101 -0.454,1.769 v 9.258 z m 18.957,0.32 c -1.679,0 -3.129,-0.343 -4.34,-1.031 -1.21,-0.684 -2.144,-1.656 -2.796,-2.918 -0.653,-1.262 -0.981,-2.754 -0.981,-4.48 0,-1.684 0.328,-3.161 0.981,-4.43 0.652,-1.273 1.574,-2.262 2.765,-2.973 1.188,-0.711 2.586,-1.066 4.192,-1.066 1.078,0 2.086,0.172 3.019,0.516 0.934,0.347 1.75,0.863 2.453,1.55 0.7,0.692 1.243,1.555 1.633,2.594 0.391,1.043 0.586,2.258 0.586,3.648 v 1.247 h -13.816 v -2.813 h 9.547 c 0,-0.652 -0.145,-1.23 -0.43,-1.734 -0.281,-0.504 -0.676,-0.903 -1.176,-1.188 -0.5,-0.289 -1.082,-0.433 -1.742,-0.433 -0.688,0 -1.297,0.16 -1.828,0.476 -0.528,0.317 -0.942,0.738 -1.239,1.266 -0.3,0.531 -0.453,1.117 -0.46,1.765 v 2.672 c 0,0.809 0.152,1.512 0.453,2.098 0.304,0.59 0.73,1.047 1.285,1.367 0.554,0.317 1.211,0.477 1.972,0.477 0.504,0 0.965,-0.071 1.383,-0.211 0.418,-0.145 0.778,-0.356 1.078,-0.641 0.297,-0.285 0.524,-0.633 0.68,-1.043 l 4.199,0.277 c -0.215,1.008 -0.648,1.887 -1.304,2.637 -0.661,0.75 -1.504,1.332 -2.539,1.746 -1.032,0.414 -2.223,0.625 -3.575,0.625 z m 15.008,-9.781 v 9.461 h -4.539 v -16.363 h 4.328 v 2.886 h 0.192 c 0.359,-0.953 0.968,-1.707 1.82,-2.265 0.851,-0.559 1.887,-0.836 3.101,-0.836 1.137,0 2.126,0.25 2.973,0.746 0.844,0.496 1.5,1.207 1.969,2.125 0.469,0.922 0.703,2.016 0.703,3.285 v 10.422 h -4.539 v -9.609 c 0.008,-1.004 -0.246,-1.786 -0.766,-2.352 -0.519,-0.562 -1.23,-0.844 -2.14,-0.844 -0.614,0 -1.149,0.129 -1.614,0.391 -0.464,0.266 -0.828,0.644 -1.089,1.148 -0.258,0.5 -0.391,1.102 -0.399,1.805 z m 20.141,9.727 c -1.242,0 -2.367,-0.321 -3.371,-0.965 -1.004,-0.641 -1.801,-1.59 -2.387,-2.844 -0.586,-1.254 -0.879,-2.793 -0.879,-4.617 0,-1.875 0.301,-3.438 0.906,-4.684 0.602,-1.246 1.407,-2.179 2.41,-2.801 1.008,-0.621 2.11,-0.933 3.309,-0.933 0.918,0 1.684,0.156 2.297,0.465 0.613,0.308 1.113,0.691 1.492,1.148 0.379,0.461 0.668,0.91 0.867,1.348 h 0.141 v -8.203 h 4.527 v 21.82 h -4.476 v -2.621 h -0.192 c -0.211,0.453 -0.511,0.902 -0.898,1.348 -0.387,0.441 -0.891,0.812 -1.504,1.101 -0.613,0.293 -1.363,0.438 -2.242,0.438 m 1.437,-3.614 c 0.731,0 1.352,-0.199 1.86,-0.601 0.507,-0.399 0.898,-0.965 1.172,-1.688 0.273,-0.722 0.41,-1.574 0.41,-2.547 0,-0.972 -0.133,-1.816 -0.407,-2.535 -0.269,-0.719 -0.66,-1.269 -1.171,-1.66 -0.508,-0.391 -1.133,-0.586 -1.864,-0.586 -0.746,0 -1.375,0.199 -1.886,0.606 -0.508,0.406 -0.899,0.964 -1.161,1.683 -0.261,0.719 -0.394,1.547 -0.394,2.492 0,0.954 0.133,1.793 0.402,2.52 0.266,0.73 0.653,1.297 1.16,1.707 0.508,0.406 1.133,0.609 1.879,0.609 z m 11.594,3.348 v -16.363 h 4.539 v 16.363 h -4.539 m 2.293,-18.473 c -0.684,0 -1.262,-0.226 -1.742,-0.679 -0.481,-0.45 -0.719,-0.993 -0.719,-1.621 0,-0.625 0.238,-1.165 0.719,-1.618 0.48,-0.449 1.055,-0.675 1.73,-0.675 0.676,0 1.25,0.226 1.731,0.675 0.48,0.453 0.718,0.993 0.718,1.618 0,0.628 -0.238,1.171 -0.718,1.621 -0.481,0.453 -1.051,0.679 -1.719,0.679 z m 5.789,18.473 v -2.707 l 8.008,-9.918 0.012,-0.117 h -7.746 v -3.621 h 13.203 v 2.949 l -7.524,9.672 -0.012,0.117 h 7.809 l -0.008,3.625 z m 21.898,0.309 c -1.042,0 -1.976,-0.184 -2.792,-0.551 -0.817,-0.363 -1.461,-0.906 -1.934,-1.629 -0.473,-0.719 -0.707,-1.621 -0.707,-2.699 0,-0.91 0.168,-1.672 0.5,-2.293 0.336,-0.617 0.789,-1.114 1.363,-1.489 0.578,-0.378 1.231,-0.664 1.965,-0.855 0.738,-0.191 1.508,-0.324 2.32,-0.402 0.95,-0.102 1.719,-0.196 2.301,-0.286 0.582,-0.085 1.004,-0.218 1.266,-0.398 0.265,-0.176 0.394,-0.441 0.394,-0.789 v -0.063 c 0,-0.675 -0.211,-1.195 -0.633,-1.566 -0.421,-0.367 -1.019,-0.555 -1.796,-0.555 -0.817,0 -1.465,0.18 -1.95,0.539 -0.48,0.36 -0.8,0.809 -0.957,1.348 l -4.199,-0.34 c 0.215,-0.996 0.633,-1.855 1.258,-2.586 0.625,-0.726 1.434,-1.289 2.426,-1.683 0.988,-0.391 2.136,-0.59 3.445,-0.59 0.91,0 1.781,0.105 2.613,0.32 0.836,0.211 1.578,0.543 2.227,0.992 0.652,0.446 1.164,1.02 1.539,1.719 0.379,0.699 0.566,1.535 0.566,2.508 v 11.039 h -4.304 v -2.27 h -0.129 c -0.262,0.512 -0.614,0.961 -1.055,1.348 -0.437,0.387 -0.969,0.688 -1.586,0.906 -0.617,0.215 -1.332,0.325 -2.141,0.325 m 1.301,-3.133 c 0.668,0 1.254,-0.133 1.766,-0.399 0.512,-0.265 0.914,-0.629 1.207,-1.082 0.289,-0.453 0.434,-0.968 0.434,-1.547 v -1.734 c -0.141,0.094 -0.336,0.176 -0.579,0.25 -0.246,0.074 -0.519,0.141 -0.828,0.203 -0.304,0.059 -0.609,0.113 -0.914,0.16 -0.304,0.047 -0.582,0.086 -0.832,0.121 -0.531,0.079 -0.996,0.204 -1.394,0.375 -0.399,0.168 -0.707,0.399 -0.926,0.684 -0.223,0.289 -0.332,0.645 -0.332,1.074 0,0.617 0.226,1.086 0.676,1.41 0.453,0.325 1.023,0.485 1.722,0.485 z m 11.446,-13.539 h 4.539 v 17.172 c 0,1.265 -0.246,2.285 -0.746,3.066 -0.497,0.781 -1.207,1.355 -2.137,1.719 -0.926,0.359 -2.031,0.543 -3.317,0.543 -0.156,0 -0.308,-0.004 -0.453,-0.008 -0.144,-0.004 -0.3,-0.008 -0.465,-0.016 v -3.547 c 0.122,0.008 0.227,0.012 0.317,0.016 0.09,0.004 0.183,0.004 0.281,0.004 0.731,0 1.246,-0.152 1.539,-0.461 0.297,-0.309 0.442,-0.773 0.442,-1.391 v -17.097 m 2.261,-2.11 c -0.668,0 -1.246,-0.226 -1.726,-0.679 -0.485,-0.45 -0.727,-0.993 -0.727,-1.621 0,-0.625 0.242,-1.165 0.727,-1.618 0.48,-0.449 1.058,-0.675 1.726,-0.675 0.68,0 1.262,0.226 1.739,0.675 0.48,0.453 0.722,0.993 0.722,1.618 0,0.628 -0.242,1.171 -0.722,1.621 -0.477,0.453 -1.059,0.679 -1.739,0.679 z m 13.36,18.793 c -1.68,0 -3.129,-0.343 -4.34,-1.031 -1.211,-0.684 -2.145,-1.656 -2.797,-2.918 -0.652,-1.262 -0.981,-2.754 -0.981,-4.48 0,-1.684 0.329,-3.161 0.981,-4.43 0.652,-1.273 1.574,-2.262 2.766,-2.973 1.187,-0.711 2.586,-1.066 4.191,-1.066 1.078,0 2.086,0.172 3.02,0.516 0.933,0.347 1.75,0.863 2.453,1.55 0.699,0.692 1.242,1.555 1.632,2.594 0.391,1.043 0.586,2.258 0.586,3.648 v 1.247 h -13.816 v -2.813 h 9.547 c 0,-0.652 -0.145,-1.23 -0.43,-1.734 -0.281,-0.504 -0.676,-0.903 -1.176,-1.188 -0.5,-0.289 -1.082,-0.433 -1.742,-0.433 -0.687,0 -1.297,0.16 -1.828,0.476 -0.527,0.317 -0.941,0.738 -1.238,1.266 -0.301,0.531 -0.453,1.117 -0.461,1.765 v 2.672 c 0,0.809 0.152,1.512 0.453,2.098 0.305,0.59 0.73,1.047 1.285,1.367 0.555,0.317 1.211,0.477 1.973,0.477 0.504,0 0.965,-0.071 1.383,-0.211 0.418,-0.145 0.777,-0.356 1.078,-0.641 0.297,-0.285 0.523,-0.633 0.679,-1.043 l 4.2,0.277 c -0.215,1.008 -0.649,1.887 -1.305,2.637 -0.66,0.75 -1.504,1.332 -2.539,1.746 -1.031,0.414 -2.223,0.625 -3.574,0.625 z m 24.886,0 c -1.679,0 -3.128,-0.343 -4.339,-1.031 -1.211,-0.684 -2.145,-1.656 -2.797,-2.918 -0.653,-1.262 -0.981,-2.754 -0.981,-4.48 0,-1.684 0.328,-3.161 0.981,-4.43 0.652,-1.273 1.574,-2.262 2.765,-2.973 1.188,-0.711 2.586,-1.066 4.192,-1.066 1.078,0 2.086,0.172 3.019,0.516 0.934,0.347 1.75,0.863 2.453,1.55 0.7,0.692 1.243,1.555 1.633,2.594 0.391,1.043 0.586,2.258 0.586,3.648 v 1.247 h -13.816 v -2.813 h 9.547 c 0,-0.652 -0.145,-1.23 -0.43,-1.734 -0.281,-0.504 -0.676,-0.903 -1.176,-1.188 -0.5,-0.289 -1.082,-0.433 -1.742,-0.433 -0.688,0 -1.297,0.16 -1.828,0.476 -0.528,0.317 -0.942,0.738 -1.238,1.266 -0.301,0.531 -0.454,1.117 -0.461,1.765 v 2.672 c 0,0.809 0.152,1.512 0.453,2.098 0.304,0.59 0.73,1.047 1.285,1.367 0.555,0.317 1.211,0.477 1.973,0.477 0.503,0 0.964,-0.071 1.382,-0.211 0.418,-0.145 0.778,-0.356 1.078,-0.641 0.297,-0.285 0.524,-0.633 0.68,-1.043 l 4.199,0.277 c -0.214,1.008 -0.648,1.887 -1.304,2.637 -0.66,0.75 -1.504,1.332 -2.539,1.746 -1.032,0.414 -2.223,0.625 -3.575,0.625 z m 15.008,-9.781 v 9.461 h -4.539 v -16.363 h 4.328 v 2.886 h 0.192 c 0.359,-0.953 0.968,-1.707 1.82,-2.265 0.852,-0.559 1.887,-0.836 3.102,-0.836 1.136,0 2.125,0.25 2.972,0.746 0.844,0.496 1.5,1.207 1.969,2.125 0.469,0.922 0.703,2.016 0.703,3.285 v 10.422 h -4.539 v -9.609 c 0.008,-1.004 -0.246,-1.786 -0.766,-2.352 -0.519,-0.562 -1.23,-0.844 -2.14,-0.844 -0.614,0 -1.149,0.129 -1.614,0.391 -0.464,0.266 -0.828,0.644 -1.089,1.148 -0.258,0.5 -0.391,1.102 -0.399,1.805 z m 28.528,9.781 c -1.68,0 -3.129,-0.343 -4.34,-1.031 -1.211,-0.684 -2.145,-1.656 -2.797,-2.918 -0.653,-1.262 -0.981,-2.754 -0.981,-4.48 0,-1.684 0.328,-3.161 0.981,-4.43 0.652,-1.273 1.574,-2.262 2.765,-2.973 1.188,-0.711 2.586,-1.066 4.192,-1.066 1.078,0 2.086,0.172 3.019,0.516 0.934,0.347 1.75,0.863 2.454,1.55 0.699,0.692 1.242,1.555 1.632,2.594 0.391,1.043 0.586,2.258 0.586,3.648 v 1.247 h -13.816 v -2.813 h 9.547 c 0,-0.652 -0.145,-1.23 -0.43,-1.734 -0.281,-0.504 -0.676,-0.903 -1.176,-1.188 -0.5,-0.289 -1.082,-0.433 -1.742,-0.433 -0.687,0 -1.297,0.16 -1.828,0.476 -0.527,0.317 -0.941,0.738 -1.238,1.266 -0.301,0.531 -0.453,1.117 -0.461,1.765 v 2.672 c 0,0.809 0.152,1.512 0.453,2.098 0.305,0.59 0.73,1.047 1.285,1.367 0.555,0.317 1.211,0.477 1.973,0.477 0.504,0 0.965,-0.071 1.382,-0.211 0.418,-0.145 0.778,-0.356 1.079,-0.641 0.297,-0.285 0.523,-0.633 0.679,-1.043 l 4.2,0.277 c -0.215,1.008 -0.649,1.887 -1.305,2.637 -0.66,0.75 -1.504,1.332 -2.539,1.746 -1.031,0.414 -2.223,0.625 -3.574,0.625 z m 15.007,-22.14 v 21.82 h -4.527 l -0.012,-21.82 z m 15.254,22.129 c -1.043,0 -1.976,-0.184 -2.793,-0.551 -0.816,-0.363 -1.461,-0.906 -1.933,-1.629 -0.473,-0.719 -0.707,-1.621 -0.707,-2.699 0,-0.91 0.168,-1.672 0.5,-2.293 0.336,-0.617 0.789,-1.114 1.363,-1.489 0.578,-0.378 1.23,-0.664 1.965,-0.855 0.738,-0.191 1.508,-0.324 2.32,-0.402 0.949,-0.102 1.719,-0.196 2.301,-0.286 0.582,-0.085 1.004,-0.218 1.266,-0.398 0.265,-0.176 0.394,-0.441 0.394,-0.789 v -0.063 c 0,-0.675 -0.211,-1.195 -0.633,-1.566 -0.422,-0.367 -1.019,-0.555 -1.797,-0.555 -0.816,0 -1.464,0.18 -1.949,0.539 -0.48,0.36 -0.801,0.809 -0.957,1.348 l -4.199,-0.34 c 0.215,-0.996 0.633,-1.855 1.258,-2.586 0.625,-0.726 1.433,-1.289 2.426,-1.683 0.988,-0.391 2.136,-0.59 3.445,-0.59 0.91,0 1.781,0.105 2.613,0.32 0.836,0.211 1.578,0.543 2.227,0.992 0.652,0.446 1.164,1.02 1.539,1.719 0.379,0.699 0.566,1.535 0.566,2.508 v 11.039 h -4.305 v -2.27 h -0.128 c -0.262,0.512 -0.614,0.961 -1.055,1.348 -0.438,0.387 -0.969,0.688 -1.586,0.906 -0.617,0.215 -1.332,0.325 -2.141,0.325 m 1.301,-3.133 c 0.668,0 1.254,-0.133 1.766,-0.399 0.511,-0.265 0.914,-0.629 1.207,-1.082 0.289,-0.453 0.433,-0.968 0.433,-1.547 v -1.734 c -0.14,0.094 -0.336,0.176 -0.578,0.25 -0.246,0.074 -0.519,0.141 -0.828,0.203 -0.305,0.059 -0.609,0.113 -0.914,0.16 -0.305,0.047 -0.582,0.086 -0.832,0.121 -0.531,0.079 -0.996,0.204 -1.395,0.375 -0.398,0.168 -0.707,0.399 -0.925,0.684 -0.223,0.289 -0.332,0.645 -0.332,1.074 0,0.617 0.226,1.086 0.675,1.41 0.454,0.325 1.024,0.485 1.723,0.485 z m 21.941,-4.145 v -9.394 h 4.54 v 16.363 h -4.36 v -2.973 h -0.172 c -0.367,0.957 -0.98,1.731 -1.836,2.313 -0.855,0.582 -1.898,0.871 -3.125,0.871 -1.093,0 -2.058,-0.246 -2.89,-0.746 -0.828,-0.496 -1.477,-1.203 -1.942,-2.117 -0.465,-0.918 -0.703,-2.016 -0.711,-3.293 v -10.418 h 4.539 v 9.609 c 0.008,0.965 0.266,1.727 0.778,2.289 0.512,0.563 1.199,0.84 2.058,0.84 0.547,0 1.059,-0.125 1.532,-0.375 0.476,-0.254 0.863,-0.629 1.156,-1.125 0.297,-0.496 0.441,-1.113 0.433,-1.844 z m 12.692,-14.851 v 21.82 h -4.527 l -0.012,-21.82 z m 8.293,22.129 c -1.043,0 -1.977,-0.184 -2.793,-0.551 -0.817,-0.363 -1.461,-0.906 -1.934,-1.629 -0.472,-0.719 -0.707,-1.621 -0.707,-2.699 0,-0.91 0.168,-1.672 0.5,-2.293 0.336,-0.617 0.789,-1.114 1.364,-1.489 0.578,-0.378 1.23,-0.664 1.964,-0.855 0.739,-0.191 1.508,-0.324 2.321,-0.402 0.949,-0.102 1.718,-0.196 2.3,-0.286 0.583,-0.085 1.004,-0.218 1.266,-0.398 0.266,-0.176 0.395,-0.441 0.395,-0.789 v -0.063 c 0,-0.675 -0.211,-1.195 -0.633,-1.566 -0.422,-0.367 -1.02,-0.555 -1.797,-0.555 -0.816,0 -1.465,0.18 -1.949,0.539 -0.481,0.36 -0.801,0.809 -0.957,1.348 l -4.2,-0.34 c 0.215,-0.996 0.633,-1.855 1.258,-2.586 0.625,-0.726 1.434,-1.289 2.426,-1.683 0.988,-0.391 2.137,-0.59 3.445,-0.59 0.911,0 1.782,0.105 2.614,0.32 0.836,0.211 1.578,0.543 2.226,0.992 0.653,0.446 1.164,1.02 1.539,1.719 0.379,0.699 0.567,1.535 0.567,2.508 V 298.25 H 365.5 v -2.27 h -0.129 c -0.262,0.512 -0.613,0.961 -1.055,1.348 -0.437,0.387 -0.968,0.688 -1.586,0.906 -0.617,0.215 -1.332,0.325 -2.14,0.325 m 1.301,-3.133 c 0.668,0 1.254,-0.133 1.765,-0.399 0.512,-0.265 0.914,-0.629 1.207,-1.082 0.289,-0.453 0.434,-0.968 0.434,-1.547 v -1.734 c -0.141,0.094 -0.336,0.176 -0.578,0.25 -0.246,0.074 -0.52,0.141 -0.828,0.203 -0.305,0.059 -0.61,0.113 -0.914,0.16 -0.305,0.047 -0.582,0.086 -0.832,0.121 -0.532,0.079 -0.997,0.204 -1.395,0.375 -0.398,0.168 -0.707,0.399 -0.926,0.684 -0.222,0.289 -0.332,0.645 -0.332,1.074 0,0.617 0.227,1.086 0.676,1.41 0.453,0.325 1.023,0.485 1.723,0.485 z"
         style="fill:#21242c;fill-opacity:1;fill-rule:nonzero;stroke:none"
         id="path166" /></g><g
       id="g168"
       transform="matrix(0.35277776,0,0,0.35277778,-12.699999,-12.7)"><g
         id="g170"
         clip-path="url(#clipPath174)"><path
           d="m 54,342.75 h 144.273 v 3.5 H 54 Z"
           style="fill:#ea7070;fill-opacity:1;fill-rule:nonzero;stroke:none"
           id="path176" /></g></g><g
       id="g178"
       transform="matrix(0.35277776,0,0,0.35277778,-12.699999,-12.7)"><path
         d="m 58.613,341.887 c -0.578,0 -1.113,-0.047 -1.617,-0.133 -0.5,-0.09 -0.914,-0.203 -1.238,-0.336 l 1.023,-3.391 c 0.531,0.164 1.012,0.254 1.442,0.27 0.429,0.012 0.804,-0.086 1.117,-0.301 0.316,-0.211 0.574,-0.574 0.773,-1.086 l 0.266,-0.691 -5.867,-16.832 h 4.769 l 3.391,12.015 h 0.168 l 3.422,-12.015 h 4.804 l -6.359,18.129 c -0.309,0.882 -0.719,1.652 -1.242,2.308 -0.524,0.656 -1.18,1.164 -1.977,1.524 -0.797,0.359 -1.754,0.539 -2.875,0.539 z m 21.735,-6.137 v -16.363 h 4.328 v 2.886 h 0.191 c 0.34,-0.961 0.906,-1.714 1.703,-2.269 0.797,-0.555 1.746,-0.832 2.856,-0.832 1.121,0 2.078,0.277 2.867,0.836 0.785,0.558 1.312,1.312 1.574,2.265 h 0.172 c 0.332,-0.937 0.938,-1.691 1.816,-2.253 0.875,-0.567 1.915,-0.848 3.118,-0.848 1.527,0 2.765,0.484 3.722,1.453 0.953,0.973 1.434,2.344 1.434,4.117 v 11.008 h -4.527 v -10.109 c 0,-0.911 -0.243,-1.594 -0.727,-2.047 -0.484,-0.453 -1.086,-0.684 -1.813,-0.684 -0.82,0 -1.464,0.262 -1.925,0.785 -0.461,0.52 -0.692,1.207 -0.692,2.063 v 9.992 h -4.402 v -10.207 c 0,-0.801 -0.227,-1.441 -0.688,-1.918 -0.457,-0.477 -1.058,-0.715 -1.804,-0.715 -0.504,0 -0.957,0.129 -1.36,0.379 -0.398,0.254 -0.718,0.606 -0.953,1.055 -0.234,0.453 -0.351,0.98 -0.351,1.582 v 9.824 z m 32.027,0.309 c -1.043,0 -1.977,-0.184 -2.793,-0.551 -0.816,-0.363 -1.461,-0.906 -1.934,-1.629 -0.472,-0.719 -0.707,-1.621 -0.707,-2.699 0,-0.91 0.168,-1.672 0.5,-2.293 0.336,-0.617 0.789,-1.114 1.364,-1.489 0.578,-0.378 1.23,-0.664 1.965,-0.855 0.738,-0.191 1.507,-0.324 2.32,-0.402 0.949,-0.102 1.719,-0.196 2.301,-0.286 0.582,-0.085 1.004,-0.218 1.265,-0.398 0.266,-0.176 0.395,-0.441 0.395,-0.789 v -0.063 c 0,-0.675 -0.211,-1.195 -0.633,-1.566 -0.422,-0.367 -1.02,-0.555 -1.797,-0.555 -0.816,0 -1.465,0.18 -1.949,0.539 -0.481,0.36 -0.801,0.809 -0.957,1.348 l -4.199,-0.34 c 0.214,-0.996 0.632,-1.855 1.257,-2.586 0.625,-0.726 1.434,-1.289 2.426,-1.683 0.989,-0.391 2.137,-0.59 3.446,-0.59 0.91,0 1.781,0.105 2.613,0.32 0.836,0.211 1.578,0.543 2.226,0.992 0.653,0.446 1.164,1.02 1.539,1.719 0.379,0.699 0.567,1.535 0.567,2.508 v 11.039 h -4.305 v -2.27 h -0.129 c -0.261,0.512 -0.613,0.961 -1.054,1.348 -0.438,0.387 -0.969,0.688 -1.586,0.906 -0.618,0.215 -1.332,0.325 -2.141,0.325 m 1.301,-3.133 c 0.668,0 1.254,-0.133 1.765,-0.399 0.512,-0.265 0.914,-0.629 1.207,-1.082 0.29,-0.453 0.434,-0.968 0.434,-1.547 v -1.734 c -0.141,0.094 -0.336,0.176 -0.578,0.25 -0.246,0.074 -0.52,0.141 -0.828,0.203 -0.305,0.059 -0.61,0.113 -0.914,0.16 -0.305,0.047 -0.582,0.086 -0.832,0.121 -0.532,0.079 -0.996,0.204 -1.395,0.375 -0.398,0.168 -0.707,0.399 -0.926,0.684 -0.222,0.289 -0.332,0.645 -0.332,1.074 0,0.617 0.227,1.086 0.676,1.41 0.453,0.325 1.024,0.485 1.723,0.485 m -0.492,-15.649 2.257,-4.847 h 4.2 l -3.25,4.847 z m 25.554,6.774 -4.156,0.258 c -0.07,-0.356 -0.223,-0.68 -0.457,-0.965 -0.234,-0.289 -0.543,-0.52 -0.922,-0.692 -0.379,-0.175 -0.832,-0.261 -1.359,-0.261 -0.703,0 -1.297,0.144 -1.778,0.441 -0.484,0.293 -0.726,0.688 -0.726,1.176 0,0.39 0.156,0.722 0.469,0.992 0.312,0.27 0.851,0.484 1.609,0.648 l 2.961,0.598 c 1.594,0.328 2.777,0.852 3.559,1.578 0.781,0.723 1.171,1.676 1.171,2.856 0,1.07 -0.312,2.011 -0.941,2.82 -0.629,0.812 -1.488,1.441 -2.578,1.891 -1.09,0.453 -2.348,0.679 -3.766,0.679 -2.168,0 -3.89,-0.453 -5.172,-1.359 -1.281,-0.906 -2.035,-2.141 -2.254,-3.703 l 4.465,-0.235 c 0.133,0.661 0.461,1.165 0.981,1.508 0.515,0.344 1.179,0.516 1.992,0.516 0.793,0 1.434,-0.152 1.922,-0.461 0.484,-0.309 0.734,-0.711 0.738,-1.199 -0.004,-0.414 -0.18,-0.75 -0.519,-1.02 -0.344,-0.265 -0.868,-0.469 -1.579,-0.609 l -2.832,-0.567 c -1.597,-0.32 -2.789,-0.875 -3.566,-1.66 -0.777,-0.789 -1.164,-1.797 -1.164,-3.015 0,-1.051 0.285,-1.957 0.855,-2.719 0.575,-0.758 1.379,-1.344 2.418,-1.758 1.043,-0.41 2.262,-0.617 3.661,-0.617 2.066,0 3.695,0.437 4.886,1.312 1.188,0.871 1.883,2.063 2.082,3.567 z m 14.864,12.008 c -1.043,0 -1.977,-0.184 -2.793,-0.551 -0.817,-0.363 -1.461,-0.906 -1.934,-1.629 -0.473,-0.719 -0.707,-1.621 -0.707,-2.699 0,-0.91 0.168,-1.672 0.5,-2.293 0.336,-0.617 0.789,-1.114 1.363,-1.489 0.578,-0.378 1.231,-0.664 1.965,-0.855 0.738,-0.191 1.508,-0.324 2.32,-0.402 0.95,-0.102 1.719,-0.196 2.301,-0.286 0.582,-0.085 1.004,-0.218 1.266,-0.398 0.265,-0.176 0.394,-0.441 0.394,-0.789 v -0.063 c 0,-0.675 -0.211,-1.195 -0.632,-1.566 -0.422,-0.367 -1.02,-0.555 -1.797,-0.555 -0.817,0 -1.465,0.18 -1.95,0.539 -0.48,0.36 -0.8,0.809 -0.957,1.348 l -4.199,-0.34 c 0.215,-0.996 0.633,-1.855 1.258,-2.586 0.625,-0.726 1.434,-1.289 2.426,-1.683 0.988,-0.391 2.136,-0.59 3.445,-0.59 0.91,0 1.781,0.105 2.613,0.32 0.836,0.211 1.578,0.543 2.227,0.992 0.652,0.446 1.164,1.02 1.539,1.719 0.379,0.699 0.566,1.535 0.566,2.508 v 11.039 h -4.304 v -2.27 h -0.129 c -0.262,0.512 -0.613,0.961 -1.055,1.348 -0.437,0.387 -0.969,0.688 -1.586,0.906 -0.617,0.215 -1.332,0.325 -2.14,0.325 m 1.3,-3.133 c 0.668,0 1.254,-0.133 1.766,-0.399 0.512,-0.265 0.914,-0.629 1.207,-1.082 0.289,-0.453 0.434,-0.968 0.434,-1.547 v -1.734 c -0.141,0.094 -0.336,0.176 -0.579,0.25 -0.246,0.074 -0.519,0.141 -0.828,0.203 -0.304,0.059 -0.609,0.113 -0.914,0.16 -0.304,0.047 -0.582,0.086 -0.832,0.121 -0.531,0.079 -0.996,0.204 -1.394,0.375 -0.399,0.168 -0.707,0.399 -0.926,0.684 -0.223,0.289 -0.332,0.645 -0.332,1.074 0,0.617 0.226,1.086 0.676,1.41 0.453,0.325 1.023,0.485 1.722,0.485 z m 15.985,-18.996 v 21.82 h -4.528 l -0.011,-21.82 z m 8.16,0 v 21.82 h -4.527 l -0.012,-21.82 z m 8.293,22.129 c -1.043,0 -1.977,-0.184 -2.793,-0.551 -0.817,-0.363 -1.461,-0.906 -1.934,-1.629 -0.472,-0.719 -0.707,-1.621 -0.707,-2.699 0,-0.91 0.168,-1.672 0.5,-2.293 0.336,-0.617 0.789,-1.114 1.364,-1.489 0.578,-0.378 1.23,-0.664 1.964,-0.855 0.739,-0.191 1.508,-0.324 2.321,-0.402 0.949,-0.102 1.718,-0.196 2.3,-0.286 0.583,-0.085 1.004,-0.218 1.266,-0.398 0.266,-0.176 0.395,-0.441 0.395,-0.789 v -0.063 c 0,-0.675 -0.211,-1.195 -0.633,-1.566 -0.422,-0.367 -1.02,-0.555 -1.797,-0.555 -0.816,0 -1.465,0.18 -1.949,0.539 -0.481,0.36 -0.801,0.809 -0.957,1.348 l -4.2,-0.34 c 0.215,-0.996 0.633,-1.855 1.258,-2.586 0.625,-0.726 1.434,-1.289 2.426,-1.683 0.988,-0.391 2.137,-0.59 3.445,-0.59 0.911,0 1.782,0.105 2.614,0.32 0.836,0.211 1.578,0.543 2.226,0.992 0.653,0.446 1.164,1.02 1.539,1.719 0.379,0.699 0.567,1.535 0.567,2.508 v 11.039 h -4.305 v -2.27 h -0.129 c -0.262,0.512 -0.613,0.961 -1.055,1.348 -0.437,0.387 -0.968,0.688 -1.586,0.906 -0.617,0.215 -1.332,0.325 -2.14,0.325 m 1.301,-3.133 c 0.668,0 1.254,-0.133 1.765,-0.399 0.512,-0.265 0.914,-0.629 1.207,-1.082 0.289,-0.453 0.434,-0.968 0.434,-1.547 v -1.734 c -0.141,0.094 -0.336,0.176 -0.578,0.25 -0.246,0.074 -0.52,0.141 -0.828,0.203 -0.305,0.059 -0.61,0.113 -0.914,0.16 -0.305,0.047 -0.582,0.086 -0.832,0.121 -0.532,0.079 -0.997,0.204 -1.395,0.375 -0.398,0.168 -0.707,0.399 -0.926,0.684 -0.222,0.289 -0.332,0.645 -0.332,1.074 0,0.617 0.227,1.086 0.676,1.41 0.453,0.325 1.023,0.485 1.723,0.485 m -0.493,-15.649 2.258,-4.847 h 4.199 l -3.25,4.847 z"
         style="fill:#21242c;fill-opacity:1;fill-rule:nonzero;stroke:none"
         id="path180" /><text
         xml:space="preserve"
         transform="translate(54,386.6875)"
         style="font-variant:normal;font-weight:normal;font-size:13.5px;font-family:Inter;-inkscape-font-specification:Inter-Regular;writing-mode:lr-tb;fill:#21242c;fill-opacity:1;fill-rule:nonzero;stroke:none"
         id="text188"><tspan
           x="0 8.5717325 13.379881 21.433859 29.660421 37.714397 42.495544 50.031769 53.23418 61.288158 69.188728 76.801651 80.598526 88.211456 92.008331 96.917419 104.76046 111.81728 115.61415 123.22708 126.4295 134.27254 146.00833 153.90891 161.52182 168.57864 172.37552 180.21855 188.11913 195.73206 199.52893 211.26472 218.87766 226.77821 234.64043 239.66458 247.27751 251.07439 258.93658 263.51035 271.37256 278.90878 283.81787 287.02026 294.30783 301.92075 305.71762"
           y="0"
           sodipodi:role="line"
           id="tspan182">Proporciona a tus alumnas una manera efectiva y</tspan><tspan
           x="0 8.2265625 16.088778 21.112926 28.169744 36.223721 44.12429 51.737217 54.939632 58.142044 65.448151 73.061081 81.441048 89.053978 92.850853 101.23083 109.09304 112.88992 120.75213 127.80895 132.71803 140.56108 148.94106 152.14346 159.75639 163.91653 167.69424 171.49112 174.69353 186.42932 194.65588 202.49893 205.70134 212.75816 220.37108 228.27165 236.65163 244.7056 248.50247 255.5593 263.40234 267.19922 271.99387 279.85608 284.68417 292.54639 300.44696 307.98318 311.18558 319.23956"
           y="16.875"
           sodipodi:role="line"
           id="tspan184">personalizada de estudiar, impulsando su retencin</tspan><tspan
           x="0 7.5170455 11.31392 18.850142 26.904119 38.639915 46.866478 51.661125 59.523342 67.423912 74.480728 77.683144 85.737122 93.637688"
           y="33.75"
           sodipodi:role="line"
           id="tspan186">y comprensin.</tspan></text></g><g
       id="g190"
       transform="matrix(0.35277776,0,0,0.35277778,-12.699999,-12.7)"><g
         id="g192"
         clip-path="url(#clipPath196)"><g
           id="g198"
           clip-path="url(#clipPath202)"><path
             d="m 54,454.125 h 117.801 v 39.75 H 54 Z"
             style="fill:#4788e9;fill-opacity:1;fill-rule:nonzero;stroke:none"
             id="path204" /></g></g></g><g
       id="g206"
       transform="matrix(0.35277776,0,0,0.35277778,-12.699999,-12.7)"><path
         d="m 75.945,479.5 v -10.91 h 4.305 c 0.824,0 1.527,0.148 2.113,0.441 0.586,0.293 1.032,0.703 1.336,1.239 0.309,0.535 0.461,1.164 0.461,1.882 0,0.727 -0.156,1.348 -0.469,1.868 -0.312,0.519 -0.761,0.918 -1.355,1.195 -0.59,0.277 -1.305,0.418 -2.145,0.418 h -2.879 v -1.856 h 2.508 c 0.442,0 0.805,-0.058 1.098,-0.179 0.289,-0.121 0.508,-0.301 0.652,-0.543 0.145,-0.243 0.215,-0.543 0.215,-0.903 0,-0.359 -0.07,-0.668 -0.215,-0.914 -0.144,-0.25 -0.363,-0.437 -0.656,-0.566 -0.293,-0.133 -0.66,-0.195 -1.105,-0.195 h -1.555 v 9.023 h -2.309 m 5.895,-4.965 2.711,4.965 h -2.547 l -2.652,-4.965 z m 7.504,5.125 c -0.84,0 -1.567,-0.172 -2.172,-0.515 -0.606,-0.344 -1.07,-0.829 -1.399,-1.461 -0.324,-0.629 -0.488,-1.375 -0.488,-2.239 0,-0.84 0.164,-1.582 0.488,-2.215 0.329,-0.636 0.789,-1.132 1.383,-1.488 0.598,-0.355 1.293,-0.531 2.098,-0.531 0.539,0 1.043,0.086 1.512,0.258 0.464,0.172 0.875,0.429 1.222,0.773 0.352,0.348 0.621,0.778 0.817,1.301 0.195,0.519 0.293,1.125 0.293,1.824 v 0.621 h -6.907 v -1.406 h 4.774 c 0,-0.328 -0.074,-0.617 -0.215,-0.867 -0.141,-0.254 -0.336,-0.449 -0.59,-0.594 -0.25,-0.144 -0.539,-0.215 -0.871,-0.215 -0.344,0 -0.648,0.078 -0.91,0.235 -0.266,0.16 -0.473,0.371 -0.621,0.636 -0.149,0.262 -0.227,0.555 -0.231,0.879 v 1.336 c 0,0.406 0.075,0.758 0.227,1.051 0.152,0.297 0.363,0.523 0.641,0.684 0.277,0.16 0.605,0.238 0.988,0.238 0.25,0 0.48,-0.035 0.691,-0.106 0.211,-0.07 0.387,-0.179 0.539,-0.32 0.149,-0.141 0.262,-0.316 0.34,-0.523 l 2.098,0.14 c -0.106,0.504 -0.324,0.942 -0.653,1.317 -0.328,0.375 -0.75,0.668 -1.265,0.875 -0.52,0.207 -1.113,0.312 -1.789,0.312 z m 8.922,3.078 c -0.735,0 -1.364,-0.101 -1.887,-0.3 -0.524,-0.204 -0.941,-0.473 -1.25,-0.821 -0.309,-0.344 -0.508,-0.73 -0.602,-1.16 l 2.098,-0.281 c 0.066,0.164 0.164,0.316 0.305,0.457 0.136,0.144 0.32,0.258 0.55,0.344 0.231,0.085 0.508,0.132 0.84,0.132 0.492,0 0.903,-0.121 1.223,-0.359 0.32,-0.242 0.48,-0.641 0.48,-1.203 v -1.496 H 99.93 c -0.102,0.226 -0.25,0.441 -0.45,0.644 -0.199,0.203 -0.453,0.367 -0.765,0.496 -0.313,0.125 -0.688,0.192 -1.121,0.192 -0.614,0 -1.172,-0.145 -1.672,-0.43 -0.504,-0.285 -0.902,-0.723 -1.199,-1.316 -0.297,-0.59 -0.446,-1.34 -0.446,-2.246 0,-0.926 0.149,-1.7 0.453,-2.321 0.301,-0.621 0.704,-1.086 1.208,-1.394 0.5,-0.313 1.05,-0.465 1.652,-0.465 0.457,0 0.84,0.078 1.152,0.23 0.309,0.157 0.559,0.348 0.746,0.579 0.192,0.226 0.336,0.453 0.442,0.671 h 0.082 v -1.375 h 2.254 v 8.262 c 0,0.695 -0.168,1.277 -0.512,1.746 -0.34,0.469 -0.813,0.824 -1.414,1.059 -0.602,0.238 -1.293,0.355 -2.074,0.355 m 0.046,-5.062 c 0.368,0 0.676,-0.09 0.93,-0.274 0.254,-0.183 0.449,-0.445 0.586,-0.789 0.137,-0.34 0.207,-0.754 0.207,-1.23 0,-0.481 -0.066,-0.899 -0.203,-1.25 -0.133,-0.356 -0.328,-0.629 -0.586,-0.824 -0.254,-0.196 -0.566,-0.293 -0.934,-0.293 -0.371,0 -0.683,0.101 -0.941,0.3 -0.254,0.204 -0.449,0.481 -0.582,0.836 -0.129,0.356 -0.195,0.766 -0.195,1.231 0,0.472 0.066,0.879 0.199,1.222 0.133,0.34 0.328,0.606 0.582,0.793 0.254,0.188 0.566,0.278 0.937,0.278 z m 5.774,1.824 -0.004,-8.184 h 2.266 v 8.184 h -2.262 m 0.32,-9.238 1.129,-2.422 h 2.098 l -1.625,2.422 z m 10.555,3.386 -2.078,0.129 c -0.035,-0.175 -0.11,-0.336 -0.227,-0.48 -0.117,-0.145 -0.269,-0.262 -0.461,-0.348 -0.191,-0.086 -0.418,-0.129 -0.679,-0.129 -0.352,0 -0.649,0.075 -0.891,0.219 -0.242,0.149 -0.359,0.344 -0.359,0.59 0,0.195 0.078,0.359 0.234,0.496 0.156,0.133 0.422,0.242 0.801,0.324 l 1.484,0.297 c 0.793,0.164 1.387,0.426 1.777,0.789 0.391,0.363 0.586,0.84 0.586,1.43 0,0.535 -0.156,1.004 -0.472,1.41 -0.313,0.406 -0.742,0.719 -1.289,0.945 -0.543,0.227 -1.172,0.34 -1.883,0.34 -1.082,0 -1.945,-0.226 -2.586,-0.68 -0.641,-0.453 -1.016,-1.07 -1.125,-1.851 l 2.23,-0.117 c 0.067,0.328 0.231,0.582 0.493,0.754 0.257,0.172 0.589,0.257 0.996,0.257 0.394,0 0.718,-0.078 0.961,-0.23 0.242,-0.156 0.367,-0.355 0.371,-0.602 -0.004,-0.203 -0.094,-0.375 -0.262,-0.507 -0.172,-0.133 -0.434,-0.235 -0.789,-0.305 l -1.418,-0.285 c -0.797,-0.16 -1.391,-0.434 -1.781,-0.828 -0.387,-0.395 -0.582,-0.899 -0.582,-1.508 0,-0.528 0.14,-0.981 0.429,-1.36 0.286,-0.378 0.688,-0.671 1.207,-0.878 0.52,-0.208 1.129,-0.309 1.829,-0.309 1.035,0 1.847,0.219 2.445,0.656 0.594,0.434 0.941,1.031 1.039,1.781 z m 5.973,-2.332 v 1.707 h -4.93 v -1.707 h 4.93 m -3.809,-1.961 h 2.27 v 7.629 c 0,0.211 0.031,0.371 0.093,0.489 0.063,0.113 0.153,0.195 0.27,0.242 0.117,0.047 0.25,0.07 0.402,0.07 0.106,0 0.211,-0.012 0.32,-0.031 0.106,-0.02 0.188,-0.035 0.243,-0.043 l 0.359,1.687 c -0.113,0.036 -0.273,0.079 -0.48,0.125 -0.207,0.047 -0.457,0.079 -0.75,0.086 -0.547,0.024 -1.028,-0.05 -1.438,-0.218 -0.41,-0.164 -0.726,-0.426 -0.953,-0.778 -0.231,-0.351 -0.34,-0.793 -0.336,-1.332 z m 5.281,10.145 v -8.184 h 2.199 v 1.43 h 0.086 c 0.149,-0.508 0.399,-0.894 0.75,-1.156 0.352,-0.258 0.754,-0.391 1.215,-0.391 0.114,0 0.235,0.008 0.367,0.024 0.129,0.011 0.247,0.031 0.344,0.058 v 2.012 c -0.105,-0.031 -0.254,-0.059 -0.441,-0.086 -0.188,-0.023 -0.36,-0.035 -0.516,-0.035 -0.332,0 -0.633,0.07 -0.89,0.215 -0.262,0.144 -0.469,0.343 -0.622,0.597 -0.148,0.258 -0.226,0.551 -0.226,0.887 v 4.629 z m 8.231,0.152 c -0.524,0 -0.989,-0.09 -1.395,-0.273 -0.41,-0.184 -0.73,-0.453 -0.969,-0.817 -0.234,-0.359 -0.355,-0.808 -0.355,-1.347 0,-0.457 0.086,-0.836 0.25,-1.145 0.168,-0.312 0.394,-0.558 0.684,-0.746 0.289,-0.191 0.617,-0.332 0.984,-0.426 0.367,-0.097 0.754,-0.164 1.156,-0.203 0.477,-0.05 0.86,-0.097 1.153,-0.14 0.289,-0.047 0.5,-0.114 0.632,-0.203 0.133,-0.086 0.196,-0.219 0.196,-0.391 v -0.035 c 0,-0.336 -0.106,-0.598 -0.317,-0.781 -0.211,-0.184 -0.508,-0.278 -0.894,-0.278 -0.41,0 -0.735,0.09 -0.977,0.27 -0.242,0.179 -0.402,0.402 -0.48,0.672 l -2.098,-0.168 c 0.105,-0.5 0.316,-0.93 0.629,-1.293 0.312,-0.364 0.715,-0.645 1.211,-0.84 0.496,-0.199 1.07,-0.297 1.723,-0.297 0.457,0 0.89,0.055 1.308,0.16 0.418,0.106 0.789,0.27 1.113,0.496 0.325,0.223 0.582,0.508 0.77,0.86 0.187,0.347 0.281,0.765 0.281,1.253 v 5.52 h -2.152 v -1.137 h -0.063 c -0.132,0.258 -0.308,0.481 -0.527,0.676 -0.219,0.191 -0.484,0.344 -0.793,0.453 -0.309,0.106 -0.668,0.16 -1.07,0.16 m 0.648,-1.566 c 0.336,0 0.629,-0.066 0.887,-0.199 0.254,-0.133 0.453,-0.313 0.601,-0.539 0.145,-0.227 0.219,-0.485 0.219,-0.774 v -0.867 c -0.074,0.047 -0.168,0.086 -0.293,0.125 -0.121,0.035 -0.258,0.07 -0.41,0.102 -0.156,0.031 -0.309,0.054 -0.461,0.078 -0.152,0.023 -0.289,0.043 -0.414,0.062 -0.266,0.039 -0.5,0.102 -0.699,0.188 -0.199,0.082 -0.352,0.199 -0.461,0.343 -0.113,0.141 -0.168,0.321 -0.168,0.536 0,0.308 0.113,0.543 0.34,0.703 0.226,0.164 0.512,0.242 0.859,0.242 z m 10.074,-6.77 v 1.707 h -4.929 v -1.707 h 4.929 m -3.808,-1.961 h 2.269 v 7.629 c 0,0.211 0.032,0.371 0.094,0.489 0.063,0.113 0.152,0.195 0.27,0.242 0.117,0.047 0.25,0.07 0.402,0.07 0.105,0 0.211,-0.012 0.32,-0.031 0.106,-0.02 0.188,-0.035 0.242,-0.043 l 0.36,1.687 c -0.113,0.036 -0.274,0.079 -0.481,0.125 -0.207,0.047 -0.457,0.079 -0.75,0.086 -0.547,0.024 -1.027,-0.05 -1.437,-0.218 -0.41,-0.164 -0.727,-0.426 -0.953,-0.778 -0.231,-0.351 -0.34,-0.793 -0.336,-1.332 z m 8.918,10.305 c -0.84,0 -1.567,-0.172 -2.172,-0.515 -0.606,-0.344 -1.07,-0.829 -1.399,-1.461 -0.324,-0.629 -0.488,-1.375 -0.488,-2.239 0,-0.84 0.164,-1.582 0.488,-2.215 0.329,-0.636 0.79,-1.132 1.383,-1.488 0.598,-0.355 1.293,-0.531 2.098,-0.531 0.539,0 1.043,0.086 1.512,0.258 0.464,0.172 0.875,0.429 1.222,0.773 0.352,0.348 0.621,0.778 0.817,1.301 0.195,0.519 0.293,1.125 0.293,1.824 v 0.621 h -6.907 v -1.406 h 4.774 c 0,-0.328 -0.074,-0.617 -0.215,-0.867 -0.141,-0.254 -0.336,-0.449 -0.59,-0.594 -0.25,-0.144 -0.539,-0.215 -0.871,-0.215 -0.344,0 -0.648,0.078 -0.91,0.235 -0.266,0.16 -0.473,0.371 -0.621,0.636 -0.149,0.262 -0.227,0.555 -0.231,0.879 v 1.336 c 0,0.406 0.075,0.758 0.227,1.051 0.152,0.297 0.363,0.523 0.641,0.684 0.277,0.16 0.605,0.238 0.988,0.238 0.25,0 0.48,-0.035 0.691,-0.106 0.211,-0.07 0.387,-0.179 0.539,-0.32 0.149,-0.141 0.262,-0.316 0.34,-0.523 l 2.098,0.14 c -0.106,0.504 -0.324,0.942 -0.653,1.317 -0.328,0.375 -0.75,0.668 -1.265,0.875 -0.52,0.207 -1.113,0.312 -1.789,0.312 z"
         style="fill:#ffffff;fill-opacity:1;fill-rule:nonzero;stroke:none"
         id="path208" /></g><g
       id="g210"
       transform="matrix(0.35277776,0,0,0.35277778,-12.699999,-12.7)"><g
         id="g212"
         clip-path="url(#clipPath216)"><path
           d="m 730.988,444.48 c 4.617,-54.324 -18.41,-174.73 -127.683,-163.964 -61.235,2 -57.356,47.281 -80.953,54.07 -6.86,1.973 -15.676,1.617 -25.344,1.262 -23.606,-0.868 -52.289,-1.735 -69.977,31.265 -23.656,44.141 8.242,77.367 8.242,77.367 h 295.715"
           style="fill:#dcecfd;fill-opacity:1;fill-rule:nonzero;stroke:none"
           id="path218" /><path
           d="m 730.988,444.48 c 0,0 -0.281,-26.656 -2,-35.644 0,0 -8.883,8.801 -8.468,19.766 0,0 1.613,-15.098 -12.465,-24.493 0,0 -4.149,7.235 -2.563,21.852 0,0 -7.101,-8.043 -19.105,-8.637 0,0 0.711,12.86 8.101,20.735 0,0 -2.39,-4.539 -17.664,-5.008 0,0 4.781,7.804 9.164,11.429 h 45"
           style="fill:#bedbfa;fill-opacity:1;fill-rule:nonzero;stroke:none"
           id="path220" /><path
           d="m 590.918,329.848 c -7.262,0.019 -13.023,-6.121 -12.676,-13.34 h 25.352 c 0.347,7.219 -5.414,13.359 -12.676,13.34"
           style="fill:#fdc4b6;fill-opacity:1;fill-rule:nonzero;stroke:none"
           id="path222" /><path
           d="m 698.207,432.57 c -0.809,0 -1.539,-0.558 -1.719,-1.382 l -20.34,-93.168 -84.304,-45.293 c -0.856,-0.461 -1.176,-1.528 -0.715,-2.383 0.461,-0.856 1.527,-1.18 2.387,-0.719 l 85.726,46.063 20.688,94.75 c 0.25,1.078 -0.614,2.148 -1.723,2.132"
           style="fill:#152e60;fill-opacity:1;fill-rule:nonzero;stroke:none"
           id="path224" /><path
           d="m 612.82,321.246 h -42.859 c -1.508,-15.812 2.875,-31.539 21.43,-32.234 18.554,0.695 22.937,16.429 21.429,32.234"
           style="fill:#324d90;fill-opacity:1;fill-rule:nonzero;stroke:none"
           id="path226" /><path
           d="m 683.297,338.156 c -0.145,8.539 -12.859,8.535 -13.004,0 0.148,-8.539 12.859,-8.539 13.004,0"
           style="fill:#324d90;fill-opacity:1;fill-rule:nonzero;stroke:none"
           id="path228" /><path
           d="m 680.367,338.156 c -0.078,4.696 -7.066,4.692 -7.144,0 0.078,-4.695 7.066,-4.695 7.144,0"
           style="fill:#152e60;fill-opacity:1;fill-rule:nonzero;stroke:none"
           id="path230" /><path
           d="m 677.293,444.48 c 4.484,-20.203 38.133,-20.32 41.414,0 h -41.414"
           style="fill:#152e60;fill-opacity:1;fill-rule:nonzero;stroke:none"
           id="path232" /><path
           d="m 612.82,316.535 h -42.859 c -0.289,0 -0.52,-0.23 -0.52,-0.515 0,-0.286 0.231,-0.52 0.52,-0.52 h 42.859 c 0.66,-0.008 0.68,1.047 0,1.035"
           style="fill:#152e60;fill-opacity:1;fill-rule:nonzero;stroke:none"
           id="path234" /><path
           d="m 612.82,312.926 h -42.859 c -0.289,0 -0.52,-0.235 -0.52,-0.52 0,-0.285 0.231,-0.515 0.52,-0.515 h 42.859 c 0.66,-0.012 0.68,1.043 0,1.035"
           style="fill:#152e60;fill-opacity:1;fill-rule:nonzero;stroke:none"
           id="path236" /><path
           d="M 515.98,444.48 H 509 c -0.809,0 -1.465,-0.656 -1.465,-1.464 v -44.797 c 0,-0.809 0.656,-1.465 1.465,-1.465 h 6.98 c 0.809,0 1.465,0.656 1.465,1.465 v 44.797 c 0,0.808 -0.656,1.464 -1.465,1.464"
           style="fill:#324d90;fill-opacity:1;fill-rule:nonzero;stroke:none"
           id="path238" /><path
           d="m 507.535,401.992 h 9.91 v 3.125 h -9.91 z"
           style="fill:#2a437d;fill-opacity:1;fill-rule:nonzero;stroke:none"
           id="path240" /><path
           d="m 507.535,406.609 h 9.91 v 3.129 h -9.91 z"
           style="fill:#2a437d;fill-opacity:1;fill-rule:nonzero;stroke:none"
           id="path242" /><path
           d="m 507.535,430.414 h 9.91 v 3.125 h -9.91 z"
           style="fill:#2a437d;fill-opacity:1;fill-rule:nonzero;stroke:none"
           id="path244" /><path
           d="m 507.535,435.031 h 9.91 v 3.129 h -9.91 z"
           style="fill:#2a437d;fill-opacity:1;fill-rule:nonzero;stroke:none"
           id="path246" /><path
           d="m 528.539,444.48 h -9.676 c -0.785,0 -1.418,-0.632 -1.418,-1.414 v -30.754 c 0,-0.785 0.633,-1.417 1.418,-1.417 h 9.676 c 0.781,0 1.418,0.632 1.418,1.417 v 30.754 c 0,0.782 -0.637,1.414 -1.418,1.414"
           style="fill:#2a437d;fill-opacity:1;fill-rule:nonzero;stroke:none"
           id="path248" /><path
           d="m 517.445,415.781 h 12.508 v 2.578 h -12.508 z"
           style="fill:#324d90;fill-opacity:1;fill-rule:nonzero;stroke:none"
           id="path250" /><path
           d="m 517.445,436.359 h 12.508 v 2.578 h -12.508 z"
           style="fill:#324d90;fill-opacity:1;fill-rule:nonzero;stroke:none"
           id="path252" /><path
           d="m 527.875,427.688 c -0.094,5.484 -8.258,5.484 -8.348,0 0.094,-5.481 8.254,-5.481 8.348,0"
           style="fill:#324d90;fill-opacity:1;fill-rule:nonzero;stroke:none"
           id="path254" /><path
           d="m 505.898,444.48 h -9.25 c -0.906,0 -1.64,-0.73 -1.64,-1.636 v -36.09 c 0,-0.906 0.734,-1.637 1.64,-1.637 h 9.25 c 0.903,0 1.637,0.731 1.637,1.637 v 36.09 c 0,0.906 -0.734,1.636 -1.637,1.636"
           style="fill:#ff7f50;fill-opacity:1;fill-rule:nonzero;stroke:none"
           id="path256" /><path
           d="m 495.008,409.738 c 4.144,-0.359 8.383,-0.363 12.527,0 -4.144,0.364 -8.383,0.36 -12.527,0"
           style="fill:#fdc4b6;fill-opacity:1;fill-rule:nonzero;stroke:none"
           id="path258" /><path
           d="m 495.008,413.25 c 4.144,-0.359 8.383,-0.363 12.527,0 -4.144,0.359 -8.383,0.359 -12.527,0"
           style="fill:#fdc4b6;fill-opacity:1;fill-rule:nonzero;stroke:none"
           id="path260" /><path
           d="m 495.008,436.598 c 4.144,-0.36 8.383,-0.36 12.527,0 -4.144,0.363 -8.383,0.359 -12.527,0"
           style="fill:#fdc4b6;fill-opacity:1;fill-rule:nonzero;stroke:none"
           id="path262" /><path
           d="m 495.008,440.109 c 4.144,-0.359 8.383,-0.359 12.527,0 -4.144,0.364 -8.383,0.36 -12.527,0"
           style="fill:#fdc4b6;fill-opacity:1;fill-rule:nonzero;stroke:none"
           id="path264" /><path
           d="m 498.914,415.688 h 5.371 v 18.227 h -5.371 z"
           style="fill:#fdc4b6;fill-opacity:1;fill-rule:nonzero;stroke:none"
           id="path266" /><path
           d="m 485.336,444.434 -8.465,-1.95 c -0.992,-0.226 -1.609,-1.214 -1.383,-2.207 l 9.457,-40.996 c 0.227,-0.992 1.215,-1.609 2.207,-1.383 l 8.465,1.95 c 0.992,0.226 1.61,1.214 1.383,2.207 l -9.457,41 c -0.227,0.988 -1.215,1.609 -2.207,1.379"
           style="fill:#4292f3;fill-opacity:1;fill-rule:nonzero;stroke:none"
           id="path268" /><path
           d="m 493.926,405.672 -7.801,-1.797 0.488,-2.117 7.801,1.797 -0.488,2.117"
           style="fill:#324d90;fill-opacity:1;fill-rule:nonzero;stroke:none"
           id="path270" /><path
           d="m 493.137,409.082 -7.801,-1.793 0.488,-2.121 7.801,1.797 -0.488,2.117"
           style="fill:#324d90;fill-opacity:1;fill-rule:nonzero;stroke:none"
           id="path272" /><path
           d="m 486.746,436.801 -7.801,-1.797 0.489,-2.117 7.8,1.797 -0.488,2.117"
           style="fill:#324d90;fill-opacity:1;fill-rule:nonzero;stroke:none"
           id="path274" /><path
           d="m 485.961,440.211 -7.801,-1.793 0.488,-2.121 7.801,1.797 -0.488,2.117"
           style="fill:#324d90;fill-opacity:1;fill-rule:nonzero;stroke:none"
           id="path276" /><path
           d="m 491.984,410.371 c -1.437,7.441 -3.164,14.922 -5.129,22.242 1.442,-7.441 3.168,-14.922 5.129,-22.242"
           style="fill:#324d90;fill-opacity:1;fill-rule:nonzero;stroke:none"
           id="path278" /><path
           d="m 488.852,409.863 c -1.442,7.442 -3.164,14.922 -5.129,22.242 1.437,-7.441 3.164,-14.921 5.129,-22.242"
           style="fill:#324d90;fill-opacity:1;fill-rule:nonzero;stroke:none"
           id="path280" /><path
           d="m 485.715,409.355 c -1.442,7.442 -3.164,14.926 -5.129,22.247 1.437,-7.442 3.164,-14.926 5.129,-22.247"
           style="fill:#324d90;fill-opacity:1;fill-rule:nonzero;stroke:none"
           id="path282" /><path
           d="m 590.438,367.113 h -13.512 l 0.949,-6.125 -3.797,6.125 h -3.062 c 1.007,-39.051 37.683,-41.246 37.871,0 h -3.032 l -1.14,-9.258 -1.336,9.258 h -5.594 v -9.125 L 596,367.113 h -5.562"
           style="fill:#59445a;fill-opacity:1;fill-rule:nonzero;stroke:none"
           id="path284" /><path
           d="m 581.164,354.98 c 0.715,4.504 -3.07,5.149 -3.883,0.661 -0.715,-4.504 3.071,-5.149 3.883,-0.661"
           style="fill:#c68863;fill-opacity:1;fill-rule:nonzero;stroke:none"
           id="path286" /><path
           d="m 599.719,354.98 c -0.715,4.504 3.066,5.149 3.883,0.661 0.714,-4.504 -3.071,-5.149 -3.883,-0.661"
           style="fill:#c68863;fill-opacity:1;fill-rule:nonzero;stroke:none"
           id="path288" /><path
           d="m 596.156,358.777 c -2.871,0 -8.558,0 -11.429,0 1.378,3.93 -1.629,23.625 -1.629,23.625 3.683,0 11.004,0 14.687,0 0,0 -3.008,-19.695 -1.629,-23.625"
           style="fill:#e0ab8b;fill-opacity:1;fill-rule:nonzero;stroke:none"
           id="path290" /><path
           d="m 601.469,355.535 c -0.274,17.633 -21.781,17.629 -22.055,0 -1.957,-18.047 23.426,-18.223 22.055,0"
           style="fill:#e0ab8b;fill-opacity:1;fill-rule:nonzero;stroke:none"
           id="path292" /><path
           d="m 584.883,367.113 c 0,0 5.179,3.989 11.117,0 l 0.312,3.571 c 0,0 -6.394,2.988 -11.746,0.039 l 0.317,-3.61"
           style="fill:#c68863;fill-opacity:1;fill-rule:nonzero;stroke:none"
           id="path294" /><path
           d="m 592.676,342.133 v 8.445 c 0,0 -6.828,0.559 -13.11,1.527 -1.757,-10.933 12.789,-14.984 13.11,-9.972"
           style="fill:#59445a;fill-opacity:1;fill-rule:nonzero;stroke:none"
           id="path296" /><path
           d="m 592.602,341.484 1.8,8.692 c 0,0 3.368,0.461 6.86,1.929 0,0 3.082,-12.445 -8.66,-10.621"
           style="fill:#59445a;fill-opacity:1;fill-rule:nonzero;stroke:none"
           id="path298" /><path
           d="m 613.035,388.23 c -2.191,-11.929 -11.867,-14.66 -22.594,-13.957 v -0.003 c -0.078,0 -0.234,0 -0.312,0 v 0.003 c -10.559,-0.757 -20.219,2.309 -22.281,13.957 l -4.473,38.723 c 24.98,7.207 29.238,6.781 54.133,0 l -4.473,-38.723"
           style="fill:#4292f3;fill-opacity:1;fill-rule:nonzero;stroke:none"
           id="path300" /></g></g><g
       id="g302"
       transform="matrix(0.35277776,0,0,0.35277778,-12.699999,-12.7)"><g
         id="g304"
         clip-path="url(#clipPath308)"><g
           id="g310"
           clip-path="url(#clipPath314)"><path
             d="m 566.504,408.168 c 9.187,5.086 29.172,17.18 44.473,15.336 -22.836,11.851 -21.387,11.961 -45.305,2.617 l 0.832,-17.953"
             style="fill:#3c7ed7;fill-opacity:1;fill-rule:nonzero;stroke:none"
             id="path316" /></g></g></g><g
       id="g318"
       transform="matrix(0.35277776,0,0,0.35277778,-12.699999,-12.7)"><path
         d="m 581.609,374.453 c 1.082,7.258 16.598,7.227 17.664,0 0,0 -9.015,-0.637 -17.664,0"
         style="fill:#e0ab8b;fill-opacity:1;fill-rule:nonzero;stroke:none"
         id="path320" /><path
         d="m 590.438,379.941 -5.567,5.547 c 0,0 -5.664,-3.484 -4.75,-10.734 l 1.488,-0.301 8.829,5.488"
         style="fill:#ffffff;fill-opacity:1;fill-rule:nonzero;stroke:none"
         id="path322" /><path
         d="m 590.438,379.941 5.57,5.547 c 0,0 5.664,-3.484 4.75,-10.734 l -1.488,-0.301 -8.832,5.488"
         style="fill:#ffffff;fill-opacity:1;fill-rule:nonzero;stroke:none"
         id="path324" /><path
         d="m 561.828,396.199 c -0.41,8.348 -6.586,22.563 6.617,23.938 l -1.07,-20.121 -5.547,-3.817"
         style="fill:#c68863;fill-opacity:1;fill-rule:nonzero;stroke:none"
         id="path326" /><path
         d="m 618.293,396.746 c 0.527,8.672 6.383,22.352 -6.648,24.527 l 1.097,-20.714 5.551,-3.813"
         style="fill:#c68863;fill-opacity:1;fill-rule:nonzero;stroke:none"
         id="path328" /><path
         d="m 579.902,436.941 c 0,0 -4.297,-2.664 -6.558,-1.964 -0.34,0.105 -2.703,3.019 -2.703,3.019 l -8.024,3.035 c -1.488,0.516 -2.25,1.973 -2.465,3.449 h 20.332 l -0.582,-7.539"
         style="fill:#c68863;fill-opacity:1;fill-rule:nonzero;stroke:none"
         id="path330" /><path
         d="m 579.359,435.281 c 0,0 35.727,-19.765 48.453,-18.031 12.723,1.734 13.282,19.43 2.293,23.188 -10.992,3.753 -50.035,4.042 -50.035,4.042 l -0.711,-9.199"
         style="fill:#2a437d;fill-opacity:1;fill-rule:nonzero;stroke:none"
         id="path332" /><path
         d="m 601.52,435.281 c 0,0 -35.727,-19.765 -48.454,-18.031 -12.722,1.734 -13.281,19.43 -2.293,23.188 10.993,3.753 50.036,4.042 50.036,4.042 l 0.711,-9.199"
         style="fill:#324d90;fill-opacity:1;fill-rule:nonzero;stroke:none"
         id="path334" /><path
         d="m 601.391,436.941 c 0,0 4.297,-2.664 6.558,-1.964 0.34,0.105 2.703,3.019 2.703,3.019 l 8.024,3.035 c 1.488,0.516 2.25,1.973 2.469,3.449 h -20.336 l 0.582,-7.539"
         style="fill:#e0ab8b;fill-opacity:1;fill-rule:nonzero;stroke:none"
         id="path336" /><path
         d="m 562.461,383.004 25.023,10.512 v 28.48 l -25.023,-10.914 v -28.078"
         style="fill:#ff7f50;fill-opacity:1;fill-rule:nonzero;stroke:none"
         id="path338" /><path
         d="m 617.445,383.004 -25.023,10.512 v 28.48 l 25.023,-10.914 v -28.078"
         style="fill:#ff7f50;fill-opacity:1;fill-rule:nonzero;stroke:none"
         id="path340" /><path
         d="m 587.484,393.516 h 4.938 v 28.48 h -4.938 z"
         style="fill:#fdc4b6;fill-opacity:1;fill-rule:nonzero;stroke:none"
         id="path342" /><path
         d="m 564.16,383.719 5.754,-1.317 19.926,8.493 -2.356,2.621 -23.324,-9.797"
         style="fill:#ffffff;fill-opacity:1;fill-rule:nonzero;stroke:none"
         id="path344" /><path
         d="m 589.84,390.895 2.582,2.621 22.703,-9.539 -4.152,-1.571 -21.133,8.489"
         style="fill:#ffffff;fill-opacity:1;fill-rule:nonzero;stroke:none"
         id="path346" /><path
         d="m 589.84,390.895 -2.356,2.621 h 4.938 l -2.582,-2.621"
         style="fill:#dcecfd;fill-opacity:1;fill-rule:nonzero;stroke:none"
         id="path348" /><path
         d="m 617.328,393.141 c -1.805,1.093 -5.426,2.207 -5.601,4.75 -0.582,3.027 2.902,5.652 5.671,4.375 0.582,-0.551 1.227,-1.235 1.18,-2.098 v -5.051 c 0,-0.844 -0.488,-1.613 -1.25,-1.976"
         style="fill:#e0ab8b;fill-opacity:1;fill-rule:nonzero;stroke:none"
         id="path350" /><path
         d="m 562.461,393.141 c 1.805,1.093 5.43,2.207 5.605,4.75 0.579,3.027 -2.902,5.652 -5.675,4.375 -0.582,-0.551 -1.223,-1.235 -1.18,-2.098 v -5.051 c 0,-0.844 0.488,-1.613 1.25,-1.976"
         style="fill:#e0ab8b;fill-opacity:1;fill-rule:nonzero;stroke:none"
         id="path352" /><path
         d="m 629.535,327.141 c -13.476,-0.059 -25.121,9.066 -16.676,18.636 -3,13.219 -2.324,9.192 8.657,4.789 26.359,7.329 41.929,-20.996 8.019,-23.425"
         style="fill:#ffffff;fill-opacity:1;fill-rule:nonzero;stroke:none"
         id="path354" /><path
         d="m 621.91,339.211 c -0.012,2.293 -3.5,2.293 -3.508,0 0.012,-2.289 3.496,-2.289 3.508,0"
         style="fill:#dcecfd;fill-opacity:1;fill-rule:nonzero;stroke:none"
         id="path356" /><path
         d="m 632.121,339.211 c -0.012,2.293 -3.5,2.293 -3.508,0 0.012,-2.289 3.496,-2.289 3.508,0"
         style="fill:#dcecfd;fill-opacity:1;fill-rule:nonzero;stroke:none"
         id="path358" /><path
         d="m 642.332,339.211 c -0.012,2.293 -3.5,2.293 -3.508,0 0.012,-2.289 3.496,-2.289 3.508,0"
         style="fill:#dcecfd;fill-opacity:1;fill-rule:nonzero;stroke:none"
         id="path360" /><path
         d="m 656.5,404.52 h 0.957 v 23.238 H 656.5 Z"
         style="fill:#152e60;fill-opacity:1;fill-rule:nonzero;stroke:none"
         id="path362" /><path
         d="m 657.457,404.52 h 0.957 v 23.238 h -0.957 z"
         style="fill:#324d90;fill-opacity:1;fill-rule:nonzero;stroke:none"
         id="path364" /><path
         d="m 655.543,404.52 h 0.957 v 23.238 h -0.957 z"
         style="fill:#324d90;fill-opacity:1;fill-rule:nonzero;stroke:none"
         id="path366" /><path
         d="m 655.543,427.758 1.273,5.402 1.594,-5.402 h -2.867"
         style="fill:#ffffff;fill-opacity:1;fill-rule:nonzero;stroke:none"
         id="path368" /></g><g
       id="g370"
       transform="matrix(0.35277776,0,0,0.35277778,-12.699999,-12.7)"><g
         id="g372"
         clip-path="url(#clipPath376)"><g
           id="g378"
           clip-path="url(#clipPath382)"><path
             d="m 655.93,430.988 h 1.699 v 2.172 h -1.699 z"
             style="fill:#152e60;fill-opacity:1;fill-rule:nonzero;stroke:none"
             id="path384" /></g></g></g><g
       id="g386"
       transform="matrix(0.35277776,0,0,0.35277778,-12.699999,-12.7)"><path
         d="m 655.543,401.426 h 2.867 v 3.094 h -2.867 z"
         style="fill:#fdc4b6;fill-opacity:1;fill-rule:nonzero;stroke:none"
         id="path388" /><path
         d="m 655.543,403.215 h 2.867 v 0.688 h -2.867 z"
         style="fill:#ff7f50;fill-opacity:1;fill-rule:nonzero;stroke:none"
         id="path390" /><path
         d="m 655.543,402.043 h 2.867 v 0.688 h -2.867 z"
         style="fill:#ff7f50;fill-opacity:1;fill-rule:nonzero;stroke:none"
         id="path392" /><path
         d="m 658.41,401.102 v 0.324 h -2.867 c -0.113,-0.891 0.492,-1.766 1.434,-1.758 0.793,0 1.433,0.641 1.433,1.434"
         style="fill:#ffffff;fill-opacity:1;fill-rule:nonzero;stroke:none"
         id="path394" /><path
         d="m 665.605,405.008 -5.757,22.515 -0.926,-0.238 5.758,-22.512 0.925,0.235"
         style="fill:#fdc4b6;fill-opacity:1;fill-rule:nonzero;stroke:none"
         id="path396" /><path
         d="m 666.531,405.246 -5.758,22.512 -0.925,-0.235 5.757,-22.515 0.926,0.238"
         style="fill:#ff7f50;fill-opacity:1;fill-rule:nonzero;stroke:none"
         id="path398" /><path
         d="m 664.68,404.773 -5.758,22.512 -0.926,-0.238 5.754,-22.512 0.93,0.238"
         style="fill:#ff7f50;fill-opacity:1;fill-rule:nonzero;stroke:none"
         id="path400" /><path
         d="m 657.996,427.047 -0.105,5.551 2.882,-4.84 -2.777,-0.711"
         style="fill:#ffffff;fill-opacity:1;fill-rule:nonzero;stroke:none"
         id="path402" /></g><g
       id="g404"
       transform="matrix(0.35277776,0,0,0.35277778,-12.699999,-12.7)"><g
         id="g406"
         clip-path="url(#clipPath410)"><g
           id="g412"
           clip-path="url(#clipPath416)"><path
             d="m 659.219,430.695 -0.594,2.309 -1.645,-0.422 0.59,-2.309 1.649,0.422"
             style="fill:#152e60;fill-opacity:1;fill-rule:nonzero;stroke:none"
             id="path418" /></g></g></g><g
       id="g420"
       transform="matrix(0.35277776,0,0,0.35277778,-12.699999,-12.7)"><path
         d="m 667.297,402.246 -0.766,3 -2.781,-0.711 0.77,-2.996 2.777,0.707"
         style="fill:#324d90;fill-opacity:1;fill-rule:nonzero;stroke:none"
         id="path422" /><path
         d="m 666.855,403.977 -0.171,0.668 -2.778,-0.707 0.168,-0.668 2.781,0.707"
         style="fill:#152e60;fill-opacity:1;fill-rule:nonzero;stroke:none"
         id="path424" /><path
         d="m 667.145,402.844 -0.172,0.668 -2.778,-0.707 0.172,-0.672 2.778,0.711"
         style="fill:#152e60;fill-opacity:1;fill-rule:nonzero;stroke:none"
         id="path426" /><path
         d="m 667.375,401.934 -0.078,0.312 -2.777,-0.707 c 0.238,-2.082 3.273,-1.668 2.855,0.395"
         style="fill:#ffffff;fill-opacity:1;fill-rule:nonzero;stroke:none"
         id="path428" /><path
         d="m 662.234,444.48 c -26.476,0.071 -18.019,3.25 -19.41,-28.792 h 23.086 v 25.124 c 0,2.024 -1.644,3.668 -3.676,3.668"
         style="fill:#ffffff;fill-opacity:1;fill-rule:nonzero;stroke:none"
         id="path430" /><path
         d="m 644.875,392.414 h 7.629 v 23.273 h -7.629 z"
         style="fill:#bedbfa;fill-opacity:1;fill-rule:nonzero;stroke:none"
         id="path432" /><path
         d="m 644.875,395.469 h 2.898 v 1.102 h -2.898 z"
         style="fill:#dcecfd;fill-opacity:1;fill-rule:nonzero;stroke:none"
         id="path434" /><path
         d="m 644.875,397.984 h 2.898 v 1.098 h -2.898 z"
         style="fill:#dcecfd;fill-opacity:1;fill-rule:nonzero;stroke:none"
         id="path436" /><path
         d="m 644.875,400.492 h 2.898 v 1.102 h -2.898 z"
         style="fill:#dcecfd;fill-opacity:1;fill-rule:nonzero;stroke:none"
         id="path438" /><path
         d="m 644.875,403.008 h 2.898 v 1.102 h -2.898 z"
         style="fill:#dcecfd;fill-opacity:1;fill-rule:nonzero;stroke:none"
         id="path440" /><path
         d="m 644.875,405.523 h 2.898 v 1.098 h -2.898 z"
         style="fill:#dcecfd;fill-opacity:1;fill-rule:nonzero;stroke:none"
         id="path442" /><path
         d="m 644.875,408.031 h 2.898 v 1.102 h -2.898 z"
         style="fill:#dcecfd;fill-opacity:1;fill-rule:nonzero;stroke:none"
         id="path444" /><path
         d="m 644.875,410.547 h 2.898 v 1.098 h -2.898 z"
         style="fill:#dcecfd;fill-opacity:1;fill-rule:nonzero;stroke:none"
         id="path446" /><path
         d="m 644.875,413.055 h 2.898 v 1.102 h -2.898 z"
         style="fill:#dcecfd;fill-opacity:1;fill-rule:nonzero;stroke:none"
         id="path448" /><path
         d="m 651.285,393.711 h 1.219 v 21.977 h -1.219 z"
         style="fill:#ffffff;fill-opacity:1;fill-rule:nonzero;stroke:none"
         id="path450" /><path
         d="m 642.824,419.703 h 23.086 v 2.77 h -23.086 z"
         style="fill:#bedbfa;fill-opacity:1;fill-rule:nonzero;stroke:none"
         id="path452" /><path
         d="m 642.824,424.73 h 23.086 v 2.77 h -23.086 z"
         style="fill:#bedbfa;fill-opacity:1;fill-rule:nonzero;stroke:none"
         id="path454" /><path
         d="m 429.215,344.504 c 0,0 17.969,39.48 21.887,68.055 h 4.05 c 0,0 -8.32,-38.297 -25.937,-68.055"
         style="fill:#ffffff;fill-opacity:1;fill-rule:nonzero;stroke:none"
         id="path456" /><path
         d="m 431.668,349.594 c 0,0 -4.578,-3.172 0,-10.668 6.098,-18.684 -33.711,-7.344 -21.23,23.75 l 7.628,-7.11 c -9.25,14.516 -4.05,18.45 1.778,31.114 l 5.976,-5.586 c 0,0 -4.195,7.363 -4.07,8.254 0.129,0.89 9.027,12.828 9.027,12.828 0,0 18.813,-26.418 19.067,-27.817 0.254,-1.394 -10.551,-10.793 -10.551,-10.793 l 12.586,8.508 c 1.504,-6.191 9.301,-29.136 -6.992,-31.242 0,0 5.722,0.383 8.898,2.285 0,0 -1.144,-11.812 -10.297,-10.793 -9.152,1.016 -7.625,6.602 -7.879,10.285 -0.257,3.684 -3.941,6.985 -3.941,6.985"
         style="fill:#bedbfa;fill-opacity:1;fill-rule:nonzero;stroke:none"
         id="path458" /><path
         d="m 477.703,337.723 c 0,0 -2.508,-2.282 -1.117,-5.289 6.254,-17.063 -20.395,-18.274 -19.121,11.308 l 7.078,-2.34 c 0,0 -5.91,4.844 -6.074,7.852 -0.168,3.008 8.75,21.894 8.75,21.894 l 3.961,-4.734 c 0,0 -2.231,6.125 -2.008,7.016 0.223,0.894 7.527,9.25 7.527,9.25 0,0 8.754,-12.2 8.809,-13.149 0.054,-0.945 -5.242,-7.406 -5.242,-7.406 l 7.472,5.121 c 0,0 9.59,-12.644 9.535,-14.871 -0.054,-2.227 -8.753,-8.969 -8.753,-8.969 l 9.589,5.125 c 0,0 0.891,-8.801 -0.89,-12.867 l -8.309,-3.344 7.86,1.84 c 0,0 -3.399,-12.035 -7.247,-12.703 -3.847,-0.668 -10.316,7.41 -10.203,11.031 0.11,3.621 -1.617,5.235 -1.617,5.235"
         style="fill:#bedbfa;fill-opacity:1;fill-rule:nonzero;stroke:none"
         id="path460" /><path
         d="m 451.102,412.559 c 0,0 3.73,-44.887 26.601,-74.836 0,0 -20.594,42.183 -22.551,74.836 h -4.05"
         style="fill:#ffffff;fill-opacity:1;fill-rule:nonzero;stroke:none"
         id="path462" /><path
         d="m 453.18,412.559 h -20.641 l 6.031,28.992 c 0.317,1.519 1.653,2.605 3.207,2.605 h 22.805 c 1.551,0 2.891,-1.086 3.207,-2.605 l 6.031,-28.992 h -20.64"
         style="fill:#bedbfa;fill-opacity:1;fill-rule:nonzero;stroke:none"
         id="path464" /><path
         d="m 679.266,444.793 h -2.625 l 8.191,-13.637 h 2.621 l -8.187,13.637"
         style="fill:#ff7f50;fill-opacity:1;fill-rule:nonzero;stroke:none"
         id="path466" /><path
         d="m 703.301,444.793 h 2.625 l -8.192,-13.637 h -2.621 l 8.188,13.637"
         style="fill:#ff7f50;fill-opacity:1;fill-rule:nonzero;stroke:none"
         id="path468" /><path
         d="m 684.605,400.414 -1.968,1.027 -4.899,-9.359 c -0.285,-0.543 -0.074,-1.215 0.469,-1.5 0.543,-0.285 1.215,-0.074 1.5,0.469 l 4.898,9.363"
         style="fill:#324d90;fill-opacity:1;fill-rule:nonzero;stroke:none"
         id="path470" /><path
         d="m 686.492,394.145 c -3.48,-6.575 -13.504,-1.336 -10.086,5.265 l 10.086,-5.265"
         style="fill:#ff7f50;fill-opacity:1;fill-rule:nonzero;stroke:none"
         id="path472" /></g><g
       id="g474"
       transform="matrix(0.35277776,0,0,0.35277778,-12.699999,-12.7)"><g
         id="g476"
         clip-path="url(#clipPath480)"><g
           id="g482"
           clip-path="url(#clipPath486)"><path
             d="m 683.633,390.824 c 0,0 -3.016,5.766 -8.125,8.364 -3.867,-6.399 3.762,-9.516 8.125,-8.364"
             style="fill:#fdc4b6;fill-opacity:1;fill-rule:nonzero;stroke:none"
             id="path488" /></g></g></g><g
       id="g490"
       transform="matrix(0.35277776,0,0,0.35277778,-12.699999,-12.7)"><path
         d="m 702.289,400.664 -2.125,-0.664 3.16,-10.078 c 0.188,-0.586 0.809,-0.914 1.395,-0.731 0.586,0.184 0.914,0.809 0.73,1.395 l -3.16,10.078"
         style="fill:#324d90;fill-opacity:1;fill-rule:nonzero;stroke:none"
         id="path492" /><path
         d="m 708.055,397.562 c 2.195,-7.105 -8.602,-10.48 -10.856,-3.398 l 10.856,3.398"
         style="fill:#ff7f50;fill-opacity:1;fill-rule:nonzero;stroke:none"
         id="path494" /></g><g
       id="g496"
       transform="matrix(0.35277776,0,0,0.35277778,-12.699999,-12.7)"><g
         id="g498"
         clip-path="url(#clipPath502)"><g
           id="g504"
           clip-path="url(#clipPath508)"><path
             d="m 708.387,393.199 c 0,0 -6.215,1.946 -11.668,0.172 1.797,-7.254 9.394,-4.07 11.668,-0.172"
             style="fill:#fdc4b6;fill-opacity:1;fill-rule:nonzero;stroke:none"
             id="path510" /></g></g></g><g
       id="g512"
       transform="matrix(0.35277776,0,0,0.35277778,-12.699999,-12.7)"><path
         d="m 693.48,435.875 c -25.914,-0.465 -25.91,-38.937 0,-39.398 25.915,0.464 25.911,38.937 0,39.398"
         style="fill:#ff7f50;fill-opacity:1;fill-rule:nonzero;stroke:none"
         id="path514" /><path
         d="m 691.062,435.875 c -25.914,-0.465 -25.91,-38.937 0,-39.398 25.911,0.464 25.907,38.937 0,39.398"
         style="fill:#fdc4b6;fill-opacity:1;fill-rule:nonzero;stroke:none"
         id="path516" /><path
         d="m 707.309,416.176 c -0.368,21.336 -32.133,21.332 -32.497,0 0.368,-21.336 32.133,-21.332 32.497,0"
         style="fill:#ffffff;fill-opacity:1;fill-rule:nonzero;stroke:none"
         id="path518" /></g><g
       id="g520"
       transform="matrix(0.35277776,0,0,0.35277778,-12.699999,-12.7)"><g
         id="g522"
         clip-path="url(#clipPath526)"><g
           id="g528"
           clip-path="url(#clipPath532)"><path
             d="m 691.062,432.176 c -5.761,0 -11.523,-2.742 -14.386,-8.227 2.367,0.91 4.832,1.34 7.254,1.34 10.91,-0.004 20.957,-8.73 17.511,-21.68 3.407,2.653 5.77,6.84 5.868,12.567 -0.184,10.668 -8.219,16 -16.247,16"
             style="fill:#e8f2fe;fill-opacity:1;fill-rule:nonzero;stroke:none"
             id="path534" /></g></g></g><g
       id="g536"
       transform="matrix(0.35277776,0,0,0.35277778,-12.699999,-12.7)"><path
         d="m 691.668,405.184 -1.324,7.652 1.324,2.719 1.32,-2.719 -1.32,-7.652"
         style="fill:#324d90;fill-opacity:1;fill-rule:nonzero;stroke:none"
         id="path538" /><path
         d="m 698.91,419.059 -4.098,-3.012 -2.109,0.601 1.149,1.864 5.058,0.547"
         style="fill:#324d90;fill-opacity:1;fill-rule:nonzero;stroke:none"
         id="path540" /><path
         d="m 693.82,416.047 c -0.047,2.828 -4.261,2.828 -4.308,0 0.047,-2.828 4.261,-2.828 4.308,0"
         style="fill:#152e60;fill-opacity:1;fill-rule:nonzero;stroke:none"
         id="path542" /><path
         d="m 691.902,403.184 c -0.214,-0.012 -0.429,-0.02 -0.644,-0.016 0.004,-0.027 -0.051,-1.242 -0.051,-1.27 0.254,-0.007 0.508,0.004 0.758,0.016 z m -3.535,0.355 -0.277,-1.246 c 0.234,-0.051 0.476,-0.098 0.715,-0.141 l 0.222,1.254 c -0.222,0.039 -0.445,0.082 -0.66,0.133 z m 6.383,0.106 c -0.211,-0.059 -0.43,-0.114 -0.645,-0.165 l 0.278,-1.238 c 0.238,0.051 0.476,0.113 0.711,0.18 z m -9.129,0.808 -0.531,-1.156 c 0.219,-0.102 0.445,-0.199 0.672,-0.289 l 0.472,1.183 c -0.207,0.082 -0.414,0.168 -0.613,0.262 z m 11.805,0.281 c -0.196,-0.109 -0.399,-0.211 -0.598,-0.304 l 0.555,-1.149 c 0.219,0.106 0.437,0.219 0.652,0.336 z m -14.262,1.215 -0.785,-1 c 0.191,-0.152 0.391,-0.301 0.59,-0.437 l 0.73,1.039 c -0.183,0.129 -0.363,0.261 -0.535,0.398 z m 16.625,0.442 c -0.168,-0.149 -0.34,-0.293 -0.512,-0.43 l 0.793,-0.996 c 0.188,0.152 0.379,0.312 0.559,0.473 z m -18.652,1.589 -1.004,-0.781 c 0.152,-0.191 0.308,-0.383 0.469,-0.566 l 0.957,0.836 c -0.145,0.168 -0.286,0.34 -0.422,0.511 z m 20.59,0.547 c -0.129,-0.179 -0.266,-0.359 -0.407,-0.531 l 0.996,-0.797 c 0.149,0.192 0.301,0.387 0.442,0.586 z m -22.082,1.914 -1.157,-0.531 c 0.102,-0.219 0.211,-0.441 0.321,-0.656 l 1.129,0.59 c -0.102,0.195 -0.204,0.398 -0.293,0.597 z m 23.496,0.598 c -0.086,-0.203 -0.18,-0.406 -0.278,-0.605 l 1.145,-0.555 c 0.105,0.219 0.207,0.441 0.304,0.664 z m -24.403,2.145 -1.246,-0.266 c 0.051,-0.238 0.11,-0.477 0.172,-0.711 l 1.231,0.328 c -0.059,0.211 -0.11,0.43 -0.157,0.649 z m 25.215,0.621 c -0.035,-0.219 -0.082,-0.442 -0.133,-0.657 l 1.242,-0.281 c 0.055,0.235 0.106,0.477 0.145,0.715 z m -25.515,2.257 h -1.274 c 0,-0.242 0.008,-0.488 0.016,-0.73 l 1.273,0.059 c -0.012,0.222 -0.015,0.449 -0.015,0.671 z m 26.964,0.719 -1.269,-0.066 c 0.012,-0.235 0.019,-0.469 0.015,-0.699 h 1.274 c 0,0.254 -0.004,0.511 -0.02,0.765 z m -27.902,2.426 c -0.051,-0.238 -0.098,-0.48 -0.137,-0.719 l 1.258,-0.207 c 0.035,0.219 0.078,0.442 0.125,0.657 z m 27.391,0.699 -1.227,-0.347 c 0.063,-0.211 0.117,-0.43 0.164,-0.645 l 1.242,0.281 c -0.054,0.239 -0.113,0.477 -0.179,0.711 z m -26.391,2.305 c -0.102,-0.223 -0.199,-0.445 -0.289,-0.672 l 1.18,-0.473 c 0.086,0.207 0.171,0.411 0.265,0.614 z m 25.188,0.629 -1.118,-0.613 c 0.11,-0.192 0.211,-0.395 0.305,-0.594 l 1.148,0.555 c -0.105,0.218 -0.218,0.437 -0.335,0.652 z m -23.532,2.082 c -0.152,-0.192 -0.301,-0.391 -0.441,-0.594 l 1.043,-0.726 c 0.129,0.179 0.262,0.359 0.398,0.535 z m 21.703,0.508 -0.949,-0.844 c 0.145,-0.164 0.289,-0.336 0.43,-0.508 l 0.992,0.789 c -0.148,0.192 -0.309,0.379 -0.473,0.563 z m -19.453,1.738 c -0.195,-0.152 -0.383,-0.309 -0.566,-0.469 l 0.836,-0.957 c 0.168,0.145 0.34,0.285 0.512,0.422 z m 17.102,0.383 -0.742,-1.031 c 0.179,-0.129 0.359,-0.266 0.531,-0.403 l 0.797,0.992 c -0.192,0.153 -0.391,0.301 -0.586,0.442 z m -14.387,1.261 c -0.223,-0.101 -0.441,-0.21 -0.66,-0.324 l 0.59,-1.125 c 0.195,0.102 0.398,0.199 0.597,0.293 z m 11.621,0.286 -0.492,-1.172 c 0.203,-0.086 0.406,-0.176 0.605,-0.274 l 0.555,1.145 c -0.219,0.105 -0.445,0.207 -0.668,0.301 z m -8.617,0.707 c -0.238,-0.051 -0.477,-0.11 -0.711,-0.172 l 0.332,-1.231 c 0.215,0.059 0.434,0.114 0.652,0.16 z m 5.574,0.183 -0.219,-1.254 c 0.219,-0.035 0.438,-0.078 0.653,-0.129 l 0.285,1.239 c -0.238,0.054 -0.477,0.105 -0.719,0.144 z m -2.433,0.211 c -0.25,-0.008 -0.5,-0.023 -0.746,-0.043 l 0.097,-1.269 c 0.219,0.019 0.445,0.031 0.668,0.039 -0.023,0.308 -0.023,0.961 -0.019,1.273"
         style="fill:#324d90;fill-opacity:1;fill-rule:nonzero;stroke:none"
         id="path544" /></g><g
       id="g546"
       transform="matrix(0.35277776,0,0,0.35277778,-12.699999,-12.7)"><g
         id="g548"
         clip-path="url(#clipPath552)"><path
           d="m 420.172,444.48 c 105.094,-0.734 212.734,-0.742 317.828,0 -105.094,0.743 -212.734,0.739 -317.828,0"
           style="fill:#152e60;fill-opacity:1;fill-rule:nonzero;stroke:none"
           id="path554" /></g></g></g></svg>
