<?xml version="1.0" encoding="UTF-8" standalone="no"?>
<!-- Created with Inkscape (http://www.inkscape.org/) -->

<svg
   width="288.81992mm"
   height="203.55829mm"
   viewBox="0 0 288.81991 203.55828"
   version="1.1"
   id="svg5"
   xml:space="preserve"
   xmlns="http://www.w3.org/2000/svg"
   xmlns:svg="http://www.w3.org/2000/svg"><defs
     id="defs2"><clipPath
       clipPathUnits="userSpaceOnUse"
       id="clipPath479"><path
         d="M 36,36 H 806 V 559.992 H 36 Z"
         id="path477" /></clipPath><clipPath
       clipPathUnits="userSpaceOnUse"
       id="clipPath511"><path
         d="m 53.461,333.547 h 139.945 v 3.395 H 53.461 Z"
         id="path509" /></clipPath><clipPath
       clipPathUnits="userSpaceOnUse"
       id="clipPath533"><path
         d="m 53.461,441.582 h 114.266 v 38.559 H 53.461 Z"
         id="path531" /></clipPath><clipPath
       clipPathUnits="userSpaceOnUse"
       id="clipPath539"><path
         d="m 57.824,441.582 h 105.535 c 2.411,0 4.368,1.957 4.368,4.363 v 29.828 c 0,2.411 -1.957,4.368 -4.368,4.368 H 57.824 c -2.41,0 -4.363,-1.957 -4.363,-4.368 v -29.828 c 0,-2.406 1.953,-4.363 4.363,-4.363 z"
         id="path537" /></clipPath><clipPath
       clipPathUnits="userSpaceOnUse"
       id="clipPath553"><path
         d="M 446,265.164 H 779 V 440 H 446 Z"
         id="path551" /></clipPath><clipPath
       clipPathUnits="userSpaceOnUse"
       id="clipPath645"><path
         d="m 602.805,401.039 h 48.078 v 25.57 h -48.078 z"
         id="path643" /></clipPath><clipPath
       clipPathUnits="userSpaceOnUse"
       id="clipPath651"><path
         d="m 652.953,379.945 c -2.316,-12.629 -12.555,-15.519 -23.906,-14.773 v -0.004 c -0.082,0 -0.246,0 -0.328,0 v 0.004 c -11.176,-0.801 -21.399,2.445 -23.582,14.773 l -4.731,40.981 c 26.434,7.633 30.942,7.179 57.282,0 l -4.735,-40.981"
         id="path649" /></clipPath><clipPath
       clipPathUnits="userSpaceOnUse"
       id="clipPath713"><path
         d="m 698.289,425.129 h 1.887 v 2.422 h -1.887 z"
         id="path711" /></clipPath><clipPath
       clipPathUnits="userSpaceOnUse"
       id="clipPath719"><path
         d="m 697.938,421.777 1.347,5.719 1.688,-5.719 h -3.035"
         id="path717" /></clipPath><clipPath
       clipPathUnits="userSpaceOnUse"
       id="clipPath747"><path
         d="m 700.309,424.32 h 1.617 V 427 h -1.617 z"
         id="path745" /></clipPath><clipPath
       clipPathUnits="userSpaceOnUse"
       id="clipPath753"><path
         d="m 700.535,421.027 -0.113,5.875 3.051,-5.121 -2.938,-0.754"
         id="path751" /></clipPath><clipPath
       clipPathUnits="userSpaceOnUse"
       id="clipPath801"><path
         d="M 435.992,318 H 486 v 77 h -50.008 z"
         id="path799" /></clipPath><clipPath
       clipPathUnits="userSpaceOnUse"
       id="clipPath827"><path
         d="m 719.164,383 h 8.621 v 8.617 h -8.621 z"
         id="path825" /></clipPath><clipPath
       clipPathUnits="userSpaceOnUse"
       id="clipPath833"><path
         d="m 730.684,386.203 c -3.68,-6.961 -14.286,-1.414 -10.668,5.574 l 10.668,-5.574"
         id="path831" /></clipPath><clipPath
       clipPathUnits="userSpaceOnUse"
       id="clipPath849"><path
         d="m 742,382.062 h 11.91 v 4.172 H 742 Z"
         id="path847" /></clipPath><clipPath
       clipPathUnits="userSpaceOnUse"
       id="clipPath855"><path
         d="m 753.508,389.82 c 2.32,-7.519 -9.106,-11.093 -11.492,-3.597 l 11.492,3.597"
         id="path853" /></clipPath><clipPath
       clipPathUnits="userSpaceOnUse"
       id="clipPath873"><path
         d="m 720.242,396.191 h 32.594 v 30.281 h -32.594 z"
         id="path871" /></clipPath><clipPath
       clipPathUnits="userSpaceOnUse"
       id="clipPath879"><path
         d="m 752.711,409.523 c -0.383,22.582 -34,22.579 -34.383,-0.003 0.387,-22.579 34.004,-22.579 34.383,0.003"
         id="path877" /></clipPath><clipPath
       clipPathUnits="userSpaceOnUse"
       id="clipPath899"><path
         d="m 448,438 h 337.191 v 2.129 H 448 Z"
         id="path897" /></clipPath></defs><rect
     style="fill:#ffffff;fill-opacity:1;stroke-width:0.0819292;stroke-opacity:0"
     id="rect977"
     width="288.81992"
     height="203.55827"
     x="0"
     y="0" /><g
     id="g1794"
     transform="translate(-302.92941,-12.700005)"><g
       id="g473"
       transform="matrix(0.35277778,0,0,0.35277774,298.81992,6.1383329e-6)"><g
         id="g475"
         clip-path="url(#clipPath479)"><path
           d="M 36,36 H 806 V 559.992 H 36 Z"
           style="fill:#ffffff;fill-opacity:1;fill-rule:nonzero;stroke:none"
           id="path481" /><g
           id="g483"><path
             d="m 57.828,66.551 8.656,-3.77 c 0.289,-0.125 0.614,-0.125 0.907,-0.004 0.289,0.121 0.519,0.352 0.632,0.645 l 5.973,14.43 c 0.258,0.609 -0.019,1.312 -0.625,1.582 l -8.652,3.769 c -0.289,0.125 -0.617,0.125 -0.907,0.004 -0.289,-0.117 -0.519,-0.352 -0.636,-0.645 L 57.207,68.133 c -0.258,-0.61 0.02,-1.313 0.621,-1.582 z"
             style="fill:none;stroke:#ea7070;stroke-width:2.425;stroke-linecap:round;stroke-linejoin:round;stroke-miterlimit:4;stroke-dasharray:none;stroke-opacity:1"
             id="path485" /></g><g
           id="g487"><path
             d="m 71.648,62.676 h 1.211 c 0.672,0 1.215,0.543 1.215,1.211 v 4.246"
             style="fill:none;stroke:#ea7070;stroke-width:2.425;stroke-linecap:round;stroke-linejoin:round;stroke-miterlimit:4;stroke-dasharray:none;stroke-opacity:1"
             id="path489" /></g><g
           id="g491"><path
             d="m 77.711,65.102 c 0.32,0.132 0.629,0.261 0.93,0.378 0.617,0.262 0.906,0.977 0.644,1.59 l -2.789,6.516"
             style="fill:none;stroke:#ea7070;stroke-width:2.425;stroke-linecap:round;stroke-linejoin:round;stroke-miterlimit:4;stroke-dasharray:none;stroke-opacity:1"
             id="path493" /></g><path
           d="m 86.945,80.863 -0.007,-16.91 h 11.394 v 2.945 l -7.82,-0.007 v 4.039 h 7.234 v 2.945 l -7.234,-0.008 v 4.047 l 7.851,0.008 v 2.941 z m 18.86,0.203 c -0.961,0 -1.836,-0.25 -2.614,-0.746 -0.777,-0.496 -1.394,-1.23 -1.847,-2.203 -0.457,-0.972 -0.684,-2.164 -0.684,-3.582 0,-1.453 0.235,-2.66 0.703,-3.625 0.469,-0.969 1.09,-1.691 1.871,-2.172 0.778,-0.484 1.633,-0.722 2.563,-0.722 0.711,0 1.305,0.117 1.781,0.359 0.473,0.238 0.86,0.535 1.156,0.891 0.293,0.355 0.516,0.703 0.672,1.043 h 0.106 v -6.356 h 3.508 v 16.91 h -3.465 v -2.031 h -0.149 c -0.168,0.352 -0.398,0.699 -0.699,1.043 -0.301,0.344 -0.687,0.629 -1.164,0.855 -0.477,0.223 -1.055,0.336 -1.738,0.336 m 1.117,-2.796 c 0.562,0 1.043,-0.157 1.437,-0.469 0.395,-0.309 0.696,-0.746 0.911,-1.305 0.21,-0.562 0.316,-1.223 0.316,-1.976 0,-0.754 -0.106,-1.407 -0.313,-1.965 -0.211,-0.555 -0.511,-0.985 -0.91,-1.289 -0.394,-0.301 -0.879,-0.454 -1.441,-0.454 -0.582,0 -1.067,0.157 -1.465,0.473 -0.395,0.313 -0.695,0.746 -0.898,1.305 -0.204,0.555 -0.305,1.199 -0.305,1.93 0,0.738 0.101,1.39 0.308,1.953 0.208,0.566 0.508,1.004 0.903,1.32 0.39,0.316 0.875,0.477 1.457,0.477 z m 17.137,-2.809 V 68.18 h 3.515 v 12.683 h -3.375 v -2.304 h -0.133 c -0.285,0.742 -0.761,1.339 -1.425,1.789 -0.664,0.453 -1.469,0.679 -2.422,0.679 -0.848,0 -1.594,-0.195 -2.239,-0.578 -0.644,-0.387 -1.144,-0.933 -1.507,-1.644 -0.36,-0.711 -0.543,-1.559 -0.547,-2.551 V 68.18 h 3.515 v 7.445 c 0.008,0.75 0.207,1.344 0.602,1.777 0.398,0.434 0.93,0.653 1.594,0.653 0.425,0 0.82,-0.098 1.191,-0.293 0.367,-0.196 0.668,-0.485 0.895,-0.871 0.23,-0.387 0.339,-0.864 0.336,-1.43 z m 21.328,-5.59 h -3.614 c -0.066,-0.465 -0.203,-0.883 -0.406,-1.25 -0.203,-0.367 -0.465,-0.68 -0.785,-0.937 -0.32,-0.258 -0.687,-0.457 -1.102,-0.594 -0.418,-0.137 -0.867,-0.207 -1.351,-0.207 -0.875,0 -1.637,0.219 -2.289,0.648 -0.649,0.434 -1.149,1.059 -1.508,1.883 -0.359,0.824 -0.539,1.82 -0.539,2.992 0,1.207 0.184,2.219 0.543,3.039 0.359,0.821 0.867,1.438 1.516,1.856 0.648,0.418 1.398,0.629 2.253,0.629 0.477,0 0.922,-0.063 1.333,-0.188 0.41,-0.129 0.773,-0.316 1.093,-0.558 0.321,-0.246 0.586,-0.543 0.797,-0.895 0.211,-0.355 0.36,-0.754 0.445,-1.207 l 3.614,0.016 c -0.094,0.777 -0.328,1.523 -0.699,2.242 -0.372,0.719 -0.868,1.359 -1.493,1.926 -0.625,0.562 -1.367,1.007 -2.23,1.336 -0.86,0.328 -1.832,0.492 -2.918,0.492 -1.508,0 -2.856,-0.344 -4.039,-1.024 -1.188,-0.683 -2.125,-1.672 -2.809,-2.965 -0.687,-1.293 -1.027,-2.859 -1.027,-4.699 0,-1.844 0.344,-3.41 1.039,-4.707 0.695,-1.293 1.633,-2.277 2.824,-2.957 1.188,-0.68 2.527,-1.019 4.012,-1.019 0.98,0 1.891,0.136 2.73,0.41 0.836,0.277 1.582,0.676 2.231,1.203 0.648,0.523 1.18,1.168 1.59,1.926 0.41,0.761 0.675,1.629 0.789,2.609 z m 6.14,11.231 c -0.812,0 -1.531,-0.141 -2.164,-0.426 -0.633,-0.285 -1.133,-0.707 -1.5,-1.266 -0.367,-0.555 -0.547,-1.254 -0.547,-2.09 0,-0.703 0.129,-1.297 0.387,-1.777 0.258,-0.477 0.613,-0.863 1.055,-1.156 0.449,-0.289 0.957,-0.512 1.523,-0.66 0.571,-0.149 1.172,-0.25 1.797,-0.313 0.738,-0.078 1.332,-0.148 1.785,-0.219 0.453,-0.07 0.778,-0.172 0.981,-0.308 0.203,-0.137 0.308,-0.344 0.308,-0.614 v -0.046 c 0,-0.524 -0.168,-0.93 -0.492,-1.215 -0.328,-0.285 -0.793,-0.43 -1.39,-0.43 -0.637,0 -1.137,0.141 -1.512,0.418 -0.375,0.277 -0.621,0.625 -0.742,1.043 l -3.254,-0.262 c 0.164,-0.773 0.488,-1.441 0.972,-2.004 0.485,-0.562 1.11,-1 1.879,-1.304 0.77,-0.305 1.657,-0.457 2.672,-0.457 0.703,0 1.379,0.082 2.027,0.246 0.645,0.164 1.223,0.422 1.727,0.769 0.5,0.344 0.899,0.789 1.191,1.332 0.293,0.543 0.438,1.192 0.438,1.946 v 8.554 h -3.336 v -1.758 h -0.102 c -0.199,0.395 -0.472,0.743 -0.816,1.043 -0.34,0.297 -0.75,0.532 -1.23,0.7 -0.477,0.168 -1.032,0.254 -1.657,0.254 m 1.004,-2.426 c 0.52,0 0.977,-0.106 1.371,-0.313 0.399,-0.207 0.711,-0.484 0.934,-0.836 0.226,-0.355 0.34,-0.754 0.34,-1.199 v -1.344 c -0.11,0.071 -0.262,0.133 -0.449,0.192 -0.192,0.058 -0.407,0.113 -0.641,0.16 -0.238,0.043 -0.473,0.086 -0.711,0.121 -0.238,0.035 -0.449,0.07 -0.645,0.094 -0.41,0.062 -0.773,0.16 -1.078,0.289 -0.308,0.133 -0.55,0.312 -0.722,0.535 -0.168,0.223 -0.254,0.496 -0.254,0.828 0,0.481 0.176,0.844 0.523,1.094 0.348,0.25 0.793,0.379 1.332,0.379 z m 8.887,2.187 V 68.18 h 3.41 v 2.211 h 0.133 c 0.23,-0.786 0.617,-1.383 1.164,-1.786 0.543,-0.406 1.172,-0.609 1.883,-0.609 0.176,0 0.363,0.012 0.566,0.035 0.207,0.024 0.383,0.055 0.539,0.09 v 3.121 c -0.168,-0.051 -0.394,-0.094 -0.683,-0.129 -0.297,-0.043 -0.563,-0.058 -0.805,-0.058 -0.516,0 -0.977,0.109 -1.383,0.332 -0.402,0.222 -0.722,0.531 -0.957,0.929 -0.234,0.395 -0.351,0.856 -0.351,1.372 v 7.175 z m 13.594,0.203 c -0.961,0 -1.836,-0.25 -2.614,-0.746 -0.777,-0.496 -1.394,-1.23 -1.847,-2.203 -0.457,-0.972 -0.684,-2.164 -0.684,-3.582 0,-1.453 0.235,-2.66 0.703,-3.625 0.469,-0.969 1.09,-1.691 1.871,-2.172 0.778,-0.484 1.633,-0.722 2.563,-0.722 0.711,0 1.305,0.117 1.781,0.359 0.473,0.238 0.86,0.535 1.156,0.891 0.293,0.355 0.516,0.703 0.672,1.043 h 0.106 v -6.356 h 3.508 v 16.91 h -3.465 v -2.031 h -0.149 c -0.168,0.352 -0.398,0.699 -0.699,1.043 -0.301,0.344 -0.687,0.629 -1.164,0.855 -0.477,0.223 -1.055,0.336 -1.738,0.336 m 1.117,-2.796 c 0.562,0 1.043,-0.157 1.437,-0.469 0.395,-0.309 0.696,-0.746 0.911,-1.305 0.211,-0.562 0.316,-1.223 0.316,-1.976 0,-0.754 -0.105,-1.407 -0.313,-1.965 -0.21,-0.555 -0.511,-0.985 -0.91,-1.289 -0.394,-0.301 -0.879,-0.454 -1.441,-0.454 -0.582,0 -1.067,0.157 -1.465,0.473 -0.394,0.313 -0.695,0.746 -0.898,1.305 -0.204,0.555 -0.305,1.199 -0.305,1.93 0,0.738 0.101,1.39 0.309,1.953 0.207,0.566 0.507,1.004 0.902,1.32 0.39,0.316 0.875,0.477 1.457,0.477 z"
           style="fill:#21242c;fill-opacity:1;fill-rule:nonzero;stroke:none"
           id="path495" /><path
           d="m 690.168,53.461 h 94.004 c 2.41,0 4.367,1.953 4.367,4.363 v 29.102 c 0,2.41 -1.957,4.363 -4.367,4.363 h -94.004 c -2.41,0 -4.363,-1.953 -4.363,-4.363 V 57.824 c 0,-2.41 1.953,-4.363 4.363,-4.363 z m 94.004,1.453 h -94.004 c -1.606,0 -2.91,1.305 -2.91,2.91 v 29.102 c 0,1.605 1.304,2.91 2.91,2.91 h 94.004 c 1.605,0 2.91,-1.305 2.91,-2.91 V 57.824 c 0,-1.605 -1.305,-2.91 -2.91,-2.91 z"
           style="fill:#21242c;fill-opacity:1;fill-rule:nonzero;stroke:none"
           id="path497" /><path
           d="m 701.418,68.039 v 8.457 h -1.781 l -0.008,-8.457 z m 3.199,4.789 v 3.668 h -1.758 v -6.344 h 1.676 v 1.121 h 0.074 c 0.141,-0.371 0.379,-0.66 0.707,-0.878 0.332,-0.215 0.731,-0.325 1.204,-0.325 0.437,0 0.824,0.098 1.148,0.289 0.328,0.196 0.582,0.469 0.766,0.825 0.179,0.355 0.269,0.781 0.269,1.273 v 4.039 h -1.758 V 72.77 c 0.004,-0.387 -0.093,-0.692 -0.297,-0.911 -0.199,-0.218 -0.476,-0.328 -0.828,-0.328 -0.238,0 -0.445,0.051 -0.625,0.153 -0.183,0.101 -0.32,0.25 -0.422,0.445 -0.101,0.191 -0.152,0.43 -0.156,0.699 z m 5.481,3.668 v -6.344 h 1.757 v 6.344 h -1.757 m 0.886,-7.16 c -0.261,0 -0.488,-0.086 -0.675,-0.262 -0.184,-0.176 -0.278,-0.386 -0.278,-0.633 0,-0.242 0.094,-0.449 0.278,-0.621 0.187,-0.175 0.414,-0.265 0.671,-0.265 0.262,0 0.485,0.09 0.672,0.265 0.188,0.172 0.282,0.379 0.282,0.621 0,0.247 -0.094,0.457 -0.282,0.633 -0.187,0.176 -0.406,0.262 -0.668,0.262 z m 5.145,7.281 c -0.652,0 -1.207,-0.137 -1.676,-0.414 -0.465,-0.277 -0.824,-0.66 -1.074,-1.156 -0.25,-0.488 -0.371,-1.059 -0.371,-1.699 0,-0.649 0.125,-1.219 0.375,-1.711 0.254,-0.492 0.613,-0.875 1.078,-1.153 0.461,-0.277 1.016,-0.414 1.66,-0.414 0.551,0 1.035,0.102 1.453,0.301 0.414,0.203 0.742,0.484 0.985,0.848 0.242,0.363 0.375,0.789 0.402,1.281 h -1.66 c -0.047,-0.316 -0.172,-0.574 -0.371,-0.77 -0.2,-0.191 -0.461,-0.289 -0.782,-0.289 -0.273,0 -0.507,0.075 -0.71,0.219 -0.204,0.149 -0.364,0.363 -0.473,0.645 -0.113,0.281 -0.172,0.617 -0.172,1.019 0,0.403 0.059,0.75 0.168,1.031 0.113,0.286 0.269,0.5 0.473,0.649 0.203,0.148 0.441,0.223 0.714,0.223 0.2,0 0.383,-0.043 0.543,-0.125 0.161,-0.082 0.293,-0.204 0.403,-0.36 0.105,-0.16 0.172,-0.351 0.207,-0.57 h 1.66 c -0.031,0.484 -0.16,0.91 -0.399,1.277 -0.234,0.367 -0.554,0.653 -0.968,0.86 -0.414,0.207 -0.903,0.308 -1.465,0.308 z m 3.973,-0.121 v -6.344 h 1.757 v 6.344 h -1.757 m 0.886,-7.16 c -0.261,0 -0.488,-0.086 -0.676,-0.262 -0.183,-0.176 -0.277,-0.386 -0.277,-0.633 0,-0.242 0.094,-0.449 0.277,-0.621 0.188,-0.175 0.415,-0.265 0.672,-0.265 0.262,0 0.485,0.09 0.672,0.265 0.188,0.172 0.282,0.379 0.282,0.621 0,0.247 -0.094,0.457 -0.282,0.633 -0.187,0.176 -0.406,0.262 -0.668,0.262 z m 4.086,7.277 c -0.402,0 -0.765,-0.07 -1.082,-0.211 -0.316,-0.144 -0.566,-0.351 -0.75,-0.632 -0.183,-0.282 -0.273,-0.629 -0.273,-1.047 0,-0.352 0.066,-0.649 0.195,-0.887 0.129,-0.242 0.305,-0.43 0.527,-0.578 0.223,-0.149 0.477,-0.258 0.762,-0.332 0.285,-0.071 0.586,-0.125 0.899,-0.156 0.367,-0.036 0.664,-0.075 0.89,-0.11 0.227,-0.035 0.391,-0.086 0.492,-0.156 0.102,-0.066 0.153,-0.168 0.153,-0.305 v -0.023 c 0,-0.262 -0.082,-0.465 -0.246,-0.606 -0.164,-0.144 -0.395,-0.215 -0.696,-0.215 -0.316,0 -0.566,0.067 -0.754,0.207 -0.187,0.141 -0.312,0.313 -0.375,0.524 l -1.625,-0.133 c 0.082,-0.387 0.247,-0.719 0.489,-1 0.242,-0.281 0.554,-0.5 0.937,-0.652 0.383,-0.156 0.832,-0.231 1.336,-0.231 0.352,0 0.692,0.043 1.016,0.125 0.32,0.082 0.609,0.211 0.863,0.383 0.25,0.172 0.449,0.399 0.594,0.668 0.144,0.27 0.219,0.594 0.219,0.973 v 4.277 h -1.668 v -0.883 h -0.051 c -0.102,0.199 -0.238,0.375 -0.406,0.524 -0.172,0.152 -0.375,0.265 -0.618,0.351 -0.238,0.082 -0.515,0.125 -0.828,0.125 m 0.504,-1.211 c 0.258,0 0.488,-0.054 0.684,-0.156 0.199,-0.105 0.355,-0.242 0.468,-0.418 0.114,-0.18 0.168,-0.379 0.168,-0.601 v -0.672 c -0.054,0.035 -0.128,0.07 -0.222,0.097 -0.098,0.028 -0.203,0.055 -0.321,0.078 -0.121,0.024 -0.238,0.043 -0.355,0.063 -0.117,0.016 -0.227,0.035 -0.324,0.047 -0.203,0.031 -0.387,0.078 -0.539,0.144 -0.153,0.067 -0.274,0.153 -0.36,0.266 -0.086,0.113 -0.129,0.25 -0.129,0.414 0,0.242 0.09,0.422 0.262,0.551 0.176,0.125 0.399,0.187 0.668,0.187 z m 4.442,1.094 v -6.344 h 1.707 v 1.106 h 0.066 c 0.113,-0.395 0.309,-0.692 0.582,-0.891 0.273,-0.203 0.582,-0.305 0.941,-0.305 0.086,0 0.18,0.008 0.286,0.016 0.097,0.012 0.191,0.027 0.265,0.047 v 1.559 c -0.082,-0.024 -0.195,-0.047 -0.344,-0.067 -0.144,-0.019 -0.277,-0.027 -0.398,-0.027 -0.258,0 -0.488,0.055 -0.691,0.168 -0.204,0.109 -0.364,0.265 -0.481,0.465 -0.117,0.199 -0.176,0.425 -0.176,0.683 v 3.59 z m 12.078,-6.023 c -0.036,-0.336 -0.176,-0.594 -0.426,-0.778 -0.25,-0.183 -0.59,-0.277 -1.02,-0.277 -0.293,0 -0.539,0.043 -0.738,0.121 -0.203,0.082 -0.355,0.195 -0.461,0.34 -0.105,0.141 -0.16,0.305 -0.16,0.484 -0.004,0.153 0.027,0.285 0.098,0.395 0.07,0.113 0.168,0.211 0.293,0.293 0.121,0.082 0.265,0.152 0.425,0.211 0.164,0.058 0.336,0.109 0.524,0.148 l 0.758,0.184 c 0.367,0.082 0.707,0.191 1.015,0.332 0.309,0.136 0.574,0.304 0.801,0.508 0.227,0.199 0.402,0.433 0.527,0.707 0.125,0.273 0.188,0.586 0.192,0.937 -0.004,0.52 -0.133,0.965 -0.395,1.344 -0.261,0.379 -0.636,0.672 -1.125,0.883 -0.484,0.203 -1.074,0.308 -1.761,0.308 -0.684,0 -1.278,-0.105 -1.782,-0.312 -0.508,-0.211 -0.898,-0.52 -1.179,-0.934 -0.286,-0.41 -0.43,-0.918 -0.446,-1.527 h 1.731 c 0.019,0.285 0.101,0.519 0.242,0.707 0.148,0.191 0.34,0.332 0.586,0.426 0.242,0.093 0.519,0.14 0.824,0.14 0.305,0 0.57,-0.043 0.793,-0.133 0.223,-0.085 0.398,-0.207 0.52,-0.363 0.125,-0.16 0.187,-0.34 0.187,-0.543 0,-0.187 -0.055,-0.347 -0.168,-0.48 -0.109,-0.125 -0.273,-0.239 -0.484,-0.328 -0.215,-0.09 -0.477,-0.172 -0.785,-0.246 l -0.918,-0.231 c -0.715,-0.176 -1.278,-0.445 -1.692,-0.816 -0.41,-0.368 -0.617,-0.868 -0.613,-1.489 -0.004,-0.511 0.133,-0.961 0.41,-1.343 0.277,-0.383 0.66,-0.68 1.145,-0.895 0.484,-0.215 1.031,-0.32 1.648,-0.32 0.629,0 1.176,0.105 1.645,0.32 0.468,0.215 0.836,0.512 1.097,0.895 0.262,0.382 0.395,0.828 0.403,1.332 z m 5.894,6.144 c -0.652,0 -1.215,-0.133 -1.683,-0.398 -0.469,-0.266 -0.829,-0.641 -1.082,-1.129 -0.254,-0.488 -0.379,-1.07 -0.379,-1.738 0,-0.653 0.125,-1.223 0.379,-1.715 0.253,-0.492 0.609,-0.879 1.07,-1.153 0.461,-0.277 1.004,-0.414 1.625,-0.414 0.418,0 0.808,0.067 1.172,0.2 0.359,0.132 0.676,0.335 0.945,0.601 0.273,0.266 0.484,0.602 0.637,1.008 0.148,0.402 0.226,0.871 0.226,1.41 v 0.484 h -5.351 v -1.089 h 3.695 c 0,-0.254 -0.055,-0.477 -0.164,-0.672 -0.109,-0.196 -0.262,-0.352 -0.457,-0.461 -0.191,-0.113 -0.418,-0.168 -0.676,-0.168 -0.265,0 -0.5,0.062 -0.707,0.183 -0.203,0.125 -0.363,0.286 -0.48,0.493 -0.117,0.203 -0.176,0.433 -0.18,0.683 v 1.035 c 0,0.313 0.059,0.586 0.18,0.813 0.117,0.23 0.281,0.406 0.496,0.527 0.215,0.125 0.469,0.188 0.762,0.188 0.195,0 0.375,-0.028 0.539,-0.082 0.16,-0.055 0.3,-0.137 0.414,-0.246 0.117,-0.114 0.207,-0.247 0.265,-0.407 l 1.629,0.11 c -0.086,0.39 -0.254,0.73 -0.508,1.019 -0.254,0.289 -0.582,0.516 -0.984,0.676 -0.398,0.164 -0.859,0.242 -1.383,0.242 z m 9.348,-4.656 -1.613,0.101 c -0.024,-0.14 -0.082,-0.265 -0.176,-0.374 -0.09,-0.114 -0.207,-0.204 -0.356,-0.27 -0.148,-0.066 -0.324,-0.102 -0.527,-0.102 -0.273,0 -0.504,0.059 -0.691,0.172 -0.188,0.114 -0.278,0.266 -0.278,0.457 0,0.153 0.059,0.278 0.18,0.383 0.121,0.106 0.328,0.188 0.625,0.254 l 1.148,0.23 c 0.614,0.126 1.075,0.329 1.379,0.61 0.301,0.281 0.453,0.652 0.453,1.105 0,0.418 -0.125,0.782 -0.367,1.098 -0.242,0.313 -0.574,0.559 -0.996,0.73 -0.426,0.176 -0.91,0.262 -1.461,0.262 -0.84,0 -1.508,-0.176 -2.004,-0.527 -0.5,-0.348 -0.789,-0.828 -0.871,-1.434 l 1.727,-0.09 c 0.05,0.254 0.179,0.45 0.379,0.586 0.203,0.133 0.461,0.2 0.773,0.2 0.309,0 0.559,-0.063 0.746,-0.18 0.188,-0.121 0.281,-0.274 0.285,-0.465 -0.004,-0.16 -0.07,-0.293 -0.203,-0.395 -0.133,-0.105 -0.332,-0.179 -0.609,-0.238 l -1.098,-0.219 c -0.621,-0.125 -1.082,-0.335 -1.383,-0.644 -0.3,-0.305 -0.449,-0.695 -0.449,-1.168 0,-0.406 0.109,-0.758 0.332,-1.051 0.223,-0.297 0.531,-0.523 0.938,-0.68 0.402,-0.164 0.875,-0.242 1.414,-0.242 0.804,0 1.433,0.172 1.894,0.508 0.461,0.34 0.731,0.801 0.809,1.383 z m 1.258,4.535 v -6.344 h 1.757 v 6.344 h -1.757 m 0.886,-7.16 c -0.261,0 -0.488,-0.086 -0.675,-0.262 -0.184,-0.176 -0.278,-0.386 -0.278,-0.633 0,-0.242 0.094,-0.449 0.278,-0.621 0.187,-0.175 0.414,-0.265 0.671,-0.265 0.262,0 0.485,0.09 0.672,0.265 0.188,0.172 0.282,0.379 0.282,0.621 0,0.247 -0.094,0.457 -0.282,0.633 -0.187,0.176 -0.406,0.262 -0.668,0.262 z m 5.145,7.281 c -0.645,0 -1.199,-0.137 -1.664,-0.41 -0.465,-0.273 -0.824,-0.656 -1.078,-1.148 -0.254,-0.493 -0.379,-1.059 -0.379,-1.711 0,-0.657 0.125,-1.227 0.379,-1.719 0.254,-0.492 0.613,-0.875 1.078,-1.149 0.465,-0.273 1.019,-0.41 1.664,-0.41 0.641,0 1.195,0.137 1.66,0.41 0.465,0.274 0.828,0.657 1.078,1.149 0.254,0.492 0.383,1.062 0.383,1.719 0,0.652 -0.129,1.218 -0.383,1.711 -0.25,0.492 -0.613,0.875 -1.078,1.148 -0.465,0.273 -1.019,0.41 -1.66,0.41 m 0.004,-1.363 c 0.297,0 0.539,-0.082 0.734,-0.25 0.195,-0.164 0.344,-0.391 0.442,-0.684 0.101,-0.285 0.152,-0.613 0.152,-0.984 0,-0.367 -0.051,-0.699 -0.152,-0.988 -0.098,-0.286 -0.247,-0.516 -0.442,-0.684 -0.195,-0.168 -0.437,-0.254 -0.734,-0.254 -0.293,0 -0.539,0.086 -0.738,0.254 -0.2,0.168 -0.352,0.398 -0.45,0.684 -0.101,0.289 -0.152,0.621 -0.152,0.988 0,0.371 0.051,0.699 0.152,0.984 0.098,0.293 0.25,0.52 0.45,0.684 0.199,0.168 0.445,0.25 0.738,0.25 m -0.637,-5.918 0.875,-1.879 h 1.625 l -1.258,1.879 z m 6.664,3.492 v 3.668 h -1.758 v -6.344 h 1.676 v 1.121 h 0.074 c 0.141,-0.371 0.379,-0.66 0.707,-0.878 0.332,-0.215 0.731,-0.325 1.203,-0.325 0.438,0 0.825,0.098 1.149,0.289 0.328,0.196 0.582,0.469 0.766,0.825 0.179,0.355 0.269,0.781 0.269,1.273 v 4.039 h -1.758 V 72.77 c 0.004,-0.387 -0.093,-0.692 -0.297,-0.911 -0.199,-0.218 -0.476,-0.328 -0.828,-0.328 -0.238,0 -0.445,0.051 -0.625,0.153 -0.183,0.101 -0.32,0.25 -0.422,0.445 -0.101,0.191 -0.152,0.43 -0.156,0.699 z"
           style="fill:#21242c;fill-opacity:1;fill-rule:nonzero;stroke:none"
           id="path499" /><path
           d="m 55.297,254.008 v -21.137 h 8.336 c 1.605,0 2.969,0.305 4.101,0.914 1.125,0.606 1.989,1.449 2.582,2.527 0.598,1.075 0.895,2.317 0.895,3.719 0,1.403 -0.305,2.645 -0.91,3.715 -0.606,1.074 -1.481,1.91 -2.625,2.512 -1.145,0.597 -2.531,0.894 -4.156,0.894 h -5.313 v -3.582 h 4.59 c 0.863,0 1.57,-0.148 2.133,-0.449 0.562,-0.297 0.98,-0.715 1.258,-1.246 0.281,-0.535 0.417,-1.148 0.417,-1.844 0,-0.699 -0.136,-1.316 -0.417,-1.84 -0.278,-0.527 -0.7,-0.937 -1.262,-1.23 -0.567,-0.293 -1.281,-0.438 -2.149,-0.438 h -3.011 v 17.485 z m 25.664,0.308 c -1.602,0 -2.984,-0.343 -4.152,-1.027 -1.168,-0.684 -2.067,-1.641 -2.7,-2.867 -0.632,-1.231 -0.949,-2.656 -0.949,-4.281 0,-1.637 0.317,-3.071 0.949,-4.297 0.633,-1.227 1.532,-2.188 2.7,-2.871 1.168,-0.684 2.55,-1.024 4.152,-1.024 1.605,0 2.988,0.34 4.156,1.024 1.164,0.683 2.067,1.644 2.699,2.871 0.633,1.226 0.946,2.66 0.946,4.297 0,1.625 -0.313,3.05 -0.946,4.281 -0.632,1.226 -1.535,2.183 -2.699,2.867 -1.168,0.684 -2.551,1.027 -4.156,1.027 m 0.023,-3.406 c 0.727,0 1.336,-0.207 1.825,-0.625 0.488,-0.414 0.859,-0.984 1.109,-1.707 0.25,-0.723 0.379,-1.543 0.379,-2.469 0,-0.921 -0.129,-1.742 -0.379,-2.464 -0.25,-0.723 -0.621,-1.293 -1.109,-1.715 -0.489,-0.418 -1.098,-0.629 -1.825,-0.629 -0.738,0 -1.355,0.211 -1.855,0.629 -0.496,0.422 -0.871,0.992 -1.125,1.715 -0.25,0.722 -0.375,1.543 -0.375,2.464 0,0.926 0.125,1.746 0.375,2.469 0.254,0.723 0.629,1.293 1.125,1.707 0.5,0.418 1.117,0.625 1.855,0.625 z m 19.106,-12.758 v 3.305 h -9.547 v -3.305 h 9.547 m -7.379,-3.797 h 4.398 v 14.778 c 0,0.406 0.063,0.722 0.184,0.945 0.125,0.227 0.301,0.379 0.523,0.473 0.223,0.086 0.481,0.133 0.778,0.133 0.207,0 0.414,-0.02 0.621,-0.059 0.203,-0.035 0.363,-0.066 0.473,-0.086 l 0.691,3.27 c -0.219,0.07 -0.531,0.148 -0.93,0.246 -0.398,0.09 -0.883,0.148 -1.453,0.168 -1.062,0.039 -1.988,-0.098 -2.781,-0.422 -0.797,-0.324 -1.414,-0.824 -1.856,-1.508 -0.437,-0.68 -0.656,-1.543 -0.648,-2.582 z m 17.316,19.961 c -1.629,0 -3.031,-0.332 -4.203,-0.996 -1.176,-0.664 -2.078,-1.609 -2.711,-2.828 -0.633,-1.222 -0.949,-2.668 -0.949,-4.34 0,-1.632 0.316,-3.062 0.949,-4.293 0.633,-1.234 1.524,-2.191 2.676,-2.879 1.152,-0.687 2.508,-1.031 4.063,-1.031 1.046,0 2.023,0.164 2.925,0.496 0.907,0.336 1.696,0.836 2.375,1.504 0.676,0.668 1.207,1.504 1.582,2.512 0.379,1.012 0.571,2.187 0.571,3.535 v 1.207 h -13.387 v -2.723 h 9.246 c 0,-0.632 -0.137,-1.191 -0.414,-1.683 -0.273,-0.488 -0.652,-0.871 -1.137,-1.149 -0.488,-0.281 -1.051,-0.418 -1.687,-0.418 -0.668,0 -1.258,0.153 -1.774,0.458 -0.507,0.308 -0.91,0.714 -1.199,1.23 -0.289,0.512 -0.437,1.082 -0.445,1.707 v 2.59 c 0,0.785 0.148,1.465 0.437,2.031 0.293,0.574 0.707,1.012 1.246,1.324 0.536,0.309 1.172,0.465 1.911,0.465 0.488,0 0.933,-0.07 1.339,-0.207 0.407,-0.14 0.754,-0.344 1.043,-0.621 0.289,-0.273 0.508,-0.613 0.661,-1.012 l 4.066,0.27 c -0.207,0.976 -0.629,1.828 -1.266,2.555 -0.636,0.726 -1.453,1.289 -2.457,1.691 -1,0.402 -2.152,0.605 -3.461,0.605 z m 14.559,-9.476 v 9.168 h -4.395 v -15.856 h 4.188 v 2.797 h 0.187 c 0.348,-0.922 0.938,-1.652 1.766,-2.191 0.824,-0.543 1.824,-0.809 3.004,-0.809 1.098,0 2.059,0.239 2.879,0.723 0.816,0.48 1.453,1.168 1.906,2.058 0.457,0.891 0.684,1.954 0.684,3.18 v 10.098 h -4.399 v -9.313 c 0.008,-0.968 -0.238,-1.726 -0.742,-2.273 -0.504,-0.547 -1.191,-0.82 -2.074,-0.82 -0.594,0 -1.113,0.125 -1.563,0.378 -0.449,0.258 -0.804,0.625 -1.054,1.114 -0.25,0.484 -0.379,1.066 -0.387,1.746 z m 20.855,9.476 c -1.621,0 -3.019,-0.347 -4.183,-1.039 -1.164,-0.691 -2.063,-1.652 -2.684,-2.882 -0.621,-1.231 -0.933,-2.649 -0.933,-4.254 0,-1.625 0.312,-3.047 0.945,-4.278 0.629,-1.226 1.523,-2.187 2.687,-2.879 1.165,-0.691 2.547,-1.035 4.149,-1.035 1.383,0 2.594,0.25 3.633,0.75 1.039,0.504 1.859,1.207 2.465,2.117 0.605,0.907 0.941,1.977 1.003,3.2 h -4.148 c -0.117,-0.789 -0.426,-1.43 -0.926,-1.914 -0.5,-0.485 -1.152,-0.727 -1.957,-0.727 -0.68,0 -1.273,0.184 -1.777,0.551 -0.508,0.367 -0.899,0.902 -1.184,1.605 -0.281,0.703 -0.422,1.551 -0.422,2.547 0,1.012 0.141,1.875 0.418,2.582 0.278,0.707 0.672,1.25 1.18,1.621 0.508,0.371 1.105,0.555 1.785,0.555 0.504,0 0.957,-0.102 1.36,-0.309 0.402,-0.207 0.734,-0.507 1,-0.902 0.265,-0.398 0.437,-0.871 0.523,-1.43 h 4.148 c -0.07,1.211 -0.398,2.278 -0.984,3.196 -0.59,0.918 -1.398,1.636 -2.434,2.152 -1.031,0.516 -2.253,0.773 -3.664,0.773 z m 9.938,-0.308 v -15.856 h 4.394 v 15.856 h -4.394 m 2.219,-17.899 c -0.66,0 -1.223,-0.218 -1.688,-0.656 -0.465,-0.433 -0.699,-0.961 -0.699,-1.57 0,-0.606 0.234,-1.129 0.699,-1.567 0.465,-0.437 1.024,-0.652 1.676,-0.652 0.652,0 1.211,0.215 1.676,0.652 0.465,0.438 0.699,0.961 0.699,1.567 0,0.609 -0.234,1.137 -0.699,1.57 -0.465,0.438 -1.02,0.656 -1.664,0.656 z m 10.218,18.196 c -1.011,0 -1.914,-0.176 -2.703,-0.532 -0.793,-0.355 -1.418,-0.878 -1.875,-1.578 -0.457,-0.699 -0.683,-1.57 -0.683,-2.617 0,-0.879 0.16,-1.621 0.484,-2.219 0.32,-0.597 0.762,-1.082 1.32,-1.445 0.559,-0.363 1.192,-0.641 1.903,-0.824 0.715,-0.188 1.461,-0.317 2.246,-0.395 0.922,-0.093 1.664,-0.187 2.23,-0.273 0.563,-0.086 0.973,-0.215 1.227,-0.387 0.254,-0.172 0.383,-0.426 0.383,-0.762 v -0.062 c 0,-0.652 -0.207,-1.16 -0.618,-1.516 -0.406,-0.359 -0.984,-0.539 -1.738,-0.539 -0.789,0 -1.422,0.176 -1.887,0.524 -0.468,0.343 -0.777,0.781 -0.929,1.304 l -4.067,-0.332 c 0.207,-0.961 0.614,-1.797 1.219,-2.504 0.606,-0.703 1.387,-1.246 2.348,-1.628 0.961,-0.379 2.07,-0.571 3.34,-0.571 0.879,0 1.722,0.102 2.531,0.309 0.808,0.203 1.527,0.527 2.156,0.961 0.633,0.433 1.129,0.984 1.492,1.664 0.364,0.679 0.547,1.488 0.547,2.429 v 10.696 h -4.168 v -2.199 h -0.125 c -0.254,0.496 -0.594,0.929 -1.023,1.304 -0.426,0.375 -0.938,0.668 -1.535,0.879 -0.598,0.207 -1.289,0.313 -2.075,0.313 m 1.258,-3.032 c 0.649,0 1.219,-0.132 1.715,-0.39 0.496,-0.258 0.883,-0.606 1.168,-1.047 0.281,-0.438 0.422,-0.938 0.422,-1.496 v -1.684 c -0.137,0.09 -0.328,0.172 -0.563,0.246 -0.238,0.071 -0.504,0.137 -0.8,0.196 -0.297,0.058 -0.59,0.109 -0.887,0.152 -0.297,0.047 -0.567,0.086 -0.805,0.121 -0.515,0.074 -0.969,0.195 -1.355,0.359 -0.383,0.165 -0.684,0.387 -0.895,0.665 -0.215,0.281 -0.32,0.625 -0.32,1.039 0,0.597 0.219,1.054 0.656,1.367 0.434,0.312 0.988,0.472 1.664,0.472 z m 25.09,3.043 c -1.629,0 -3.031,-0.332 -4.203,-0.996 -1.176,-0.664 -2.078,-1.609 -2.711,-2.828 -0.633,-1.222 -0.949,-2.668 -0.949,-4.34 0,-1.632 0.316,-3.062 0.949,-4.293 0.633,-1.234 1.523,-2.191 2.676,-2.879 1.152,-0.687 2.508,-1.031 4.062,-1.031 1.047,0 2.024,0.164 2.926,0.496 0.906,0.336 1.695,0.836 2.375,1.504 0.676,0.668 1.207,1.504 1.582,2.512 0.379,1.012 0.57,2.187 0.57,3.535 v 1.207 h -13.386 v -2.723 h 9.246 c 0,-0.632 -0.137,-1.191 -0.414,-1.683 -0.274,-0.488 -0.653,-0.871 -1.137,-1.149 -0.488,-0.281 -1.051,-0.418 -1.688,-0.418 -0.667,0 -1.257,0.153 -1.773,0.458 -0.508,0.308 -0.91,0.714 -1.199,1.23 -0.289,0.512 -0.438,1.082 -0.445,1.707 v 2.59 c 0,0.785 0.148,1.465 0.437,2.031 0.293,0.574 0.707,1.012 1.246,1.324 0.535,0.309 1.172,0.465 1.91,0.465 0.489,0 0.934,-0.07 1.34,-0.207 0.406,-0.14 0.754,-0.344 1.043,-0.621 0.289,-0.273 0.508,-0.613 0.66,-1.012 l 4.067,0.27 c -0.207,0.976 -0.629,1.828 -1.266,2.555 -0.637,0.726 -1.453,1.289 -2.457,1.691 -1,0.402 -2.152,0.605 -3.461,0.605 z m 14.559,-21.445 v 21.137 h -4.387 l -0.008,-21.137 z m 14.797,21.434 c -1.012,0 -1.915,-0.176 -2.704,-0.532 -0.793,-0.355 -1.418,-0.878 -1.875,-1.578 -0.457,-0.699 -0.683,-1.57 -0.683,-2.617 0,-0.879 0.16,-1.621 0.484,-2.219 0.32,-0.597 0.762,-1.082 1.32,-1.445 0.559,-0.363 1.192,-0.641 1.903,-0.824 0.715,-0.188 1.461,-0.317 2.246,-0.395 0.922,-0.093 1.664,-0.187 2.23,-0.273 0.563,-0.086 0.973,-0.215 1.227,-0.387 0.254,-0.172 0.383,-0.426 0.383,-0.762 v -0.062 c 0,-0.652 -0.207,-1.16 -0.617,-1.516 -0.407,-0.359 -0.985,-0.539 -1.739,-0.539 -0.789,0 -1.422,0.176 -1.886,0.524 -0.469,0.343 -0.778,0.781 -0.93,1.304 l -4.067,-0.332 c 0.208,-0.961 0.614,-1.797 1.219,-2.504 0.606,-0.703 1.387,-1.246 2.348,-1.628 0.961,-0.379 2.07,-0.571 3.34,-0.571 0.879,0 1.722,0.102 2.531,0.309 0.809,0.203 1.527,0.527 2.156,0.961 0.633,0.433 1.129,0.984 1.492,1.664 0.364,0.679 0.547,1.488 0.547,2.429 v 10.696 h -4.168 v -2.199 h -0.125 c -0.254,0.496 -0.593,0.929 -1.023,1.304 -0.426,0.375 -0.938,0.668 -1.535,0.879 -0.598,0.207 -1.289,0.313 -2.074,0.313 m 1.257,-3.032 c 0.649,0 1.219,-0.132 1.715,-0.39 0.496,-0.258 0.883,-0.606 1.168,-1.047 0.281,-0.438 0.422,-0.938 0.422,-1.496 v -1.684 c -0.137,0.09 -0.328,0.172 -0.562,0.246 -0.239,0.071 -0.504,0.137 -0.801,0.196 -0.297,0.058 -0.59,0.109 -0.887,0.152 -0.297,0.047 -0.566,0.086 -0.805,0.121 -0.515,0.074 -0.968,0.195 -1.355,0.359 -0.383,0.165 -0.684,0.387 -0.895,0.665 -0.215,0.281 -0.32,0.625 -0.32,1.039 0,0.597 0.219,1.054 0.656,1.367 0.434,0.312 0.989,0.472 1.664,0.472 z m 11.11,8.676 v -21.797 h 4.332 v 2.664 h 0.199 c 0.191,-0.425 0.473,-0.859 0.84,-1.304 0.367,-0.446 0.847,-0.817 1.445,-1.117 0.594,-0.297 1.336,-0.446 2.223,-0.446 1.156,0 2.222,0.301 3.199,0.903 0.977,0.601 1.758,1.503 2.344,2.714 0.586,1.207 0.875,2.719 0.875,4.536 0,1.765 -0.282,3.257 -0.852,4.472 -0.566,1.215 -1.336,2.133 -2.312,2.758 -0.969,0.621 -2.059,0.93 -3.266,0.93 -0.852,0 -1.578,-0.137 -2.172,-0.422 -0.594,-0.281 -1.082,-0.637 -1.461,-1.067 -0.375,-0.429 -0.668,-0.867 -0.863,-1.308 h -0.137 v 8.484 h -4.394 m 4.301,-13.871 c 0,0.945 0.132,1.766 0.394,2.469 0.262,0.699 0.637,1.246 1.133,1.637 0.496,0.386 1.097,0.582 1.808,0.582 0.715,0 1.321,-0.2 1.817,-0.594 0.492,-0.395 0.871,-0.945 1.129,-1.652 0.258,-0.704 0.386,-1.52 0.386,-2.442 0,-0.914 -0.128,-1.719 -0.378,-2.414 -0.258,-0.695 -0.633,-1.238 -1.129,-1.629 -0.496,-0.394 -1.106,-0.59 -1.825,-0.59 -0.718,0 -1.32,0.192 -1.812,0.571 -0.492,0.375 -0.867,0.91 -1.129,1.609 -0.262,0.695 -0.394,1.512 -0.394,2.453 z m 14.105,7.93 v -15.856 h 4.262 v 2.77 h 0.164 c 0.289,-0.984 0.773,-1.731 1.453,-2.234 0.683,-0.508 1.469,-0.762 2.355,-0.762 0.219,0 0.457,0.015 0.711,0.043 0.258,0.027 0.481,0.062 0.672,0.113 v 3.898 c -0.207,-0.058 -0.492,-0.113 -0.855,-0.164 -0.367,-0.046 -0.7,-0.07 -1.004,-0.07 -0.645,0 -1.219,0.141 -1.727,0.418 -0.508,0.277 -0.906,0.664 -1.195,1.16 -0.293,0.496 -0.441,1.067 -0.441,1.715 v 8.969 z m 18.379,0.308 c -1.629,0 -3.031,-0.332 -4.203,-0.996 -1.176,-0.664 -2.078,-1.609 -2.711,-2.828 -0.633,-1.222 -0.949,-2.668 -0.949,-4.34 0,-1.632 0.316,-3.062 0.949,-4.293 0.633,-1.234 1.523,-2.191 2.676,-2.879 1.152,-0.687 2.507,-1.031 4.062,-1.031 1.047,0 2.024,0.164 2.926,0.496 0.906,0.336 1.695,0.836 2.375,1.504 0.676,0.668 1.207,1.504 1.582,2.512 0.379,1.012 0.57,2.187 0.57,3.535 v 1.207 h -13.387 v -2.723 h 9.247 c 0,-0.632 -0.137,-1.191 -0.414,-1.683 -0.274,-0.488 -0.653,-0.871 -1.137,-1.149 -0.488,-0.281 -1.051,-0.418 -1.688,-0.418 -0.668,0 -1.258,0.153 -1.773,0.458 -0.508,0.308 -0.91,0.714 -1.199,1.23 -0.289,0.512 -0.438,1.082 -0.446,1.707 v 2.59 c 0,0.785 0.149,1.465 0.438,2.031 0.293,0.574 0.707,1.012 1.246,1.324 0.535,0.309 1.172,0.465 1.91,0.465 0.488,0 0.934,-0.07 1.34,-0.207 0.406,-0.14 0.754,-0.344 1.043,-0.621 0.289,-0.273 0.508,-0.613 0.66,-1.012 l 4.066,0.27 c -0.207,0.976 -0.628,1.828 -1.265,2.555 -0.637,0.726 -1.453,1.289 -2.457,1.691 -1,0.402 -2.153,0.605 -3.461,0.605 z m 14.558,-9.476 v 9.168 h -4.394 v -15.856 h 4.187 v 2.797 h 0.188 c 0.348,-0.922 0.937,-1.652 1.766,-2.191 0.824,-0.543 1.824,-0.809 3.003,-0.809 1.098,0 2.059,0.239 2.879,0.723 0.817,0.48 1.453,1.168 1.907,2.058 0.457,0.891 0.683,1.954 0.683,3.18 v 10.098 h -4.398 v -9.313 c 0.008,-0.968 -0.239,-1.726 -0.742,-2.273 -0.504,-0.547 -1.192,-0.82 -2.075,-0.82 -0.593,0 -1.113,0.125 -1.562,0.378 -0.449,0.258 -0.805,0.625 -1.055,1.114 -0.25,0.484 -0.379,1.066 -0.387,1.746 z m 19.536,9.422 c -1.204,0 -2.293,-0.309 -3.266,-0.93 -0.973,-0.625 -1.746,-1.543 -2.312,-2.758 -0.567,-1.215 -0.852,-2.707 -0.852,-4.472 0,-1.817 0.293,-3.329 0.879,-4.536 0.582,-1.211 1.363,-2.113 2.336,-2.714 0.972,-0.602 2.043,-0.903 3.203,-0.903 0.891,0 1.629,0.149 2.226,0.446 0.594,0.3 1.079,0.671 1.446,1.117 0.367,0.445 0.648,0.879 0.84,1.304 h 0.136 v -7.945 h 4.383 v 21.137 h -4.332 v -2.543 h -0.187 c -0.207,0.441 -0.496,0.879 -0.871,1.308 -0.375,0.43 -0.864,0.786 -1.457,1.067 -0.594,0.285 -1.321,0.422 -2.172,0.422 m 1.394,-3.496 c 0.707,0 1.309,-0.196 1.801,-0.582 0.492,-0.391 0.871,-0.938 1.137,-1.637 0.261,-0.703 0.394,-1.524 0.394,-2.469 0,-0.941 -0.129,-1.758 -0.394,-2.453 -0.258,-0.699 -0.637,-1.234 -1.133,-1.609 -0.496,-0.379 -1.098,-0.571 -1.805,-0.571 -0.722,0 -1.332,0.196 -1.828,0.59 -0.496,0.391 -0.871,0.934 -1.125,1.629 -0.254,0.695 -0.383,1.5 -0.383,2.414 0,0.922 0.129,1.738 0.391,2.442 0.254,0.707 0.629,1.257 1.121,1.652 0.492,0.394 1.102,0.594 1.824,0.594 z m 11.258,3.242 v -15.856 h 4.394 v 15.856 h -4.394 m 2.219,-17.899 c -0.66,0 -1.223,-0.218 -1.688,-0.656 -0.465,-0.433 -0.699,-0.961 -0.699,-1.57 0,-0.606 0.234,-1.129 0.699,-1.567 0.465,-0.437 1.024,-0.652 1.676,-0.652 0.652,0 1.211,0.215 1.676,0.652 0.465,0.438 0.699,0.961 0.699,1.567 0,0.609 -0.234,1.137 -0.699,1.57 -0.465,0.438 -1.02,0.656 -1.664,0.656 z m 5.617,17.899 v -2.621 l 7.758,-9.61 0.011,-0.117 h -7.503 v -3.508 h 12.789 v 2.86 l -7.286,9.371 -0.011,0.113 h 7.562 l -0.008,3.512 z m 21.238,0.297 c -1.012,0 -1.914,-0.176 -2.703,-0.532 -0.793,-0.355 -1.418,-0.878 -1.875,-1.578 -0.457,-0.699 -0.684,-1.57 -0.684,-2.617 0,-0.879 0.161,-1.621 0.485,-2.219 0.32,-0.597 0.762,-1.082 1.32,-1.445 0.559,-0.363 1.192,-0.641 1.903,-0.824 0.714,-0.188 1.46,-0.317 2.246,-0.395 0.921,-0.093 1.664,-0.187 2.23,-0.273 0.563,-0.086 0.973,-0.215 1.227,-0.387 0.254,-0.172 0.382,-0.426 0.382,-0.762 v -0.062 c 0,-0.652 -0.207,-1.16 -0.617,-1.516 -0.406,-0.359 -0.984,-0.539 -1.738,-0.539 -0.789,0 -1.422,0.176 -1.887,0.524 -0.469,0.343 -0.777,0.781 -0.929,1.304 l -4.067,-0.332 c 0.207,-0.961 0.613,-1.797 1.219,-2.504 0.605,-0.703 1.387,-1.246 2.348,-1.628 0.96,-0.379 2.07,-0.571 3.339,-0.571 0.879,0 1.723,0.102 2.532,0.309 0.808,0.203 1.527,0.527 2.156,0.961 0.633,0.433 1.129,0.984 1.492,1.664 0.363,0.679 0.547,1.488 0.547,2.429 v 10.696 h -4.168 v -2.199 h -0.125 c -0.254,0.496 -0.594,0.929 -1.023,1.304 -0.426,0.375 -0.938,0.668 -1.536,0.879 -0.597,0.207 -1.289,0.313 -2.074,0.313 m 1.258,-3.032 c 0.648,0 1.219,-0.132 1.715,-0.39 0.496,-0.258 0.883,-0.606 1.168,-1.047 0.281,-0.438 0.422,-0.938 0.422,-1.496 v -1.684 c -0.137,0.09 -0.328,0.172 -0.563,0.246 -0.238,0.071 -0.504,0.137 -0.801,0.196 -0.296,0.058 -0.589,0.109 -0.886,0.152 -0.297,0.047 -0.567,0.086 -0.805,0.121 -0.516,0.074 -0.969,0.195 -1.355,0.359 -0.383,0.165 -0.684,0.387 -0.895,0.665 -0.215,0.281 -0.32,0.625 -0.32,1.039 0,0.597 0.218,1.054 0.656,1.367 0.434,0.312 0.988,0.472 1.664,0.472 z m 11.109,-13.121 h 4.395 v 16.641 c 0,1.223 -0.238,2.211 -0.723,2.969 -0.48,0.758 -1.172,1.312 -2.07,1.664 -0.895,0.347 -1.965,0.523 -3.215,0.523 -0.148,0 -0.297,0 -0.437,-0.004 -0.141,-0.004 -0.289,-0.007 -0.45,-0.015 v -3.438 c 0.118,0.008 0.219,0.012 0.305,0.016 0.086,0.004 0.18,0.004 0.274,0.004 0.71,0 1.207,-0.149 1.492,-0.446 0.285,-0.3 0.429,-0.75 0.429,-1.347 v -16.567 m 2.188,-2.043 c -0.649,0 -1.207,-0.218 -1.672,-0.656 -0.469,-0.433 -0.703,-0.961 -0.703,-1.57 0,-0.606 0.234,-1.129 0.703,-1.567 0.465,-0.437 1.023,-0.652 1.672,-0.652 0.66,0 1.223,0.215 1.687,0.652 0.465,0.438 0.696,0.961 0.696,1.567 0,0.609 -0.231,1.137 -0.696,1.57 -0.464,0.438 -1.027,0.656 -1.687,0.656 z M 376,254.316 c -1.629,0 -3.031,-0.332 -4.203,-0.996 -1.176,-0.664 -2.078,-1.609 -2.711,-2.828 -0.633,-1.222 -0.949,-2.668 -0.949,-4.34 0,-1.632 0.316,-3.062 0.949,-4.293 0.633,-1.234 1.523,-2.191 2.676,-2.879 1.152,-0.687 2.508,-1.031 4.062,-1.031 1.047,0 2.024,0.164 2.926,0.496 0.906,0.336 1.695,0.836 2.375,1.504 0.676,0.668 1.207,1.504 1.582,2.512 0.379,1.012 0.57,2.187 0.57,3.535 v 1.207 h -13.386 v -2.723 h 9.246 c 0,-0.632 -0.137,-1.191 -0.414,-1.683 -0.274,-0.488 -0.653,-0.871 -1.137,-1.149 -0.488,-0.281 -1.051,-0.418 -1.688,-0.418 -0.668,0 -1.257,0.153 -1.773,0.458 -0.508,0.308 -0.91,0.714 -1.199,1.23 -0.289,0.512 -0.438,1.082 -0.446,1.707 v 2.59 c 0,0.785 0.149,1.465 0.438,2.031 0.293,0.574 0.707,1.012 1.246,1.324 0.535,0.309 1.172,0.465 1.91,0.465 0.488,0 0.934,-0.07 1.34,-0.207 0.406,-0.14 0.754,-0.344 1.043,-0.621 0.289,-0.273 0.508,-0.613 0.66,-1.012 l 4.067,0.27 c -0.207,0.976 -0.629,1.828 -1.266,2.555 -0.637,0.726 -1.453,1.289 -2.457,1.691 -1,0.402 -2.152,0.605 -3.461,0.605 z"
           style="fill:#21242c;fill-opacity:1;fill-rule:nonzero;stroke:none"
           id="path501" /><path
           d="m 62.438,290.691 c -1.629,0 -3.032,-0.332 -4.204,-0.996 -1.175,-0.664 -2.078,-1.609 -2.711,-2.828 -0.632,-1.222 -0.949,-2.668 -0.949,-4.34 0,-1.632 0.317,-3.062 0.949,-4.293 0.633,-1.234 1.524,-2.191 2.676,-2.879 1.153,-0.687 2.508,-1.031 4.063,-1.031 1.047,0 2.023,0.164 2.926,0.496 0.906,0.336 1.695,0.836 2.374,1.504 0.676,0.668 1.208,1.504 1.583,2.512 0.378,1.012 0.57,2.187 0.57,3.535 v 1.207 H 56.328 v -2.723 h 9.246 c 0,-0.632 -0.136,-1.191 -0.414,-1.683 -0.273,-0.488 -0.652,-0.871 -1.137,-1.149 -0.488,-0.281 -1.05,-0.418 -1.687,-0.418 -0.668,0 -1.258,0.153 -1.774,0.457 -0.507,0.309 -0.91,0.715 -1.199,1.231 -0.289,0.512 -0.437,1.082 -0.445,1.707 v 2.59 c 0,0.785 0.148,1.465 0.437,2.031 0.293,0.574 0.707,1.012 1.247,1.324 0.535,0.309 1.171,0.465 1.91,0.465 0.488,0 0.933,-0.07 1.34,-0.207 0.406,-0.141 0.753,-0.344 1.043,-0.621 0.289,-0.273 0.507,-0.613 0.66,-1.012 l 4.066,0.27 c -0.207,0.976 -0.629,1.828 -1.266,2.555 -0.636,0.726 -1.453,1.289 -2.457,1.691 -1,0.402 -2.152,0.605 -3.46,0.605 z m 14.558,-9.476 v 9.168 h -4.394 v -15.856 h 4.187 v 2.797 h 0.188 c 0.347,-0.922 0.937,-1.652 1.765,-2.191 0.824,-0.543 1.824,-0.809 3.004,-0.809 1.098,0 2.059,0.238 2.879,0.723 0.816,0.48 1.453,1.168 1.906,2.058 0.457,0.891 0.684,1.954 0.684,3.18 v 10.098 h -4.399 v -9.313 c 0.008,-0.968 -0.238,-1.726 -0.742,-2.273 -0.504,-0.547 -1.191,-0.82 -2.074,-0.82 -0.594,0 -1.113,0.125 -1.562,0.378 -0.45,0.258 -0.805,0.625 -1.055,1.114 -0.25,0.484 -0.379,1.066 -0.387,1.746 z m 27.672,9.476 c -1.629,0 -3.031,-0.332 -4.203,-0.996 -1.176,-0.664 -2.078,-1.609 -2.711,-2.828 -0.633,-1.222 -0.949,-2.668 -0.949,-4.34 0,-1.632 0.316,-3.062 0.949,-4.293 0.633,-1.234 1.523,-2.191 2.676,-2.879 1.152,-0.687 2.508,-1.031 4.062,-1.031 1.047,0 2.024,0.164 2.926,0.496 0.906,0.336 1.695,0.836 2.375,1.504 0.676,0.668 1.207,1.504 1.582,2.512 0.379,1.012 0.57,2.187 0.57,3.535 v 1.207 H 98.559 v -2.723 h 9.246 c 0,-0.632 -0.137,-1.191 -0.414,-1.683 -0.274,-0.488 -0.653,-0.871 -1.137,-1.149 -0.488,-0.281 -1.051,-0.418 -1.688,-0.418 -0.668,0 -1.257,0.153 -1.773,0.457 -0.508,0.309 -0.91,0.715 -1.199,1.231 -0.289,0.512 -0.438,1.082 -0.446,1.707 v 2.59 c 0,0.785 0.149,1.465 0.438,2.031 0.293,0.574 0.707,1.012 1.246,1.324 0.535,0.309 1.172,0.465 1.91,0.465 0.488,0 0.934,-0.07 1.34,-0.207 0.406,-0.141 0.754,-0.344 1.043,-0.621 0.289,-0.273 0.508,-0.613 0.66,-1.012 l 4.067,0.27 c -0.207,0.976 -0.629,1.828 -1.266,2.555 -0.637,0.726 -1.453,1.289 -2.457,1.691 -1,0.402 -2.152,0.605 -3.461,0.605 z m 14.559,-21.445 v 21.137 h -4.387 l -0.008,-21.137 z m 14.796,21.434 c -1.011,0 -1.914,-0.176 -2.703,-0.532 -0.793,-0.355 -1.418,-0.878 -1.875,-1.578 -0.457,-0.699 -0.683,-1.57 -0.683,-2.617 0,-0.879 0.16,-1.621 0.484,-2.219 0.32,-0.597 0.762,-1.082 1.32,-1.445 0.559,-0.363 1.192,-0.641 1.903,-0.824 0.715,-0.188 1.461,-0.317 2.246,-0.395 0.922,-0.093 1.664,-0.187 2.23,-0.273 0.563,-0.086 0.973,-0.215 1.227,-0.387 0.254,-0.172 0.383,-0.426 0.383,-0.762 v -0.062 c 0,-0.652 -0.207,-1.16 -0.617,-1.516 -0.407,-0.359 -0.985,-0.539 -1.739,-0.539 -0.789,0 -1.422,0.176 -1.887,0.524 -0.468,0.343 -0.777,0.781 -0.929,1.304 l -4.067,-0.332 c 0.207,-0.961 0.614,-1.797 1.219,-2.504 0.606,-0.703 1.387,-1.246 2.348,-1.628 0.961,-0.379 2.07,-0.571 3.34,-0.571 0.879,0 1.722,0.102 2.531,0.309 0.808,0.203 1.527,0.527 2.156,0.961 0.633,0.433 1.129,0.984 1.492,1.664 0.364,0.68 0.547,1.488 0.547,2.43 v 10.695 h -4.168 v -2.199 h -0.125 c -0.254,0.496 -0.594,0.929 -1.023,1.304 -0.426,0.375 -0.938,0.668 -1.535,0.879 -0.598,0.207 -1.289,0.313 -2.075,0.313 m 1.258,-3.032 c 0.649,0 1.219,-0.132 1.715,-0.39 0.496,-0.258 0.883,-0.606 1.168,-1.047 0.281,-0.438 0.422,-0.938 0.422,-1.496 v -1.684 c -0.137,0.09 -0.328,0.172 -0.563,0.246 -0.238,0.071 -0.503,0.137 -0.8,0.196 -0.297,0.058 -0.59,0.109 -0.887,0.152 -0.297,0.047 -0.566,0.086 -0.805,0.121 -0.515,0.074 -0.969,0.195 -1.355,0.359 -0.383,0.165 -0.684,0.387 -0.895,0.665 -0.215,0.281 -0.32,0.625 -0.32,1.039 0,0.597 0.219,1.054 0.656,1.367 0.434,0.312 0.988,0.472 1.664,0.472 z m 21.278,-4.015 v -9.106 h 4.398 v 15.856 h -4.223 V 287.5 h -0.168 c -0.355,0.93 -0.949,1.676 -1.777,2.242 -0.828,0.563 -1.84,0.844 -3.027,0.844 -1.063,0 -1.992,-0.238 -2.801,-0.723 -0.805,-0.48 -1.43,-1.164 -1.883,-2.051 -0.449,-0.886 -0.68,-1.953 -0.683,-3.191 v -10.094 h 4.394 v 9.313 c 0.008,0.933 0.258,1.672 0.754,2.219 0.496,0.543 1.16,0.812 1.992,0.812 0.531,0 1.027,-0.121 1.485,-0.363 0.46,-0.246 0.835,-0.61 1.121,-1.09 0.285,-0.484 0.425,-1.078 0.418,-1.785 z m 12.32,-14.387 v 21.137 h -4.387 l -0.008,-21.137 z m 8.043,21.434 c -1.012,0 -1.914,-0.176 -2.703,-0.532 -0.793,-0.355 -1.418,-0.878 -1.875,-1.578 -0.457,-0.699 -0.684,-1.57 -0.684,-2.617 0,-0.879 0.16,-1.621 0.485,-2.219 0.32,-0.597 0.761,-1.082 1.32,-1.445 0.558,-0.363 1.191,-0.641 1.902,-0.824 0.715,-0.188 1.461,-0.317 2.246,-0.395 0.922,-0.093 1.664,-0.187 2.231,-0.273 0.562,-0.086 0.972,-0.215 1.226,-0.387 0.254,-0.172 0.383,-0.426 0.383,-0.762 v -0.062 c 0,-0.652 -0.207,-1.16 -0.617,-1.516 -0.406,-0.359 -0.984,-0.539 -1.738,-0.539 -0.789,0 -1.422,0.176 -1.887,0.524 -0.469,0.343 -0.777,0.781 -0.93,1.304 l -4.066,-0.332 c 0.207,-0.961 0.613,-1.797 1.219,-2.504 0.605,-0.703 1.386,-1.246 2.347,-1.628 0.961,-0.379 2.071,-0.571 3.34,-0.571 0.879,0 1.723,0.102 2.531,0.309 0.809,0.203 1.528,0.527 2.157,0.961 0.632,0.433 1.129,0.984 1.492,1.664 0.363,0.68 0.547,1.488 0.547,2.43 v 10.695 h -4.168 v -2.199 h -0.125 c -0.254,0.496 -0.594,0.929 -1.024,1.304 -0.426,0.375 -0.937,0.668 -1.535,0.879 -0.598,0.207 -1.289,0.313 -2.074,0.313 m 1.258,-3.032 c 0.648,0 1.218,-0.132 1.715,-0.39 0.496,-0.258 0.882,-0.606 1.167,-1.047 0.282,-0.438 0.422,-0.938 0.422,-1.496 v -1.684 c -0.136,0.09 -0.328,0.172 -0.562,0.246 -0.238,0.071 -0.504,0.137 -0.801,0.196 -0.297,0.058 -0.59,0.109 -0.887,0.152 -0.296,0.047 -0.566,0.086 -0.804,0.121 -0.516,0.074 -0.969,0.195 -1.356,0.359 -0.383,0.165 -0.683,0.387 -0.894,0.665 -0.215,0.281 -0.321,0.625 -0.321,1.039 0,0.597 0.219,1.054 0.657,1.367 0.433,0.312 0.988,0.472 1.664,0.472 z"
           style="fill:#21242c;fill-opacity:1;fill-rule:nonzero;stroke:none"
           id="path503" /></g></g><g
       id="g505"
       transform="matrix(0.35277778,0,0,0.35277774,298.81992,6.1383329e-6)"><g
         id="g507"
         clip-path="url(#clipPath511)"><path
           d="m 53.461,333.547 h 139.945 v 3.395 H 53.461 Z"
           style="fill:#ea7070;fill-opacity:1;fill-rule:nonzero;stroke:none"
           id="path513" /></g></g><g
       id="g515"
       transform="matrix(0.35277778,0,0,0.35277774,298.81992,6.1383329e-6)"><path
         d="m 57.93,332.699 c -0.559,0 -1.078,-0.043 -1.567,-0.129 -0.484,-0.086 -0.886,-0.191 -1.203,-0.324 l 0.992,-3.281 c 0.516,0.156 0.985,0.242 1.399,0.258 0.418,0.015 0.777,-0.082 1.082,-0.289 0.308,-0.207 0.558,-0.559 0.75,-1.051 l 0.258,-0.672 -5.688,-16.309 h 4.625 l 3.281,11.645 h 0.164 l 3.313,-11.645 h 4.656 l -6.16,17.567 c -0.297,0.851 -0.695,1.597 -1.203,2.234 -0.508,0.637 -1.145,1.129 -1.914,1.477 -0.774,0.347 -1.699,0.519 -2.785,0.519 z m 21.086,-5.941 v -15.856 h 4.187 v 2.797 h 0.188 c 0.332,-0.929 0.879,-1.66 1.652,-2.199 0.769,-0.535 1.691,-0.801 2.766,-0.801 1.086,0 2.011,0.266 2.773,0.809 0.766,0.539 1.273,1.269 1.527,2.191 h 0.168 c 0.321,-0.906 0.907,-1.637 1.758,-2.183 0.848,-0.547 1.856,-0.817 3.02,-0.817 1.48,0 2.679,0.469 3.605,1.406 0.926,0.942 1.391,2.27 1.391,3.989 v 10.664 h -4.387 v -9.797 c 0,-0.879 -0.234,-1.539 -0.703,-1.981 -0.469,-0.441 -1.051,-0.66 -1.754,-0.66 -0.797,0 -1.418,0.254 -1.867,0.758 -0.449,0.504 -0.672,1.172 -0.672,1.996 v 9.684 h -4.262 v -9.887 c 0,-0.777 -0.222,-1.398 -0.668,-1.859 -0.441,-0.461 -1.027,-0.692 -1.746,-0.692 -0.492,0 -0.926,0.121 -1.316,0.368 -0.391,0.242 -0.696,0.582 -0.926,1.019 -0.227,0.438 -0.34,0.949 -0.34,1.535 v 9.516 z m 31.062,0.297 c -1.012,0 -1.914,-0.176 -2.703,-0.532 -0.793,-0.355 -1.418,-0.878 -1.875,-1.578 -0.457,-0.699 -0.684,-1.57 -0.684,-2.617 0,-0.879 0.161,-1.621 0.485,-2.219 0.32,-0.597 0.761,-1.082 1.32,-1.445 0.559,-0.363 1.191,-0.641 1.902,-0.824 0.715,-0.188 1.461,-0.317 2.247,-0.395 0.921,-0.093 1.664,-0.187 2.23,-0.273 0.562,-0.086 0.973,-0.215 1.227,-0.387 0.253,-0.172 0.382,-0.426 0.382,-0.762 v -0.062 c 0,-0.652 -0.207,-1.16 -0.617,-1.516 -0.406,-0.359 -0.984,-0.539 -1.738,-0.539 -0.789,0 -1.422,0.176 -1.887,0.524 -0.469,0.343 -0.777,0.781 -0.929,1.304 l -4.067,-0.332 c 0.207,-0.961 0.613,-1.797 1.219,-2.504 0.605,-0.703 1.387,-1.246 2.348,-1.628 0.96,-0.379 2.07,-0.571 3.339,-0.571 0.879,0 1.723,0.102 2.532,0.309 0.808,0.203 1.527,0.527 2.156,0.961 0.633,0.433 1.129,0.984 1.492,1.664 0.363,0.679 0.547,1.488 0.547,2.429 v 10.696 h -4.168 v -2.199 h -0.125 c -0.254,0.496 -0.594,0.929 -1.023,1.304 -0.426,0.375 -0.938,0.668 -1.536,0.879 -0.597,0.207 -1.289,0.313 -2.074,0.313 m 1.258,-3.032 c 0.648,0 1.219,-0.132 1.715,-0.39 0.496,-0.258 0.883,-0.606 1.168,-1.047 0.281,-0.438 0.422,-0.938 0.422,-1.496 v -1.684 c -0.137,0.09 -0.329,0.172 -0.563,0.246 -0.238,0.071 -0.504,0.137 -0.801,0.196 -0.297,0.058 -0.589,0.109 -0.886,0.152 -0.297,0.047 -0.567,0.086 -0.805,0.121 -0.516,0.074 -0.969,0.195 -1.356,0.359 -0.382,0.165 -0.683,0.387 -0.894,0.665 -0.215,0.281 -0.32,0.625 -0.32,1.039 0,0.597 0.218,1.054 0.656,1.367 0.433,0.312 0.988,0.472 1.664,0.472 m -0.473,-15.164 2.188,-4.695 h 4.066 l -3.148,4.695 z m 24.77,6.567 -4.024,0.246 c -0.07,-0.344 -0.218,-0.656 -0.445,-0.934 -0.226,-0.277 -0.523,-0.504 -0.891,-0.672 -0.371,-0.168 -0.808,-0.254 -1.316,-0.254 -0.684,0 -1.258,0.145 -1.727,0.43 -0.464,0.285 -0.699,0.664 -0.699,1.141 0,0.379 0.153,0.699 0.453,0.961 0.305,0.261 0.825,0.468 1.559,0.629 l 2.867,0.578 c 1.543,0.316 2.692,0.824 3.449,1.527 0.758,0.703 1.137,1.625 1.137,2.766 0,1.039 -0.305,1.949 -0.914,2.734 -0.609,0.785 -1.441,1.395 -2.5,1.832 -1.055,0.438 -2.27,0.656 -3.648,0.656 -2.098,0 -3.766,-0.437 -5.008,-1.316 -1.242,-0.875 -1.969,-2.074 -2.184,-3.586 l 4.324,-0.226 c 0.133,0.64 0.446,1.124 0.95,1.46 0.504,0.332 1.144,0.5 1.929,0.5 0.77,0 1.391,-0.152 1.864,-0.449 0.472,-0.301 0.711,-0.687 0.718,-1.164 -0.007,-0.398 -0.175,-0.726 -0.507,-0.984 -0.332,-0.258 -0.84,-0.457 -1.528,-0.594 l -2.746,-0.547 c -1.547,-0.308 -2.699,-0.848 -3.453,-1.609 -0.75,-0.762 -1.129,-1.739 -1.129,-2.922 0,-1.016 0.277,-1.895 0.832,-2.629 0.555,-0.738 1.336,-1.305 2.344,-1.703 1.008,-0.402 2.191,-0.598 3.543,-0.598 2.004,0 3.582,0.422 4.734,1.27 1.153,0.843 1.824,1.996 2.016,3.457 z m 14.433,11.629 c -1.011,0 -1.914,-0.176 -2.703,-0.532 -0.793,-0.355 -1.418,-0.878 -1.875,-1.578 -0.457,-0.699 -0.683,-1.57 -0.683,-2.617 0,-0.879 0.16,-1.621 0.484,-2.219 0.32,-0.597 0.762,-1.082 1.32,-1.445 0.559,-0.363 1.192,-0.641 1.903,-0.824 0.715,-0.188 1.461,-0.317 2.246,-0.395 0.922,-0.093 1.664,-0.187 2.23,-0.273 0.563,-0.086 0.973,-0.215 1.227,-0.387 0.254,-0.172 0.383,-0.426 0.383,-0.762 v -0.062 c 0,-0.652 -0.207,-1.16 -0.618,-1.516 -0.406,-0.359 -0.984,-0.539 -1.738,-0.539 -0.789,0 -1.422,0.176 -1.887,0.524 -0.468,0.343 -0.777,0.781 -0.929,1.304 l -4.067,-0.332 c 0.207,-0.961 0.614,-1.797 1.219,-2.504 0.606,-0.703 1.387,-1.246 2.348,-1.628 0.961,-0.379 2.07,-0.571 3.34,-0.571 0.879,0 1.722,0.102 2.531,0.309 0.808,0.203 1.527,0.527 2.156,0.961 0.633,0.433 1.129,0.984 1.492,1.664 0.364,0.679 0.547,1.488 0.547,2.429 v 10.696 h -4.168 v -2.199 h -0.125 c -0.254,0.496 -0.594,0.929 -1.023,1.304 -0.426,0.375 -0.938,0.668 -1.535,0.879 -0.598,0.207 -1.289,0.313 -2.075,0.313 m 1.258,-3.032 c 0.649,0 1.219,-0.132 1.715,-0.39 0.496,-0.258 0.883,-0.606 1.168,-1.047 0.281,-0.438 0.422,-0.938 0.422,-1.496 v -1.684 c -0.137,0.09 -0.328,0.172 -0.563,0.246 -0.238,0.071 -0.504,0.137 -0.8,0.196 -0.297,0.058 -0.59,0.109 -0.887,0.152 -0.297,0.047 -0.567,0.086 -0.805,0.121 -0.515,0.074 -0.969,0.195 -1.355,0.359 -0.383,0.165 -0.684,0.387 -0.895,0.665 -0.215,0.281 -0.32,0.625 -0.32,1.039 0,0.597 0.219,1.054 0.656,1.367 0.434,0.312 0.988,0.472 1.664,0.472 z m 15.504,-18.402 v 21.137 h -4.387 l -0.007,-21.137 z m 7.918,0 v 21.137 h -4.387 l -0.007,-21.137 z m 8.043,21.434 c -1.012,0 -1.914,-0.176 -2.703,-0.532 -0.793,-0.355 -1.418,-0.878 -1.875,-1.578 -0.457,-0.699 -0.684,-1.57 -0.684,-2.617 0,-0.879 0.161,-1.621 0.485,-2.219 0.32,-0.597 0.761,-1.082 1.32,-1.445 0.559,-0.363 1.191,-0.641 1.902,-0.824 0.715,-0.188 1.461,-0.317 2.246,-0.395 0.922,-0.093 1.665,-0.187 2.231,-0.273 0.562,-0.086 0.973,-0.215 1.227,-0.387 0.253,-0.172 0.382,-0.426 0.382,-0.762 v -0.062 c 0,-0.652 -0.207,-1.16 -0.617,-1.516 -0.406,-0.359 -0.984,-0.539 -1.738,-0.539 -0.789,0 -1.422,0.176 -1.887,0.524 -0.469,0.343 -0.777,0.781 -0.93,1.304 l -4.066,-0.332 c 0.207,-0.961 0.613,-1.797 1.219,-2.504 0.605,-0.703 1.387,-1.246 2.347,-1.628 0.961,-0.379 2.071,-0.571 3.34,-0.571 0.879,0 1.723,0.102 2.532,0.309 0.808,0.203 1.527,0.527 2.156,0.961 0.633,0.433 1.129,0.984 1.492,1.664 0.363,0.679 0.547,1.488 0.547,2.429 v 10.696 h -4.168 v -2.199 h -0.125 c -0.254,0.496 -0.594,0.929 -1.024,1.304 -0.425,0.375 -0.937,0.668 -1.535,0.879 -0.597,0.207 -1.289,0.313 -2.074,0.313 m 1.258,-3.032 c 0.648,0 1.219,-0.132 1.715,-0.39 0.496,-0.258 0.883,-0.606 1.168,-1.047 0.281,-0.438 0.422,-0.938 0.422,-1.496 v -1.684 c -0.137,0.09 -0.329,0.172 -0.563,0.246 -0.238,0.071 -0.504,0.137 -0.801,0.196 -0.297,0.058 -0.59,0.109 -0.886,0.152 -0.297,0.047 -0.567,0.086 -0.805,0.121 -0.516,0.074 -0.969,0.195 -1.356,0.359 -0.382,0.165 -0.683,0.387 -0.894,0.665 -0.215,0.281 -0.32,0.625 -0.32,1.039 0,0.597 0.218,1.054 0.656,1.367 0.433,0.312 0.988,0.472 1.664,0.472 m -0.473,-15.164 2.188,-4.695 h 4.066 l -3.148,4.695 z"
         style="fill:#21242c;fill-opacity:1;fill-rule:nonzero;stroke:none"
         id="path517" /><text
         xml:space="preserve"
         transform="translate(53.46,376.16688)"
         style="font-variant:normal;font-weight:normal;font-size:13.095px;font-family:Inter;-inkscape-font-specification:Inter-Regular;writing-mode:lr-tb;fill:#21242c;fill-opacity:1;fill-rule:nonzero;stroke:none"
         id="text525"><tspan
           x="0 8.3145809 12.978484 20.790842 28.770607 36.582966 41.22068 48.530815 51.637157 59.449512 67.113068 74.497604 78.180573 85.565109 89.248077 94.009895 101.61765 108.46276 112.14573 119.53027 122.63661 130.24435 141.62808 149.29163 156.67616 163.52129 167.20425 174.812 182.47556 189.86009 193.54306 204.92677 212.31133 219.97487 227.60121 232.47464 239.85918 243.54214 251.1685 255.60503 263.23138 270.5415 275.30331 278.40967 285.47858 292.86313 296.54608"
           y="0"
           id="tspan519">Proporciona a tus alumnas una manera efectiva y</tspan><tspan
           x="0 7.9797654 15.606115 20.479538 27.324652 35.137009 42.80056 50.185101 53.291443 56.397785 63.484711 70.869247 78.997818 86.382355 90.065331 98.193901 105.82025 109.50322 117.12957 123.97468 128.7365 136.34425 144.47282 147.57916 154.9637 158.99904 162.66341 166.34637 169.45273 180.83644 188.81621 196.42397 199.5303 206.37541 213.75995 221.42351 229.55208 237.36444 241.04741 247.89252 255.50026 259.18323 263.83405 271.46039 276.14365 283.76999 291.43353 298.74368 301.85001 309.66238 317.32593 321.00888"
           y="16.36875"
           id="tspan521">personalizada de estudiar, impulsando su retencin y</tspan><tspan
           x="0 7.3101349 15.122493 26.506214 34.485981 39.136787 46.763138 54.426689 61.271801 64.378143 72.190506 79.854057"
           y="32.737499"
           id="tspan523">comprensin.</tspan></text></g><g
       id="g527"
       transform="matrix(0.35277778,0,0,0.35277774,298.81992,6.1383329e-6)"><g
         id="g529"
         clip-path="url(#clipPath533)"><g
           id="g535"
           clip-path="url(#clipPath539)"><path
             d="m 53.461,441.582 h 114.266 v 38.559 H 53.461 Z"
             style="fill:#4788e9;fill-opacity:1;fill-rule:nonzero;stroke:none"
             id="path541" /></g></g></g><g
       id="g543"
       transform="matrix(0.35277778,0,0,0.35277774,298.81992,6.1383329e-6)"><path
         d="m 74.742,466.195 v -10.57 h 4.172 c 0.797,0 1.481,0.145 2.047,0.426 0.566,0.285 0.996,0.683 1.293,1.203 0.297,0.519 0.449,1.125 0.449,1.824 0,0.699 -0.152,1.305 -0.457,1.809 -0.301,0.504 -0.738,0.886 -1.312,1.156 -0.571,0.269 -1.266,0.402 -2.079,0.402 h -2.789 v -1.793 h 2.43 c 0.426,0 0.781,-0.058 1.063,-0.175 0.281,-0.118 0.492,-0.293 0.632,-0.528 0.141,-0.234 0.211,-0.523 0.211,-0.871 0,-0.351 -0.07,-0.648 -0.211,-0.887 -0.14,-0.242 -0.351,-0.425 -0.632,-0.55 -0.286,-0.125 -0.645,-0.188 -1.071,-0.188 h -1.511 v 8.742 h -2.235 m 5.711,-4.812 2.625,4.812 h -2.469 l -2.566,-4.812 z m 7.285,4.965 c -0.816,0 -1.519,-0.164 -2.105,-0.496 -0.586,-0.332 -1.035,-0.805 -1.356,-1.414 -0.312,-0.61 -0.472,-1.336 -0.472,-2.172 0,-0.813 0.16,-1.532 0.472,-2.145 0.321,-0.617 0.766,-1.098 1.34,-1.441 0.578,-0.344 1.254,-0.516 2.031,-0.516 0.524,0 1.012,0.082 1.465,0.25 0.453,0.168 0.848,0.418 1.188,0.75 0.336,0.336 0.601,0.754 0.789,1.258 0.191,0.504 0.285,1.094 0.285,1.769 v 0.602 h -6.691 v -1.363 h 4.621 c 0,-0.317 -0.067,-0.598 -0.203,-0.84 -0.141,-0.246 -0.329,-0.438 -0.575,-0.574 -0.242,-0.141 -0.519,-0.211 -0.843,-0.211 -0.332,0 -0.625,0.078 -0.883,0.23 -0.258,0.153 -0.457,0.356 -0.602,0.613 -0.144,0.258 -0.219,0.54 -0.222,0.856 v 1.293 c 0,0.394 0.074,0.734 0.222,1.019 0.145,0.286 0.352,0.504 0.621,0.661 0.266,0.152 0.586,0.23 0.953,0.23 0.247,0 0.469,-0.035 0.672,-0.102 0.203,-0.07 0.375,-0.171 0.52,-0.312 0.144,-0.137 0.254,-0.305 0.332,-0.504 l 2.031,0.133 c -0.101,0.488 -0.312,0.914 -0.633,1.277 -0.316,0.363 -0.726,0.645 -1.226,0.848 -0.5,0.203 -1.078,0.301 -1.731,0.301 z m 8.653,2.984 c -0.711,0 -1.321,-0.098 -1.829,-0.293 -0.507,-0.195 -0.91,-0.457 -1.21,-0.793 -0.301,-0.332 -0.493,-0.707 -0.582,-1.125 l 2.031,-0.273 c 0.062,0.16 0.16,0.308 0.293,0.445 0.136,0.137 0.312,0.246 0.539,0.332 0.219,0.082 0.488,0.129 0.808,0.129 0.481,0 0.875,-0.117 1.188,-0.348 0.309,-0.234 0.465,-0.621 0.465,-1.164 v -1.453 H 98 c -0.094,0.223 -0.238,0.43 -0.43,0.625 -0.195,0.195 -0.441,0.356 -0.746,0.481 -0.301,0.121 -0.664,0.183 -1.082,0.183 -0.594,0 -1.137,-0.137 -1.621,-0.414 -0.488,-0.277 -0.875,-0.699 -1.164,-1.273 -0.285,-0.575 -0.43,-1.297 -0.43,-2.176 0,-0.899 0.145,-1.649 0.438,-2.25 0.293,-0.602 0.68,-1.051 1.168,-1.352 0.488,-0.301 1.019,-0.449 1.605,-0.449 0.442,0 0.813,0.074 1.114,0.223 0.3,0.152 0.543,0.336 0.722,0.558 0.184,0.223 0.328,0.442 0.426,0.653 h 0.082 v -1.332 h 2.184 v 8.004 c 0,0.675 -0.164,1.238 -0.496,1.691 -0.329,0.457 -0.786,0.797 -1.368,1.027 -0.586,0.231 -1.254,0.344 -2.011,0.344 m 0.047,-4.902 c 0.355,0 0.652,-0.09 0.898,-0.266 0.246,-0.18 0.437,-0.434 0.57,-0.766 0.133,-0.332 0.199,-0.73 0.199,-1.195 0,-0.465 -0.066,-0.867 -0.195,-1.211 -0.133,-0.34 -0.32,-0.605 -0.57,-0.793 -0.246,-0.191 -0.547,-0.285 -0.902,-0.285 -0.36,0 -0.665,0.098 -0.915,0.289 -0.246,0.195 -0.433,0.465 -0.562,0.809 -0.125,0.343 -0.188,0.742 -0.188,1.191 0,0.461 0.063,0.852 0.192,1.188 0.129,0.328 0.316,0.586 0.562,0.765 0.246,0.184 0.551,0.274 0.911,0.274 z m 5.601,1.765 -0.004,-7.929 h 2.199 v 7.929 h -2.195 m 0.313,-8.949 1.093,-2.348 h 2.032 l -1.575,2.348 z m 10.23,3.281 -2.012,0.125 c -0.035,-0.172 -0.109,-0.328 -0.222,-0.468 -0.114,-0.141 -0.262,-0.25 -0.446,-0.336 -0.183,-0.082 -0.402,-0.125 -0.656,-0.125 -0.34,0 -0.629,0.07 -0.863,0.215 -0.235,0.14 -0.352,0.332 -0.352,0.57 0,0.187 0.078,0.347 0.231,0.48 0.148,0.129 0.41,0.235 0.777,0.313 l 1.434,0.289 c 0.769,0.16 1.347,0.414 1.722,0.765 0.379,0.348 0.571,0.813 0.571,1.383 0,0.52 -0.153,0.973 -0.457,1.367 -0.305,0.391 -0.723,0.696 -1.25,0.915 -0.528,0.218 -1.137,0.328 -1.825,0.328 -1.046,0 -1.882,-0.219 -2.504,-0.657 -0.621,-0.441 -0.984,-1.039 -1.093,-1.796 l 2.164,-0.114 c 0.062,0.321 0.222,0.567 0.472,0.731 0.254,0.168 0.575,0.254 0.965,0.254 0.387,0 0.7,-0.078 0.934,-0.227 0.234,-0.148 0.355,-0.344 0.359,-0.582 -0.004,-0.195 -0.09,-0.363 -0.254,-0.488 -0.164,-0.133 -0.422,-0.231 -0.765,-0.301 l -1.371,-0.273 c -0.774,-0.153 -1.348,-0.422 -1.727,-0.805 -0.375,-0.379 -0.566,-0.867 -0.566,-1.461 0,-0.508 0.14,-0.945 0.418,-1.313 0.277,-0.371 0.664,-0.652 1.172,-0.851 0.503,-0.203 1.093,-0.301 1.769,-0.301 1.004,0 1.789,0.211 2.367,0.637 0.574,0.422 0.914,0.996 1.008,1.726 z m 5.793,-2.261 v 1.652 h -4.773 v -1.652 h 4.773 m -3.687,-1.899 h 2.199 v 7.391 c 0,0.203 0.031,0.359 0.09,0.472 0.062,0.11 0.148,0.192 0.261,0.235 0.114,0.043 0.242,0.066 0.391,0.066 0.101,0 0.203,-0.008 0.309,-0.027 0.105,-0.02 0.183,-0.035 0.238,-0.043 l 0.344,1.633 c -0.11,0.035 -0.266,0.078 -0.461,0.121 -0.204,0.047 -0.446,0.078 -0.731,0.086 -0.531,0.019 -0.992,-0.047 -1.39,-0.211 -0.399,-0.16 -0.708,-0.414 -0.926,-0.754 -0.219,-0.34 -0.328,-0.77 -0.324,-1.289 z m 5.121,9.828 v -7.929 h 2.132 v 1.386 h 0.082 c 0.145,-0.492 0.387,-0.867 0.727,-1.121 0.34,-0.25 0.73,-0.379 1.176,-0.379 0.109,0 0.23,0.008 0.355,0.024 0.129,0.012 0.242,0.031 0.336,0.054 v 1.954 c -0.101,-0.036 -0.246,-0.059 -0.426,-0.086 -0.183,-0.024 -0.351,-0.036 -0.5,-0.036 -0.324,0 -0.613,0.071 -0.867,0.208 -0.254,0.14 -0.449,0.335 -0.597,0.582 -0.145,0.25 -0.219,0.535 -0.219,0.859 v 4.484 z m 7.984,0.149 c -0.508,0 -0.957,-0.09 -1.352,-0.266 -0.394,-0.18 -0.707,-0.441 -0.937,-0.793 -0.231,-0.347 -0.344,-0.785 -0.344,-1.305 0,-0.441 0.082,-0.812 0.242,-1.109 0.16,-0.301 0.383,-0.543 0.66,-0.723 0.282,-0.183 0.598,-0.32 0.954,-0.414 0.355,-0.089 0.73,-0.156 1.121,-0.195 0.461,-0.047 0.832,-0.094 1.117,-0.137 0.281,-0.043 0.484,-0.109 0.613,-0.195 0.125,-0.086 0.188,-0.211 0.188,-0.379 v -0.031 c 0,-0.328 -0.102,-0.582 -0.305,-0.762 -0.203,-0.176 -0.492,-0.265 -0.867,-0.265 -0.399,0 -0.715,0.085 -0.945,0.257 -0.235,0.176 -0.391,0.395 -0.465,0.657 l -2.032,-0.168 c 0.102,-0.481 0.305,-0.899 0.606,-1.25 0.305,-0.352 0.695,-0.625 1.176,-0.817 0.476,-0.187 1.035,-0.285 1.668,-0.285 0.441,0 0.863,0.051 1.269,0.156 0.402,0.102 0.762,0.262 1.078,0.481 0.313,0.215 0.563,0.492 0.742,0.832 0.184,0.336 0.274,0.742 0.274,1.215 v 5.347 h -2.086 v -1.101 h -0.059 c -0.129,0.25 -0.3,0.465 -0.511,0.652 -0.215,0.188 -0.469,0.332 -0.77,0.442 -0.297,0.101 -0.644,0.156 -1.035,0.156 m 0.629,-1.52 c 0.324,0 0.609,-0.062 0.855,-0.191 0.25,-0.129 0.442,-0.305 0.586,-0.524 0.137,-0.218 0.211,-0.468 0.211,-0.75 v -0.839 c -0.07,0.042 -0.164,0.085 -0.281,0.121 -0.121,0.035 -0.254,0.07 -0.402,0.097 -0.149,0.032 -0.297,0.055 -0.442,0.078 -0.148,0.024 -0.285,0.043 -0.406,0.059 -0.254,0.039 -0.481,0.098 -0.676,0.18 -0.191,0.082 -0.34,0.195 -0.445,0.336 -0.11,0.136 -0.164,0.312 -0.164,0.515 0,0.301 0.113,0.528 0.328,0.684 0.219,0.156 0.5,0.234 0.836,0.234 z m 9.766,-6.558 v 1.652 h -4.774 v -1.652 h 4.774 m -3.688,-1.899 h 2.199 v 7.391 c 0,0.203 0.031,0.359 0.09,0.472 0.063,0.11 0.149,0.192 0.262,0.235 0.113,0.043 0.242,0.066 0.39,0.066 0.102,0 0.204,-0.008 0.309,-0.027 0.105,-0.02 0.184,-0.035 0.238,-0.043 l 0.344,1.633 c -0.109,0.035 -0.266,0.078 -0.461,0.121 -0.203,0.047 -0.445,0.078 -0.73,0.086 -0.532,0.019 -0.993,-0.047 -1.391,-0.211 -0.398,-0.16 -0.707,-0.414 -0.926,-0.754 -0.219,-0.34 -0.328,-0.77 -0.324,-1.289 z m 8.652,9.981 c -0.816,0 -1.519,-0.164 -2.105,-0.496 -0.586,-0.332 -1.035,-0.805 -1.356,-1.414 -0.312,-0.61 -0.472,-1.336 -0.472,-2.172 0,-0.813 0.16,-1.532 0.472,-2.145 0.321,-0.617 0.766,-1.098 1.34,-1.441 0.578,-0.344 1.254,-0.516 2.031,-0.516 0.524,0 1.012,0.082 1.465,0.25 0.453,0.168 0.848,0.418 1.188,0.75 0.336,0.336 0.601,0.754 0.789,1.258 0.191,0.504 0.285,1.094 0.285,1.769 v 0.602 h -6.691 v -1.363 h 4.621 c 0,-0.317 -0.067,-0.598 -0.203,-0.84 -0.141,-0.246 -0.328,-0.438 -0.575,-0.574 -0.242,-0.141 -0.519,-0.211 -0.843,-0.211 -0.332,0 -0.625,0.078 -0.883,0.23 -0.258,0.153 -0.457,0.356 -0.602,0.613 -0.144,0.258 -0.218,0.54 -0.222,0.856 v 1.293 c 0,0.394 0.074,0.734 0.222,1.019 0.145,0.286 0.352,0.504 0.621,0.661 0.266,0.152 0.586,0.23 0.954,0.23 0.246,0 0.468,-0.035 0.671,-0.102 0.203,-0.07 0.375,-0.171 0.52,-0.312 0.144,-0.137 0.254,-0.305 0.332,-0.504 l 2.031,0.133 c -0.101,0.488 -0.312,0.914 -0.633,1.277 -0.316,0.363 -0.726,0.645 -1.226,0.848 -0.5,0.203 -1.078,0.301 -1.731,0.301 z"
         style="fill:#ffffff;fill-opacity:1;fill-rule:nonzero;stroke:none"
         id="path545" /></g><g
       id="g547"
       transform="matrix(0.35277778,0,0,0.35277774,298.81992,6.1383329e-6)"><g
         id="g549"
         clip-path="url(#clipPath553)"><path
           d="m 777.773,439.48 c 4.887,-57.5 -19.48,-184.933 -135.113,-173.542 -64.797,2.117 -60.695,50.042 -85.664,57.226 -7.258,2.09 -16.59,1.715 -26.82,1.336 -24.977,-0.918 -55.328,-1.832 -74.043,33.094 -25.035,46.718 8.719,81.886 8.719,81.886 h 312.921"
           style="fill:#dcecfd;fill-opacity:1;fill-rule:nonzero;stroke:none"
           id="path555" /><path
           d="m 777.773,439.48 c 0,0 -0.296,-28.214 -2.121,-37.726 0,0 -9.394,9.312 -8.961,20.922 0,0 1.707,-15.985 -13.187,-25.926 0,0 -4.387,7.656 -2.711,23.129 0,0 -7.516,-8.516 -20.219,-9.141 0,0 0.75,13.61 8.574,21.946 0,0 -2.531,-4.809 -18.691,-5.301 0,0 5.059,8.262 9.699,12.097 h 47.617"
           style="fill:#bedbfa;fill-opacity:1;fill-rule:nonzero;stroke:none"
           id="path557" /><path
           d="m 629.551,318.148 c -7.68,0.024 -13.781,-6.476 -13.41,-14.117 h 26.824 c 0.371,7.641 -5.731,14.141 -13.414,14.117"
           style="fill:#fdc4b6;fill-opacity:1;fill-rule:nonzero;stroke:none"
           id="path559" /><path
           d="m 743.086,426.875 c -0.859,0 -1.629,-0.594 -1.82,-1.465 l -21.524,-98.609 -89.207,-47.942 c -0.906,-0.484 -1.246,-1.613 -0.762,-2.519 0.489,-0.906 1.622,-1.246 2.528,-0.758 l 90.715,48.75 21.89,100.285 c 0.266,1.141 -0.648,2.274 -1.82,2.258"
           style="fill:#152e60;fill-opacity:1;fill-rule:nonzero;stroke:none"
           id="path561" /><path
           d="m 652.727,309.047 h -45.352 c -1.594,-16.738 3.043,-33.383 22.68,-34.117 19.629,0.734 24.269,17.39 22.672,34.117"
           style="fill:#324d90;fill-opacity:1;fill-rule:nonzero;stroke:none"
           id="path563" /><path
           d="m 727.305,326.945 c -0.153,9.035 -13.606,9.035 -13.758,0 0.152,-9.039 13.605,-9.035 13.758,0"
           style="fill:#324d90;fill-opacity:1;fill-rule:nonzero;stroke:none"
           id="path565" /><path
           d="m 724.207,326.945 c -0.086,4.969 -7.48,4.965 -7.562,0 0.082,-4.968 7.48,-4.968 7.562,0"
           style="fill:#152e60;fill-opacity:1;fill-rule:nonzero;stroke:none"
           id="path567" /><path
           d="m 720.953,439.48 c 4.742,-21.382 40.352,-21.507 43.824,0 h -43.824"
           style="fill:#152e60;fill-opacity:1;fill-rule:nonzero;stroke:none"
           id="path569" /><path
           d="m 652.727,304.062 h -45.352 c -0.305,0 -0.547,-0.246 -0.547,-0.546 0,-0.305 0.242,-0.547 0.547,-0.547 h 45.352 c 0.699,-0.012 0.722,1.105 0,1.093"
           style="fill:#152e60;fill-opacity:1;fill-rule:nonzero;stroke:none"
           id="path571" /><path
           d="m 652.727,300.238 h -45.352 c -0.305,0 -0.547,-0.246 -0.547,-0.547 0,-0.3 0.242,-0.546 0.547,-0.546 h 45.352 c 0.699,-0.012 0.722,1.105 0,1.093"
           style="fill:#152e60;fill-opacity:1;fill-rule:nonzero;stroke:none"
           id="path573" /><path
           d="m 550.254,439.48 h -7.387 c -0.855,0 -1.551,-0.695 -1.551,-1.55 v -47.418 c 0,-0.856 0.696,-1.547 1.551,-1.547 h 7.387 c 0.855,0 1.551,0.691 1.551,1.547 v 47.418 c 0,0.855 -0.696,1.55 -1.551,1.55"
           style="fill:#324d90;fill-opacity:1;fill-rule:nonzero;stroke:none"
           id="path575" /><path
           d="m 541.316,394.508 h 10.488 v 3.309 h -10.488 z"
           style="fill:#2a437d;fill-opacity:1;fill-rule:nonzero;stroke:none"
           id="path577" /><path
           d="m 541.316,399.395 h 10.488 v 3.312 h -10.488 z"
           style="fill:#2a437d;fill-opacity:1;fill-rule:nonzero;stroke:none"
           id="path579" /><path
           d="m 541.316,424.59 h 10.488 v 3.309 h -10.488 z"
           style="fill:#2a437d;fill-opacity:1;fill-rule:nonzero;stroke:none"
           id="path581" /><path
           d="m 541.316,429.48 h 10.488 v 3.312 h -10.488 z"
           style="fill:#2a437d;fill-opacity:1;fill-rule:nonzero;stroke:none"
           id="path583" /><path
           d="m 563.543,439.48 h -10.238 c -0.828,0 -1.5,-0.671 -1.5,-1.496 V 405.43 c 0,-0.828 0.672,-1.496 1.5,-1.496 h 10.238 c 0.828,0 1.5,0.668 1.5,1.496 v 32.554 c 0,0.825 -0.672,1.496 -1.5,1.496"
           style="fill:#2a437d;fill-opacity:1;fill-rule:nonzero;stroke:none"
           id="path585" /><path
           d="m 551.805,409.102 h 13.238 v 2.73 h -13.238 z"
           style="fill:#324d90;fill-opacity:1;fill-rule:nonzero;stroke:none"
           id="path587" /><path
           d="m 551.805,430.883 h 13.238 v 2.73 h -13.238 z"
           style="fill:#324d90;fill-opacity:1;fill-rule:nonzero;stroke:none"
           id="path589" /><path
           d="m 562.844,421.707 c -0.102,5.801 -8.739,5.801 -8.836,0 0.097,-5.805 8.734,-5.805 8.836,0"
           style="fill:#324d90;fill-opacity:1;fill-rule:nonzero;stroke:none"
           id="path591" /><path
           d="m 539.586,439.48 h -9.789 c -0.957,0 -1.735,-0.773 -1.735,-1.73 v -38.203 c 0,-0.957 0.778,-1.731 1.735,-1.731 h 9.789 c 0.957,0 1.73,0.774 1.73,1.731 v 38.203 c 0,0.957 -0.773,1.73 -1.73,1.73"
           style="fill:#ff7f50;fill-opacity:1;fill-rule:nonzero;stroke:none"
           id="path593" /><path
           d="m 528.062,402.707 c 4.387,-0.379 8.872,-0.383 13.254,0 -4.382,0.383 -8.867,0.379 -13.254,0"
           style="fill:#fdc4b6;fill-opacity:1;fill-rule:nonzero;stroke:none"
           id="path595" /><path
           d="m 528.062,406.426 c 4.387,-0.383 8.872,-0.383 13.254,0 -4.382,0.379 -8.867,0.379 -13.254,0"
           style="fill:#fdc4b6;fill-opacity:1;fill-rule:nonzero;stroke:none"
           id="path597" /><path
           d="m 528.062,431.137 c 4.387,-0.379 8.872,-0.383 13.254,0 -4.382,0.383 -8.867,0.379 -13.254,0"
           style="fill:#fdc4b6;fill-opacity:1;fill-rule:nonzero;stroke:none"
           id="path599" /><path
           d="m 528.062,434.855 c 4.387,-0.382 8.872,-0.382 13.254,0 -4.382,0.379 -8.867,0.379 -13.254,0"
           style="fill:#fdc4b6;fill-opacity:1;fill-rule:nonzero;stroke:none"
           id="path601" /><path
           d="m 532.195,409 h 5.684 v 19.293 h -5.684 z"
           style="fill:#fdc4b6;fill-opacity:1;fill-rule:nonzero;stroke:none"
           id="path603" /><path
           d="m 517.824,439.43 -8.953,-2.063 c -1.051,-0.242 -1.707,-1.285 -1.465,-2.336 l 10.004,-43.39 c 0.242,-1.051 1.289,-1.703 2.34,-1.465 l 8.957,2.066 c 1.047,0.238 1.703,1.285 1.461,2.336 l -10.004,43.391 c -0.242,1.051 -1.289,1.703 -2.34,1.461"
           style="fill:#4292f3;fill-opacity:1;fill-rule:nonzero;stroke:none"
           id="path605" /><path
           d="m 526.914,398.406 -8.254,-1.902 0.52,-2.242 8.254,1.902 -0.52,2.242"
           style="fill:#324d90;fill-opacity:1;fill-rule:nonzero;stroke:none"
           id="path607" /><path
           d="m 526.082,402.016 -8.254,-1.903 0.516,-2.242 8.258,1.902 -0.52,2.243"
           style="fill:#324d90;fill-opacity:1;fill-rule:nonzero;stroke:none"
           id="path609" /><path
           d="m 519.32,431.352 -8.254,-1.903 0.516,-2.242 8.254,1.902 -0.516,2.243"
           style="fill:#324d90;fill-opacity:1;fill-rule:nonzero;stroke:none"
           id="path611" /><path
           d="m 518.488,434.961 -8.254,-1.899 0.516,-2.242 8.254,1.899 -0.516,2.242"
           style="fill:#324d90;fill-opacity:1;fill-rule:nonzero;stroke:none"
           id="path613" /><path
           d="m 524.863,403.375 c -1.523,7.875 -3.347,15.797 -5.425,23.543 1.523,-7.875 3.347,-15.793 5.425,-23.543"
           style="fill:#324d90;fill-opacity:1;fill-rule:nonzero;stroke:none"
           id="path615" /><path
           d="m 521.547,402.84 c -1.524,7.875 -3.348,15.797 -5.43,23.543 1.524,-7.875 3.352,-15.793 5.43,-23.543"
           style="fill:#324d90;fill-opacity:1;fill-rule:nonzero;stroke:none"
           id="path617" /><path
           d="m 518.227,402.305 c -1.524,7.875 -3.348,15.793 -5.426,23.543 1.523,-7.875 3.351,-15.797 5.426,-23.543"
           style="fill:#324d90;fill-opacity:1;fill-rule:nonzero;stroke:none"
           id="path619" /><path
           d="m 629.047,357.594 h -14.305 l 1.008,-6.481 -4.02,6.481 h -3.238 c 1.063,-41.332 39.875,-43.656 40.074,0 h -3.207 l -1.207,-9.801 -1.414,9.801 h -5.918 v -9.66 l -1.89,9.66 h -5.883"
           style="fill:#59445a;fill-opacity:1;fill-rule:nonzero;stroke:none"
           id="path621" /><path
           d="m 619.23,344.754 c 0.758,4.766 -3.246,5.445 -4.109,0.695 -0.754,-4.765 3.25,-5.445 4.109,-0.695"
           style="fill:#c68863;fill-opacity:1;fill-rule:nonzero;stroke:none"
           id="path623" /><path
           d="m 638.863,344.754 c -0.754,4.766 3.25,5.445 4.11,0.695 0.757,-4.765 -3.246,-5.445 -4.11,-0.695"
           style="fill:#c68863;fill-opacity:1;fill-rule:nonzero;stroke:none"
           id="path625" /><path
           d="m 635.094,348.77 c -3.039,0 -9.055,0 -12.094,0 1.461,4.16 -1.723,25.003 -1.723,25.003 3.899,0 11.645,0 15.543,0 0,0 -3.183,-20.843 -1.726,-25.003"
           style="fill:#e0ab8b;fill-opacity:1;fill-rule:nonzero;stroke:none"
           id="path627" /><path
           d="m 640.715,345.34 c -0.289,18.66 -23.047,18.66 -23.336,0 -2.07,-19.102 24.789,-19.289 23.336,0"
           style="fill:#e0ab8b;fill-opacity:1;fill-rule:nonzero;stroke:none"
           id="path629" /><path
           d="m 623.164,357.594 c 0,0 5.481,4.222 11.766,0 l 0.328,3.781 c 0,0 -6.766,3.16 -12.426,0.039 l 0.332,-3.82"
           style="fill:#c68863;fill-opacity:1;fill-rule:nonzero;stroke:none"
           id="path631" /><path
           d="m 631.41,331.156 v 8.938 c 0,0 -7.222,0.59 -13.871,1.617 -1.859,-11.574 13.535,-15.863 13.871,-10.555"
           style="fill:#59445a;fill-opacity:1;fill-rule:nonzero;stroke:none"
           id="path633" /><path
           d="m 631.336,330.465 1.906,9.203 c 0,0 3.563,0.484 7.254,2.043 0,0 3.262,-13.176 -9.16,-11.246"
           style="fill:#59445a;fill-opacity:1;fill-rule:nonzero;stroke:none"
           id="path635" /><path
           d="m 652.953,379.945 c -2.316,-12.629 -12.555,-15.519 -23.906,-14.773 v -0.004 c -0.082,0 -0.246,0 -0.328,0 v 0.004 c -11.172,-0.801 -21.399,2.445 -23.582,14.773 l -4.731,40.981 c 26.434,7.633 30.942,7.179 57.282,0 l -4.735,-40.981"
           style="fill:#4292f3;fill-opacity:1;fill-rule:nonzero;stroke:none"
           id="path637" /></g></g><g
       id="g639"
       transform="matrix(0.35277778,0,0,0.35277774,298.81992,6.1383329e-6)"><g
         id="g641"
         clip-path="url(#clipPath645)"><g
           id="g647"
           clip-path="url(#clipPath651)"><path
             d="m 603.719,401.047 c 9.719,5.383 30.867,18.183 47.058,16.23 -24.164,12.543 -22.629,12.661 -47.941,2.774 l 0.883,-19.004"
             style="fill:#3c7ed7;fill-opacity:1;fill-rule:nonzero;stroke:none"
             id="path653" /></g></g></g><g
       id="g655"
       transform="matrix(0.35277778,0,0,0.35277774,298.81992,6.1383329e-6)"><path
         d="m 619.703,365.359 c 1.145,7.684 17.563,7.649 18.688,0 0,0 -9.539,-0.671 -18.688,0"
         style="fill:#e0ab8b;fill-opacity:1;fill-rule:nonzero;stroke:none"
         id="path657" /><path
         d="m 629.047,371.172 -5.895,5.871 c 0,0 -5.992,-3.688 -5.023,-11.363 l 1.574,-0.321 9.344,5.813"
         style="fill:#ffffff;fill-opacity:1;fill-rule:nonzero;stroke:none"
         id="path659" /><path
         d="m 629.047,371.172 5.891,5.871 c 0,0 5.996,-3.688 5.027,-11.363 l -1.574,-0.321 -9.344,5.813"
         style="fill:#ffffff;fill-opacity:1;fill-rule:nonzero;stroke:none"
         id="path661" /><path
         d="m 598.77,388.379 c -0.434,8.836 -6.969,23.879 7,25.336 l -1.129,-21.297 -5.871,-4.039"
         style="fill:#c68863;fill-opacity:1;fill-rule:nonzero;stroke:none"
         id="path663" /><path
         d="m 658.52,388.957 c 0.558,9.176 6.753,23.656 -7.036,25.961 l 1.164,-21.926 5.872,-4.035"
         style="fill:#c68863;fill-opacity:1;fill-rule:nonzero;stroke:none"
         id="path665" /><path
         d="m 617.898,431.5 c 0,0 -4.546,-2.816 -6.945,-2.078 -0.355,0.109 -2.859,3.191 -2.859,3.191 l -8.489,3.215 c -1.574,0.547 -2.378,2.086 -2.609,3.652 h 21.516 l -0.614,-7.98"
         style="fill:#c68863;fill-opacity:1;fill-rule:nonzero;stroke:none"
         id="path667" /><path
         d="m 617.32,429.742 c 0,0 37.805,-20.918 51.274,-19.082 13.465,1.832 14.054,20.563 2.426,24.539 -11.633,3.977 -52.95,4.281 -52.95,4.281 l -0.75,-9.738"
         style="fill:#2a437d;fill-opacity:1;fill-rule:nonzero;stroke:none"
         id="path669" /><path
         d="m 640.77,429.742 c 0,0 -37.805,-20.918 -51.27,-19.082 -13.465,1.832 -14.055,20.563 -2.426,24.539 11.629,3.977 52.946,4.281 52.946,4.281 l 0.75,-9.738"
         style="fill:#324d90;fill-opacity:1;fill-rule:nonzero;stroke:none"
         id="path671" /><path
         d="m 640.633,431.5 c 0,0 4.547,-2.816 6.941,-2.078 0.36,0.109 2.86,3.191 2.86,3.191 l 8.492,3.215 c 1.574,0.547 2.379,2.086 2.609,3.652 H 640.02 l 0.613,-7.98"
         style="fill:#e0ab8b;fill-opacity:1;fill-rule:nonzero;stroke:none"
         id="path673" /><path
         d="m 599.438,374.41 26.48,11.129 v 30.145 l -26.48,-11.551 V 374.41"
         style="fill:#ff7f50;fill-opacity:1;fill-rule:nonzero;stroke:none"
         id="path675" /><path
         d="m 657.621,374.41 -26.48,11.129 v 30.145 l 26.48,-11.551 V 374.41"
         style="fill:#ff7f50;fill-opacity:1;fill-rule:nonzero;stroke:none"
         id="path677" /><path
         d="m 625.918,385.539 h 5.227 v 30.145 h -5.227 z"
         style="fill:#fdc4b6;fill-opacity:1;fill-rule:nonzero;stroke:none"
         id="path679" /><path
         d="m 601.238,375.168 6.086,-1.395 21.09,8.993 -2.496,2.773 -24.68,-10.371"
         style="fill:#ffffff;fill-opacity:1;fill-rule:nonzero;stroke:none"
         id="path681" /><path
         d="m 628.414,382.766 2.727,2.773 24.027,-10.098 -4.395,-1.66 -22.359,8.985"
         style="fill:#ffffff;fill-opacity:1;fill-rule:nonzero;stroke:none"
         id="path683" /><path
         d="m 628.414,382.766 -2.496,2.773 h 5.223 l -2.727,-2.773"
         style="fill:#dcecfd;fill-opacity:1;fill-rule:nonzero;stroke:none"
         id="path685" /><path
         d="m 657.5,385.141 c -1.91,1.156 -5.742,2.336 -5.93,5.027 -0.613,3.203 3.071,5.98 6.004,4.633 0.617,-0.586 1.297,-1.309 1.246,-2.223 v -5.344 c 0,-0.894 -0.511,-1.711 -1.32,-2.093"
         style="fill:#e0ab8b;fill-opacity:1;fill-rule:nonzero;stroke:none"
         id="path687" /><path
         d="m 599.441,385.141 c 1.911,1.156 5.743,2.336 5.93,5.027 0.613,3.203 -3.07,5.98 -6.004,4.633 -0.617,-0.586 -1.297,-1.309 -1.25,-2.223 v -5.344 c 0,-0.894 0.516,-1.711 1.324,-2.093"
         style="fill:#e0ab8b;fill-opacity:1;fill-rule:nonzero;stroke:none"
         id="path689" /><path
         d="m 670.414,315.289 c -14.258,-0.066 -26.582,9.594 -17.641,19.723 -3.179,13.992 -2.464,9.73 9.157,5.066 27.894,7.758 44.371,-22.219 8.484,-24.789"
         style="fill:#ffffff;fill-opacity:1;fill-rule:nonzero;stroke:none"
         id="path691" /><path
         d="m 662.344,328.062 c -0.008,2.426 -3.699,2.426 -3.707,0 0.008,-2.425 3.699,-2.425 3.707,0"
         style="fill:#dcecfd;fill-opacity:1;fill-rule:nonzero;stroke:none"
         id="path693" /><path
         d="m 673.152,328.062 c -0.011,2.426 -3.703,2.426 -3.711,0 0.012,-2.425 3.7,-2.425 3.711,0"
         style="fill:#dcecfd;fill-opacity:1;fill-rule:nonzero;stroke:none"
         id="path695" /><path
         d="m 683.957,328.062 c -0.012,2.426 -3.703,2.426 -3.711,0 0.012,-2.425 3.699,-2.425 3.711,0"
         style="fill:#dcecfd;fill-opacity:1;fill-rule:nonzero;stroke:none"
         id="path697" /><path
         d="m 698.949,397.184 h 1.012 v 24.594 h -1.012 z"
         style="fill:#152e60;fill-opacity:1;fill-rule:nonzero;stroke:none"
         id="path699" /><path
         d="m 699.961,397.184 h 1.012 v 24.594 h -1.012 z"
         style="fill:#324d90;fill-opacity:1;fill-rule:nonzero;stroke:none"
         id="path701" /><path
         d="m 697.938,397.184 h 1.012 v 24.594 h -1.012 z"
         style="fill:#324d90;fill-opacity:1;fill-rule:nonzero;stroke:none"
         id="path703" /><path
         d="m 697.938,421.777 1.347,5.719 1.688,-5.719 h -3.035"
         style="fill:#ffffff;fill-opacity:1;fill-rule:nonzero;stroke:none"
         id="path705" /></g><g
       id="g707"
       transform="matrix(0.35277778,0,0,0.35277774,298.81992,6.1383329e-6)"><g
         id="g709"
         clip-path="url(#clipPath713)"><g
           id="g715"
           clip-path="url(#clipPath719)"><path
             d="m 698.348,425.195 h 1.797 v 2.301 h -1.797 z"
             style="fill:#152e60;fill-opacity:1;fill-rule:nonzero;stroke:none"
             id="path721" /></g></g></g><g
       id="g723"
       transform="matrix(0.35277778,0,0,0.35277774,298.81992,6.1383329e-6)"><path
         d="m 697.938,393.91 h 3.035 v 3.273 h -3.035 z"
         style="fill:#fdc4b6;fill-opacity:1;fill-rule:nonzero;stroke:none"
         id="path725" /><path
         d="m 697.938,395.801 h 3.035 v 0.73 h -3.035 z"
         style="fill:#ff7f50;fill-opacity:1;fill-rule:nonzero;stroke:none"
         id="path727" /><path
         d="m 697.938,394.562 h 3.035 v 0.73 h -3.035 z"
         style="fill:#ff7f50;fill-opacity:1;fill-rule:nonzero;stroke:none"
         id="path729" /><path
         d="m 700.973,393.566 v 0.344 h -3.035 c -0.122,-0.945 0.519,-1.867 1.515,-1.859 0.84,0 1.52,0.679 1.52,1.515"
         style="fill:#ffffff;fill-opacity:1;fill-rule:nonzero;stroke:none"
         id="path731" /><path
         d="m 708.582,397.703 -6.09,23.828 -0.976,-0.25 6.089,-23.828 0.977,0.25"
         style="fill:#fdc4b6;fill-opacity:1;fill-rule:nonzero;stroke:none"
         id="path733" /><path
         d="m 709.562,397.953 -6.089,23.828 -0.981,-0.25 6.09,-23.828 0.98,0.25"
         style="fill:#ff7f50;fill-opacity:1;fill-rule:nonzero;stroke:none"
         id="path735" /><path
         d="m 707.605,397.453 -6.089,23.828 -0.981,-0.254 6.09,-23.828 0.98,0.254"
         style="fill:#ff7f50;fill-opacity:1;fill-rule:nonzero;stroke:none"
         id="path737" /><path
         d="m 700.535,421.027 -0.113,5.875 3.051,-5.121 -2.938,-0.754"
         style="fill:#ffffff;fill-opacity:1;fill-rule:nonzero;stroke:none"
         id="path739" /></g><g
       id="g741"
       transform="matrix(0.35277778,0,0,0.35277774,298.81992,6.1383329e-6)"><g
         id="g743"
         clip-path="url(#clipPath747)"><g
           id="g749"
           clip-path="url(#clipPath753)"><path
             d="m 701.824,424.887 -0.625,2.445 -1.738,-0.445 0.621,-2.442 1.742,0.442"
             style="fill:#152e60;fill-opacity:1;fill-rule:nonzero;stroke:none"
             id="path755" /></g></g></g><g
       id="g757"
       transform="matrix(0.35277778,0,0,0.35277774,298.81992,6.1383329e-6)"><path
         d="m 710.375,394.777 -0.813,3.176 -2.937,-0.754 0.809,-3.172 2.941,0.75"
         style="fill:#324d90;fill-opacity:1;fill-rule:nonzero;stroke:none"
         id="path759" /><path
         d="m 709.906,396.609 -0.179,0.707 -2.942,-0.75 0.18,-0.707 2.941,0.75"
         style="fill:#152e60;fill-opacity:1;fill-rule:nonzero;stroke:none"
         id="path761" /><path
         d="m 710.211,395.41 -0.18,0.707 -2.937,-0.75 0.179,-0.707 2.938,0.75"
         style="fill:#152e60;fill-opacity:1;fill-rule:nonzero;stroke:none"
         id="path763" /><path
         d="m 710.461,394.445 -0.086,0.332 -2.941,-0.75 c 0.254,-2.203 3.468,-1.761 3.027,0.418"
         style="fill:#ffffff;fill-opacity:1;fill-rule:nonzero;stroke:none"
         id="path765" /><path
         d="m 705.02,439.48 c -28.02,0.075 -19.071,3.438 -20.54,-30.476 h 24.426 v 26.59 c 0,2.148 -1.738,3.886 -3.886,3.886"
         style="fill:#ffffff;fill-opacity:1;fill-rule:nonzero;stroke:none"
         id="path767" /><path
         d="m 686.648,384.371 h 8.07 v 24.633 h -8.07 z"
         style="fill:#bedbfa;fill-opacity:1;fill-rule:nonzero;stroke:none"
         id="path769" /><path
         d="m 686.648,387.609 h 3.066 v 1.164 h -3.066 z"
         style="fill:#dcecfd;fill-opacity:1;fill-rule:nonzero;stroke:none"
         id="path771" /><path
         d="m 686.648,390.266 h 3.066 v 1.164 h -3.066 z"
         style="fill:#dcecfd;fill-opacity:1;fill-rule:nonzero;stroke:none"
         id="path773" /><path
         d="m 686.648,392.926 h 3.066 v 1.164 h -3.066 z"
         style="fill:#dcecfd;fill-opacity:1;fill-rule:nonzero;stroke:none"
         id="path775" /><path
         d="m 686.648,395.586 h 3.066 v 1.164 h -3.066 z"
         style="fill:#dcecfd;fill-opacity:1;fill-rule:nonzero;stroke:none"
         id="path777" /><path
         d="m 686.648,398.242 h 3.066 v 1.164 h -3.066 z"
         style="fill:#dcecfd;fill-opacity:1;fill-rule:nonzero;stroke:none"
         id="path779" /><path
         d="m 686.648,400.902 h 3.066 v 1.164 h -3.066 z"
         style="fill:#dcecfd;fill-opacity:1;fill-rule:nonzero;stroke:none"
         id="path781" /><path
         d="m 686.648,403.559 h 3.066 v 1.164 h -3.066 z"
         style="fill:#dcecfd;fill-opacity:1;fill-rule:nonzero;stroke:none"
         id="path783" /><path
         d="m 686.648,406.219 h 3.066 v 1.164 h -3.066 z"
         style="fill:#dcecfd;fill-opacity:1;fill-rule:nonzero;stroke:none"
         id="path785" /><path
         d="m 693.43,385.742 h 1.289 v 23.262 h -1.289 z"
         style="fill:#ffffff;fill-opacity:1;fill-rule:nonzero;stroke:none"
         id="path787" /><path
         d="m 684.48,413.254 h 24.43 v 2.93 h -24.43 z"
         style="fill:#bedbfa;fill-opacity:1;fill-rule:nonzero;stroke:none"
         id="path789" /><path
         d="m 684.48,418.578 h 24.43 v 2.93 h -24.43 z"
         style="fill:#bedbfa;fill-opacity:1;fill-rule:nonzero;stroke:none"
         id="path791" /><path
         d="m 458.441,333.664 c 0,0 19.012,41.785 23.161,72.031 h 4.285 c 0,0 -8.805,-40.535 -27.446,-72.031"
         style="fill:#ffffff;fill-opacity:1;fill-rule:nonzero;stroke:none"
         id="path793" /></g><g
       id="g795"
       transform="matrix(0.35277778,0,0,0.35277774,298.81992,6.1383329e-6)"><g
         id="g797"
         clip-path="url(#clipPath801)"><path
           d="m 461.035,339.051 c 0,0 -4.844,-3.36 0,-11.289 6.453,-19.778 -35.672,-7.778 -22.465,25.136 l 8.071,-7.527 c -9.786,15.363 -4.286,19.527 1.882,32.934 l 6.325,-5.914 c 0,0 -4.438,7.797 -4.305,8.734 0.133,0.945 9.551,13.578 9.551,13.578 0,0 19.91,-27.961 20.176,-29.437 0.269,-1.481 -11.165,-11.426 -11.165,-11.426 l 13.317,9.008 c 1.594,-6.555 9.844,-30.844 -7.399,-33.071 0,0 6.055,0.403 9.418,2.418 0,0 -1.211,-12.5 -10.894,-11.425 -9.688,1.078 -8.074,6.992 -8.34,10.89 -0.269,3.899 -4.172,7.391 -4.172,7.391"
           style="fill:#bedbfa;fill-opacity:1;fill-rule:nonzero;stroke:none"
           id="path803" /></g></g><g
       id="g805"
       transform="matrix(0.35277778,0,0,0.35277774,298.81992,6.1383329e-6)"><path
         d="m 509.75,326.488 c 0,0 -2.656,-2.418 -1.18,-5.601 6.618,-18.059 -21.586,-19.336 -20.238,11.968 l 7.492,-2.476 c 0,0 -6.254,5.129 -6.429,8.312 -0.176,3.184 9.261,23.172 9.261,23.172 l 4.192,-5.011 c 0,0 -2.36,6.484 -2.125,7.429 0.234,0.942 7.965,9.785 7.965,9.785 0,0 9.261,-12.91 9.324,-13.914 0.058,-1 -5.547,-7.84 -5.547,-7.84 l 7.906,5.422 c 0,0 10.149,-13.382 10.086,-15.742 -0.059,-2.355 -9.262,-9.492 -9.262,-9.492 l 10.149,5.426 c 0,0 0.945,-9.317 -0.946,-13.621 l -8.789,-3.535 8.321,1.945 c 0,0 -3.602,-12.735 -7.672,-13.442 -4.07,-0.711 -10.914,7.84 -10.797,11.672 0.117,3.832 -1.711,5.543 -1.711,5.543"
         style="fill:#bedbfa;fill-opacity:1;fill-rule:nonzero;stroke:none"
         id="path807" /><path
         d="m 481.602,405.695 c 0,0 3.945,-47.511 28.148,-79.207 0,0 -21.793,44.649 -23.863,79.207 h -4.285"
         style="fill:#ffffff;fill-opacity:1;fill-rule:nonzero;stroke:none"
         id="path809" /><path
         d="m 483.801,405.695 h -21.844 l 6.383,30.684 c 0.336,1.605 1.75,2.758 3.39,2.758 h 24.137 c 1.641,0 3.055,-1.153 3.391,-2.758 l 6.383,-30.684 h -21.84"
         style="fill:#bedbfa;fill-opacity:1;fill-rule:nonzero;stroke:none"
         id="path811" /><path
         d="m 723.039,439.812 h -2.777 l 8.668,-14.433 h 2.777 l -8.668,14.433"
         style="fill:#ff7f50;fill-opacity:1;fill-rule:nonzero;stroke:none"
         id="path813" /><path
         d="m 748.473,439.812 h 2.777 l -8.664,-14.433 h -2.777 l 8.664,14.433"
         style="fill:#ff7f50;fill-opacity:1;fill-rule:nonzero;stroke:none"
         id="path815" /><path
         d="m 728.691,392.84 -2.086,1.086 -5.183,-9.906 c -0.301,-0.575 -0.078,-1.286 0.496,-1.586 0.578,-0.301 1.285,-0.079 1.59,0.496 l 5.183,9.91"
         style="fill:#324d90;fill-opacity:1;fill-rule:nonzero;stroke:none"
         id="path817" /><path
         d="m 730.684,386.203 c -3.68,-6.961 -14.286,-1.414 -10.668,5.574 l 10.668,-5.574"
         style="fill:#ff7f50;fill-opacity:1;fill-rule:nonzero;stroke:none"
         id="path819" /></g><g
       id="g821"
       transform="matrix(0.35277778,0,0,0.35277774,298.81992,6.1383329e-6)"><g
         id="g823"
         clip-path="url(#clipPath827)"><g
           id="g829"
           clip-path="url(#clipPath833)"><path
             d="m 727.66,382.691 c 0,0 -3.191,6.098 -8.598,8.848 -4.089,-6.769 3.981,-10.07 8.598,-8.848"
             style="fill:#fdc4b6;fill-opacity:1;fill-rule:nonzero;stroke:none"
             id="path835" /></g></g></g><g
       id="g837"
       transform="matrix(0.35277778,0,0,0.35277774,298.81992,6.1383329e-6)"><path
         d="m 747.402,393.105 -2.246,-0.703 3.344,-10.668 c 0.195,-0.621 0.855,-0.964 1.477,-0.773 0.617,0.195 0.964,0.855 0.769,1.477 l -3.344,10.667"
         style="fill:#324d90;fill-opacity:1;fill-rule:nonzero;stroke:none"
         id="path839" /><path
         d="m 753.508,389.82 c 2.32,-7.519 -9.106,-11.093 -11.492,-3.597 l 11.492,3.597"
         style="fill:#ff7f50;fill-opacity:1;fill-rule:nonzero;stroke:none"
         id="path841" /></g><g
       id="g843"
       transform="matrix(0.35277778,0,0,0.35277774,298.81992,6.1383329e-6)"><g
         id="g845"
         clip-path="url(#clipPath849)"><g
           id="g851"
           clip-path="url(#clipPath855)"><path
             d="m 753.855,385.203 c 0,0 -6.578,2.059 -12.343,0.18 1.894,-7.676 9.937,-4.309 12.343,-0.18"
             style="fill:#fdc4b6;fill-opacity:1;fill-rule:nonzero;stroke:none"
             id="path857" /></g></g></g><g
       id="g859"
       transform="matrix(0.35277778,0,0,0.35277774,298.81992,6.1383329e-6)"><path
         d="m 738.082,430.371 c -27.422,-0.492 -27.418,-41.211 0,-41.699 27.418,0.492 27.414,41.215 0,41.699"
         style="fill:#ff7f50;fill-opacity:1;fill-rule:nonzero;stroke:none"
         id="path861" /><path
         d="m 735.52,430.371 c -27.418,-0.492 -27.415,-41.211 0.003,-41.699 27.418,0.492 27.415,41.215 -0.003,41.699"
         style="fill:#fdc4b6;fill-opacity:1;fill-rule:nonzero;stroke:none"
         id="path863" /><path
         d="m 752.711,409.523 c -0.383,22.582 -34,22.579 -34.383,-0.003 0.387,-22.579 34.004,-22.579 34.383,0.003"
         style="fill:#ffffff;fill-opacity:1;fill-rule:nonzero;stroke:none"
         id="path865" /></g><g
       id="g867"
       transform="matrix(0.35277778,0,0,0.35277774,298.81992,6.1383329e-6)"><g
         id="g869"
         clip-path="url(#clipPath873)"><g
           id="g875"
           clip-path="url(#clipPath879)"><path
             d="m 735.52,426.457 c -6.094,0 -12.188,-2.902 -15.223,-8.707 2.508,0.961 5.117,1.414 7.68,1.414 11.543,0 22.175,-9.238 18.527,-22.945 3.609,2.808 6.105,7.242 6.207,13.304 -0.191,11.289 -8.691,16.934 -17.191,16.934"
             style="fill:#e8f2fe;fill-opacity:1;fill-rule:nonzero;stroke:none"
             id="path881" /></g></g></g><g
       id="g883"
       transform="matrix(0.35277778,0,0,0.35277774,298.81992,6.1383329e-6)"><path
         d="m 736.164,397.891 -1.402,8.093 1.402,2.879 1.398,-2.879 -1.398,-8.093"
         style="fill:#324d90;fill-opacity:1;fill-rule:nonzero;stroke:none"
         id="path885" /><path
         d="m 743.828,412.574 -4.34,-3.187 -2.226,0.633 1.215,1.972 5.351,0.582"
         style="fill:#324d90;fill-opacity:1;fill-rule:nonzero;stroke:none"
         id="path887" /><path
         d="m 738.441,409.387 c -0.05,2.992 -4.507,2.992 -4.558,0 0.051,-2.996 4.508,-2.996 4.558,0"
         style="fill:#152e60;fill-opacity:1;fill-rule:nonzero;stroke:none"
         id="path889" /><path
         d="m 736.41,395.77 c -0.222,-0.012 -0.453,-0.02 -0.68,-0.016 0.004,-0.027 -0.054,-1.316 -0.054,-1.344 0.265,-0.008 0.539,0.004 0.801,0.016 z m -3.738,0.375 -0.297,-1.317 c 0.25,-0.055 0.504,-0.101 0.758,-0.148 l 0.234,1.324 c -0.234,0.043 -0.469,0.09 -0.695,0.141 z m 6.754,0.113 c -0.227,-0.063 -0.457,-0.121 -0.684,-0.172 l 0.297,-1.313 c 0.25,0.055 0.504,0.122 0.75,0.192 z m -9.66,0.855 -0.563,-1.222 c 0.231,-0.106 0.473,-0.211 0.711,-0.305 l 0.5,1.25 c -0.219,0.086 -0.437,0.18 -0.648,0.277 z m 12.488,0.297 c -0.203,-0.113 -0.418,-0.222 -0.629,-0.32 l 0.586,-1.215 c 0.23,0.109 0.465,0.23 0.687,0.355 z m -15.09,1.285 -0.832,-1.058 c 0.203,-0.16 0.414,-0.317 0.625,-0.461 l 0.773,1.101 c -0.191,0.133 -0.382,0.274 -0.566,0.418 z m 17.594,0.469 c -0.176,-0.156 -0.36,-0.309 -0.543,-0.453 l 0.84,-1.055 c 0.199,0.16 0.402,0.328 0.593,0.496 z m -19.738,1.684 -1.063,-0.828 c 0.16,-0.204 0.328,-0.407 0.496,-0.598 l 1.016,0.887 c -0.157,0.171 -0.305,0.355 -0.449,0.539 z m 21.789,0.578 c -0.141,-0.192 -0.282,-0.379 -0.43,-0.563 l 1.051,-0.84 c 0.16,0.2 0.32,0.407 0.468,0.618 z m -23.368,2.027 -1.226,-0.562 c 0.109,-0.235 0.223,-0.469 0.344,-0.696 l 1.191,0.625 c -0.105,0.207 -0.211,0.418 -0.309,0.633 z m 24.86,0.633 c -0.09,-0.215 -0.188,-0.43 -0.289,-0.645 l 1.211,-0.586 c 0.113,0.231 0.218,0.469 0.32,0.704 z m -25.817,2.269 -1.32,-0.281 c 0.055,-0.254 0.113,-0.508 0.18,-0.754 l 1.304,0.348 c -0.062,0.223 -0.117,0.453 -0.164,0.687 z m 26.68,0.657 c -0.039,-0.231 -0.086,-0.465 -0.141,-0.692 l 1.317,-0.3 c 0.055,0.25 0.109,0.503 0.152,0.757 z m -27,2.39 h -1.348 c 0,-0.257 0.008,-0.515 0.02,-0.773 l 1.344,0.062 c -0.012,0.235 -0.016,0.473 -0.016,0.711 z m 28.535,0.758 -1.344,-0.07 c 0.012,-0.246 0.016,-0.492 0.016,-0.738 h 1.348 c 0,0.269 -0.008,0.539 -0.02,0.808 z m -29.527,2.567 c -0.055,-0.25 -0.102,-0.504 -0.145,-0.758 l 1.332,-0.219 c 0.036,0.23 0.082,0.465 0.129,0.695 z m 28.984,0.742 -1.297,-0.367 c 0.063,-0.223 0.121,-0.454 0.176,-0.684 l 1.313,0.297 c -0.059,0.254 -0.121,0.508 -0.192,0.754 z m -27.926,2.441 c -0.109,-0.234 -0.21,-0.472 -0.308,-0.715 l 1.254,-0.5 c 0.086,0.219 0.179,0.438 0.277,0.653 z m 26.653,0.664 -1.18,-0.648 c 0.113,-0.203 0.219,-0.414 0.32,-0.629 l 1.215,0.586 c -0.113,0.234 -0.23,0.465 -0.355,0.691 z m -24.903,2.203 c -0.16,-0.203 -0.316,-0.414 -0.464,-0.625 l 1.105,-0.773 c 0.133,0.195 0.274,0.383 0.418,0.57 z m 22.969,0.539 -1.008,-0.894 c 0.157,-0.176 0.309,-0.356 0.457,-0.539 l 1.051,0.84 c -0.16,0.203 -0.328,0.402 -0.5,0.593 z m -20.586,1.84 c -0.207,-0.16 -0.406,-0.328 -0.601,-0.496 l 0.886,-1.015 c 0.176,0.156 0.36,0.304 0.543,0.449 z m 18.098,0.406 -0.785,-1.093 c 0.187,-0.137 0.379,-0.281 0.562,-0.426 l 0.84,1.051 c -0.199,0.16 -0.41,0.32 -0.617,0.468 z m -15.227,1.333 c -0.234,-0.106 -0.468,-0.219 -0.695,-0.34 l 0.621,-1.192 c 0.211,0.106 0.422,0.211 0.637,0.309 z m 12.301,0.304 -0.523,-1.242 c 0.215,-0.09 0.429,-0.187 0.64,-0.289 l 0.586,1.215 c -0.23,0.109 -0.468,0.215 -0.703,0.316 z m -9.121,0.746 c -0.254,-0.054 -0.504,-0.117 -0.75,-0.179 l 0.348,-1.301 c 0.226,0.062 0.461,0.117 0.691,0.168 z m 5.898,0.196 -0.23,-1.325 c 0.23,-0.043 0.465,-0.086 0.691,-0.14 l 0.301,1.312 c -0.25,0.059 -0.508,0.11 -0.762,0.153 z m -2.574,0.222 c -0.265,-0.008 -0.531,-0.027 -0.789,-0.043 l 0.102,-1.343 c 0.234,0.019 0.469,0.031 0.707,0.039 -0.024,0.328 -0.024,1.015 -0.02,1.347"
         style="fill:#324d90;fill-opacity:1;fill-rule:nonzero;stroke:none"
         id="path891" /></g><g
       id="g893"
       transform="matrix(0.35277778,0,0,0.35277774,298.81992,6.1383329e-6)"><g
         id="g895"
         clip-path="url(#clipPath899)"><path
           d="m 448.871,439.48 c 111.207,-0.777 225.113,-0.785 336.32,0 -111.207,0.786 -225.113,0.782 -336.32,0"
           style="fill:#152e60;fill-opacity:1;fill-rule:nonzero;stroke:none"
           id="path901" /></g></g></g></svg>
