<?xml version="1.0" encoding="UTF-8" standalone="no"?>
<svg
   class="icon icon-tabler icon-tabler-cards"
   width="24"
   height="24"
   viewBox="0 0 24 24"
   stroke-width="2"
   stroke="currentColor"
   fill="none"
   stroke-linecap="round"
   stroke-linejoin="round"
   version="1.1"
   id="svg10"
   sodipodi:docname="cards.svg"
   inkscape:version="1.2.1 (9c6d41e410, 2022-07-14)"
   xmlns:inkscape="http://www.inkscape.org/namespaces/inkscape"
   xmlns:sodipodi="http://sodipodi.sourceforge.net/DTD/sodipodi-0.dtd"
   xmlns="http://www.w3.org/2000/svg"
   xmlns:svg="http://www.w3.org/2000/svg">
  <defs
     id="defs14" />
  <sodipodi:namedview
     id="namedview12"
     pagecolor="#ffffff"
     bordercolor="#000000"
     borderopacity="0.25"
     inkscape:showpageshadow="2"
     inkscape:pageopacity="0.0"
     inkscape:pagecheckerboard="0"
     inkscape:deskcolor="#d1d1d1"
     showgrid="false"
     inkscape:zoom="27.812867"
     inkscape:cx="13.554877"
     inkscape:cy="13.069491"
     inkscape:window-width="1920"
     inkscape:window-height="1121"
     inkscape:window-x="-9"
     inkscape:window-y="-9"
     inkscape:window-maximized="1"
     inkscape:current-layer="svg10" />
  <path
     stroke="none"
     d="M0 0h24v24H0z"
     fill="none"
     id="path2" />
  <path
     d="M3.604 7.197l7.138 -3.109a.96 .96 0 0 1 1.27 .527l4.924 11.902a1 1 0 0 1 -.514 1.304l-7.137 3.109a.96 .96 0 0 1 -1.271 -.527l-4.924 -11.903a1 1 0 0 1 .514 -1.304z"
     id="path4"
     style="stroke:#ff7f50;stroke-opacity:1" />
  <path
     d="M15 4h1a1 1 0 0 1 1 1v3.5"
     id="path6"
     style="stroke:#ff7f50;stroke-opacity:1" />
  <path
     d="M20 6c.264 .112 .52 .217 .768 .315a1 1 0 0 1 .53 1.311l-2.298 5.374"
     id="path8"
     style="stroke:#ff7f50;stroke-opacity:1" />
</svg>
