<svg xmlns="http://www.w3.org/2000/svg" width="267.303" height="268.105" viewBox="0 0 70.724 70.936" xmlns:v="https://vecta.io/nano"><defs><clipPath id="A"><path d="M168.699 165h371.602v371.602H168.699z"/></clipPath><clipPath id="B"><path d="M173.199 165h362.602c2.484 0 4.5 2.016 4.5 4.5v362.602c0 2.48-2.016 4.5-4.5 4.5H173.199c-2.484 0-4.5-2.02-4.5-4.5V169.5c0-2.484 2.016-4.5 4.5-4.5z"/></clipPath><clipPath id="C"><path d="M168.699 165h371.602v371.602H168.699z"/></clipPath><radialGradient fx="74.325" fy="-148.65" cx="74.325" cy="-148.65" r="1114.8" gradientUnits="userSpaceOnUse" gradientTransform="matrix(0.500471,0,0,0.500471,168.7,165)" spreadMethod="pad" id="D"><stop offset="0" stop-color="#756ddf"/><stop offset=".333" stop-color="#4788e9"/><stop offset=".667" stop-color="#1c9be6"/><stop offset="1" stop-color="#08aadb"/></radialGradient><clipPath id="E"><path d="M168.601 230.038h371.557v269.443H168.601z" fill="#069592" stroke="#069592" stroke-width=".254"/></clipPath><clipPath id="F"><path d="M182.326 304.696h128.587v28.031H182.326z" fill="#069592" stroke="#069592" stroke-width=".128"/></clipPath><clipPath id="G"><path d="M222.5 894.898h120v42.75h-120z"/></clipPath><clipPath id="H"><path d="M227 894.898h111c2.484 0 4.5 2.02 4.5 4.5v33.75a4.5 4.5 0 0 1-4.5 4.5H227a4.5 4.5 0 0 1-4.5-4.5v-33.75c0-2.48 2.016-4.5 4.5-4.5z"/></clipPath><clipPath id="I"><path d="M366.5 894.898h120v42.75h-120z"/></clipPath><clipPath id="J"><path d="M371 894.898h111c2.484 0 4.5 2.02 4.5 4.5v33.75a4.5 4.5 0 0 1-4.5 4.5H371a4.5 4.5 0 0 1-4.5-4.5v-33.75c0-2.48 2.016-4.5 4.5-4.5z"/></clipPath></defs><g transform="matrix(.446042 0 0 .446042 6.117811 0)"><g transform="matrix(.352778 0 0 .352778 -59.47881 -58.207982)"><g clip-path="url(#A)"><g clip-path="url(#B)"><g clip-path="url(#C)"><path d="M168.699 165h371.602v371.602H168.699z" fill="url(#D)"/></g></g></g><g clip-path="url(#E)"><path d="M321.725 293.237h-10.778v-16.359h10.778v1.934h-8.602v4.482h8.602v1.934h-8.602v6.075h8.602zm12.466 0h-2.065v-1.285q-.89.769-1.857 1.198-.967.428-2.098.428-2.197 0-3.494-1.692-1.285-1.692-1.285-4.691 0-1.56.439-2.78.45-1.219 1.208-2.076.747-.835 1.736-1.274 1-.439 2.065-.439.967 0 1.714.209.747.198 1.571.626v-5.317h2.065zm-2.065-3.021v-7.042q-.835-.374-1.494-.516-.659-.143-1.439-.143-1.736 0-2.703 1.208-.967 1.208-.967 3.428 0 2.186.747 3.329.747 1.132 2.395 1.132.879 0 1.78-.385.901-.396 1.681-1.011zm16.252 3.021h-2.065v-1.362q-1.044.824-2 1.263-.956.439-2.109.439-1.934 0-3.01-1.176-1.077-1.187-1.077-3.472v-7.965h2.065v6.987q0 .934.088 1.604.088.659.374 1.132.297.483.769.703.472.22 1.373.22.802 0 1.747-.417.956-.417 1.78-1.066v-9.163h2.065zm15.697-1.187q-.604.264-1.099.494-.483.231-1.274.483-.67.209-1.461.352-.78.154-1.725.154-1.78 0-3.241-.494-1.45-.505-2.527-1.571-1.055-1.044-1.648-2.648-.593-1.615-.593-3.746 0-2.021.571-3.615.571-1.593 1.648-2.692 1.044-1.066 2.516-1.626 1.483-.56 3.285-.56 1.318 0 2.626.319 1.318.319 2.922 1.121v2.582h-.165q-1.351-1.132-2.681-1.648-1.329-.516-2.845-.516-1.241 0-2.241.406-.989.396-1.769 1.241-.758.824-1.187 2.087-.417 1.252-.417 2.9 0 1.725.461 2.966.472 1.241 1.208 2.021.769.813 1.791 1.208 1.033.385 2.175.385 1.571 0 2.944-.538 1.373-.538 2.571-1.615h.154zm13.101 1.187h-2.054v-1.307q-.275.187-.747.527-.461.33-.901.527-.516.253-1.187.417-.67.176-1.571.176-1.659 0-2.812-1.099-1.154-1.099-1.154-2.802 0-1.395.593-2.252.604-.868 1.714-1.362 1.121-.494 2.692-.67 1.571-.176 3.373-.264v-.319q0-.703-.253-1.165-.242-.461-.703-.725-.439-.253-1.055-.341-.615-.088-1.285-.088-.813 0-1.813.22-1 .209-2.065.615h-.11v-2.098q.604-.165 1.747-.363 1.143-.198 2.252-.198 1.296 0 2.252.22.967.209 1.67.725.692.505 1.055 1.307.363.802.363 1.989zm-2.054-3.021V286.8q-.945.055-2.23.165-1.274.11-2.021.319-.89.253-1.439.791-.549.527-.549 1.461 0 1.055.637 1.593.637.527 1.945.527 1.088 0 1.989-.417.901-.428 1.67-1.022zm12.864-6.998h-.11q-.461-.11-.901-.154-.428-.055-1.022-.055-.956 0-1.846.428-.89.417-1.714 1.088v8.712h-2.065v-12.272h2.065v1.813q1.23-.989 2.164-1.395.945-.417 1.923-.417.538 0 .78.033.242.022.725.099zm10.265 10.02h-2.065v-1.285q-.89.769-1.857 1.198-.967.428-2.098.428-2.197 0-3.494-1.692-1.285-1.692-1.285-4.691 0-1.56.439-2.78.45-1.219 1.208-2.076.747-.835 1.736-1.274 1-.439 2.065-.439.967 0 1.714.209.747.198 1.571.626v-5.317h2.065zm-2.065-3.021v-7.042q-.835-.374-1.494-.516-.659-.143-1.439-.143-1.736 0-2.703 1.208-.967 1.208-.967 3.428 0 2.186.747 3.329.747 1.132 2.395 1.132.879 0 1.78-.385.901-.396 1.681-1.011z" fill="#fff"/><path d="M168.699 322.301h371.602v.75H168.699z" fill="#e1e1e1"/><g fill="#fff"><path d="M211.82 368.612h-2.318l-1.604-4.559h-7.075l-1.604 4.559h-2.208l5.955-16.359h2.9zm-4.592-6.427l-2.867-8.031-2.878 8.031zm17.542.143q0 1.494-.428 2.736-.428 1.23-1.208 2.087-.725.813-1.714 1.263-.978.439-2.076.439-.956 0-1.736-.209-.769-.209-1.571-.648v5.142h-2.065V356.34h2.065v1.285q.824-.692 1.846-1.154 1.033-.472 2.197-.472 2.219 0 3.45 1.681 1.241 1.67 1.241 4.647zm-2.131.055q0-2.219-.758-3.318-.758-1.099-2.329-1.099-.89 0-1.791.385-.901.385-1.725 1.011v6.954q.879.396 1.505.538.637.143 1.439.143 1.725 0 2.692-1.165.967-1.165.967-3.45zm7.13 6.229h-2.065v-17.095h2.065zm5.469-14.326h-2.329v-2.142h2.329zm-.132 14.326h-2.065V356.34h2.065zm12.325-.769q-1.033.494-1.967.769-.923.275-1.967.275-1.329 0-2.439-.385-1.11-.396-1.901-1.187-.802-.791-1.241-2-.439-1.208-.439-2.823 0-3.01 1.648-4.724 1.659-1.714 4.373-1.714 1.055 0 2.065.297 1.022.297 1.868.725v2.296h-.11q-.945-.736-1.956-1.132-1-.396-1.956-.396-1.758 0-2.78 1.187-1.011 1.176-1.011 3.461 0 2.219.989 3.417 1 1.187 2.802 1.187.626 0 1.274-.165.648-.165 1.165-.428.45-.231.846-.483.396-.264.626-.45h.11zm13.022.769h-2.054v-1.307q-.275.187-.747.527-.461.33-.901.527-.516.253-1.187.417-.67.176-1.571.176-1.659 0-2.812-1.099-1.154-1.099-1.154-2.802 0-1.395.593-2.252.604-.868 1.714-1.362 1.121-.494 2.692-.67 1.571-.176 3.373-.264v-.319q0-.703-.253-1.165-.242-.461-.703-.725-.439-.253-1.055-.341-.615-.088-1.285-.088-.813 0-1.813.22-1 .209-2.065.615h-.11v-2.098q.604-.165 1.747-.363 1.143-.198 2.252-.198 1.296 0 2.252.22.967.209 1.67.725.692.505 1.055 1.307.363.802.363 1.989zm-2.054-3.021v-3.417q-.945.055-2.23.165-1.274.11-2.021.319-.89.253-1.439.791-.549.527-.549 1.461 0 1.055.637 1.593.637.527 1.945.527 1.088 0 1.989-.417.901-.428 1.67-1.022zm14.281 2.252q-1.033.494-1.967.769-.923.275-1.967.275-1.329 0-2.439-.385-1.11-.396-1.901-1.187-.802-.791-1.241-2-.439-1.208-.439-2.823 0-3.01 1.648-4.724 1.659-1.714 4.373-1.714 1.055 0 2.065.297 1.022.297 1.868.725v2.296h-.11q-.945-.736-1.956-1.132-1-.396-1.956-.396-1.758 0-2.78 1.187-1.011 1.176-1.011 3.461 0 2.219.989 3.417 1 1.187 2.802 1.187.626 0 1.274-.165.648-.165 1.165-.428.45-.231.846-.483.396-.264.626-.45h.11zm5.705-13.557h-2.329v-2.142h2.329zm-.132 14.326h-2.065V356.34h2.065zm13.709-6.13q0 2.999-1.538 4.735-1.538 1.736-4.12 1.736-2.604 0-4.142-1.736-1.527-1.736-1.527-4.735 0-2.999 1.527-4.735Q283.7 356 286.304 356q2.582 0 4.12 1.747 1.538 1.736 1.538 4.735zm-2.131 0q0-2.384-.934-3.538-.934-1.165-2.593-1.165-1.681 0-2.615 1.165-.923 1.154-.923 3.538 0 2.307.934 3.505.934 1.187 2.604 1.187 1.648 0 2.582-1.176.945-1.187.945-3.516zm-.11-12.283l-2.999 4.109h-1.637l1.967-4.109zm15.467 18.413h-2.065v-6.987q0-.846-.099-1.582-.099-.747-.363-1.165-.275-.461-.791-.681-.516-.231-1.34-.231-.846 0-1.769.417-.923.417-1.769 1.066v9.163h-2.065V356.34h2.065v1.362q.967-.802 2-1.252 1.033-.45 2.12-.45 1.989 0 3.032 1.198 1.044 1.198 1.044 3.45zm24.67-12.272l-3.197 12.272h-1.912l-3.153-9.459-3.131 9.459h-1.901l-3.23-12.272h2.153l2.252 9.503 3.065-9.503h1.703l3.142 9.503 2.131-9.503zm12.69 6.35h-9.042q0 1.132.341 1.978.341.835.934 1.373.571.527 1.351.791.791.264 1.736.264 1.252 0 2.516-.494 1.274-.505 1.813-.989h.11v2.252q-1.044.439-2.131.736-1.088.297-2.285.297-3.054 0-4.768-1.648-1.714-1.659-1.714-4.702 0-3.01 1.637-4.779 1.648-1.769 4.329-1.769 2.483 0 3.823 1.45 1.351 1.45 1.351 4.12zm-2.01-1.582q-.011-1.626-.824-2.516-.802-.89-2.45-.89-1.659 0-2.648.978-.978.978-1.11 2.428zm15.642 1.274q0 1.538-.439 2.769-.428 1.23-1.165 2.065-.78.868-1.714 1.307-.934.428-2.054.428-1.044 0-1.824-.253-.78-.242-1.538-.659l-.132.571h-1.934v-17.095h2.065v6.108q.868-.714 1.846-1.165.978-.461 2.197-.461 2.175 0 3.428 1.67 1.263 1.67 1.263 4.713zm-2.131.055q0-2.197-.725-3.329-.725-1.143-2.34-1.143-.901 0-1.824.396-.923.385-1.714 1v7.031q.879.396 1.505.549.637.154 1.439.154 1.714 0 2.681-1.121.978-1.132.978-3.538zm21.58 6.174h-2.065v-1.285q-.89.769-1.857 1.198-.967.428-2.098.428-2.197 0-3.494-1.692-1.285-1.692-1.285-4.691 0-1.56.439-2.78.45-1.219 1.209-2.076.747-.835 1.736-1.274 1-.439 2.065-.439.967 0 1.714.209.747.198 1.571.626v-5.317h2.065zm-2.065-3.021v-7.042q-.835-.374-1.494-.516-.659-.143-1.439-.143-1.736 0-2.703 1.208-.967 1.208-.967 3.428 0 2.186.747 3.329.747 1.132 2.395 1.132.879 0 1.78-.385.901-.396 1.681-1.011zm16.351-2.9h-9.042q0 1.132.341 1.978.341.835.934 1.373.571.527 1.351.791.791.264 1.736.264 1.252 0 2.516-.494 1.274-.505 1.813-.989h.11v2.252q-1.044.439-2.131.736-1.088.297-2.285.297-3.054 0-4.768-1.648-1.714-1.659-1.714-4.702 0-3.01 1.637-4.779 1.648-1.769 4.329-1.769 2.483 0 3.823 1.45 1.351 1.45 1.351 4.12zm-2.01-1.582q-.011-1.626-.824-2.516-.802-.89-2.45-.89-1.659 0-2.648.978-.978.978-1.11 2.428zm21.783-6.921h-8.273v4.614h7.108v1.934h-7.108v7.877h-2.175v-16.359h10.448zm4.674 14.425h-2.065v-17.095h2.065zm12.786 0h-2.054v-1.307q-.275.187-.747.527-.461.33-.901.527-.516.253-1.187.417-.67.176-1.571.176-1.659 0-2.812-1.099-1.154-1.099-1.154-2.802 0-1.395.593-2.252.604-.868 1.714-1.362 1.121-.494 2.692-.67 1.571-.176 3.373-.264v-.319q0-.703-.253-1.165-.242-.461-.703-.725-.439-.253-1.055-.341-.615-.088-1.285-.088-.813 0-1.813.22-1 .209-2.065.615h-.11v-2.098q.604-.165 1.747-.363 1.143-.198 2.252-.198 1.296 0 2.252.22.967.209 1.67.725.692.505 1.055 1.307.363.802.363 1.989zm-2.054-3.021v-3.417q-.945.055-2.23.165-1.274.11-2.021.319-.89.253-1.439.791-.549.527-.549 1.461 0 1.055.637 1.593.637.527 1.945.527 1.088 0 1.989-.417.901-.428 1.67-1.022zm13.974-.516q0 1.681-1.395 2.758-1.384 1.077-3.79 1.077-1.362 0-2.505-.319-1.132-.33-1.901-.714v-2.318h.11q.978.736 2.175 1.176 1.198.428 2.296.428 1.362 0 2.131-.439.769-.439.769-1.384 0-.725-.417-1.099-.417-.374-1.604-.637-.439-.099-1.154-.231-.703-.132-1.285-.286-1.615-.428-2.296-1.252-.67-.835-.67-2.043 0-.758.308-1.428.319-.67.956-1.198.615-.516 1.56-.813.956-.308 2.131-.308 1.099 0 2.219.275 1.132.264 1.879.648v2.208h-.11q-.791-.582-1.923-.978-1.132-.406-2.219-.406-1.132 0-1.912.439-.78.428-.78 1.285 0 .758.472 1.143.461.385 1.494.626.571.132 1.274.264.714.132 1.187.242 1.439.33 2.219 1.132.78.813.78 2.153zm13.255 3.538h-2.065v-6.987q0-.846-.099-1.582-.099-.747-.363-1.165-.275-.461-.791-.681-.516-.231-1.34-.231-.846 0-1.769.417-.923.417-1.769 1.066v9.163h-2.065v-17.095h2.065v6.185q.967-.802 2-1.252 1.033-.45 2.12-.45 1.989 0 3.032 1.198 1.044 1.198 1.044 3.45zm12.109-.769q-1.033.494-1.967.769-.923.275-1.967.275-1.329 0-2.439-.385-1.11-.396-1.901-1.187-.802-.791-1.241-2-.439-1.208-.439-2.823 0-3.01 1.648-4.724 1.659-1.714 4.373-1.714 1.055 0 2.065.297 1.022.297 1.868.725v2.296h-.11q-.945-.736-1.956-1.132-1-.396-1.956-.396-1.758 0-2.78 1.187-1.011 1.176-1.011 3.461 0 2.219.989 3.417 1 1.187 2.802 1.187.626 0 1.274-.165.648-.165 1.165-.428.45-.231.846-.483.396-.264.626-.45h.11zm13.022.769h-2.054v-1.307q-.275.187-.747.527-.461.33-.901.527-.516.253-1.187.417-.67.176-1.571.176-1.659 0-2.812-1.099-1.154-1.099-1.154-2.802 0-1.395.593-2.252.604-.868 1.714-1.362 1.121-.494 2.692-.67 1.571-.176 3.373-.264v-.319q0-.703-.253-1.165-.242-.461-.703-.725-.439-.253-1.055-.341-.615-.088-1.285-.088-.813 0-1.813.22-1 .209-2.065.615h-.11v-2.098q.604-.165 1.747-.363 1.143-.198 2.252-.198 1.296 0 2.252.22.967.209 1.67.725.692.505 1.055 1.307.363.802.363 1.989zm-2.054-3.021v-3.417q-.945.055-2.23.165-1.274.11-2.021.319-.89.253-1.439.791-.549.527-.549 1.461 0 1.055.637 1.593.637.527 1.945.527 1.088 0 1.989-.417.901-.428 1.67-1.022zm12.864-6.998h-.11q-.461-.11-.901-.154-.428-.055-1.022-.055-.956 0-1.846.428-.89.417-1.714 1.088v8.712h-2.065V356.34h2.065v1.813q1.23-.989 2.164-1.395.945-.417 1.923-.417.538 0 .78.033.242.022.725.099zm10.265 10.02h-2.065v-1.285q-.89.769-1.857 1.198-.967.428-2.098.428-2.197 0-3.494-1.692-1.285-1.692-1.285-4.691 0-1.56.439-2.78.45-1.219 1.208-2.076.747-.835 1.736-1.274 1-.439 2.065-.439.967 0 1.714.209.747.198 1.571.626v-5.317h2.065zm-2.065-3.021v-7.042q-.835-.374-1.494-.516-.659-.143-1.439-.143-1.736 0-2.703 1.208-.967 1.208-.967 3.428 0 2.186.747 3.329.747 1.132 2.395 1.132.879 0 1.78-.385.901-.396 1.681-1.011zm14.846-.516q0 1.681-1.395 2.758-1.384 1.077-3.79 1.077-1.362 0-2.505-.319-1.132-.33-1.901-.714v-2.318h.11q.978.736 2.175 1.176 1.198.428 2.296.428 1.362 0 2.131-.439.769-.439.769-1.384 0-.725-.417-1.099-.417-.374-1.604-.637-.439-.099-1.154-.231-.703-.132-1.285-.286-1.615-.428-2.296-1.252-.67-.835-.67-2.043 0-.758.308-1.428.319-.67.956-1.198.615-.516 1.56-.813.956-.308 2.131-.308 1.099 0 2.219.275 1.132.264 1.879.648v2.208h-.11q-.791-.582-1.923-.978-1.132-.406-2.219-.406-1.132 0-1.912.439-.78.428-.78 1.285 0 .758.472 1.143.461.385 1.494.626.571.132 1.274.264.714.132 1.187.242 1.439.33 2.219 1.132.78.813.78 2.153z"/><path d="M236.37 390.453q0 1.494-.428 2.736-.428 1.23-1.208 2.087-.725.813-1.714 1.263-.978.439-2.076.439-.956 0-1.736-.209-.769-.209-1.571-.648v5.142h-2.065v-16.798h2.065v1.285q.824-.692 1.846-1.154 1.033-.472 2.197-.472 2.219 0 3.45 1.681 1.241 1.67 1.241 4.647zm-2.131.055q0-2.219-.758-3.318-.758-1.099-2.329-1.099-.89 0-1.791.385-.901.385-1.725 1.011v6.954q.879.396 1.505.538.637.143 1.439.143 1.725 0 2.692-1.165.967-1.165.967-3.45zm14.579 6.229h-2.054v-1.307q-.275.187-.747.527-.461.33-.901.527-.516.253-1.187.417-.67.176-1.571.176-1.659 0-2.812-1.099-1.154-1.099-1.154-2.802 0-1.395.593-2.252.604-.868 1.714-1.362 1.121-.494 2.692-.67 1.571-.176 3.373-.264v-.319q0-.703-.253-1.165-.242-.461-.703-.725-.439-.253-1.055-.341-.615-.088-1.285-.088-.813 0-1.813.22-1 .209-2.065.615h-.11v-2.098q.604-.165 1.747-.363 1.143-.198 2.252-.198 1.296 0 2.252.22.967.209 1.67.725.692.505 1.055 1.307.363.802.363 1.989zm-2.054-3.021v-3.417q-.945.055-2.23.165-1.274.11-2.021.319-.89.253-1.439.791-.549.527-.549 1.461 0 1.055.637 1.593.637.527 1.945.527 1.088 0 1.989-.417.901-.428 1.67-1.022zm12.864-6.998h-.11q-.461-.11-.901-.154-.428-.055-1.022-.055-.956 0-1.846.428-.89.417-1.714 1.088v8.712h-2.065v-12.272h2.065v1.813q1.23-.989 2.164-1.395.945-.417 1.923-.417.538 0 .78.033.242.022.725.099zm10.252 10.02h-2.054v-1.307q-.275.187-.747.527-.461.33-.901.527-.516.253-1.187.417-.67.176-1.571.176-1.659 0-2.812-1.099-1.154-1.099-1.154-2.802 0-1.395.593-2.252.604-.868 1.714-1.362 1.121-.494 2.692-.67 1.571-.176 3.373-.264v-.319q0-.703-.253-1.165-.242-.461-.703-.725-.439-.253-1.055-.341-.615-.088-1.285-.088-.813 0-1.813.22-1 .209-2.065.615h-.11v-2.098q.604-.165 1.747-.363 1.143-.198 2.252-.198 1.296 0 2.252.22.967.209 1.67.725.692.505 1.055 1.307.363.802.363 1.989zm-2.054-3.021v-3.417q-.945.055-2.23.165-1.274.11-2.021.319-.89.253-1.439.791-.549.527-.549 1.461 0 1.055.637 1.593.637.527 1.945.527 1.088 0 1.989-.417.901-.428 1.67-1.022zm22.334-3.263q0 1.494-.428 2.736-.428 1.23-1.208 2.087-.725.813-1.714 1.263-.978.439-2.076.439-.956 0-1.736-.209-.769-.209-1.571-.648v5.142h-2.065v-16.798h2.065v1.285q.824-.692 1.846-1.154 1.033-.472 2.197-.472 2.219 0 3.45 1.681 1.241 1.67 1.241 4.647zm-2.131.055q0-2.219-.758-3.318-.758-1.099-2.329-1.099-.89 0-1.791.385-.901.385-1.725 1.011v6.954q.879.396 1.505.538.637.143 1.439.143 1.725 0 2.692-1.165.967-1.165.967-3.45zm12.7-3.79h-.11q-.461-.11-.901-.154-.428-.055-1.022-.055-.956 0-1.846.428-.89.417-1.714 1.088v8.712h-2.065v-12.272h2.065v1.813q1.23-.989 2.164-1.395.945-.417 1.923-.417.538 0 .78.033.242.022.725.099zm10.793 3.889q0 2.999-1.538 4.735-1.538 1.736-4.12 1.736-2.604 0-4.142-1.736-1.527-1.736-1.527-4.735 0-2.999 1.527-4.735 1.538-1.747 4.142-1.747 2.582 0 4.12 1.747 1.538 1.736 1.538 4.735zm-2.131 0q0-2.384-.934-3.538-.934-1.165-2.593-1.165-1.681 0-2.615 1.165-.923 1.154-.923 3.538 0 2.307.934 3.505.934 1.187 2.604 1.187 1.648 0 2.582-1.176.945-1.187.945-3.516zm11.698-8.965h-.11q-.341-.099-.89-.198-.549-.11-.967-.11-1.329 0-1.934.593-.593.582-.593 2.12v.417h3.724v1.736h-3.658v10.536h-2.065v-10.536h-1.395v-1.736h1.395v-.406q0-2.186 1.088-3.351 1.088-1.176 3.142-1.176.692 0 1.241.066.56.066 1.022.154zm11.27 9.174h-9.042q0 1.132.341 1.978.341.835.934 1.373.571.527 1.351.791.791.264 1.736.264 1.252 0 2.516-.494 1.274-.505 1.813-.989h.11v2.252q-1.044.439-2.131.736-1.088.297-2.285.297-3.054 0-4.768-1.648-1.714-1.659-1.714-4.702 0-3.01 1.637-4.779 1.648-1.769 4.329-1.769 2.483 0 3.823 1.45 1.351 1.45 1.351 4.12zm-2.011-1.582q-.011-1.626-.824-2.516-.802-.89-2.45-.89-1.659 0-2.648.978-.978.978-1.11 2.428zm13.609 3.966q0 1.681-1.395 2.758-1.384 1.077-3.79 1.077-1.362 0-2.505-.319-1.132-.33-1.901-.714v-2.318h.11q.978.736 2.175 1.176 1.198.428 2.296.428 1.362 0 2.131-.439.769-.439.769-1.384 0-.725-.417-1.099-.417-.374-1.604-.637-.439-.099-1.154-.231-.703-.132-1.285-.286-1.615-.428-2.296-1.252-.67-.835-.67-2.043 0-.758.308-1.428.319-.67.956-1.198.615-.516 1.56-.813.956-.308 2.131-.308 1.099 0 2.219.275 1.132.264 1.879.648v2.208h-.11q-.791-.582-1.923-.978-1.132-.406-2.219-.406-1.132 0-1.912.439-.78.428-.78 1.285 0 .758.472 1.143.461.385 1.494.626.571.132 1.274.264.714.132 1.187.242 1.439.33 2.219 1.132.78.813.78 2.153zm13.453-2.593q0 2.999-1.538 4.735-1.538 1.736-4.12 1.736-2.604 0-4.142-1.736-1.527-1.736-1.527-4.735 0-2.999 1.527-4.735 1.538-1.747 4.142-1.747 2.582 0 4.12 1.747 1.538 1.736 1.538 4.735zm-2.131 0q0-2.384-.934-3.538-.934-1.165-2.593-1.165-1.681 0-2.615 1.165-.923 1.154-.923 3.538 0 2.307.934 3.505.934 1.187 2.604 1.187 1.648 0 2.582-1.176.945-1.187.945-3.516zm12.753-3.889h-.11q-.461-.11-.901-.154-.428-.055-1.022-.055-.956 0-1.846.428-.89.417-1.714 1.088v8.712h-2.065v-12.272h2.065v1.813q1.23-.989 2.164-1.395.945-.417 1.923-.417.538 0 .78.033.242.022.725.099zm10.606 4.098h-9.042q0 1.132.341 1.978.341.835.934 1.373.571.527 1.351.791.791.264 1.736.264 1.252 0 2.516-.494 1.274-.505 1.813-.989h.11v2.252q-1.044.439-2.131.736-1.088.297-2.285.297-3.054 0-4.768-1.648-1.714-1.659-1.714-4.702 0-3.01 1.637-4.779 1.648-1.769 4.329-1.769 2.483 0 3.823 1.45 1.351 1.45 1.351 4.12zm-2.01-1.582q-.011-1.626-.824-2.516-.802-.89-2.45-.89-1.659 0-2.648.978-.978.978-1.11 2.428zm13.609 3.966q0 1.681-1.395 2.758-1.384 1.077-3.79 1.077-1.362 0-2.505-.319-1.132-.33-1.901-.714v-2.318h.11q.978.736 2.175 1.176 1.198.428 2.296.428 1.362 0 2.131-.439.769-.439.769-1.384 0-.725-.417-1.099-.417-.374-1.604-.637-.439-.099-1.154-.231-.703-.132-1.285-.286-1.615-.428-2.296-1.252-.67-.835-.67-2.043 0-.758.308-1.428.319-.67.956-1.198.615-.516 1.56-.813.956-.308 2.131-.308 1.099 0 2.219.275 1.132.264 1.879.648v2.208h-.11q-.791-.582-1.923-.978-1.132-.406-2.219-.406-1.132 0-1.912.439-.78.428-.78 1.285 0 .758.472 1.143.461.385 1.494.626.571.132 1.274.264.714.132 1.187.242 1.439.33 2.219 1.132.78.813.78 2.153zm10.41-13.557l-7.877 20.435h-1.901l7.844-20.435zm10.142 17.095h-2.054v-1.307q-.275.187-.747.527-.461.33-.901.527-.516.253-1.187.417-.67.176-1.571.176-1.659 0-2.812-1.099-1.154-1.099-1.154-2.802 0-1.395.593-2.252.604-.868 1.714-1.362 1.121-.494 2.692-.67 1.571-.176 3.373-.264v-.319q0-.703-.253-1.165-.242-.461-.703-.725-.439-.253-1.055-.341-.615-.088-1.285-.088-.813 0-1.813.22-1 .209-2.065.615h-.11v-2.098q.604-.165 1.747-.363 1.143-.198 2.252-.198 1.296 0 2.252.22.967.209 1.67.725.692.505 1.055 1.307.363.802.363 1.989zm-2.054-3.021v-3.417q-.945.055-2.23.165-1.274.11-2.021.319-.89.253-1.439.791-.549.527-.549 1.461 0 1.055.637 1.593.637.527 1.945.527 1.088 0 1.989-.417.901-.428 1.67-1.022zm13.974-.516q0 1.681-1.395 2.758-1.384 1.077-3.79 1.077-1.362 0-2.505-.319-1.132-.33-1.901-.714v-2.318h.11q.978.736 2.175 1.176 1.198.428 2.296.428 1.362 0 2.131-.439.769-.439.769-1.384 0-.725-.417-1.099-.417-.374-1.604-.637-.439-.099-1.154-.231-.703-.132-1.285-.286-1.615-.428-2.296-1.252-.67-.835-.67-2.043 0-.758.308-1.428.319-.67.956-1.198.615-.516 1.56-.813.956-.308 2.131-.308 1.099 0 2.219.275 1.132.264 1.879.648v2.208h-.11q-.791-.582-1.923-.978-1.132-.406-2.219-.406-1.132 0-1.912.439-.78.428-.78 1.285 0 .758.472 1.143.461.385 1.494.626.571.132 1.274.264.714.132 1.187.242 1.439.33 2.219 1.132.78.813.78 2.153zm19.935-8.734l-7.163 16.798h-2.208l2.285-5.12-4.889-11.678h2.241l3.768 9.097 3.801-9.097zm17.011 8.734q0 1.681-1.395 2.758-1.384 1.077-3.79 1.077-1.362 0-2.505-.319-1.132-.33-1.901-.714v-2.318h.11q.978.736 2.175 1.176 1.198.428 2.296.428 1.362 0 2.131-.439.769-.439.769-1.384 0-.725-.417-1.099-.417-.374-1.604-.637-.439-.099-1.154-.231-.703-.132-1.285-.286-1.615-.428-2.296-1.252-.67-.835-.67-2.043 0-.758.308-1.428.319-.67.956-1.198.615-.516 1.56-.813.956-.308 2.131-.308 1.099 0 2.219.275 1.132.264 1.879.648v2.208h-.11q-.791-.582-1.923-.978-1.132-.406-2.219-.406-1.132 0-1.912.439-.78.428-.78 1.285 0 .758.472 1.143.461.385 1.494.626.571.132 1.274.264.714.132 1.187.242 1.439.33 2.219 1.132.78.813.78 2.153zm13.168 3.538h-2.065v-1.362q-1.044.824-2 1.263-.956.439-2.109.439-1.934 0-3.01-1.176-1.077-1.187-1.077-3.472v-7.965h2.065v6.987q0 .934.088 1.604.088.659.374 1.132.297.483.769.703.472.22 1.373.22.802 0 1.747-.417.956-.417 1.78-1.066v-9.163h2.065zm11.665-3.538q0 1.681-1.395 2.758-1.384 1.077-3.79 1.077-1.362 0-2.505-.319-1.132-.33-1.901-.714v-2.318h.11q.978.736 2.175 1.176 1.198.428 2.296.428 1.362 0 2.131-.439.769-.439.769-1.384 0-.725-.417-1.099-.417-.374-1.604-.637-.439-.099-1.154-.231-.703-.132-1.285-.286-1.615-.428-2.296-1.252-.67-.835-.67-2.043 0-.758.308-1.428.319-.67.956-1.198.615-.516 1.56-.813.956-.308 2.131-.308 1.099 0 2.219.275 1.132.264 1.879.648v2.208h-.11q-.791-.582-1.923-.978-1.132-.406-2.219-.406-1.132 0-1.912.439-.78.428-.78 1.285 0 .758.472 1.143.461.385 1.494.626.571.132 1.274.264.714.132 1.187.242 1.439.33 2.219 1.132.78.813.78 2.153z"/><path d="M302.219 424.862h-2.054v-1.307q-.275.187-.747.527-.461.33-.901.527-.516.253-1.187.417-.67.176-1.571.176-1.659 0-2.812-1.099-1.154-1.099-1.154-2.802 0-1.395.593-2.252.604-.868 1.714-1.362 1.121-.494 2.692-.67 1.571-.176 3.373-.264v-.319q0-.703-.253-1.165-.242-.461-.703-.725-.439-.253-1.055-.341-.615-.088-1.285-.088-.813 0-1.813.22-1 .209-2.065.615h-.11v-2.098q.604-.165 1.747-.363 1.143-.198 2.252-.198 1.296 0 2.252.22.967.209 1.67.725.692.505 1.055 1.307.363.802.363 1.989zm-2.054-3.021v-3.417q-.945.055-2.23.165-1.274.11-2.021.319-.89.253-1.439.791-.549.527-.549 1.461 0 1.055.637 1.593.637.527 1.945.527 1.088 0 1.989-.417.901-.428 1.67-1.022zm7.294 3.021h-2.065v-17.095h2.065zm13.423 0h-2.065V423.5q-1.044.824-2 1.263-.956.439-2.109.439-1.934 0-3.01-1.176-1.077-1.187-1.077-3.472v-7.965h2.065v6.987q0 .934.088 1.604.088.659.374 1.132.297.483.769.703.472.22 1.373.22.802 0 1.747-.417.956-.417 1.78-1.066v-9.163h2.065zm20.806 0h-2.065v-6.987q0-.791-.077-1.527-.066-.736-.297-1.176-.253-.472-.725-.714-.472-.242-1.362-.242-.868 0-1.736.439-.868.428-1.736 1.099.033.253.055.593.022.33.022.659v7.855h-2.065v-6.987q0-.813-.077-1.538-.066-.736-.297-1.176-.253-.472-.725-.703-.472-.242-1.362-.242-.846 0-1.703.417-.846.417-1.692 1.066v9.163h-2.065V412.59h2.065v1.362q.967-.802 1.923-1.252.967-.45 2.054-.45 1.252 0 2.12.527.879.527 1.307 1.461 1.252-1.055 2.285-1.516 1.033-.472 2.208-.472 2.021 0 2.977 1.23.967 1.219.967 3.417zm11.913 0h-2.065v-6.987q0-.846-.099-1.582-.099-.747-.363-1.165-.275-.461-.791-.681-.516-.231-1.34-.231-.846 0-1.769.417-.923.417-1.769 1.066v9.163h-2.065V412.59h2.065v1.362q.967-.802 2-1.252 1.033-.45 2.12-.45 1.989 0 3.032 1.198 1.044 1.198 1.044 3.45zm13.365-6.13q0 2.999-1.538 4.735-1.538 1.736-4.12 1.736-2.604 0-4.142-1.736-1.527-1.736-1.527-4.735 0-2.999 1.527-4.735 1.538-1.747 4.142-1.747 2.582 0 4.12 1.747 1.538 1.736 1.538 4.735zm-2.131 0q0-2.384-.934-3.538-.934-1.165-2.593-1.165-1.681 0-2.615 1.165-.923 1.154-.923 3.538 0 2.307.934 3.505.934 1.187 2.604 1.187 1.648 0 2.582-1.176.945-1.187.945-3.516zm13.863 2.593q0 1.681-1.395 2.758-1.384 1.077-3.79 1.077-1.362 0-2.505-.319-1.132-.33-1.901-.714v-2.318h.11q.978.736 2.175 1.176 1.198.428 2.296.428 1.362 0 2.131-.439.769-.439.769-1.384 0-.725-.417-1.099-.417-.374-1.604-.637-.439-.099-1.154-.231-.703-.132-1.285-.286-1.615-.428-2.296-1.252-.67-.835-.67-2.043 0-.758.308-1.428.319-.67.956-1.198.615-.516 1.56-.813.956-.308 2.131-.308 1.099 0 2.219.275 1.132.264 1.879.648v2.208h-.11q-.791-.582-1.923-.978-1.132-.406-2.219-.406-1.132 0-1.912.439-.78.428-.78 1.285 0 .758.472 1.143.461.385 1.494.626.571.132 1.274.264.714.132 1.187.242 1.439.33 2.219 1.132.78.813.78 2.153zm10.41-13.557l-7.877 20.435h-1.901l7.844-20.435zm10.142 17.095h-2.054v-1.307q-.275.187-.747.527-.461.33-.901.527-.516.253-1.187.417-.67.176-1.571.176-1.659 0-2.812-1.099-1.154-1.099-1.154-2.802 0-1.395.593-2.252.604-.868 1.714-1.362 1.121-.494 2.692-.67 1.571-.176 3.373-.264v-.319q0-.703-.253-1.165-.242-.461-.703-.725-.439-.253-1.055-.341-.615-.088-1.285-.088-.813 0-1.813.22-1 .209-2.065.615h-.11v-2.098q.604-.165 1.747-.363 1.143-.198 2.252-.198 1.296 0 2.252.22.967.209 1.67.725.692.505 1.055 1.307.363.802.363 1.989zm-2.054-3.021v-3.417q-.945.055-2.23.165-1.274.11-2.021.319-.89.253-1.439.791-.549.527-.549 1.461 0 1.055.637 1.593.637.527 1.945.527 1.088 0 1.989-.417.901-.428 1.67-1.022zm13.974-.516q0 1.681-1.395 2.758-1.384 1.077-3.79 1.077-1.362 0-2.505-.319-1.132-.33-1.901-.714v-2.318h.11q.978.736 2.175 1.176 1.198.428 2.296.428 1.362 0 2.131-.439.769-.439.769-1.384 0-.725-.417-1.099-.417-.374-1.604-.637-.439-.099-1.154-.231-.703-.132-1.285-.286-1.615-.428-2.296-1.252-.67-.835-.67-2.043 0-.758.308-1.428.319-.67.956-1.198.615-.516 1.56-.813.956-.308 2.131-.308 1.099 0 2.219.275 1.132.264 1.879.648v2.208h-.11q-.791-.582-1.923-.978-1.132-.406-2.219-.406-1.132 0-1.912.439-.78.428-.78 1.285 0 .758.472 1.143.461.385 1.494.626.571.132 1.274.264.714.132 1.187.242 1.439.33 2.219 1.132.78.813.78 2.153zm6.367 3.538h-2.626v-3.131h2.626z"/><path d="M36 888.898h637V965H36z" fill-opacity=".761"/></g></g></g><g transform="translate(-178.544 -173.692)" clip-path="url(#F)"><g clip-path="url(#G)" transform="matrix(.352778 0 0 .352778 119.04819 .000018)"><g clip-path="url(#H)"><path d="M222.5 894.898h120v42.75h-120z" fill="#4788e9"/></g></g><path d="M213.461 325.182h-.664l-1.287-1.53h-.721v1.53h-.512v-3.847h1.077q.349 0 .581.047.233.044.419.16.209.132.326.333.119.199.119.506 0 .416-.209.698-.209.279-.576.421zm-1.196-2.765q0-.165-.059-.292-.057-.129-.191-.217-.111-.075-.264-.103-.152-.031-.359-.031h-.602v1.452h.517q.243 0 .424-.041.181-.044.307-.16.116-.109.171-.248.057-.142.057-.359zm3.741 1.372h-2.126q0 .266.08.465.08.196.22.323.134.124.318.186.186.062.408.062.295 0 .592-.116.3-.119.426-.233h.026v.53q-.245.103-.501.173-.256.07-.537.07-.718 0-1.121-.388-.403-.39-.403-1.106 0-.708.385-1.124.388-.416 1.018-.416.584 0 .899.341.318.341.318.969zm-.473-.372q-.003-.382-.194-.592-.189-.209-.576-.209-.39 0-.623.23-.23.23-.261.571zm3.679.287q0 .351-.101.643-.101.289-.284.491-.171.191-.403.297-.23.103-.488.103-.225 0-.408-.049-.181-.049-.369-.152v1.209h-.486v-3.951h.486v.302q.194-.163.434-.271.243-.111.517-.111.522 0 .811.395.292.393.292 1.093zm-.501.013q0-.522-.178-.78-.178-.258-.548-.258-.209 0-.421.09-.212.09-.406.238v1.636q.207.093.354.127.15.034.338.034.406 0 .633-.274.227-.274.227-.811zm3.602.072h-2.126q0 .266.08.465.08.196.22.323.134.124.318.186.186.062.408.062.295 0 .592-.116.3-.119.426-.233h.026v.53q-.245.103-.501.173-.256.07-.537.07-.718 0-1.121-.388-.403-.39-.403-1.106 0-.708.385-1.124.388-.416 1.018-.416.584 0 .899.341.318.341.318.969zm-.473-.372q-.003-.382-.194-.592-.189-.209-.576-.209-.39 0-.623.23-.23.23-.261.571zm2.637 1.739q-.137.036-.3.059-.16.023-.287.023-.442 0-.672-.238-.23-.238-.23-.762v-1.535h-.328v-.408h.328v-.829h.486v.829h1.003v.408h-1.003v1.315q0 .227.01.357.01.127.072.238.057.103.155.152.101.047.305.047.119 0 .248-.034.129-.036.186-.059h.026zm.948-3.343h-.548v-.504h.548zm-.031 3.369h-.486v-2.886h.486zm2.565-2.356h-.026q-.109-.026-.212-.036-.101-.013-.24-.013-.225 0-.434.101-.209.098-.403.256v2.049h-.486v-2.886h.486v.426q.289-.233.509-.328.222-.098.452-.098.127 0 .183.008.057.005.171.023z" fill="#fff"/><g clip-path="url(#I)" transform="matrix(.352778 0 0 .352778 119.04819 .000018)"><g clip-path="url(#J)"><path d="M366.5 894.898h120v42.75h-120z" fill="#4788e9"/></g></g><path d="M267.485 323.999q0 .287-.109.506-.109.22-.292.362-.217.171-.478.243-.258.072-.659.072h-1.364v-3.847h1.139q.421 0 .63.031.209.031.4.129.212.111.307.287.096.173.096.416 0 .274-.14.468-.14.191-.372.307v.021q.39.08.615.344.225.261.225.661zm-.86-1.734q0-.14-.047-.235-.047-.096-.15-.155-.121-.07-.295-.085-.173-.018-.429-.018h-.61v1.111h.661q.24 0 .382-.023.142-.026.264-.103.121-.078.171-.199.052-.124.052-.292zm.328 1.754q0-.233-.07-.369-.07-.137-.253-.233-.124-.065-.302-.083-.176-.021-.429-.021h-.804v1.431h.677q.336 0 .55-.034.214-.036.351-.129.145-.101.212-.23.067-.129.067-.333zm1.556-2.207h-.548v-.504h.548zm-.031 3.369h-.486v-2.886h.486zm3.18-1.393h-2.126q0 .266.08.465.08.196.22.323.134.124.318.186.186.062.408.062.295 0 .592-.116.3-.119.426-.233h.026v.53q-.245.103-.501.173-.256.07-.537.07-.718 0-1.121-.388-.403-.39-.403-1.106 0-.708.385-1.124.388-.416 1.018-.416.584 0 .899.341.318.341.318.969zm-.473-.372q-.003-.382-.194-.592-.189-.209-.576-.209-.39 0-.623.23-.23.23-.261.571zm3.552 1.765h-.486v-1.643q0-.199-.023-.372-.023-.176-.085-.274-.065-.109-.186-.16-.121-.054-.315-.054-.199 0-.416.098-.217.098-.416.251v2.155h-.486v-2.886h.486v.32q.227-.189.47-.295.243-.106.499-.106.468 0 .713.282.245.282.245.811z" fill="#fff"/></g></g></svg>