<?xml version="1.0" encoding="UTF-8" standalone="no"?>
<!-- Created with Inkscape (http://www.inkscape.org/) -->

<svg
   version="1.1"
   id="svg487"
   width="3132.3596"
   height="2254.4878"
   viewBox="0 0 3132.3596 2254.4878"
   sodipodi:docname="error2.svg"
   inkscape:export-filename="error2.svg"
   inkscape:export-xdpi="96"
   inkscape:export-ydpi="96"
   inkscape:version="1.2.1 (9c6d41e410, 2022-07-14)"
   xmlns:inkscape="http://www.inkscape.org/namespaces/inkscape"
   xmlns:sodipodi="http://sodipodi.sourceforge.net/DTD/sodipodi-0.dtd"
   xmlns="http://www.w3.org/2000/svg"
   xmlns:svg="http://www.w3.org/2000/svg">
  <defs
     id="defs491" />
  <sodipodi:namedview
     id="namedview489"
     pagecolor="#ffffff"
     bordercolor="#000000"
     borderopacity="0.25"
     inkscape:showpageshadow="2"
     inkscape:pageopacity="0.0"
     inkscape:pagecheckerboard="0"
     inkscape:deskcolor="#d1d1d1"
     showgrid="false"
     inkscape:zoom="0.25031579"
     inkscape:cx="1410.2187"
     inkscape:cy="1168.524"
     inkscape:window-width="1920"
     inkscape:window-height="1121"
     inkscape:window-x="-9"
     inkscape:window-y="-9"
     inkscape:window-maximized="1"
     inkscape:current-layer="g495" />
  <g
     id="g495"
     inkscape:groupmode="layer"
     inkscape:label="Page 1"
     transform="matrix(1.3333333,0,0,-1.3333333,-433.81962,2461.6745)">
    <g
       id="g499"
       transform="translate(2573.27,159.13)">
      <path
         d="m 0,0 c -148.19,0 -2151.665,4.32 -2151.665,4.56 -0.826,1.95 -254.334,312.65 64.883,637.5 158.168,160.96 -145.248,369.495 0,548.54 161.541,199.129 321.976,196.157 470.776,193.185 80.376,-1.605 157.366,-3.211 229.296,27.042 36.24,15.225 72.6,39.733 109,77.341 20.49,21.146 42.94,39.641 66.98,55.61 3.69,2.458 7.41,4.858 11.17,7.19 14.4,8.927 29.32,16.997 44.69,24.255 10.33,4.87 20.85,9.374 31.57,13.511 h 0.01 c 17,6.573 34.47,12.243 52.31,17.033 25.33,6.812 51.42,11.876 78.02,15.305 11.6,1.509 23.3,2.686 35.08,3.577 229.16,17.227 487.04,-79.671 620.13,-221.298 26.79,-28.519 148.63,-176.084 52.59,-378.91 C -345.8,896.383 -91.77,774.08 -1.49,627.85 228.01,256.06 2.08,4.85 0,0"
         style="fill:#ebf3fa;fill-opacity:1;fill-rule:nonzero;stroke:none"
         id="path501" />
    </g>
    <g
       id="g503"
       transform="translate(1919.88,867.01)">
      <path
         d="m 0,0 -65.43,98.07 -39.26,146.621 -0.31,1.164 v 0.001 h -59.02 l -106.47,159.597 c 9.97,-1.768 23.48,-10.322 40.7,-21.94 6.3,-4.255 11.07,-6.012 14.83,-6.012 14.01,0.002 14.04,24.399 27.61,34.908 3.2,2.478 7.35,3.438 11.99,3.438 7.96,0 17.39,-2.825 26.04,-5.649 8.65,-2.826 16.51,-5.65 21.35,-5.65 2.67,0 4.41,0.864 4.85,3.067 2.49,12.5 -15.73,19.122 -31.53,23.832 -15.81,4.709 -21.77,11.006 -7.28,36.66 14.47,25.659 -2.57,18.451 -13.09,49.081 -4.78,13.923 -13.81,20.868 -22.23,24.285 -7.26,-1.487 -14.48,-3.255 -21.59,-5.293 -14.92,-4.269 -29.46,-9.716 -43.47,-16.279 -21.26,-9.942 -41.32,-22.433 -59.69,-37.244 18.37,14.811 38.43,27.302 59.69,37.244 14.01,6.563 28.55,12.01 43.47,16.279 7.11,2.038 14.33,3.806 21.59,5.293 19.09,3.928 38.66,5.958 58.43,5.958 33.02,0 66.61,-5.664 99.46,-17.604 6.96,-2.532 13.77,-5.298 20.41,-8.299 9.38,-4.216 18.43,-8.881 27.14,-13.965 36.69,-21.392 67.39,-50.101 90.93,-83.517 l 0.01,-0.005 c 14.67,-20.809 26.55,-43.431 35.34,-67.267 4.62,-12.517 8.39,-25.36 11.25,-38.445 1.79,-8.147 3.24,-16.373 4.33,-24.685 2.62,-19.97 3.16,-40.342 1.51,-60.817 -1.98,1.956 -4.27,3.392 -6.85,4.253 0,0 4.58,7.612 -31.92,17.788 -36.5,10.175 -20.92,50.895 -54.01,59.83 -6.35,1.716 -11.6,2.377 -16.14,2.377 -7.59,0 -13.16,-1.858 -18.48,-3.715 -5.31,-1.858 -10.37,-3.715 -16.96,-3.715 -3.35,0 -7.1,0.483 -11.48,1.695 -7.34,2.028 -14.53,3.133 -21.02,3.133 -17.1,0 -29.17,-7.706 -25.35,-26.477 5.28,-25.883 -24.88,-19.555 -19.05,-50.28 5.84,-30.724 40.73,-32.583 69.4,-34.504 C 28.38,201.291 -16.25,165.72 2.81,139.466 21.87,113.21 59.67,108.75 39.32,95.28 18.96,81.8 -19.71,54.12 9.47,28.05 15.67,22.5 23.04,19.76 31.14,19.51 21.17,12.35 10.76,5.83 0,0 m 90.62,330.929 c 12.9,0 19.34,-9.376 26.25,-18.751 6.92,-9.376 14.32,-18.75 29.16,-18.75 1.28,0 2.62,0.07 4.02,0.216 -1.09,8.312 -2.54,16.538 -4.33,24.685 -2.86,13.085 -6.63,25.928 -11.25,38.445 -8.79,23.836 -20.67,46.458 -35.34,67.267 l -0.01,0.005 c -1.83,0.488 -3.65,0.726 -5.44,0.726 -0.1,0 -0.2,-10e-4 -0.3,-0.002 0,0 -11.81,6.51 -23.62,6.51 -6.19,0 -12.37,-1.793 -16.85,-7.259 C 39.92,408.135 12.19,425.42 2.1,403.33 -7.99,381.225 41.66,393.062 56.4,371.223 c 13.9,-20.623 3.34,-40.621 27.12,-40.62 1.42,0 2.95,0.07 4.62,0.216 0.85,0.074 1.68,0.11 2.48,0.11 m -214.14,182.598 c -11.62,0 -17.81,-10.952 -11.28,-27.453 7.3,-18.426 8.56,-47.151 20.93,-47.152 1.98,0 4.24,0.734 6.85,2.363 16.68,10.375 20.29,21.996 31.64,21.996 1.57,0 3.29,-0.223 5.22,-0.704 0,0 23.6,16.704 1.41,32.227 -22.19,15.523 -24.87,6.734 -43.24,15.72 -4.19,2.048 -8.1,3.003 -11.53,3.003"
         style="fill:#dbe8fe;fill-opacity:1;fill-rule:nonzero;stroke:none"
         id="path505" />
    </g>
    <g
       id="g507"
       transform="translate(1704.92,1244.511)">
      <path
         d="m 0,0 c -3.76,0 -8.53,1.757 -14.83,6.012 -17.22,11.618 -30.73,20.172 -40.7,21.94 l -51.51,77.204 c 18.37,14.811 38.43,27.302 59.69,37.244 14.01,6.563 28.55,12.01 43.47,16.279 7.11,2.038 14.33,3.806 21.59,5.293 8.42,-3.417 17.45,-10.362 22.23,-24.285 C 50.46,109.057 67.5,116.265 53.03,90.606 38.54,64.952 44.5,58.655 60.31,53.946 76.11,49.236 94.33,42.614 91.84,30.114 91.4,27.911 89.66,27.047 86.99,27.047 c -4.84,0 -12.7,2.824 -21.35,5.65 -8.65,2.824 -18.08,5.649 -26.04,5.649 -4.64,0 -8.79,-0.96 -11.99,-3.438 C 14.04,24.399 14.01,0.002 0,0"
         style="fill:#bacdfe;fill-opacity:1;fill-rule:nonzero;stroke:none"
         id="path509" />
    </g>
    <g
       id="g511"
       transform="translate(1951.02,886.52)">
      <path
         d="m 0,0 c -8.1,0.25 -15.47,2.99 -21.67,8.54 -29.18,26.07 9.49,53.75 29.85,67.23 20.35,13.47 -17.45,17.93 -36.51,44.186 -19.06,26.254 25.57,61.825 -3.11,63.746 -28.67,1.921 -63.56,3.78 -69.4,34.504 -5.83,30.725 24.33,24.397 19.05,50.28 -3.82,18.771 8.25,26.477 25.35,26.477 6.49,0 13.68,-1.105 21.02,-3.133 4.38,-1.212 8.13,-1.695 11.48,-1.695 6.59,0 11.65,1.857 16.96,3.715 5.32,1.857 10.89,3.715 18.48,3.715 4.54,0 9.79,-0.661 16.14,-2.377 33.09,-8.935 17.51,-49.655 54.01,-59.83 36.5,-10.176 31.92,-17.788 31.92,-17.788 2.58,-0.861 4.87,-2.297 6.85,-4.253 -2.05,-25.474 -7.52,-51.114 -16.68,-76.296 C 97.63,120.197 90.12,104.26 81.39,89.32 60.44,53.46 32.51,23.31 0,0"
         style="fill:#bacdfe;fill-opacity:1;fill-rule:nonzero;stroke:none"
         id="path513" />
    </g>
    <g
       id="g515"
       transform="translate(2065.91,1160.438)">
      <path
         d="m 0,0 c -14.84,0 -22.24,9.374 -29.16,18.75 -6.91,9.375 -13.35,18.751 -26.25,18.751 -0.8,0 -1.63,-0.036 -2.48,-0.11 -1.67,-0.146 -3.2,-0.216 -4.62,-0.216 -23.78,-10e-4 -13.22,19.997 -27.12,40.62 -14.74,21.839 -64.39,10.002 -54.3,32.107 10.09,22.09 37.82,4.805 50.81,20.691 4.48,5.466 10.66,7.259 16.85,7.259 11.81,0 23.62,-6.51 23.62,-6.51 0.1,10e-4 0.2,0.002 0.3,0.002 1.79,0 3.61,-0.238 5.44,-0.726 l 0.01,-0.005 C -32.23,109.804 -20.35,87.182 -11.56,63.346 -6.94,50.829 -3.17,37.986 -0.31,24.901 1.48,16.754 2.93,8.528 4.02,0.216 2.62,0.07 1.28,0 0,0"
         style="fill:#bacdfe;fill-opacity:1;fill-rule:nonzero;stroke:none"
         id="path517" />
    </g>
    <g
       id="g519"
       transform="translate(1806.01,1305.932)">
      <path
         d="m 0,0 c -12.37,0.001 -13.63,28.726 -20.93,47.152 -6.53,16.501 -0.34,27.453 11.28,27.453 3.43,0 7.34,-0.955 11.53,-3.003 C 20.25,62.616 22.93,71.405 45.12,55.882 67.31,40.359 43.71,23.655 43.71,23.655 41.78,24.136 40.06,24.359 38.49,24.359 27.14,24.359 23.53,12.738 6.85,2.363 4.24,0.734 1.98,0 0,0"
         style="fill:#bacdfe;fill-opacity:1;fill-rule:nonzero;stroke:none"
         id="path521" />
    </g>
    <g
       id="g523"
       transform="translate(487.774,162.86)">
      <path
         d="M 0,0 H 101.597 C 107.041,4.62 97.83,15.11 88.205,15.81 84.024,16.13 78.738,15.25 72.698,13.98 71.3,32.55 63.316,116.02 33.226,112.67 -0.607,108.91 33.226,75.91 42.79,56.37 49.875,41.89 57.349,21.14 60.764,11.34 58.018,10.74 55.174,10.16 52.269,9.63 47.785,23.39 31.099,69.71 9.88,67.01 -15.033,63.85 -5.019,45.28 12.639,34.26 25.594,26.15 41.502,14.63 49.061,9.07 42.656,8.02 35.972,7.32 29.191,7.47 11.789,7.89 3.294,2.76 0,0"
         style="fill:#a8d29f;fill-opacity:1;fill-rule:nonzero;stroke:none"
         id="path525" />
    </g>
    <g
       id="g527"
       transform="translate(2104.67,162.86)">
      <path
         d="m 0,0 h -94.36 c -5.06,4.29 3.5,14.03 12.44,14.69 3.88,0.29 8.79,-0.52 14.4,-1.71 1.3,17.25 8.71,94.79 36.66,91.67 31.43,-3.49 0,-34.14 -8.88,-52.3 -6.58,-13.44 -13.52,-32.72 -16.7,-41.82 2.56,-0.55 5.2,-1.09 7.9,-1.59 4.16,12.79 19.66,55.81 39.37,53.3 C 13.97,59.31 4.67,42.06 -11.73,31.82 -23.77,24.29 -38.54,13.59 -45.56,8.42 -39.62,7.45 -33.41,6.8 -27.11,6.94 -10.94,7.33 -3.05,2.56 0,0"
         style="fill:#a8d29f;fill-opacity:1;fill-rule:nonzero;stroke:none"
         id="path529" />
    </g>
    <g
       id="g531"
       transform="translate(2172.07,781.44)">
      <path
         d="m 0,0 c 0,0 2.25,22.34 -9.44,21.58 -11.68,-0.77 -14.77,-6.13 -13.47,-10.42 1.31,-4.29 12.67,-18.5 12.67,-18.5 L 0,0"
         style="fill:#ffb27d;fill-opacity:1;fill-rule:nonzero;stroke:none"
         id="path533" />
    </g>
    <g
       id="g535"
       transform="translate(2354.1,736.68)">
      <path
         d="m 0,0 c 0,0 -12.94,-15.2 -40.75,-32.73 -2.63,-1.67 -5.39,-3.34 -8.29,-5.03 -10.8,-6.29 -23.47,-12.74 -38.1,-18.75 -1.61,-0.66 -3.5,-1.39 -5.63,-2.15 -16.66,-6.02 -47.33,-14.55 -66.33,-15.32 -1.66,-0.06 -3.22,-0.06 -4.68,-0.01 -28.93,1.17 -32.45,113.43 -32.45,113.43 0,0 3.22,11.23 18.08,8.4 0,0 22.56,-63.4 30.65,-68.56 7.19,-4.6 48.47,57.99 84.01,62.37 C -39.56,44.59 0,0 0,0"
         style="fill:#739af0;fill-opacity:1;fill-rule:nonzero;stroke:none"
         id="path537" />
    </g>
    <g
       id="g539"
       transform="translate(2276.39,189.26)">
      <path
         d="m 0,0 c 0,0 2.14,-24.71 -3.08,-27.28 l -66.85,0.13 c 0,0 0,7.72 10.73,9.43 10.74,1.72 29.6,8 32.8,22.01 C -23.21,18.29 0,0 0,0"
         style="fill:#1c3154;fill-opacity:1;fill-rule:nonzero;stroke:none"
         id="path541" />
    </g>
    <g
       id="g543"
       transform="translate(2227.32,488.34)">
      <path
         d="m 0,0 c 0.33,-16.16 1.1,-32.82 2.62,-47.8 7.22,-71.08 9.76,-156.96 10.8,-173.52 1.8,-28.74 7.47,-74.66 7.47,-74.66 0,0 11.27,-10.69 33.22,-5.59 0,0 18.19,66.14 22.25,135.77 0.06,1.15 0.12,2.29 0.18,3.44 0.47,9.21 0.97,19.74 1.47,31.09 3.35,76.03 6.98,188.98 6.98,188.98 L 1.1,77.41 C 1.1,77.41 -0.83,40.28 0,0"
         style="fill:#2a4e96;fill-opacity:1;fill-rule:nonzero;stroke:none"
         id="path545" />
    </g>
    <g
       id="g547"
       transform="translate(2227.32,488.34)">
      <path
         d="m 0,0 c 21.26,-36.68 61.78,-104.25 78.01,-131.27 3.35,76.03 6.98,188.98 6.98,188.98 L 1.1,77.41 C 1.1,77.41 -0.83,40.28 0,0"
         style="fill:#233862;fill-opacity:1;fill-rule:nonzero;stroke:none"
         id="path549" />
    </g>
    <g
       id="g551"
       transform="translate(2261.33,678.02)">
      <path
         d="m 0,0 c -16.66,-6.02 -47.33,-14.55 -66.33,-15.32 2.9,0.55 24.06,4.74 31.89,14.19 8.4,10.15 22.56,37.74 33.81,26.48 C 4.67,20.05 3.12,9.58 0,0"
         style="fill:#6385db;fill-opacity:1;fill-rule:nonzero;stroke:none"
         id="path553" />
    </g>
    <g
       id="g555"
       transform="translate(2402.29,500.29)">
      <path
         d="m 0,0 c 0,0 5.21,-20.42 4.35,-24.95 -0.85,-4.54 -5.93,-19.91 -9.1,-23.72 -3.17,-3.82 -3.3,16.57 -5.41,19.77 -2.11,3.21 -0.97,-7.61 -2.66,-8.49 -1.68,-0.89 -4.5,8.19 -5.76,11.41 -1.25,3.21 4.51,14.41 5.04,22.44 C -13.01,4.49 0,0 0,0"
         style="fill:#ffb27d;fill-opacity:1;fill-rule:nonzero;stroke:none"
         id="path557" />
    </g>
    <g
       id="g559"
       transform="translate(2442.92,217.34)">
      <path
         d="m 0,0 c 0,0 11.9,-10.85 9.58,-18.57 -2.32,-7.72 -13.06,-12.86 -14.51,-22.29 -1.45,-9.43 -7.25,-14.57 -12.48,-14.57 -5.22,0 -24.9,0 -24.9,0 0,0 -3.85,6.63 5.44,8.63 9.29,2 12.79,13.09 12.21,23.37 -0.58,10.29 0.87,24.01 0.87,24.01 L -4.06,5.15 0,0"
         style="fill:#1c3154;fill-opacity:1;fill-rule:nonzero;stroke:none"
         id="path561" />
    </g>
    <g
       id="g563"
       transform="translate(2241.64,544.33)">
      <path
         d="m 0,0 c 0,0 78.53,-168.02 120.32,-241.74 41.79,-73.72 54.85,-94.3 54.85,-94.3 0,0 23.94,9.43 26.11,15.86 0,0 -15.98,142.33 -43.96,177.02 -15.82,19.61 -34.39,78.44 -35.26,99.01 -0.87,20.58 -19.22,69.68 -19.22,69.68 L 0,0"
         style="fill:#2a4e96;fill-opacity:1;fill-rule:nonzero;stroke:none"
         id="path565" />
    </g>
    <g
       id="g567"
       transform="translate(2227.01,553.07)">
      <path
         d="m 0,0 c 0,0 25.57,-27.52 69.02,-35.83 19.07,-3.65 57.78,-7.17 67.38,6.4 2.25,3.19 2.27,7.91 1.77,15.28 -1.29,19.15 -6.11,56.18 15.64,130.59 2.03,6.92 3.39,13.56 4.18,19.89 4.75,38.06 4.24,66.8 -28.79,82.15 -49.49,23 -69.8,4.08 -69.8,4.08 0,0 -26.32,-12.3 -38.34,-48.14 C -2.99,102.72 0,0 0,0"
         style="fill:#739af0;fill-opacity:1;fill-rule:nonzero;stroke:none"
         id="path569" />
    </g>
    <g
       id="g571"
       transform="translate(2326.5,777.87)">
      <path
         d="m 0,0 c -8.33,-5.92 -22.99,-9.41 -36.96,-2.42 -1.08,0.54 -0.95,7.93 -0.68,15.19 0.27,7.12 0.94,14.11 0.94,14.11 l 17.61,11.56 16.8,11.02 C -4.3,11.56 3.76,2.69 0,0"
         style="fill:#ffb27d;fill-opacity:1;fill-rule:nonzero;stroke:none"
         id="path573" />
    </g>
    <g
       id="g575"
       transform="translate(2321.26,811.69)">
      <path
         d="m 0,0 c 0,0 -11.43,-17.15 -32.4,-21.05 0.27,7.12 1.03,14.97 1.03,14.97 L -13.85,4.62 0,0"
         style="fill:#ed985f;fill-opacity:1;fill-rule:nonzero;stroke:none"
         id="path577" />
    </g>
    <g
       id="g579"
       transform="translate(2274.03,809.21)">
      <path
         d="M 0,0 C 0,0 42.6,-15.9 52.08,10.35 61.56,36.6 73.44,52.22 46.64,63.48 19.85,74.74 10.92,66.62 5.59,58.63 0.26,50.64 -10.83,4.81 0,0"
         style="fill:#ffb27d;fill-opacity:1;fill-rule:nonzero;stroke:none"
         id="path581" />
    </g>
    <g
       id="g583"
       transform="translate(2352.65,869.74)">
      <path
         d="m 0,0 c 0.49,0.38 1.48,0.57 3.56,0.27 0,0 -1.44,1.35 -3.62,1.84 0.13,2.94 -0.39,8.29 -5.05,10.48 0,0 2.36,-1.92 2.1,-5.02 -4.53,6.96 -15.87,13.62 -50.14,17.62 -45.15,5.27 -36.12,-26.09 -31.04,-30.62 5.09,-4.53 21.42,1.91 31.97,-1.06 10.56,-2.97 9.54,-18.87 12.76,-21.72 3.21,-2.84 2.53,1.2 7.89,2.45 5.36,1.26 4.22,-6.99 1.75,-12.02 -2.47,-5.02 2.91,-13.35 2.91,-13.35 0,0 0,0 8.29,6.01 8.29,6.01 20.89,35.92 19.1,43.18 C 0.32,-1.3 0.16,-0.65 0,0"
         style="fill:#2c3a64;fill-opacity:1;fill-rule:nonzero;stroke:none"
         id="path585" />
    </g>
    <g
       id="g587"
       transform="translate(2365.18,538.92)">
      <path
         d="m 0,0 c -1.29,19.15 -6.11,56.18 15.64,130.59 2.03,6.92 3.39,13.56 4.18,19.89 -16.16,5.33 -45.61,-6.53 -45.61,-6.53 0,0 -6.92,-98.36 25.79,-143.95"
         style="fill:#6385db;fill-opacity:1;fill-rule:nonzero;stroke:none"
         id="path589" />
    </g>
    <g
       id="g591"
       transform="translate(2365.12,766.57)">
      <path
         d="m 0,0 c 0,0 19.88,-7.23 32.57,-59.87 8.38,-34.79 23.8,-85.91 25.54,-101.98 1.74,-16.07 -17.63,-110.13 -17.63,-110.13 0,0 -2.74,-1.99 -9.43,-0.65 -6.41,1.28 -9.39,5.61 -9.39,5.61 0,0 -4.64,62.7 -3.44,92.3 0.5,12.3 -56.93,90.07 -87.93,100.09 C -81.88,-70.7 0,0 0,0"
         style="fill:#739af0;fill-opacity:1;fill-rule:nonzero;stroke:none"
         id="path593" />
    </g>
    <g
       id="g595"
       transform="translate(2086.99,834.72)">
      <path
         d="m 0,0 c 0,0 57.47,1.64 123.8,-10.57 l 6.92,17.46 7.6,19.13 c 0,0 -66.58,28.66 -106.6,68.58 L 0,0"
         style="fill:#aec3ff;fill-opacity:1;fill-rule:nonzero;stroke:none"
         id="path597" />
    </g>
    <g
       id="g599"
       transform="translate(2119.62,930.25)"
       style="fill:#fdc4b6;fill-opacity:1">
      <path
         d="m 0,0 -33,-97.41 c -4.82,1.43 -7.46,6.61 -5.78,11.36 L -9.74,-4.21 C -8.33,-0.25 -3.85,1.69 0,0"
         style="fill:#fdc4b6;fill-opacity:1;fill-rule:nonzero;stroke:none"
         id="path601" />
    </g>
    <g
       id="g603"
       transform="translate(2151.12,762.23)"
       style="fill:#fdc4b6;fill-opacity:1">
      <path
         d="M 0,0 C 6.41,-1.29 12.71,2.91 13.99,9.33 L 25.35,66.18 C 26.64,72.59 22.44,78.89 16.02,80.17 9.6,81.45 3.31,77.25 2.02,70.84 L -9.34,13.99 C -10.62,7.58 -6.42,1.28 0,0"
         style="fill:#fdc4b6;fill-opacity:1;fill-rule:nonzero;stroke:none"
         id="path605" />
    </g>
    <g
       id="g607"
       transform="translate(2086.99,834.72)">
      <path
         d="m 0,0 c 0,0 57.47,1.64 123.8,-10.57 l 6.92,17.46 C 68.41,19.61 0,0 0,0"
         style="fill:#739af0;fill-opacity:1;fill-rule:nonzero;stroke:none"
         id="path609" />
    </g>
    <g
       id="g611"
       transform="translate(2192.45,827.66)"
       style="fill:#fdc4b6;fill-opacity:1">
      <path
         d="m 0,0 17.96,-3.16 c -0.28,-0.01 16.68,-3.3 22.24,11.73 0.51,1.03 0.83,2.04 1.06,3.24 4.32,18.73 -5.96,22.18 -5.96,22.18 L 12.18,43 4.84,17.01 c 0,0 0,0 0,-0.09 L 0,0"
         style="fill:#fdc4b6;fill-opacity:1;fill-rule:nonzero;stroke:none"
         id="path613" />
    </g>
    <g
       id="g615"
       transform="translate(2192.45,827.66)"
       style="fill:#fd8e70;fill-opacity:1">
      <path
         d="M 0,0 17.96,-3.16 C 17.68,-3.17 34.64,-6.46 40.2,8.57 30.04,15.96 4.84,17.01 4.84,17.01 c 0,0 0,0 0,-0.09 L 0,0"
         style="fill:#fd8e70;fill-opacity:1;fill-rule:nonzero;stroke:none"
         id="path617" />
    </g>
    <g
       id="g619"
       transform="translate(2152.65,817.27)">
      <path
         d="M 0,0 C 0,0 8.78,-3.5 7.17,-7.37 5.56,-11.23 -5.61,-16.55 -7.37,-13.5 -9.13,-10.45 -5.53,3.27 0,0"
         style="fill:#ffb27d;fill-opacity:1;fill-rule:nonzero;stroke:none"
         id="path621" />
    </g>
    <g
       id="g623"
       transform="translate(2172.24,784.96)">
      <path
         d="m 0,0 c 0,0 1.66,8.99 1.76,13.12 0.1,4.13 0.59,7.5 -0.38,7.62 C 0.4,20.85 -0.3,20.09 -0.7,18.76 -1.1,17.44 -2.62,9.2 -2.62,9.2 L -1.85,1.26 0,0"
         style="fill:#ffb27d;fill-opacity:1;fill-rule:nonzero;stroke:none"
         id="path625" />
    </g>
    <g
       id="g627"
       transform="translate(1303.31,790.83)">
      <path
         d="m 0,0 -49.77,-591.8 c 0,0 -5.21,-35.88 21.47,-35.94 43.87,-0.11 218.38,0 218.38,0 0,0 -33.03,7.47 -32.63,24.27 0.48,19.8 58.18,609.07 58.18,609.07 L 0,0"
         style="fill:#7599ea;fill-opacity:1;fill-rule:nonzero;stroke:none"
         id="path629" />
    </g>
    <g
       id="g631"
       transform="translate(1509.81,173.59)">
      <path
         d="m 0,0 c -8.63,-0.03 -177.57,-0.31 -220.29,0.24 -18.62,0.23 -21.89,16.55 -22.04,27.12 -0.08,5.06 0.56,8.81 0.56,8.81 l 1.3,15.38 3.3,39.2 2.91,34.64 3.74,44.51 3.16,37.56 35.36,420.52 215.63,5.6 c 0,0 -24.3,-246.61 -41.49,-426.12 -1.92,-20 -3.75,-39.17 -5.43,-57.08 -0.55,-5.71 -1.08,-11.3 -1.59,-16.74 -1.59,-16.98 -3.05,-32.58 -4.32,-46.35 -0.67,-7.26 -1.28,-14 -1.84,-20.18 -2.2,-24.21 -3.48,-39.67 -3.5,-42.61 -0.01,-1.71 0.14,-3.3 0.42,-4.79 C -30.58,0.85 -3.24,0 0,0"
         style="fill:#90aff4;fill-opacity:1;fill-rule:nonzero;stroke:none"
         id="path633" />
    </g>
    <g
       id="g635"
       transform="translate(779.653,1112.865)">
      <path
         d="m 0,0 121.236,-486.975 16.599,-66.7 56.466,-226.82 H 1243.347 L 1035.227,0 H 0"
         style="fill:#aec3ff;fill-opacity:1;fill-rule:nonzero;stroke:none"
         id="path637" />
    </g>
    <g
       id="g639"
       transform="translate(779.651,1112.866)">
      <path
         d="m 0,0 -16.802,-5.6 188.768,-791.836 22.339,16.94 L 0,0"
         style="fill:#90aff4;fill-opacity:1;fill-rule:nonzero;stroke:none"
         id="path641" />
    </g>
    <g
       id="g643"
       transform="translate(951.617,315.43)">
      <path
         d="m 0,0 h 1042.593 l 28.79,16.94 H 22.339 L 0,0"
         style="fill:#7599ea;fill-opacity:1;fill-rule:nonzero;stroke:none"
         id="path645" />
    </g>
    <path
       d="m 1317.74,162.86 h 225.74 v 10.73 h -225.74 z"
       style="fill:#aec3ff;fill-opacity:1;fill-rule:nonzero;stroke:none"
       id="path647" />
    <g
       id="g649"
       transform="translate(1486.1,315.43)">
      <path
         d="m 0,0 -1.17,-8.2 -212.29,-42.89 2.91,34.64 1.39,16.45 H 0"
         style="fill:#5888dd;fill-opacity:1;fill-rule:nonzero;stroke:none"
         id="path651" />
    </g>
    <g
       id="g653"
       transform="translate(1509.81,173.59)">
      <path
         d="m 0,0 h -182 c -16.26,0.05 -29.78,0.13 -38.29,0.24 -18.62,0.23 -21.89,16.55 -22.04,27.12 l 211.29,39.75 c -2.2,-24.21 -3.48,-39.67 -3.5,-42.61 0,-0.05 0,-0.1 0,-0.16 0,-1.65 0.15,-3.19 0.42,-4.63 C -30.58,0.85 -3.24,0 0,0"
         style="fill:#7a9feb;fill-opacity:1;fill-rule:nonzero;stroke:none"
         id="path655" />
    </g>
    <g
       id="g657"
       transform="translate(1406.46,173.49)">
      <path
         d="m 0,0 c -27.44,0 -55.76,0.03 -78.65,0.1 h 182 C 98.86,0.08 50.94,0 0,0"
         style="fill:#8cabf1;fill-opacity:1;fill-rule:nonzero;stroke:none"
         id="path659" />
    </g>
    <g
       id="g661"
       transform="translate(779.651,1112.866)">
      <path
         d="m 0,0 h 1035.229 l 167.96,-627.276 H 156.16 L 0,0"
         style="fill:#aec3ff;fill-opacity:1;fill-rule:nonzero;stroke:none"
         id="path663" />
    </g>
    <g
       id="g665"
       transform="translate(1934.02,512.78)">
      <path
         d="m 0,0 h -969.291 l -34.636,137.98 c -30.239,120.481 -60.485,240.961 -90.728,361.441 l -16.835,67.063 h 955.31 l 18.49,-67.063 C -95.137,345.074 -52.604,190.722 -10.03,36.38 L 0,0"
         style="fill:#739af0;fill-opacity:1;fill-rule:nonzero;stroke:none"
         id="path667" />
    </g>
    <g
       id="g669"
       transform="translate(1796.33,1012.197)">
      <path
         d="m 0,0 h -956.962 l -16.834,67.069 H -18.48 L 0,0"
         style="fill:#607cf4;fill-opacity:1;fill-rule:nonzero;stroke:none"
         id="path671" />
    </g>
    <g
       id="g673"
       transform="translate(862.054,1048.956)">
      <path
         d="M 0,0 C -1.155,4.63 1.663,8.384 6.294,8.384 10.925,8.384 15.614,4.63 16.768,0 17.923,-4.631 15.105,-8.385 10.475,-8.385 5.844,-8.385 1.154,-4.631 0,0"
         style="fill:#e9f3fe;fill-opacity:1;fill-rule:nonzero;stroke:none"
         id="path675" />
    </g>
    <g
       id="g677"
       transform="translate(889.912,1048.956)">
      <path
         d="M 0,0 C -1.155,4.63 1.663,8.384 6.294,8.384 10.924,8.384 15.614,4.63 16.768,0 17.922,-4.631 15.105,-8.385 10.474,-8.385 5.844,-8.385 1.154,-4.631 0,0"
         style="fill:#e9f3fe;fill-opacity:1;fill-rule:nonzero;stroke:none"
         id="path679" />
    </g>
    <g
       id="g681"
       transform="translate(919.909,1048.956)">
      <path
         d="M 0,0 C -1.155,4.63 1.663,8.384 6.294,8.384 10.924,8.384 15.613,4.63 16.768,0 17.923,-4.631 15.105,-8.385 10.474,-8.385 5.844,-8.385 1.154,-4.631 0,0"
         style="fill:#e9f3fe;fill-opacity:1;fill-rule:nonzero;stroke:none"
         id="path683" />
    </g>
    <g
       id="g685"
       transform="translate(1587.81,1469.173)"
       style="fill:#ff7f50;fill-opacity:1">
      <path
         d="m 0,0 c 39.18,45.998 99.59,138.396 140.26,185.714 8.37,9.739 1.42,24.769 -11.43,24.769 H 54.82 l 69.81,157.857 c 2.98,6.739 -6.2,12.11 -10.61,6.206 L -54.78,148.622 c -4.92,-6.591 0.46,-15.868 8.63,-14.862 L 37.63,144.077 -12.22,7.142 C -14.96,-0.396 -5.2,-6.107 0,0"
         style="fill:#ff7f50;fill-opacity:1;fill-rule:nonzero;stroke:none"
         id="path687" />
    </g>
    <g
       id="g689"
       transform="translate(1239.36,1189.006)">
      <path
         d="m 0,0 c 8.81,45.205 14.37,129.172 23.69,175.813 1.91,9.6 -8.33,16.98 -16.86,12.176 L -42.32,160.305 -55,291.264 c -0.55,5.59 -8.65,5.722 -9.38,0.15 L -91.98,78.221 c -0.81,-6.22 6.24,-10.367 11.29,-6.645 L -28.9,109.77 -10.79,0.174 C -9.79,-5.859 -1.17,-6.001 0,0"
         style="fill:#aec3ff;fill-opacity:1;fill-rule:nonzero;stroke:none"
         id="path691" />
    </g>
    <g
       id="g693"
       transform="translate(1976.36,499.42)">
      <path
         d="m 0,0 -842.23,-70.95 c -63.96,-5.39 -110.24,59.8 -84.05,118.4 l 356.82,798.57 c 27.07,60.583 110.28,67.594 147.1,12.394 L 63.05,130.8 C 98.67,77.41 63.95,5.39 0,0"
         style="fill:#e6efff;fill-opacity:1;fill-rule:nonzero;stroke:none"
         id="path695" />
    </g>
    <g
       id="g697"
       transform="translate(1479.48,1363.198)"
       style="fill:#ff7f50;fill-opacity:1">
      <path
         d="m 0,0 c -19.28,-1.624 -35.5,-13.138 -43.39,-30.8 l -356.83,-798.578 c -7.63,-17.08 -5.72,-36.38 5.11,-51.64 10.83,-15.26 28.43,-23.43 47.07,-21.86 l 842.23,70.96 c 18.65,1.57 34.63,12.57 42.75,29.43 8.13,16.85 6.78,36.2 -3.6,51.77 L 47.93,-23.107 C 37.19,-7.013 19.27,1.625 0,0 m 499.56,-895.628 -842.23,-70.96 c -41.42,-3.49 -80.52,14.66 -104.58,48.56 -24.06,33.89 -28.3,76.79 -11.34,114.74 l 356.82,798.573 c 17.53,39.24 53.57,64.823 96.4,68.431 42.83,3.609 82.64,-15.584 106.49,-51.337 l 485.41,-727.617 c 23.07,-34.58 26.06,-77.57 8.01,-115.02 -18.05,-37.44 -53.56,-61.88 -94.98,-65.37"
         style="fill:#ff7f50;fill-opacity:1;fill-rule:nonzero;stroke:none"
         id="path699" />
    </g>
    <g
       id="g701"
       transform="translate(1589.96,773.97)"
       style="fill:#ff7f50;fill-opacity:1">
      <path
         d="m 0,0 -121.32,-10.22 -52.11,413.068 155.69,13.118 z m -130.22,-152.37 c -0.91,10.85 0.18,21.05 3.28,30.59 3.1,9.53 7.9,17.97 14.41,25.31 6.51,7.33 14.57,13.32 24.2,17.94 9.62,4.61 20.66,7.46 33.14,8.51 12.46,1.05 23.91,0.1 34.34,-2.83 10.43,-2.93 19.47,-7.47 27.11,-13.61 7.65,-6.15 13.79,-13.67 18.45,-22.55 4.64,-8.88 7.43,-18.75 8.35,-29.6 0.91,-10.86 -0.19,-20.98 -3.3,-30.34 -3.12,-9.38 -7.93,-17.74 -14.43,-25.07 -6.51,-7.34 -14.66,-13.33 -24.46,-17.96 -9.79,-4.63 -20.92,-7.48 -33.38,-8.53 -12.48,-1.05 -23.84,-0.1 -34.1,2.84 -10.26,2.94 -19.21,7.49 -26.85,13.64 -7.65,6.14 -13.8,13.57 -18.43,22.3 -4.64,8.72 -7.41,18.51 -8.33,29.36"
         style="fill:#ff7f50;fill-opacity:1;fill-rule:nonzero;stroke:none"
         id="path703" />
    </g>
    <g
       id="g705"
       transform="translate(936.75,748.64)">
      <path
         d="m 0,0 c 0,0 2.641,5.94 4.351,8.75 1.71,2.81 9.017,11.05 10.26,9.18 C 15.855,16.07 20.83,3.51 18.187,0 15.544,-3.52 18.358,-9.64 5.214,-13.34 L 0,0"
         style="fill:#ffb27d;fill-opacity:1;fill-rule:nonzero;stroke:none"
         id="path707" />
    </g>
    <g
       id="g709"
       transform="translate(790.676,786.14)"
       style="fill:#e6561b;fill-opacity:1">
      <path
         d="m 0,0 c 0,0 67.287,-56.17 93.525,-50.97 20.515,4.07 52.95,14.36 52.95,14.36 0,0 8.56,-8.15 6.139,-17.91 0,0 -41.322,-38.88 -70.763,-39.13 -46.017,-0.39 -67.721,22.8 -67.721,22.8 L 0,0"
         style="fill:#e6561b;fill-opacity:1;fill-rule:nonzero;stroke:none"
         id="path711" />
    </g>
    <g
       id="g713"
       transform="translate(672.668,193.69)">
      <path
         d="m 0,0 c 0,0 1.954,-31.51 8.05,-31.96 0.811,-0.06 30.92,-0.06 30.92,-0.06 l 38.435,0.22 c 0,0 -0.252,9.27 -11.487,11.22 C 54.684,-18.62 35.879,-10.72 29.073,4.13 21.914,19.75 0,0 0,0"
         style="fill:#113c68;fill-opacity:1;fill-rule:nonzero;stroke:none"
         id="path715" />
    </g>
    <g
       id="g717"
       transform="translate(670.453,191.51)">
      <path
         d="m 0,0 c 0,0 11.684,-3.91 20.806,-3.91 10.176,0 19.424,2.77 19.424,2.77 0,0 2.2,21.27 14.305,68.14 6.346,24.57 15.409,56.16 28.304,95.41 35.65,108.48 46.492,171.94 47.481,177.95 0.053,0.31 0.074,0.47 0.074,0.47 l -0.116,0.05 -109.605,48.13 c 0,0 13.547,-149.51 -3.736,-206.9 -2.422,-8.02 -4.495,-17.36 -6.274,-27.49 C -0.252,92.29 0,0 0,0"
         style="fill:#2a4e96;fill-opacity:1;fill-rule:nonzero;stroke:none"
         id="path719" />
    </g>
    <g
       id="g721"
       transform="translate(724.988,258.51)">
      <path
         d="m 0,0 c 6.346,24.57 15.409,56.16 28.304,95.41 35.65,108.48 46.492,171.94 47.481,177.95 -0.01,0.18 -0.021,0.35 -0.042,0.52 l -109.605,48.13 c 0,0 13.547,-149.51 -3.736,-206.9 C -40.02,107.09 0,0 0,0"
         style="fill:#233862;fill-opacity:1;fill-rule:nonzero;stroke:none"
         id="path723" />
    </g>
    <g
       id="g725"
       transform="translate(758.276,193.69)">
      <path
         d="m 0,0 c 0,0 1.953,-31.51 8.05,-31.96 0.811,-0.06 30.919,-0.06 30.919,-0.06 l 38.435,0.22 c 0,0 -0.252,9.27 -11.486,11.22 -11.235,1.96 -30.04,9.86 -36.845,24.71 C 21.913,19.75 0,0 0,0"
         style="fill:#15447c;fill-opacity:1;fill-rule:nonzero;stroke:none"
         id="path727" />
    </g>
    <g
       id="g729"
       transform="translate(820.418,577)">
      <path
         d="m 0,0 c 0,0 1.424,-96.89 -15.339,-215.84 -16.763,-118.96 -11.08,-169.45 -11.08,-169.45 0,0 -11.517,-3.73 -16.165,-4.11 -11.841,-0.97 -23.982,2.77 -23.982,2.77 0,0 -23.993,119 -17.114,178.54 6.879,59.54 -32.855,204.31 -32.855,204.31 L 0,0"
         style="fill:#2a4e96;fill-opacity:1;fill-rule:nonzero;stroke:none"
         id="path731" />
    </g>
    <g
       id="g733"
       transform="translate(742.699,803.71)">
      <path
         d="m 0,0 21.395,-14.02 19.489,5.51 c 3.562,5.08 4.505,14.88 4.557,23.36 0.052,8.43 -0.765,15.56 -0.765,15.56 L 5.04,47.9 C 5.072,47.73 5.878,39.05 5.993,37.79 8.005,15.29 0,0 0,0"
         style="fill:#ffb27d;fill-opacity:1;fill-rule:nonzero;stroke:none"
         id="path735" />
    </g>
    <g
       id="g737"
       transform="translate(820.909,550.06)"
       style="fill:#ff7f50;fill-opacity:1">
      <path
         d="m 0,0 c -26.63,-25.71 -127.414,-21.39 -133.625,6.94 -6.201,28.33 6.774,241.16 52.263,254.53 9.44,2.77 59.906,-13.54 59.906,-13.54 0,0 7.919,-20.72 13.112,-47.09 1.008,-5.14 3.95,-59.52 6.152,-110.4 1.027,-23.8 1.896,-46.83 2.34,-63.7 C 0.553,10.94 0.573,0.56 0,0"
         style="fill:#ff7f50;fill-opacity:1;fill-rule:nonzero;stroke:none"
         id="path739" />
    </g>
    <g
       id="g741"
       transform="translate(750.851,841.1)">
      <path
         d="m 0,0 c 5.857,-9.9 26.403,-18.57 37.289,-22.54 0.052,8.43 -0.765,15.56 -0.765,15.56 L 7.659,5.76 C 1.278,5.85 -2.609,4.42 0,0"
         style="fill:#fca56b;fill-opacity:1;fill-rule:nonzero;stroke:none"
         id="path743" />
    </g>
    <g
       id="g745"
       transform="translate(798.263,835.88)">
      <path
         d="M 0,0 C 0,0 -46.509,-14.51 -55.098,14.59 -63.687,43.7 -75.475,61.42 -46.143,71.92 -16.811,82.41 -7.738,73.02 -2.508,64 2.721,54.98 11.877,4.52 0,0"
         style="fill:#ffb27d;fill-opacity:1;fill-rule:nonzero;stroke:none"
         id="path747" />
    </g>
    <g
       id="g749"
       transform="translate(793.928,902.68)">
      <path
         d="m 0,0 c 0,0 -2.966,-33.86 -9.97,-32.39 -7.003,1.47 -14.713,4.61 -13.687,-5.6 1.025,-10.2 -6.811,-27.71 -16.91,-27.66 C -62.226,-65.56 -85.76,-9.98 -79.83,0.55 -62.722,30.96 24.728,37.1 0,0"
         style="fill:#163560;fill-opacity:1;fill-rule:nonzero;stroke:none"
         id="path751" />
    </g>
    <g
       id="g753"
       transform="translate(787.086,810.79)"
       style="fill:#e6561b;fill-opacity:1">
      <path
         d="M 0,0 C -0.6,0.25 -34.623,15.52 -38.602,14.2 -42.581,12.89 -47.541,0.74 -47.541,0.74 l 59.91,-13.55 c 0,0 -4.716,9.59 -12.369,12.81"
         style="fill:#e6561b;fill-opacity:1;fill-rule:nonzero;stroke:none"
         id="path755" />
    </g>
    <g
       id="g757"
       transform="translate(998.903,645.97)">
      <path
         d="m 0,0 -190.721,-179.57 c -3.739,-3.52 -8.453,-4.64 -10.476,-2.49 l -6.438,6.84 c -2.023,2.15 -0.62,6.78 3.118,10.3 L -13.795,14.65 c 3.738,3.52 8.453,4.64 10.475,2.49 L 3.117,10.31 C 5.137,8.16 3.737,3.52 0,0"
         style="fill:#1f4d84;fill-opacity:1;fill-rule:nonzero;stroke:none"
         id="path759" />
    </g>
    <g
       id="g761"
       transform="translate(891.875,545.2)">
      <path
         d="m 0,0 -83.693,-78.8 c -3.739,-3.52 -8.453,-4.64 -10.476,-2.49 l -6.438,6.84 c -2.023,2.15 -0.62,6.78 3.118,10.3 L -13.796,14.65 0,0"
         style="fill:#739af0;fill-opacity:1;fill-rule:nonzero;stroke:none"
         id="path763" />
    </g>
    <g
       id="g765"
       transform="translate(997.794,851.73)">
      <path
         d="m 0,0 c 32.916,35 79.826,48.94 123.876,41.32 25.67,-4.45 50.35,-16.2 70.74,-35.39 55.39,-52.1 58.04,-139.23 5.93,-194.62 -19.18,-20.38 -43.1,-33.62 -68.44,-39.62 -43.51,-10.3 -91.18,0.75 -126.18,33.68 C -49.453,-142.52 -52.115,-55.39 0,0 m -42.727,-137.96 c 7.324,-24.13 20.881,-46.73 40.569,-65.26 60.134,-56.57 154.744,-53.67 211.304,6.45 55.83,59.34 53.75,152.23 -4.1,209.03 -0.77,0.77 -1.55,1.52 -2.35,2.26 -60.12,56.57 -154.72,53.7 -211.288,-6.43 -38.053,-40.44 -49.212,-96.48 -34.135,-146.05"
         style="fill:#1f4d84;fill-opacity:1;fill-rule:nonzero;stroke:none"
         id="path767" />
    </g>
    <g
       id="g769"
       transform="translate(1051.25,627.87)">
      <path
         d="m 0,0 c -9.8,3.53 -19.29,8.22 -28.26,14.07 -6.74,4.4 -13.2,9.45 -19.27,15.16 -55.379,52.11 -58.041,139.24 -5.926,194.63 2.168,2.31 4.396,4.52 6.686,6.64 26.25,24.39 59.89,36.7 93.6,36.7 7.89,0 15.78,-0.68 23.59,-2.03 14.38,-2.49 28.46,-7.27 41.64,-14.38 L 0,0"
         style="fill:#93b5f5;fill-opacity:1;fill-rule:nonzero;stroke:none"
         id="path771" />
    </g>
    <g
       id="g773"
       transform="translate(1118.3,621.19)">
      <path
         d="m 0,0 94.73,212.01 c 0.38,-0.57 0.76,-1.15 1.13,-1.73 12.26,-19.18 19.32,-40.79 21.13,-62.78 C 120.06,110.01 107.85,71.41 80.04,41.85 60.86,21.47 36.94,8.23 11.6,2.23 7.77,1.32 3.89,0.58 0,0"
         style="fill:#ccdffc;fill-opacity:1;fill-rule:nonzero;stroke:none"
         id="path775" />
    </g>
    <g
       id="g777"
       transform="translate(1098.03,619.7)">
      <path
         d="M 0,0 C -4.36,0 -8.72,0.21 -13.07,0.62 -24.5,1.7 -35.83,4.22 -46.78,8.17 L 65.28,258.96 c 5.2,-2.8 10.27,-5.96 15.15,-9.48 4.83,-3.49 9.5,-7.32 13.95,-11.52 7.97,-7.49 14.85,-15.71 20.62,-24.46 L 20.27,1.49 C 13.56,0.5 6.78,0 0,0"
         style="fill:#d5a6a1;fill-opacity:1;fill-rule:nonzero;stroke:none"
         id="path779" />
    </g>
    <g
       id="g781"
       transform="translate(1098.04,619.7)">
      <path
         d="M 0,0 C -4.36,0 -8.73,0.21 -13.08,0.62 -8.73,0.21 -4.37,0 -0.01,0 c 6.78,0 13.56,0.5 20.27,1.49 3.89,0.58 7.77,1.32 11.6,2.23 25.34,6 49.26,19.24 68.44,39.62 27.81,29.56 40.02,68.16 36.95,105.65 C 140.32,111.5 128.11,72.9 100.31,43.34 81.12,22.96 57.2,9.72 31.86,3.71 21.41,1.24 10.7,0 0,0 m -75.05,22.24 c -6.75,4.4 -13.2,9.45 -19.27,15.16 -55.382,52.11 -58.04,139.24 -5.929,194.63 2.17,2.31 4.399,4.52 6.689,6.64 -2.29,-2.12 -4.518,-4.33 -6.686,-6.64 -52.115,-55.39 -49.453,-142.52 5.926,-194.63 6.07,-5.71 12.53,-10.76 19.27,-15.16 m 191.17,189.53 c -0.37,0.58 -0.75,1.16 -1.13,1.73 -5.77,8.75 -12.65,16.97 -20.62,24.46 -4.45,4.2 -9.12,8.03 -13.95,11.52 4.83,-3.49 9.5,-7.32 13.95,-11.51 8.49,-7.99 15.75,-16.81 21.75,-26.2"
         style="fill:#698ebf;fill-opacity:1;fill-rule:nonzero;stroke:none"
         id="path783" />
    </g>
    <g
       id="g785"
       transform="translate(821.057,576.8)"
       style="fill:#e6561b;fill-opacity:1">
      <path
         d="M 0,0 C -105.089,74.88 -96.35,174.81 -96.35,174.81 -57.941,153.15 -19.827,105.25 -2.34,63.7 -1.313,39.9 -0.444,16.87 0,0"
         style="fill:#e6561b;fill-opacity:1;fill-rule:nonzero;stroke:none"
         id="path787" />
    </g>
    <g
       id="g789"
       transform="translate(924.777,610.9)">
      <path
         d="m 0,0 c 7.411,1.71 12.388,7.31 13.422,8.29 0,0 3.16,-0.21 -0.518,-6.95 -0.308,-0.57 -0.992,-2.02 -1.507,-3.04 -0.211,-0.42 0.082,-0.91 0.55,-0.94 4.277,-0.33 8.575,1.36 16.814,-0.35 1.137,-0.24 1.467,-2.96 1.424,-4.12 -0.074,-1.97 0.067,-4.17 -2.215,-7.18 -1.327,-1.75 -5.031,-3.64 -13.279,-6.95 -3.142,-1.27 -12.126,-0.32 -20.547,2.58 l -6.728,3.11 2.087,12.51 1.69,-0.36 C -6.123,-3.96 -2.798,-0.68 0,0"
         style="fill:#ffb27d;fill-opacity:1;fill-rule:nonzero;stroke:none"
         id="path791" />
    </g>
    <g
       id="g793"
       transform="translate(757.321,797.98)"
       style="fill:#ff7f50;fill-opacity:1">
      <path
         d="m 0,0 c 0,0 -94.425,-17.98 27.781,-154.72 19.544,-21.87 125.139,-50.34 125.139,-50.34 0,0 10.71,9.11 5.311,16.49 0,0 -72.705,52.8 -88.702,61.19 -7.197,3.78 -27.931,84.27 -39.662,103.65 C 18.136,-4.34 0,0 0,0"
         style="fill:#ff7f50;fill-opacity:1;fill-rule:nonzero;stroke:none"
         id="path795" />
    </g>
    <g
       id="g797"
       transform="translate(939.31,746.98)">
      <path
         d="m 0,0 c 0,0 3.088,5.9 3.691,9.01 0.603,3.12 4.492,12.2 6.094,13.8 0.642,0.64 2.756,-0.19 3.006,-2.94 0.108,-1.2 -0.479,-3.38 -1.517,-5.98 C 9.585,9.67 9.863,3.94 9.276,2.03 7.814,-2.73 0,0 0,0"
         style="fill:#ffb27d;fill-opacity:1;fill-rule:nonzero;stroke:none"
         id="path799" />
    </g>
    <g
       id="g801"
       transform="translate(976.888,981.26)">
      <path
         d="m 0,0 c -1.606,-1.84 -1.812,-3.9 -1.018,-6.09 l 0.016,-0.04 c 1.468,-4.06 6.321,-8.59 11.958,-13.12 0.72,-0.58 1.361,-1.11 1.919,-1.6 0.147,-0.13 0.294,-0.26 0.431,-0.39 0.114,-0.1 0.223,-0.2 0.332,-0.3 5.257,-4.85 3.277,-5.96 12.724,-15.8 10.76,-11.21 18.18,-11.41 20.29,-10.39 1.79,0.87 -1.84,6.81 -5.85,13.49 -0.2,0.33 -0.39,0.65 -0.59,0.98 -0.53,0.89 -1.07,1.79 -1.6,2.68 -4.7,8.04 -3.49,11.82 -2.37,23.78 0.91,9.73 15.14,54.323 15.14,54.323 l -20.64,3.563 c 0,0 -6.22,-35.516 -13.076,-40.976 C 14.002,7.19 9.903,7.16 6.382,5 6.133,4.85 5.889,4.69 5.649,4.53 3.649,3.21 1.61,1.84 0,0"
         style="fill:#ffb27d;fill-opacity:1;fill-rule:nonzero;stroke:none"
         id="path803" />
    </g>
    <g
       id="g805"
       transform="translate(976.888,981.26)">
      <path
         d="m 0,0 c -1.606,-1.84 -1.812,-3.9 -1.018,-6.09 l 0.016,-0.04 c 1.798,-4.05 6.529,-8.57 11.978,-13.08 0.712,-0.59 1.34,-1.14 1.899,-1.64 0.147,-0.13 0.294,-0.26 0.431,-0.39 0.114,-0.1 0.223,-0.2 0.332,-0.3 5.257,-4.85 3.277,-5.96 12.724,-15.8 10.76,-11.21 18.18,-11.41 20.29,-10.39 1.79,0.87 -1.84,6.81 -5.85,13.49 -2.1,0.77 -11.84,4.73 -19.201,14.16 C 15.354,-12.1 11.113,-1.94 6.863,4.31 6.395,4.39 6.117,4.45 5.65,4.53 3.649,3.21 1.611,1.84 0,0"
         style="fill:#233862;fill-opacity:1;fill-rule:nonzero;stroke:none"
         id="path807" />
    </g>
    <g
       id="g809"
       transform="translate(1143.34,994.09)">
      <path
         d="m 0,0 c 1.27,-6.37 10.36,-5.31 20.5,-2.84 10.15,2.48 7.74,-0.47 22.18,1.13 14.44,1.59 18.82,6.97 19.26,9.122 0.4,1.905 -6.74,2.58 -14.39,3.464 -0.96,0.108 -1.93,0.228 -2.9,0.347 C 36.01,12.311 29.68,17.889 21.84,22.472 14.4,26.812 3.31,44.49 3.31,44.49 l -19.8,-1.562 c 0,0 10.38,-15.789 14.4,-22.654 C 0.27,16.236 0.15,10.898 -0.15,6.776 -0.3,4.54 -0.45,2.25 0,0"
         style="fill:#ffb27d;fill-opacity:1;fill-rule:nonzero;stroke:none"
         id="path811" />
    </g>
    <g
       id="g813"
       transform="translate(1163.84,991.25)">
      <path
         d="M 0,0 C 10.15,2.48 7.74,-0.47 22.18,1.13 36.62,2.72 41,8.1 41.44,10.252 c 0.4,1.905 -6.74,2.58 -14.39,3.464 l -0.07,-0.147 c 0,0 -8.67,-6.139 -20.69,-6.419 C -3.51,6.91 -13.88,9.723 -20.65,9.616 -20.8,7.38 -20.95,5.09 -20.5,2.84 -19.23,-3.53 -10.14,-2.47 0,0"
         style="fill:#233862;fill-opacity:1;fill-rule:nonzero;stroke:none"
         id="path815" />
    </g>
    <g
       id="g817"
       transform="translate(1067.48,1120.76)">
      <path
         d="m 0,0 -18.53,-49.815 -24.19,-65.043 c 0,0 -6.56,-0.631 -12.84,1.178 -5.79,1.673 -12.421,6.049 -12.421,6.049 0,0 6.731,69.845 19.271,109.935 3.21,10.291 6.81,18.615 10.78,23.299 C -18.51,48.535 0,0 0,0"
         style="fill:#233862;fill-opacity:1;fill-rule:nonzero;stroke:none"
         id="path819" />
    </g>
    <g
       id="g821"
       transform="translate(1048.69,1199.889)">
      <path
         d="m 0,0 c -10.54,3.403 -38.04,0.066 -67.87,-5.323 -8.241,-1.488 -16.547,2.278 -20.886,9.441 l -75.062,5.888 c 0,0 -24.789,-54.921 -11.24,-89.926 1.991,-5.145 6.364,-8.357 13.115,-8.468 0,0 45.359,-0.079 59.866,-0.084 37.33,-0.012 79.017,25.634 84.407,26.71 8.82,1.762 12.35,-15.887 21.16,-34.42 8.82,-18.534 82.92,-82.091 82.92,-82.091 0,0 11.39,-0.117 16.1,1.646 5.06,1.896 6.91,4.361 6.91,4.361 0,0 -82.07,163.432 -109.42,172.266"
         style="fill:#2a4e96;fill-opacity:1;fill-rule:nonzero;stroke:none"
         id="path823" />
    </g>
    <g
       id="g825"
       transform="translate(952.035,1424.436)">
      <path
         d="m 0,0 c -5.573,3.32 -11.007,3.829 -14.337,3.735 -2.317,-0.065 -4.63,0.086 -6.923,0.423 -28.647,4.211 -45.914,-37.396 -46.929,-49.97 -1.864,-23.083 -14.077,-26.599 -31.271,-41.05 -34.475,-28.976 -24.38,-62.664 -5.539,-75.187 11.305,-7.513 31.239,-0.01 31.239,-0.01 0.282,-0.196 54.518,30.295 81.253,45.004 C 47.568,-111.373 16.095,-9.59 0,0"
         style="fill:#233862;fill-opacity:1;fill-rule:nonzero;stroke:none"
         id="path827" />
    </g>
    <g
       id="g829"
       transform="translate(937.128,1319.917)">
      <path
         d="m 0,0 c 0.118,-0.077 -13.153,-4.602 -22.024,-0.67 -8.346,3.692 -14.665,17.427 -14.541,17.434 3.798,0.174 7.967,3.493 11.185,25.274 l 1.617,-0.58 27.182,-9.792 c 0,0 -1.973,-8.723 -3.249,-17.027 C -0.905,7.666 -1.484,0.986 0,0"
         style="fill:#ffb27d;fill-opacity:1;fill-rule:nonzero;stroke:none"
         id="path831" />
    </g>
    <g
       id="g833"
       transform="translate(940.547,1351.583)">
      <path
         d="m 0,0 c 0,0 -1.086,-4.707 -2.672,-13.498 -15.614,2.816 -22.314,14.847 -24.51,23.29 L 0,0"
         style="fill:#ed975d;fill-opacity:1;fill-rule:nonzero;stroke:none"
         id="path835" />
    </g>
    <g
       id="g837"
       transform="translate(944.593,1342.923)">
      <path
         d="m 0,0 c 0,0 -37.194,5.006 -33.72,28.12 3.474,23.114 1.012,39.327 24.906,37.108 C 15.08,63.01 18.358,53.498 19.075,45.501 19.792,37.504 9.764,-0.706 0,0"
         style="fill:#ffb27d;fill-opacity:1;fill-rule:nonzero;stroke:none"
         id="path839" />
    </g>
    <g
       id="g841"
       transform="translate(962.317,1401.096)">
      <path
         d="m 0,0 c 0,0 -23.817,-20.512 -40.014,-22.16 -16.197,-1.649 -22.326,3.552 -22.326,3.552 0,0 9.548,7.922 15.297,20.711 1.695,3.769 5.275,6.357 9.392,6.711 C -26.087,9.808 -4.163,10.257 0,0"
         style="fill:#233862;fill-opacity:1;fill-rule:nonzero;stroke:none"
         id="path843" />
    </g>
    <g
       id="g845"
       transform="translate(947.434,1402.938)">
      <path
         d="m 0,0 c 0,0 7.962,-7.704 10.469,-13.417 2.419,-5.514 3.14,-18.699 1.211,-23.935 0,0 12.419,24.128 5.396,35.855 C 9.63,10.938 0,0 0,0"
         style="fill:#233862;fill-opacity:1;fill-rule:nonzero;stroke:none"
         id="path847" />
    </g>
    <g
       id="g849"
       transform="translate(968.43,1265.114)"
       style="fill:#ff7f50;fill-opacity:1">
      <path
         d="m 0,0 c -1.151,-75.292 -0.329,-59.559 -8.568,-66.7 -1.985,-1.72 -7.564,-2.743 -14.907,-3.226 -23.088,-1.524 -63.671,2.293 -65.213,6.561 -5.32,14.765 -1.559,19.35 -5.994,41.953 -0.462,2.404 -1.035,5.006 -1.706,7.84 -3.699,15.525 -7.303,20.807 5.848,45.742 11.926,22.587 24.314,40.918 25.427,40.256 31.438,-18.677 33.979,-2.989 33.979,-2.989 0,0 31.698,-32.712 31.134,-69.437"
         style="fill:#ff7f50;fill-opacity:1;fill-rule:nonzero;stroke:none"
         id="path851" />
    </g>
    <g
       id="g853"
       transform="translate(1048.95,1070.945)">
      <path
         d="m 0,0 -24.19,-65.043 c 0,0 -6.56,-0.631 -12.84,1.178 -5.79,1.673 -12.421,6.049 -12.421,6.049 0,0 6.731,69.845 19.271,109.935 L 0,0"
         style="fill:#2a4e96;fill-opacity:1;fill-rule:nonzero;stroke:none"
         id="path855" />
    </g>
    <g
       id="g857"
       transform="translate(937.298,1334.556)"
       style="fill:#ff7f50;fill-opacity:1">
      <path
         d="m 0,0 c 0,0 32.353,-5.497 36.147,-19.429 3.795,-13.932 16.273,-98.491 16.273,-98.491 0,0 -9.127,-8.907 -16.723,-1.306 -7.596,7.601 -23.886,79.121 -23.886,79.121 L 0,0"
         style="fill:#ff7f50;fill-opacity:1;fill-rule:nonzero;stroke:none"
         id="path859" />
    </g>
    <g
       id="g861"
       transform="translate(944.955,1195.188)"
       style="fill:#e6561b;fill-opacity:1">
      <path
         d="m 0,0 c -23.088,-1.524 -63.671,2.293 -65.213,6.561 -5.32,14.765 -1.559,19.35 -5.994,41.953 l 11.147,31.353 c 0,0 -1.854,-34.917 8.44,-44.105 C -41.336,26.575 -9.465,18.019 -4.462,10.343 -2.049,6.66 -0.462,2.966 0,0"
         style="fill:#e6561b;fill-opacity:1;fill-rule:nonzero;stroke:none"
         id="path863" />
    </g>
    <g
       id="g865"
       transform="translate(918.508,1209.883)">
      <path
         d="m 0,0 c 0,0 22.779,5.064 26.453,3.041 3.675,-2.022 12.654,-9.387 13.778,-11.948 1.123,-2.562 -8.182,1.947 -11.209,2.759 -1.96,0.527 -7.121,-1.264 -9.676,-2.115 C 8.596,-11.842 2.009,-9.997 2.009,-9.997 L 0,0"
         style="fill:#ffb27d;fill-opacity:1;fill-rule:nonzero;stroke:none"
         id="path867" />
    </g>
    <g
       id="g869"
       transform="translate(903.298,1337.556)"
       style="fill:#ff7f50;fill-opacity:1">
      <path
         d="m 0,0 c 0,0 -30.584,-1.873 -41.176,-16.636 -14.911,-20.781 -44.506,-109.358 -27.566,-121.178 19.077,-13.312 86.842,-3.511 86.842,-3.511 0,0 2.259,10.54 -0.877,15.639 -3.135,5.1 -54.118,13.353 -56.47,15.707 -2.353,2.354 29.43,45.877 29.432,52.936 C -9.812,-49.983 0,0 0,0"
         style="fill:#ff7f50;fill-opacity:1;fill-rule:nonzero;stroke:none"
         id="path871" />
    </g>
    <g
       id="g873"
       transform="translate(946.062,1206.584)">
      <path
         d="M 0,0 C 0,0 4.77,-6.157 6.334,-6.893 7.898,-7.628 8.909,-7.445 8.909,-7.445 L 5.695,-1.655 0,0"
         style="fill:#ffb27d;fill-opacity:1;fill-rule:nonzero;stroke:none"
         id="path875" />
    </g>
    <g
       id="g877"
       transform="translate(944.961,1212.924)">
      <path
         d="m 0,0 13.873,-6.742 c 0,0 -0.59,-0.966 -2.299,-0.888 -1.708,0.079 -6.017,1.656 -6.017,1.656 L 0,0"
         style="fill:#ffb27d;fill-opacity:1;fill-rule:nonzero;stroke:none"
         id="path879" />
    </g>
    <g
       id="g881"
       transform="translate(1063.44,1197.043)">
      <path
         d="M 0,0 -144.937,0.05 -144.938,-3.148 -1.29,-3.198 0,0"
         style="fill:#233862;fill-opacity:1;fill-rule:nonzero;stroke:none"
         id="path883" />
    </g>
    <g
       id="g885"
       transform="translate(952.394,1193.883)">
      <path
         d="M 0,0 109.756,-0.038 142.806,82.055 33.215,82.093 0,0"
         style="fill:#233862;fill-opacity:1;fill-rule:nonzero;stroke:none"
         id="path887" />
    </g>
    <g
       id="g889"
       transform="translate(1034.46,1234.907)">
      <path
         d="M 0,0 C 0.83,2.886 -0.84,5.226 -3.73,5.227 -6.61,5.228 -9.62,2.889 -10.45,0.004 -11.28,-2.882 -9.61,-5.222 -6.73,-5.223 -3.84,-5.224 -0.83,-2.886 0,0"
         style="fill:#ffffff;fill-opacity:1;fill-rule:nonzero;stroke:none"
         id="path891" />
    </g>
    <g
       id="g893"
       transform="translate(1777.27,884.26)">
      <path
         d="m 0,0 c -14.78,4.91 -25.02,-1.28 -25.02,-1.28 -42.57,-1.75 -44.15,-45.39 -39.15,-61.63 7.02,-22.81 -17.82,-40.79 9.72,-50.02 31.96,-10.71 58.78,1.99 56.95,-3.52 C 103.57,-124.42 33.63,-11.16 0,0"
         style="fill:#163560;fill-opacity:1;fill-rule:nonzero;stroke:none"
         id="path895" />
    </g>
    <g
       id="g897"
       transform="translate(1733.12,672.02)"
       style="fill:#ff7f50;fill-opacity:1">
      <path
         d="M 0,0 C 0,0 -4.05,-8.01 -11.38,-17.21 -20.23,-28.29 -66.64,-2 -62.65,0 c 4,2 27.33,69.2 32.88,77.64 5.56,8.45 24.48,12.83 24.48,12.83 L 0,0"
         style="fill:#ff7f50;fill-opacity:1;fill-rule:nonzero;stroke:none"
         id="path899" />
    </g>
    <g
       id="g901"
       transform="translate(1889.76,218.82)">
      <path
         d="m 0,0 c 0,0 12.81,-11.7 10.31,-20 -2.5,-8.31 -14.06,-13.85 -15.62,-24 -1.57,-10.15 -7.82,-15.69 -13.44,-15.69 -5.63,0 -26.82,0 -26.82,0 0,0 -4.14,7.14 5.86,9.3 10,2.15 13.77,14.08 13.15,25.16 -0.63,11.07 0.93,25.84 0.93,25.84 L -4.38,5.53 0,0"
         style="fill:#1f447f;fill-opacity:1;fill-rule:nonzero;stroke:none"
         id="path903" />
    </g>
    <g
       id="g905"
       transform="translate(1781.32,213.85)">
      <path
         d="m 0,0 c 0,0 4.61,-49.53 -1.01,-52.3 l -71.98,0.15 c 0,0 0,8.31 11.56,10.15 11.56,1.85 31.87,8.62 35.31,23.7 C -22.68,-3.23 0,0 0,0"
         style="fill:#1c3154;fill-opacity:1;fill-rule:nonzero;stroke:none"
         id="path907" />
    </g>
    <g
       id="g909"
       transform="translate(1836.69,705.43)"
       style="fill:#ff7f50;fill-opacity:1">
      <path
         d="m 0,0 c 0,0 1.08,-15.12 0,-33.27 -0.71,-12.03 -12.88,-28.14 -14.6,-32.12 -4.34,-10 -9.22,-11.63 -9.22,-11.63 l -51.08,-12.51 -41.91,12.51 c 0,0 -19.08,53.28 -11.42,83.27 7.66,29.99 19.37,50.81 19.37,50.81 0,0 28.48,6.4 78.72,2.84 L 0,0"
         style="fill:#ff7f50;fill-opacity:1;fill-rule:nonzero;stroke:none"
         id="path911" />
    </g>
    <g
       id="g913"
       transform="translate(1840.29,671.74)"
       style="fill:#e5561c;fill-opacity:1">
      <path
         d="m 0,0 c -0.71,-12.03 -16.48,-27.72 -18.2,-31.7 -4.34,-10 -9.22,-11.63 -9.22,-11.63 l -37.79,-9.26 -6.83,19.56 c 0,0 55.22,14.5 46.34,65.61 L 0,0"
         style="fill:#e5561c;fill-opacity:1;fill-rule:nonzero;stroke:none"
         id="path915" />
    </g>
    <g
       id="g917"
       transform="translate(1722.55,620.33)">
      <path
         d="m 0,0 c 0,0 -20.75,-64.6 -22.09,-86.59 -1.33,-21.99 39.67,-312.42 41.32,-322.55 1.56,-9.56 13.42,-15.64 13.42,-15.64 0,0 5.45,-3.22 13.24,-1.02 10.8,3.05 14.22,6.7 14.22,6.7 0,0 16.15,207.13 6.15,281.12 C 56.27,-63.99 56.15,0 56.15,0 H 0"
         style="fill:#233862;fill-opacity:1;fill-rule:nonzero;stroke:none"
         id="path919" />
    </g>
    <g
       id="g921"
       transform="translate(1810.47,622.25)">
      <path
         d="m 0,0 c 0,0 31.66,-42.47 34.61,-71.18 2.95,-28.72 4.63,-129.57 10.92,-157.56 6.28,-27.99 29.38,-81.85 29.38,-169.16 0,0 -2.4,-5 -9.81,-7.66 -2.37,-0.86 -5.55,-1.68 -8.63,-2.39 -6.12,-1.4 -12.39,1.58 -15.18,7.2 -15.62,31.45 -65.37,132.86 -67.92,153.91 -1.8,14.9 -17.51,113.5 -51.77,171.36 -8.23,13.89 5.05,69.13 5.05,69.13 L 0,0"
         style="fill:#2a4e96;fill-opacity:1;fill-rule:nonzero;stroke:none"
         id="path923" />
    </g>
    <g
       id="g925"
       transform="translate(1719.23,630.3)">
      <path
         d="m 0,0 c 0,0 8.33,-6.59 24.88,-6.93 19.77,-0.39 68.76,5.04 68.76,5.04 0,0 2.17,-6.08 2.09,-12.5 0,0 -59.83,-15.09 -94.5,-2.2 0,0 -4.47,8.41 -1.23,16.59"
         style="fill:#233862;fill-opacity:1;fill-rule:nonzero;stroke:none"
         id="path927" />
    </g>
    <g
       id="g929"
       transform="translate(1739.37,623.77)">
      <path
         d="m 0,0 c -3.32,0 -6.03,-3.24 -6.03,-7.22 0,-3.98 2.71,-7.22 6.03,-7.22 3.33,0 6.03,3.24 6.03,7.22 C 6.03,-3.24 3.33,0 0,0 Z m 0,-17.43 c -4.97,0 -9.02,4.58 -9.02,10.21 0,5.63 4.05,10.21 9.02,10.21 4.98,0 9.02,-4.58 9.02,-10.21 0,-5.63 -4.04,-10.21 -9.02,-10.21"
         style="fill:#ffffff;fill-opacity:1;fill-rule:nonzero;stroke:none"
         id="path931" />
    </g>
    <g
       id="g933"
       transform="translate(1782.59,587.77)">
      <path
         d="m 0,0 -89.92,-0.84 -44.24,103.98 89.92,0.84 L 0,0"
         style="fill:#b5453c;fill-opacity:1;fill-rule:nonzero;stroke:none"
         id="path935" />
    </g>
    <g
       id="g937"
       transform="translate(1770.83,634.76)">
      <path
         d="m 0,0 -6.59,8.1 c 0,0 -4.46,3.98 -7.7,4.65 -3.23,0.68 -10.07,4.62 -10.73,3.51 -0.66,-1.11 5.25,-9.03 5.25,-9.03 l 0.3,-0.05 c -6.79,-5.1 -23.93,-0.6 -26.04,-2.68 -2.57,-2.52 3.53,-7.98 6.8,-11.05 3.27,-3.06 12.62,-8.17 19.91,-5.9 5.32,1.66 13.71,3.35 13.71,3.35 L 0,0"
         style="fill:#ffb27d;fill-opacity:1;fill-rule:nonzero;stroke:none"
         id="path939" />
    </g>
    <g
       id="g941"
       transform="translate(1655.19,672.62)">
      <path
         d="M 0,0 C 0,0 5.65,6.42 9.25,3.34 12.84,0.26 8.31,-14.9 4.88,-13.36 1.46,-11.82 -1.97,-1.88 0,0"
         style="fill:#ffb27d;fill-opacity:1;fill-rule:nonzero;stroke:none"
         id="path943" />
    </g>
    <g
       id="g945"
       transform="translate(1806.55,765.33)"
       style="fill:#ff7f50;fill-opacity:1">
      <path
         d="m 0,0 c 0,0 25.74,-2.84 44.22,-36.4 14.56,-26.47 39.47,-75.26 30.07,-89.05 -4.13,-6.05 -43.67,-27.58 -119.94,-15.27 0,0 1.2,9.63 7.35,14.1 0,0 64.19,20.6 64.08,24.7 -0.21,7.76 -8.67,14.46 -44.53,50.32 C -28.5,-41.84 0,0 0,0"
         style="fill:#ff7f50;fill-opacity:1;fill-rule:nonzero;stroke:none"
         id="path947" />
    </g>
    <g
       id="g949"
       transform="translate(1786.74,763.97)">
      <path
         d="m 0,0 c 0.89,1.19 -0.25,4.97 -1.67,12.01 -1.28,6.38 -3.45,16.25 -3.4,27.35 l -33.8,-5.69 c 0,0 0.72,-8.53 0.74,-16.56 l 0.01,-0.2 C -38.09,9.93 -40.01,-0.62 -37.65,-2 -25.57,-9.08 -3.4,-4.57 0,0"
         style="fill:#ffb27d;fill-opacity:1;fill-rule:nonzero;stroke:none"
         id="path951" />
    </g>
    <g
       id="g953"
       transform="translate(1747.87,797.64)">
      <path
         d="M 0,0 C 0,0 0.63,-12.03 0.65,-20.06 18.51,-19.63 28.03,-2.3 31.9,5.37 L 0,0"
         style="fill:#e8945b;fill-opacity:1;fill-rule:nonzero;stroke:none"
         id="path955" />
    </g>
    <g
       id="g957"
       transform="translate(1745.94,783.3)">
      <path
         d="M 0,0 C 0,0 41.82,5.95 37.71,31.94 33.6,57.93 36.23,76.2 9.36,73.5 -17.52,70.79 -21.13,60.06 -21.87,51.05 -22.6,42.04 -10.98,-0.88 0,0"
         style="fill:#ffb27d;fill-opacity:1;fill-rule:nonzero;stroke:none"
         id="path959" />
    </g>
    <g
       id="g961"
       transform="translate(1736.2,854.41)">
      <path
         d="m 0,0 c 0,0 16.27,-28.67 34.52,-30.38 18.24,-1.72 25.1,4.19 25.1,4.19 0,0 -15.15,8.54 -20.91,26.74 C 38.71,0.55 6.3,15.88 0,0"
         style="fill:#163560;fill-opacity:1;fill-rule:nonzero;stroke:none"
         id="path963" />
    </g>
    <g
       id="g965"
       transform="translate(1739.42,852.38)">
      <path
         d="m 0,0 c 0,0 -7.96,-4.51 -10.46,-11.24 -2.45,-6.59 -4.08,-15.05 -1.84,-24.76 0,0 -11.91,19.35 -4.11,32.61 C -8.13,10.68 0,0 0,0"
         style="fill:#163560;fill-opacity:1;fill-rule:nonzero;stroke:none"
         id="path967" />
    </g>
    <g
       id="g969"
       transform="translate(2660.86,155.39)">
      <path
         d="m 0,0 h -2318.343 c -1.594,0 -2.898,1.31 -2.898,2.9 v 1.67 c 0,1.6 1.304,2.9 2.898,2.9 L 0,7.47 c 1.6,0 2.9,-1.3 2.9,-2.9 V 2.9 C 2.9,1.31 1.6,0 0,0"
         style="fill:#233862;fill-opacity:1;fill-rule:nonzero;stroke:none"
         id="path971" />
    </g>
  </g>
</svg>
