<?xml version="1.0" encoding="UTF-8" standalone="no"?>
<!-- Uploaded to: SVG Repo, www.svgrepo.com, Transformed by: SVG Repo Mixer Tools -->

<svg
   width="666.66669"
   height="666.66669"
   viewBox="0 0 40.000001 40.000001"
   fill="none"
   version="1.1"
   id="svg161"
   sodipodi:docname="exam.svg"
   inkscape:export-filename="exam2.svg"
   inkscape:export-xdpi="96"
   inkscape:export-ydpi="96"
   xmlns:inkscape="http://www.inkscape.org/namespaces/inkscape"
   xmlns:sodipodi="http://sodipodi.sourceforge.net/DTD/sodipodi-0.dtd"
   xmlns="http://www.w3.org/2000/svg"
   xmlns:svg="http://www.w3.org/2000/svg">
  <defs
     id="defs165" />
  <sodipodi:namedview
     id="namedview163"
     pagecolor="#ffffff"
     bordercolor="#000000"
     borderopacity="0.25"
     inkscape:showpageshadow="2"
     inkscape:pageopacity="0.0"
     inkscape:pagecheckerboard="0"
     inkscape:deskcolor="#d1d1d1"
     showgrid="false" />
  <g
     id="SVGRepo_iconCarrier"
     transform="translate(-4,-4)">
    <path
       fill-rule="evenodd"
       clip-rule="evenodd"
       d="m 8,42 h 24 c 1.1046,0 2,-0.8954 2,-2 V 8 C 34,6.89543 33.1046,6 32,6 H 8 C 6.89543,6 6,6.89543 6,8 v 32 c 0,1.1046 0.89543,2 2,2 z m 24,2 H 8 C 5.79086,44 4,42.2091 4,40 V 8 C 4,5.79086 5.79086,4 8,4 h 24 c 2.2091,0 4,1.79086 4,4 v 32 c 0,2.2091 -1.7909,4 -4,4 z"
       fill="#ea7070"
       id="path142" />
    <path
       fill-rule="evenodd"
       clip-rule="evenodd"
       d="m 18,13 c 0,-0.5523 0.4477,-1 1,-1 h 12 c 0.5523,0 1,0.4477 1,1 0,0.5523 -0.4477,1 -1,1 H 19 c -0.5523,0 -1,-0.4477 -1,-1 z"
       fill="#ea7070"
       id="path144" />
    <path
       fill-rule="evenodd"
       clip-rule="evenodd"
       d="m 18,17 c 0,-0.5523 0.4477,-1 1,-1 h 12 c 0.5523,0 1,0.4477 1,1 0,0.5523 -0.4477,1 -1,1 H 19 c -0.5523,0 -1,-0.4477 -1,-1 z"
       fill="#ea7070"
       id="path146" />
    <path
       fill-rule="evenodd"
       clip-rule="evenodd"
       d="m 18,25 c 0,-0.5523 0.4477,-1 1,-1 h 12 c 0.5523,0 1,0.4477 1,1 0,0.5523 -0.4477,1 -1,1 H 19 c -0.5523,0 -1,-0.4477 -1,-1 z"
       fill="#ea7070"
       id="path148" />
    <path
       fill-rule="evenodd"
       clip-rule="evenodd"
       d="m 18,29 c 0,-0.5523 0.4477,-1 1,-1 h 12 c 0.5523,0 1,0.4477 1,1 0,0.5523 -0.4477,1 -1,1 H 19 c -0.5523,0 -1,-0.4477 -1,-1 z"
       fill="#ea7070"
       id="path150" />
    <path
       fill-rule="evenodd"
       clip-rule="evenodd"
       d="m 10,26 v 3 h 3 V 26 Z M 9,24 h 5 c 0.5523,0 1,0.4477 1,1 v 5 c 0,0.5523 -0.4477,1 -1,1 H 9 C 8.44772,31 8,30.5523 8,30 v -5 c 0,-0.5523 0.44772,-1 1,-1 z"
       fill="#ea7070"
       id="path152" />
    <path
       fill-rule="evenodd"
       clip-rule="evenodd"
       d="m 15.7071,12.2929 c 0.3905,0.3905 0.3905,1.0237 0,1.4142 L 11,18.4142 8.29289,15.7071 c -0.39052,-0.3905 -0.39052,-1.0237 0,-1.4142 0.39053,-0.3905 1.02369,-0.3905 1.41422,0 L 11,15.5858 14.2929,12.2929 c 0.3905,-0.3905 1.0237,-0.3905 1.4142,0 z"
       fill="#ea7070"
       id="path154" />
    <path
       fill-rule="evenodd"
       clip-rule="evenodd"
       d="m 42,24 h -2 v 15.3333 l 1,1.3334 1,-1.3334 z m 2,16 -3,4 -3,-4 V 22 h 6 z"
       fill="#ea7070"
       id="path156" />
    <path
       fill-rule="evenodd"
       clip-rule="evenodd"
       d="m 42,17 h -2 v 2 h 2 z m -2,-2 h 2 c 1.1046,0 2,0.8954 2,2 v 4 h -6 v -4 c 0,-1.1046 0.8954,-2 2,-2 z"
       fill="#ea7070"
       id="path158" />
  </g>
</svg>
