<?xml version="1.0" encoding="UTF-8" standalone="no"?>
<!-- Created with Inkscape (http://www.inkscape.org/) -->

<svg
   version="1.1"
   id="svg1049"
   width="4000"
   height="2400"
   viewBox="0 0 4000 2400"
   sodipodi:docname="hero.svg"
   inkscape:export-filename="25273862_na_feb_36.svg"
   inkscape:export-xdpi="96"
   inkscape:export-ydpi="96"
   inkscape:version="1.2.1 (9c6d41e410, 2022-07-14)"
   xmlns:inkscape="http://www.inkscape.org/namespaces/inkscape"
   xmlns:sodipodi="http://sodipodi.sourceforge.net/DTD/sodipodi-0.dtd"
   xmlns="http://www.w3.org/2000/svg"
   xmlns:svg="http://www.w3.org/2000/svg">
  <defs
     id="defs1053">
    <clipPath
       clipPathUnits="userSpaceOnUse"
       id="clipPath1065">
      <path
         d="M 0,1800 H 3000 V 0.06 H 0 Z"
         id="path1063" />
    </clipPath>
    <clipPath
       clipPathUnits="userSpaceOnUse"
       id="clipPath1229">
      <path
         d="m 1832.38,624.74 c -17.2,93.81 -93.22,115.29 -177.51,109.75 v 0.05 c -0.61,-0.02 -1.84,-0.02 -2.45,0 v -0.05 c -82.97,5.97 -158.87,-18.15 -175.09,-109.75 L 1442.2,320.22 c 196.28,-56.7 229.74,-53.35 425.32,0 l -35.14,304.52"
         id="path1227" />
    </clipPath>
    <clipPath
       clipPathUnits="userSpaceOnUse"
       id="clipPath1333">
      <path
         d="m 2166.39,313.89 10,-42.49 12.53,42.49 h -22.53"
         id="path1331" />
    </clipPath>
    <clipPath
       clipPathUnits="userSpaceOnUse"
       id="clipPath1369">
      <path
         d="m 2185.66,319.46 -0.83,-43.65 22.66,38.07 -21.83,5.58"
         id="path1367" />
    </clipPath>
    <clipPath
       clipPathUnits="userSpaceOnUse"
       id="clipPath1461">
      <path
         d="m 2409.54,578.24 c -27.33,51.7 -106.09,10.49 -79.23,-41.42 l 79.23,41.42"
         id="path1459" />
    </clipPath>
    <clipPath
       clipPathUnits="userSpaceOnUse"
       id="clipPath1481">
      <path
         d="m 2578.99,551.34 c 17.23,55.89 -67.6,82.43 -85.32,26.73 l 85.32,-26.73"
         id="path1479" />
    </clipPath>
    <clipPath
       clipPathUnits="userSpaceOnUse"
       id="clipPath1505">
      <path
         d="m 2573.1,404.96 c -2.87,-167.79 -252.46,-167.77 -255.3,0.01 2.87,167.78 252.46,167.76 255.3,-0.01"
         id="path1503" />
    </clipPath>
  </defs>
  <sodipodi:namedview
     id="namedview1051"
     pagecolor="#ffffff"
     bordercolor="#000000"
     borderopacity="0.25"
     inkscape:showpageshadow="2"
     inkscape:pageopacity="0.0"
     inkscape:pagecheckerboard="0"
     inkscape:deskcolor="#d1d1d1"
     showgrid="false"
     inkscape:zoom="0.25119968"
     inkscape:cx="1962.5821"
     inkscape:cy="1462.9795"
     inkscape:window-width="1920"
     inkscape:window-height="1121"
     inkscape:window-x="-9"
     inkscape:window-y="-9"
     inkscape:window-maximized="1"
     inkscape:current-layer="g1057">
    <inkscape:page
       x="0"
       y="0"
       id="page1055"
       width="4000"
       height="2400" />
  </sodipodi:namedview>
  <g
     id="g1057"
     inkscape:groupmode="layer"
     inkscape:label="Page 1"
     transform="matrix(1.3333333,0,0,-1.3333333,0,2400)">
    <g
       id="g1069"
       transform="translate(2759.18,182.36)">
      <path
         d="m 0,0 c 36.28,427.23 -144.65,1374.127 -1003.25,1289.479 -481.11,-15.727 -450.65,-371.825 -636.07,-425.218 -53.89,-15.516 -123.155,-12.723 -199.127,-9.93 -185.453,6.818 -410.837,13.636 -549.794,-245.881 C -2574.109,261.31 -2323.496,0 -2323.496,0 H 0"
         style="fill:#dcecfd;fill-opacity:1;fill-rule:nonzero;stroke:none"
         id="path1071" />
    </g>
    <g
       id="g1073"
       transform="translate(2759.18,182.36)">
      <path
         d="m 0,0 c 0,0 -2.21,209.65 -15.74,280.32 0,0 -69.77,-69.19 -66.54,-155.44 0,0 12.68,118.74 -97.93,192.63 0,0 -32.58,-56.9 -20.13,-171.87 0,0 -55.8,63.27 -150.11,67.93 0,0 5.57,-101.12 63.65,-163.06 0,0 -18.78,35.71 -138.78,39.39 0,0 37.57,-61.39 72,-89.9 L 0,0"
         style="fill:#bedbfa;fill-opacity:1;fill-rule:nonzero;stroke:none"
         id="path1075" />
    </g>
    <g
       id="g1077"
       transform="translate(1658.61,1083.885)"
       style="fill:#fdc4b6;fill-opacity:1">
      <path
         d="M 0,0 C -57.04,-0.171 -102.33,48.123 -99.58,104.911 H 99.59 C 102.34,48.122 57.05,-0.171 0,0"
         style="fill:#fdc4b6;fill-opacity:1;fill-rule:nonzero;stroke:none"
         id="path1079" />
    </g>
    <g
       id="g1081"
       transform="translate(2501.61,276.02)">
      <path
         d="m 0,0 c -6.37,0 -12.1,4.42 -13.51,10.89 l -159.82,732.694 -662.38,356.209 c -6.73,3.62 -9.25,12.011 -5.63,18.743 3.62,6.73 12.01,9.254 18.74,5.633 L -149.01,761.927 13.53,16.79 C 15.5,8.3 8.7,-0.1 0,0"
         style="fill:#152e60;fill-opacity:1;fill-rule:nonzero;stroke:none"
         id="path1083" />
    </g>
    <g
       id="g1085"
       transform="translate(1830.7,1151.531)">
      <path
         d="m 0,0 h -336.76 c -11.83,124.354 22.59,248.027 168.39,253.494 C -22.6,248.034 11.85,124.288 0,0"
         style="fill:#324d90;fill-opacity:1;fill-rule:nonzero;stroke:none"
         id="path1087" />
    </g>
    <g
       id="g1089"
       transform="translate(2384.44,1018.538)">
      <path
         d="M 0,0 C -1.14,-67.146 -101.02,-67.135 -102.16,0.003 -101.01,67.147 -1.13,67.136 0,0"
         style="fill:#324d90;fill-opacity:1;fill-rule:nonzero;stroke:none"
         id="path1091" />
    </g>
    <g
       id="g1093"
       transform="translate(2361.44,1018.538)">
      <path
         d="M 0,0 C -0.63,-36.914 -55.54,-36.908 -56.16,0.002 -55.53,36.914 -0.62,36.909 0,0"
         style="fill:#152e60;fill-opacity:1;fill-rule:nonzero;stroke:none"
         id="path1095" />
    </g>
    <g
       id="g1097"
       transform="translate(2337.27,182.36)">
      <path
         d="M 0,0 C 35.23,158.88 299.62,159.82 325.4,0 H 0"
         style="fill:#152e60;fill-opacity:1;fill-rule:nonzero;stroke:none"
         id="path1099" />
    </g>
    <g
       id="g1101"
       transform="translate(1830.7,1188.555)">
      <path
         d="m 0,0 h -336.76 c -2.25,0 -4.07,1.822 -4.07,4.07 0,2.248 1.82,4.07 4.07,4.07 H 0 C 5.19,8.218 5.35,-0.078 0,0"
         style="fill:#152e60;fill-opacity:1;fill-rule:nonzero;stroke:none"
         id="path1103" />
    </g>
    <g
       id="g1105"
       transform="translate(1830.7,1216.967)">
      <path
         d="m 0,0 h -336.76 c -2.25,0 -4.07,1.822 -4.07,4.07 0,2.248 1.82,4.07 4.07,4.07 H 0 C 5.19,8.218 5.35,-0.078 0,0"
         style="fill:#152e60;fill-opacity:1;fill-rule:nonzero;stroke:none"
         id="path1107" />
    </g>
    <g
       id="g1109"
       transform="translate(1069.81,182.36)">
      <path
         d="m 0,0 h -54.84 c -6.36,0 -11.52,5.16 -11.52,11.52 v 352.32 c 0,6.36 5.16,11.51 11.52,11.51 H 0 c 6.36,0 11.52,-5.15 11.52,-11.51 V 11.52 C 11.52,5.16 6.36,0 0,0"
         style="fill:#324d90;fill-opacity:1;fill-rule:nonzero;stroke:none"
         id="path1111" />
    </g>
    <path
       d="m 1003.45,491.94 h 77.88 v 24.59 h -77.88 z"
       style="fill:#2a437d;fill-opacity:1;fill-rule:nonzero;stroke:none"
       id="path1113" />
    <path
       d="m 1003.45,455.59 h 77.88 v 24.6 h -77.88 z"
       style="fill:#2a437d;fill-opacity:1;fill-rule:nonzero;stroke:none"
       id="path1115" />
    <path
       d="m 1003.45,268.41 h 77.88 V 293 h -77.88 z"
       style="fill:#2a437d;fill-opacity:1;fill-rule:nonzero;stroke:none"
       id="path1117" />
    <path
       d="m 1003.45,232.06 h 77.88 v 24.6 h -77.88 z"
       style="fill:#2a437d;fill-opacity:1;fill-rule:nonzero;stroke:none"
       id="path1119" />
    <g
       id="g1121"
       transform="translate(1168.49,182.36)">
      <path
         d="m 0,0 h -76.03 c -6.15,0 -11.13,4.99 -11.13,11.13 V 253 c 0,6.15 4.98,11.14 11.13,11.14 H 0 c 6.14,0 11.13,-4.99 11.13,-11.14 V 11.13 C 11.13,4.99 6.14,0 0,0"
         style="fill:#2a437d;fill-opacity:1;fill-rule:nonzero;stroke:none"
         id="path1123" />
    </g>
    <path
       d="m 1081.33,387.8 h 98.29 v 20.29 h -98.29 z"
       style="fill:#324d90;fill-opacity:1;fill-rule:nonzero;stroke:none"
       id="path1125" />
    <path
       d="m 1081.33,225.97 h 98.29 v 20.29 h -98.29 z"
       style="fill:#324d90;fill-opacity:1;fill-rule:nonzero;stroke:none"
       id="path1127" />
    <g
       id="g1129"
       transform="translate(1163.28,314.43)">
      <path
         d="M 0,0 C -0.74,-43.12 -64.88,-43.12 -65.61,0 -64.87,43.12 -0.73,43.11 0,0"
         style="fill:#324d90;fill-opacity:1;fill-rule:nonzero;stroke:none"
         id="path1131" />
    </g>
    <g
       id="g1133"
       transform="translate(990.585,182.36)"
       style="fill:#ff7f50;fill-opacity:1">
      <path
         d="m 0,0 h -72.672 c -7.108,0 -12.87,5.76 -12.87,12.87 v 283.84 c 0,7.11 5.762,12.87 12.87,12.87 H 0 c 7.107,0 12.865,-5.76 12.865,-12.87 V 12.87 C 12.865,5.76 7.107,0 0,0"
         style="fill:#ff7f50;fill-opacity:1;fill-rule:nonzero;stroke:none"
         id="path1135" />
    </g>
    <g
       id="g1137"
       transform="translate(905.043,455.59)"
       style="fill:#fdc4b6;fill-opacity:1">
      <path
         d="M 0,0 C 32.562,2.82 65.849,2.85 98.407,0 65.85,-2.84 32.563,-2.81 0,0"
         style="fill:#fdc4b6;fill-opacity:1;fill-rule:nonzero;stroke:none"
         id="path1139" />
    </g>
    <g
       id="g1141"
       transform="translate(905.043,427.98)"
       style="fill:#fdc4b6;fill-opacity:1">
      <path
         d="M 0,0 C 32.562,2.82 65.849,2.84 98.407,0 65.85,-2.84 32.563,-2.82 0,0"
         style="fill:#fdc4b6;fill-opacity:1;fill-rule:nonzero;stroke:none"
         id="path1143" />
    </g>
    <g
       id="g1145"
       transform="translate(905.043,244.36)"
       style="fill:#fdc4b6;fill-opacity:1">
      <path
         d="M 0,0 C 32.562,2.82 65.849,2.84 98.407,0 65.85,-2.84 32.563,-2.82 0,0"
         style="fill:#fdc4b6;fill-opacity:1;fill-rule:nonzero;stroke:none"
         id="path1147" />
    </g>
    <g
       id="g1149"
       transform="translate(905.043,216.74)"
       style="fill:#fdc4b6;fill-opacity:1">
      <path
         d="M 0,0 C 32.562,2.82 65.849,2.84 98.407,0 65.85,-2.84 32.563,-2.82 0,0"
         style="fill:#fdc4b6;fill-opacity:1;fill-rule:nonzero;stroke:none"
         id="path1151" />
    </g>
    <path
       d="m 935.733,265.48 h 42.206 v 143.34 h -42.206 z"
       style="fill:#fdc4b6;fill-opacity:1;fill-rule:nonzero;stroke:none"
       id="path1153" />
    <g
       id="g1155"
       transform="translate(829.028,182.73)">
      <path
         d="m 0,0 -66.499,15.33 c -7.793,1.79 -12.654,9.56 -10.859,17.36 l 74.285,322.42 c 1.795,7.79 9.567,12.65 17.36,10.86 l 66.499,-15.33 c 7.793,-1.79 12.654,-9.56 10.859,-17.36 L 17.36,10.86 C 15.565,3.07 7.792,-1.79 0,0"
         style="fill:#4292f3;fill-opacity:1;fill-rule:nonzero;stroke:none"
         id="path1157" />
    </g>
    <g
       id="g1159"
       transform="translate(896.516,487.57)">
      <path
         d="M 0,0 -61.288,14.12 -57.449,30.78 3.839,16.66 0,0"
         style="fill:#324d90;fill-opacity:1;fill-rule:nonzero;stroke:none"
         id="path1161" />
    </g>
    <g
       id="g1163"
       transform="translate(890.336,460.74)">
      <path
         d="M 0,0 -61.288,14.12 -57.45,30.78 3.839,16.66 0,0"
         style="fill:#324d90;fill-opacity:1;fill-rule:nonzero;stroke:none"
         id="path1165" />
    </g>
    <g
       id="g1167"
       transform="translate(840.115,242.77)">
      <path
         d="M 0,0 -61.288,14.12 -57.449,30.78 3.839,16.66 0,0"
         style="fill:#324d90;fill-opacity:1;fill-rule:nonzero;stroke:none"
         id="path1169" />
    </g>
    <g
       id="g1171"
       transform="translate(833.935,215.94)">
      <path
         d="M 0,0 -61.288,14.12 -57.45,30.78 3.839,16.66 0,0"
         style="fill:#324d90;fill-opacity:1;fill-rule:nonzero;stroke:none"
         id="path1173" />
    </g>
    <g
       id="g1175"
       transform="translate(881.289,450.63)">
      <path
         d="M 0,0 C -11.321,-58.52 -24.862,-117.36 -40.302,-174.93 -28.997,-116.41 -15.426,-57.58 0,0"
         style="fill:#324d90;fill-opacity:1;fill-rule:nonzero;stroke:none"
         id="path1177" />
    </g>
    <g
       id="g1179"
       transform="translate(856.652,454.61)">
      <path
         d="M 0,0 C -11.321,-58.52 -24.862,-117.36 -40.302,-174.93 -28.997,-116.41 -15.426,-57.57 0,0"
         style="fill:#324d90;fill-opacity:1;fill-rule:nonzero;stroke:none"
         id="path1181" />
    </g>
    <g
       id="g1183"
       transform="translate(832.015,458.59)">
      <path
         d="M 0,0 C -11.321,-58.52 -24.862,-117.36 -40.302,-174.93 -28.997,-116.41 -15.426,-57.57 0,0"
         style="fill:#324d90;fill-opacity:1;fill-rule:nonzero;stroke:none"
         id="path1185" />
    </g>
    <g
       id="g1187"
       transform="translate(1654.85,790.81)">
      <path
         d="M 0,0 H -106.19 L -98.73,48.154 -128.56,0 h -24.04 c 7.89,307.116 296.06,324.365 297.54,0 H 121.12 L 112.18,72.815 101.67,0 H 57.72 V 71.763 L 43.68,0 H 0"
         style="fill:#59445a;fill-opacity:1;fill-rule:nonzero;stroke:none"
         id="path1189" />
    </g>
    <g
       id="g1191"
       transform="translate(1581.98,886.221)"
       style="fill:#c68863;fill-opacity:1">
      <path
         d="M 0,0 C 5.61,-35.426 -24.12,-40.473 -30.52,-5.183 -36.13,30.243 -6.4,35.29 0,0"
         style="fill:#c68863;fill-opacity:1;fill-rule:nonzero;stroke:none"
         id="path1193" />
    </g>
    <g
       id="g1195"
       transform="translate(1727.75,886.221)"
       style="fill:#c68863;fill-opacity:1">
      <path
         d="M 0,0 C -5.61,-35.426 24.12,-40.473 30.52,-5.183 36.13,30.243 6.4,35.29 0,0"
         style="fill:#c68863;fill-opacity:1;fill-rule:nonzero;stroke:none"
         id="path1197" />
    </g>
    <g
       id="g1199"
       transform="translate(1699.77,856.379)"
       style="fill:#e0ab8b;fill-opacity:1">
      <path
         d="m 0,0 c -22.57,0 -67.24,0 -89.81,0 10.84,-30.923 -12.8,-185.799 -12.8,-185.799 28.95,0 86.47,0 115.41,0 0,0 -23.63,154.876 -12.8,185.799"
         style="fill:#e0ab8b;fill-opacity:1;fill-rule:nonzero;stroke:none"
         id="path1201" />
    </g>
    <g
       id="g1203"
       transform="translate(1741.5,881.849)"
       style="fill:#e0ab8b;fill-opacity:1">
      <path
         d="M 0,0 C -2.15,-138.659 -171.13,-138.639 -173.27,0.004 -188.64,141.937 10.78,143.326 0,0"
         style="fill:#e0ab8b;fill-opacity:1;fill-rule:nonzero;stroke:none"
         id="path1205" />
    </g>
    <g
       id="g1207"
       transform="translate(1611.19,790.81)"
       style="fill:#c68863;fill-opacity:1">
      <path
         d="m 0,0 c 0,0 40.69,-31.38 87.34,0 l 2.46,-28.09 c 0,0 -50.24,-23.48 -92.28,-0.29 L 0,0"
         style="fill:#c68863;fill-opacity:1;fill-rule:nonzero;stroke:none"
         id="path1209" />
    </g>
    <g
       id="g1211"
       transform="translate(1672.41,987.247)">
      <path
         d="m 0,0 v -66.406 c 0,0 -53.63,-4.388 -103,-12.015 C -116.81,7.574 -2.51,39.444 0,0"
         style="fill:#59445a;fill-opacity:1;fill-rule:nonzero;stroke:none"
         id="path1213" />
    </g>
    <g
       id="g1215"
       transform="translate(1671.85,992.367)">
      <path
         d="m 0,0 14.15,-68.366 c 0,0 26.45,-3.611 53.88,-15.175 0,0 24.22,97.884 -68.03,83.541"
         style="fill:#59445a;fill-opacity:1;fill-rule:nonzero;stroke:none"
         id="path1217" />
    </g>
    <g
       id="g1219"
       transform="translate(1832.38,624.74)">
      <path
         d="m 0,0 c -17.2,93.81 -93.22,115.29 -177.51,109.75 v 0.05 c -0.61,-0.02 -1.84,-0.02 -2.45,0 v -0.05 C -262.92,115.72 -338.83,91.6 -355.05,0 l -35.13,-304.52 c 196.28,-56.7 229.74,-53.35 425.32,0 L 0,0"
         style="fill:#4292f3;fill-opacity:1;fill-rule:nonzero;stroke:none"
         id="path1221" />
    </g>
    <g
       id="g1223">
      <g
         id="g1225"
         clip-path="url(#clipPath1229)">
        <g
           id="g1231"
           transform="translate(1466.79,467.93)">
          <path
             d="M 0,0 C 72.18,-39.99 229.2,-135.1 349.43,-120.6 170,-213.79 181.39,-214.65 -6.55,-141.19 L 0,0"
             style="fill:#3c7ed7;fill-opacity:1;fill-rule:nonzero;stroke:none"
             id="path1233" />
        </g>
      </g>
    </g>
    <g
       id="g1235"
       transform="translate(1585.47,733.09)"
       style="fill:#e0ab8b;fill-opacity:1">
      <path
         d="M 0,0 C 8.51,-57.08 130.42,-56.83 138.78,0 138.78,0 67.94,5 0,0"
         style="fill:#e0ab8b;fill-opacity:1;fill-rule:nonzero;stroke:none"
         id="path1237" />
    </g>
    <g
       id="g1239"
       transform="translate(1654.85,689.91)">
      <path
         d="m 0,0 -43.75,-43.62 c 0,0 -44.5,27.41 -37.31,84.43 L -69.38,43.18 0,0"
         style="fill:#ffffff;fill-opacity:1;fill-rule:nonzero;stroke:none"
         id="path1241" />
    </g>
    <g
       id="g1243"
       transform="translate(1654.85,689.91)">
      <path
         d="m 0,0 43.76,-43.62 c 0,0 44.5,27.41 37.31,84.43 L 69.38,43.18 0,0"
         style="fill:#ffffff;fill-opacity:1;fill-rule:nonzero;stroke:none"
         id="path1245" />
    </g>
    <g
       id="g1247"
       transform="translate(1430.04,562.06)"
       style="fill:#c68863;fill-opacity:1">
      <path
         d="M 0,0 C -3.2,-65.65 -51.75,-177.43 51.99,-188.25 L 43.59,-30 0,0"
         style="fill:#c68863;fill-opacity:1;fill-rule:nonzero;stroke:none"
         id="path1249" />
    </g>
    <g
       id="g1251"
       transform="translate(1873.69,557.78)"
       style="fill:#c68863;fill-opacity:1">
      <path
         d="M 0,0 C 4.16,-68.2 50.17,-175.8 -52.24,-192.91 L -43.59,-30 0,0"
         style="fill:#c68863;fill-opacity:1;fill-rule:nonzero;stroke:none"
         id="path1253" />
    </g>
    <g
       id="g1255"
       transform="translate(1572.07,241.67)"
       style="fill:#c68863;fill-opacity:1">
      <path
         d="M 0,0 C 0,0 -33.76,20.93 -51.55,15.44 -54.21,14.61 -72.78,-8.29 -72.78,-8.29 l -63.04,-23.88 c -11.69,-4.05 -17.67,-15.51 -19.38,-27.14 H 4.57 L 0,0"
         style="fill:#c68863;fill-opacity:1;fill-rule:nonzero;stroke:none"
         id="path1257" />
    </g>
    <g
       id="g1259"
       transform="translate(1567.8,254.73)">
      <path
         d="M 0,0 C 0,0 280.7,155.42 380.69,141.78 480.67,128.15 485.05,-11.01 398.7,-40.55 312.35,-70.1 5.57,-72.37 5.57,-72.37 L 0,0"
         style="fill:#2a437d;fill-opacity:1;fill-rule:nonzero;stroke:none"
         id="path1261" />
    </g>
    <g
       id="g1263"
       transform="translate(1741.91,254.73)">
      <path
         d="M 0,0 C 0,0 -280.71,155.42 -380.69,141.78 -480.68,128.15 -485.06,-11.01 -398.71,-40.55 -312.35,-70.1 -5.58,-72.37 -5.58,-72.37 L 0,0"
         style="fill:#324d90;fill-opacity:1;fill-rule:nonzero;stroke:none"
         id="path1265" />
    </g>
    <g
       id="g1267"
       transform="translate(1740.9,241.67)"
       style="fill:#e0ab8b;fill-opacity:1">
      <path
         d="M 0,0 C 0,0 33.75,20.93 51.54,15.44 54.21,14.61 72.77,-8.29 72.77,-8.29 l 63.04,-23.88 c 11.7,-4.05 17.67,-15.51 19.39,-27.14 H -4.57 L 0,0"
         style="fill:#e0ab8b;fill-opacity:1;fill-rule:nonzero;stroke:none"
         id="path1269" />
    </g>
    <g
       id="g1271"
       transform="translate(1435.01,665.85)"
       style="fill:#ff7f50;fill-opacity:1">
      <path
         d="M 0,0 196.61,-82.69 V -306.67 L 0,-220.84 V 0"
         style="fill:#ff7f50;fill-opacity:1;fill-rule:nonzero;stroke:none"
         id="path1273" />
    </g>
    <g
       id="g1275"
       transform="translate(1867.03,665.85)"
       style="fill:#ff7f50;fill-opacity:1">
      <path
         d="M 0,0 -196.61,-82.69 V -306.67 L 0,-220.84 V 0"
         style="fill:#ff7f50;fill-opacity:1;fill-rule:nonzero;stroke:none"
         id="path1277" />
    </g>
    <path
       d="m 1631.62,359.18 h 38.8 v 223.98 h -38.8 z"
       style="fill:#fdc4b6;fill-opacity:1;fill-rule:nonzero;stroke:none"
       id="path1279" />
    <g
       id="g1281"
       transform="translate(1448.37,660.23)">
      <path
         d="M 0,0 45.2,10.35 201.78,-56.45 183.25,-77.07 0,0"
         style="fill:#ffffff;fill-opacity:1;fill-rule:nonzero;stroke:none"
         id="path1283" />
    </g>
    <g
       id="g1285"
       transform="translate(1650.15,603.78)">
      <path
         d="M 0,0 20.27,-20.62 198.67,54.41 166.04,66.75 0,0"
         style="fill:#ffffff;fill-opacity:1;fill-rule:nonzero;stroke:none"
         id="path1287" />
    </g>
    <g
       id="g1289"
       transform="translate(1650.15,603.78)">
      <path
         d="m 0,0 -18.53,-20.62 h 38.8 L 0,0"
         style="fill:#dcecfd;fill-opacity:1;fill-rule:nonzero;stroke:none"
         id="path1291" />
    </g>
    <g
       id="g1293"
       transform="translate(1866.12,586.12)"
       style="fill:#e0ab8b;fill-opacity:1">
      <path
         d="m 0,0 c -14.17,-8.6 -42.63,-17.35 -44.02,-37.35 -4.56,-23.8 22.8,-44.45 44.58,-34.42 4.58,4.34 9.62,9.72 9.26,16.5 v 39.73 C 9.82,-8.9 6,-2.85 0,0"
         style="fill:#e0ab8b;fill-opacity:1;fill-rule:nonzero;stroke:none"
         id="path1295" />
    </g>
    <g
       id="g1297"
       transform="translate(1435.03,586.12)"
       style="fill:#e0ab8b;fill-opacity:1">
      <path
         d="m 0,0 c 14.18,-8.6 42.64,-17.35 44.02,-37.35 4.56,-23.8 -22.79,-44.45 -44.58,-34.42 -4.58,4.34 -9.62,9.71 -9.26,16.5 v 39.73 C -9.82,-8.9 -6,-2.85 0,0"
         style="fill:#e0ab8b;fill-opacity:1;fill-rule:nonzero;stroke:none"
         id="path1299" />
    </g>
    <g
       id="g1301"
       transform="translate(1962.03,1105.15)">
      <path
         d="m 0,0 c -105.87,0.475 -197.39,-71.29 -131.01,-146.555 -23.59,-103.957 -18.28,-72.29 68,-37.651 C 144.11,-241.836 266.44,-19.106 0,0"
         style="fill:#ffffff;fill-opacity:1;fill-rule:nonzero;stroke:none"
         id="path1303" />
    </g>
    <g
       id="g1305"
       transform="translate(1902.11,1010.236)">
      <path
         d="M 0,0 C -0.08,-18.018 -27.48,-18.017 -27.55,0.001 -27.47,18.019 -0.08,18.017 0,0"
         style="fill:#dcecfd;fill-opacity:1;fill-rule:nonzero;stroke:none"
         id="path1307" />
    </g>
    <g
       id="g1309"
       transform="translate(1982.34,1010.236)">
      <path
         d="M 0,0 C -0.08,-18.018 -27.48,-18.017 -27.55,0.001 -27.47,18.019 -0.08,18.017 0,0"
         style="fill:#dcecfd;fill-opacity:1;fill-rule:nonzero;stroke:none"
         id="path1311" />
    </g>
    <g
       id="g1313"
       transform="translate(2062.57,1010.236)">
      <path
         d="M 0,0 C -0.08,-18.018 -27.48,-18.017 -27.55,0.001 -27.47,18.019 -0.08,18.017 0,0"
         style="fill:#dcecfd;fill-opacity:1;fill-rule:nonzero;stroke:none"
         id="path1315" />
    </g>
    <path
       d="m 2173.9,313.89 h 7.51 v 182.74 h -7.51 z"
       style="fill:#152e60;fill-opacity:1;fill-rule:nonzero;stroke:none"
       id="path1317" />
    <path
       d="m 2181.41,313.89 h 7.51 v 182.74 h -7.51 z"
       style="fill:#324d90;fill-opacity:1;fill-rule:nonzero;stroke:none"
       id="path1319" />
    <path
       d="m 2166.39,313.89 h 7.5103 v 182.74 h -7.5103 z"
       style="fill:#324d90;fill-opacity:1;fill-rule:nonzero;stroke:none"
       id="path1321" />
    <g
       id="g1323"
       transform="translate(2166.39,313.89)">
      <path
         d="M 0,0 10,-42.49 22.53,0 H 0"
         style="fill:#ffffff;fill-opacity:1;fill-rule:nonzero;stroke:none"
         id="path1325" />
    </g>
    <g
       id="g1327">
      <g
         id="g1329"
         clip-path="url(#clipPath1333)">
        <path
           d="m 2169.43,271.4 h 13.34 v 17.09 h -13.34 z"
           style="fill:#152e60;fill-opacity:1;fill-rule:nonzero;stroke:none"
           id="path1335" />
      </g>
    </g>
    <path
       d="m 2166.39,496.63 h 22.53 v 24.33 h -22.53 z"
       style="fill:#fdc4b6;fill-opacity:1;fill-rule:nonzero;stroke:none"
       id="path1337" />
    <path
       d="m 2166.39,501.5 h 22.53 v 5.42 h -22.53 z"
       style="fill:#ff7f50;fill-opacity:1;fill-rule:nonzero;stroke:none"
       id="path1339" />
    <path
       d="m 2166.39,510.69 h 22.53 v 5.4201 h -22.53 z"
       style="fill:#ff7f50;fill-opacity:1;fill-rule:nonzero;stroke:none"
       id="path1341" />
    <g
       id="g1343"
       transform="translate(2188.92,523.52)">
      <path
         d="m 0,0 v -2.56 h -22.53 c -0.9,7.02 3.85,13.89 11.26,13.82 C -5.05,11.26 0,6.22 0,0"
         style="fill:#ffffff;fill-opacity:1;fill-rule:nonzero;stroke:none"
         id="path1345" />
    </g>
    <g
       id="g1347"
       transform="translate(2245.43,492.79)"
       style="fill:#fdc4b6;fill-opacity:1">
      <path
         d="m 0,0 -45.22,-177.05 -7.27,1.86 L -7.27,1.86 0,0"
         style="fill:#fdc4b6;fill-opacity:1;fill-rule:nonzero;stroke:none"
         id="path1349" />
    </g>
    <g
       id="g1351"
       transform="translate(2252.71,490.93)"
       style="fill:#ff7f50;fill-opacity:1">
      <path
         d="m 0,0 -45.22,-177.05 -7.28,1.86 L -7.28,1.86 0,0"
         style="fill:#ff7f50;fill-opacity:1;fill-rule:nonzero;stroke:none"
         id="path1353" />
    </g>
    <g
       id="g1355"
       transform="translate(2238.16,494.65)"
       style="fill:#ff7f50;fill-opacity:1">
      <path
         d="m 0,0 -45.22,-177.05 -7.28,1.86 L -7.28,1.86 0,0"
         style="fill:#ff7f50;fill-opacity:1;fill-rule:nonzero;stroke:none"
         id="path1357" />
    </g>
    <g
       id="g1359"
       transform="translate(2185.66,319.46)">
      <path
         d="M 0,0 -0.83,-43.65 21.83,-5.58 0,0"
         style="fill:#ffffff;fill-opacity:1;fill-rule:nonzero;stroke:none"
         id="path1361" />
    </g>
    <g
       id="g1363">
      <g
         id="g1365"
         clip-path="url(#clipPath1369)">
        <g
           id="g1371"
           transform="translate(2195.25,290.79)">
          <path
             d="m 0,0 -4.64,-18.15 -12.92,3.3 L -12.93,3.3 0,0"
             style="fill:#152e60;fill-opacity:1;fill-rule:nonzero;stroke:none"
             id="path1373" />
        </g>
      </g>
    </g>
    <g
       id="g1375"
       transform="translate(2258.73,514.51)">
      <path
         d="M 0,0 -6.02,-23.58 -27.85,-18 -21.83,5.57 0,0"
         style="fill:#324d90;fill-opacity:1;fill-rule:nonzero;stroke:none"
         id="path1377" />
    </g>
    <g
       id="g1379"
       transform="translate(2255.26,500.9)">
      <path
         d="M 0,0 -1.35,-5.25 -23.18,0.32 -21.84,5.58 0,0"
         style="fill:#152e60;fill-opacity:1;fill-rule:nonzero;stroke:none"
         id="path1381" />
    </g>
    <g
       id="g1383"
       transform="translate(2257.53,509.81)">
      <path
         d="M 0,0 -1.34,-5.25 -23.17,0.32 -21.83,5.58 0,0"
         style="fill:#152e60;fill-opacity:1;fill-rule:nonzero;stroke:none"
         id="path1385" />
    </g>
    <g
       id="g1387"
       transform="translate(2259.36,516.98)">
      <path
         d="M 0,0 -0.63,-2.47 -22.46,3.1 C -20.58,19.47 3.28,16.21 0,0"
         style="fill:#ffffff;fill-opacity:1;fill-rule:nonzero;stroke:none"
         id="path1389" />
    </g>
    <g
       id="g1391"
       transform="translate(2218.97,182.36)">
      <path
         d="M 0,0 C -208.05,-0.54 -141.6,-25.54 -152.52,226.46 H 28.87 V 28.87 C 28.87,12.93 15.95,0 0,0"
         style="fill:#ffffff;fill-opacity:1;fill-rule:nonzero;stroke:none"
         id="path1393" />
    </g>
    <path
       d="m 2082.56,408.82 h 59.93 v 183.02 h -59.93 z"
       style="fill:#bedbfa;fill-opacity:1;fill-rule:nonzero;stroke:none"
       id="path1395" />
    <path
       d="m 2082.56,559.14 h 22.77 v 8.65 h -22.77 z"
       style="fill:#dcecfd;fill-opacity:1;fill-rule:nonzero;stroke:none"
       id="path1397" />
    <path
       d="m 2082.56,539.39 h 22.77 v 8.64 h -22.77 z"
       style="fill:#dcecfd;fill-opacity:1;fill-rule:nonzero;stroke:none"
       id="path1399" />
    <path
       d="m 2082.56,519.63 h 22.77 v 8.6501 h -22.77 z"
       style="fill:#dcecfd;fill-opacity:1;fill-rule:nonzero;stroke:none"
       id="path1401" />
    <path
       d="m 2082.56,499.87 h 22.77 v 8.65 h -22.77 z"
       style="fill:#dcecfd;fill-opacity:1;fill-rule:nonzero;stroke:none"
       id="path1403" />
    <path
       d="m 2082.56,480.12 h 22.77 v 8.6401 h -22.77 z"
       style="fill:#dcecfd;fill-opacity:1;fill-rule:nonzero;stroke:none"
       id="path1405" />
    <path
       d="m 2082.56,460.36 h 22.77 v 8.6499 h -22.77 z"
       style="fill:#dcecfd;fill-opacity:1;fill-rule:nonzero;stroke:none"
       id="path1407" />
    <path
       d="m 2082.56,440.61 h 22.77 v 8.64 h -22.77 z"
       style="fill:#dcecfd;fill-opacity:1;fill-rule:nonzero;stroke:none"
       id="path1409" />
    <path
       d="m 2082.56,420.85 h 22.77 v 8.65 h -22.77 z"
       style="fill:#dcecfd;fill-opacity:1;fill-rule:nonzero;stroke:none"
       id="path1411" />
    <path
       d="m 2132.92,408.82 h 9.5698 v 172.83 h -9.5698 z"
       style="fill:#ffffff;fill-opacity:1;fill-rule:nonzero;stroke:none"
       id="path1413" />
    <path
       d="m 2066.45,355.46 h 181.39 v 21.78 h -181.39 z"
       style="fill:#bedbfa;fill-opacity:1;fill-rule:nonzero;stroke:none"
       id="path1415" />
    <path
       d="m 2066.45,315.9 h 181.39 v 21.78 h -181.39 z"
       style="fill:#bedbfa;fill-opacity:1;fill-rule:nonzero;stroke:none"
       id="path1417" />
    <g
       id="g1419"
       transform="translate(388.089,968.609)">
      <path
         d="m 0,0 c 0,0 141.165,-310.489 171.963,-535.209 h 31.824 c 0,0 -65.38,301.18 -203.787,535.209"
         style="fill:#ffffff;fill-opacity:1;fill-rule:nonzero;stroke:none"
         id="path1421" />
    </g>
    <g
       id="g1423"
       transform="translate(407.35,928.574)">
      <path
         d="m 0,0 c 0,0 -35.958,24.97 0,83.9 47.916,146.942 -264.859,57.769 -166.802,-186.778 l 59.928,55.934 c -72.671,-114.17 -31.83,-145.09 13.984,-244.71 l 46.944,43.95 c 0,0 -32.961,-57.93 -31.962,-64.92 0.999,-7 70.916,-100.89 70.916,-100.89 0,0 147.824,207.76 149.822,218.75 1.997,10.98 -82.902,84.894 -82.902,84.894 l 98.883,-66.924 c 11.827,48.695 73.063,229.158 -54.935,245.712 0,0 44.947,-2.997 69.917,-17.979 0,0 -8.989,92.89 -80.904,84.899 C 20.975,127.848 32.96,83.9 30.963,54.934 28.965,25.969 0,0 0,0"
         style="fill:#bedbfa;fill-opacity:1;fill-rule:nonzero;stroke:none"
         id="path1425" />
    </g>
    <g
       id="g1427"
       transform="translate(769.061,1021.931)">
      <path
         d="M 0,0 C 0,0 -19.714,17.962 -8.762,41.618 40.372,175.794 -169.03,185.304 -159.025,-47.313 l 55.637,18.4 c 0,0 -46.437,-38.114 -47.751,-61.77 -1.315,-23.657 68.779,-172.168 68.779,-172.168 l 31.104,37.24 c 0,0 -17.523,-48.19 -15.771,-55.2 1.752,-7.01 59.141,-72.72 59.141,-72.72 0,0 68.78,95.94 69.218,103.39 0.438,7.44 -41.18,58.26 -41.18,58.26 l 58.703,-40.3 c 0,0 75.351,99.442 74.913,116.965 -0.438,17.523 -68.78,70.532 -68.78,70.532 l 75.351,-40.304 c 0,0 7.009,69.217 -7.009,101.197 l -65.275,26.285 61.77,-14.456 c 0,0 -26.723,94.626 -56.951,99.883 C 62.646,133.178 11.828,69.656 12.704,41.18 13.58,12.705 0,0 0,0"
         style="fill:#bedbfa;fill-opacity:1;fill-rule:nonzero;stroke:none"
         id="path1429" />
    </g>
    <g
       id="g1431"
       transform="translate(560.052,433.4)">
      <path
         d="M 0,0 C 0,0 29.297,353.03 209.009,588.531 209.009,588.531 47.189,256.79 31.824,0 H 0"
         style="fill:#ffffff;fill-opacity:1;fill-rule:nonzero;stroke:none"
         id="path1433" />
    </g>
    <g
       id="g1435"
       transform="translate(576.375,433.4)">
      <path
         d="m 0,0 h -162.179 l 47.399,-228 c 2.48,-11.93 12.993,-20.49 25.18,-20.49 H 89.601 c 12.187,0 22.7,8.56 25.18,20.49 L 162.18,0 H 0"
         style="fill:#bedbfa;fill-opacity:1;fill-rule:nonzero;stroke:none"
         id="path1437" />
    </g>
    <g
       id="g1439"
       transform="translate(2352.78,179.9)"
       style="fill:#ff7f50;fill-opacity:1">
      <path
         d="M 0,0 H -20.63 L 43.72,107.25 H 64.34 L 0,0"
         style="fill:#ff7f50;fill-opacity:1;fill-rule:nonzero;stroke:none"
         id="path1441" />
    </g>
    <g
       id="g1443"
       transform="translate(2541.63,179.9)"
       style="fill:#ff7f50;fill-opacity:1">
      <path
         d="M 0,0 H 20.62 L -43.73,107.25 H -64.35 L 0,0"
         style="fill:#ff7f50;fill-opacity:1;fill-rule:nonzero;stroke:none"
         id="path1445" />
    </g>
    <g
       id="g1447"
       transform="translate(2394.73,528.93)">
      <path
         d="m 0,0 -15.48,-8.09 -38.49,73.62 c -2.24,4.27 -0.58,9.55 3.69,11.79 4.28,2.23 9.55,0.58 11.79,-3.7 L 0,0"
         style="fill:#324d90;fill-opacity:1;fill-rule:nonzero;stroke:none"
         id="path1449" />
    </g>
    <g
       id="g1451"
       transform="translate(2409.54,578.24)"
       style="fill:#ff7f50;fill-opacity:1">
      <path
         d="M 0,0 C -27.33,51.7 -106.09,10.49 -79.23,-41.43 L 0,0"
         style="fill:#ff7f50;fill-opacity:1;fill-rule:nonzero;stroke:none"
         id="path1453" />
    </g>
    <g
       id="g1455"
       style="fill:#fdc4b6;fill-opacity:1">
      <g
         id="g1457"
         clip-path="url(#clipPath1461)"
         style="fill:#fdc4b6;fill-opacity:1">
        <g
           id="g1463"
           transform="translate(2387.09,604.33)"
           style="fill:#fdc4b6;fill-opacity:1">
          <path
             d="M 0,0 C 0,0 -23.71,-45.33 -63.85,-65.76 -94.23,-15.45 -34.3,9.07 0,0"
             style="fill:#fdc4b6;fill-opacity:1;fill-rule:nonzero;stroke:none"
             id="path1465" />
        </g>
      </g>
    </g>
    <g
       id="g1467"
       transform="translate(2533.66,526.94)">
      <path
         d="M 0,0 -16.67,5.23 8.16,84.5 c 1.45,4.61 6.35,7.17 10.95,5.73 4.6,-1.44 7.17,-6.34 5.72,-10.95 L 0,0"
         style="fill:#324d90;fill-opacity:1;fill-rule:nonzero;stroke:none"
         id="path1469" />
    </g>
    <g
       id="g1471"
       transform="translate(2578.99,551.34)"
       style="fill:#ff7f50;fill-opacity:1">
      <path
         d="M 0,0 C 17.23,55.89 -67.6,82.43 -85.32,26.73 L 0,0"
         style="fill:#ff7f50;fill-opacity:1;fill-rule:nonzero;stroke:none"
         id="path1473" />
    </g>
    <g
       id="g1475"
       style="fill:#fdc4b6;fill-opacity:1">
      <g
         id="g1477"
         clip-path="url(#clipPath1481)"
         style="fill:#fdc4b6;fill-opacity:1">
        <g
           id="g1483"
           transform="translate(2581.57,585.66)"
           style="fill:#fdc4b6;fill-opacity:1">
          <path
             d="M 0,0 C 0,0 -48.83,-15.29 -91.65,-1.35 -77.56,55.71 -17.85,30.67 0,0"
             style="fill:#fdc4b6;fill-opacity:1;fill-rule:nonzero;stroke:none"
             id="path1485" />
        </g>
      </g>
    </g>
    <g
       id="g1487"
       transform="translate(2464.46,250.04)"
       style="fill:#ff7f50;fill-opacity:1">
      <path
         d="M 0,0 C -203.6,3.65 -203.57,306.22 0.01,309.84 203.6,306.19 203.57,3.62 0,0"
         style="fill:#ff7f50;fill-opacity:1;fill-rule:nonzero;stroke:none"
         id="path1489" />
    </g>
    <g
       id="g1491"
       transform="translate(2445.45,250.04)"
       style="fill:#fdc4b6;fill-opacity:1">
      <path
         d="M 0,0 C -203.6,3.65 -203.57,306.22 0.01,309.84 203.6,306.19 203.57,3.62 0,0"
         style="fill:#fdc4b6;fill-opacity:1;fill-rule:nonzero;stroke:none"
         id="path1493" />
    </g>
    <g
       id="g1495"
       transform="translate(2573.1,404.96)">
      <path
         d="M 0,0 C -2.87,-167.79 -252.46,-167.77 -255.3,0.01 -252.43,167.79 -2.84,167.77 0,0"
         style="fill:#ffffff;fill-opacity:1;fill-rule:nonzero;stroke:none"
         id="path1497" />
    </g>
    <g
       id="g1499">
      <g
         id="g1501"
         clip-path="url(#clipPath1505)">
        <g
           id="g1507"
           transform="translate(2445.45,279.13)">
          <path
             d="m 0,0 c -45.27,0 -90.52,21.56 -113.03,64.71 18.61,-7.15 37.97,-10.53 57,-10.53 85.71,0.01 164.66,68.64 137.59,170.49 26.78,-20.86 45.32,-53.81 46.09,-98.84 C 126.21,41.94 63.1,0 0,0"
             style="fill:#e8f2fe;fill-opacity:1;fill-rule:nonzero;stroke:none"
             id="path1509" />
        </g>
      </g>
    </g>
    <g
       id="g1511"
       transform="translate(2450.21,491.4)">
      <path
         d="M 0,0 -10.4,-60.16 0,-81.54 10.4,-60.16 0,0"
         style="fill:#324d90;fill-opacity:1;fill-rule:nonzero;stroke:none"
         id="path1513" />
    </g>
    <g
       id="g1515"
       transform="translate(2507.13,382.29)">
      <path
         d="M 0,0 -32.21,23.69 -48.77,18.97 -39.75,4.31 0,0"
         style="fill:#324d90;fill-opacity:1;fill-rule:nonzero;stroke:none"
         id="path1517" />
    </g>
    <g
       id="g1519"
       transform="translate(2467.14,405.98)">
      <path
         d="M 0,0 C -0.38,-22.25 -33.48,-22.25 -33.86,0 -33.48,22.25 -0.38,22.25 0,0"
         style="fill:#152e60;fill-opacity:1;fill-rule:nonzero;stroke:none"
         id="path1521" />
    </g>
    <g
       id="g1523"
       transform="translate(2452.06,507.15)">
      <path
         d="m 0,0 c -1.67,0.08 -3.37,0.13 -5.05,0.12 h -0.01 c 0.02,0.2 -0.4,9.77 -0.4,9.99 1.98,0.04 3.99,-0.04 5.95,-0.12 z m -27.78,-2.79 -2.18,9.77 c 1.85,0.41 3.74,0.78 5.62,1.12 l 1.74,-9.85 c -1.74,-0.31 -3.48,-0.66 -5.18,-1.04 z m 50.16,-0.85 c -1.67,0.47 -3.38,0.9 -5.08,1.29 l 2.2,9.75 c 1.87,-0.42 3.75,-0.89 5.59,-1.41 z m -71.73,-6.35 -4.17,9.09 c 1.72,0.79 3.5,1.56 5.29,2.27 l 3.7,-9.29 c -1.62,-0.65 -3.24,-1.34 -4.82,-2.07 z m 92.74,-2.2 c -1.53,0.83 -3.11,1.64 -4.67,2.39 l 4.33,9.02 c 1.72,-0.83 3.45,-1.72 5.13,-2.64 z m -112.04,-9.56 -6.18,7.87 c 1.5,1.18 3.06,2.34 4.63,3.44 l 5.74,-8.19 c -1.42,-1 -2.83,-2.05 -4.19,-3.12 z m 130.61,-3.47 c -1.3,1.15 -2.66,2.29 -4.02,3.37 l 6.23,7.83 c 1.49,-1.19 2.98,-2.44 4.41,-3.7 z m -146.55,-12.52 -7.88,6.15 c 1.18,1.52 2.42,3.02 3.68,4.46 l 7.53,-6.59 c -1.14,-1.3 -2.26,-2.65 -3.33,-4.02 z m 161.78,-4.29 c -1.02,1.41 -2.09,2.81 -3.18,4.17 l 7.81,6.26 c 1.19,-1.5 2.37,-3.04 3.48,-4.59 z m -173.5,-15.06 -9.09,4.17 c 0.79,1.74 1.65,3.48 2.53,5.17 l 8.86,-4.64 c -0.8,-1.53 -1.58,-3.12 -2.3,-4.7 z m 184.6,-4.7 c -0.67,1.6 -1.4,3.2 -2.16,4.77 l 9,4.36 c 0.83,-1.72 1.63,-3.48 2.37,-5.23 z m -191.71,-16.86 -9.79,2.08 c 0.4,1.88 0.85,3.76 1.34,5.6 l 9.67,-2.57 c -0.45,-1.68 -0.86,-3.39 -1.22,-5.11 z M 94.7,-83.53 c -0.3,1.72 -0.65,3.45 -1.04,5.14 l 9.75,2.24 c 0.43,-1.86 0.81,-3.76 1.14,-5.65 z m -200.49,-17.76 h -10 c 0,1.9 0.04,3.83 0.13,5.74 l 10,-0.47 c -0.09,-1.75 -0.13,-3.52 -0.13,-5.27 z m 211.88,-5.64 -9.99,0.52 c 0.09,1.82 0.14,3.67 0.13,5.5 h 10 c 0.01,-2 -0.04,-4.03 -0.14,-6.02 z m -219.24,-19.08 c -0.41,1.86 -0.77,3.77 -1.07,5.65 l 9.87,1.61 c 0.28,-1.71 0.61,-3.45 0.97,-5.16 z m 215.2,-5.5 -9.63,2.72 c 0.48,1.67 0.91,3.38 1.3,5.08 l 9.75,-2.21 c -0.42,-1.88 -0.9,-3.76 -1.42,-5.59 z m -207.35,-18.14 c -0.8,1.74 -1.57,3.52 -2.28,5.3 l 9.29,3.71 c 0.65,-1.62 1.35,-3.24 2.07,-4.82 z m 197.9,-4.94 -8.77,4.81 c 0.84,1.53 1.65,3.1 2.4,4.67 l 9.01,-4.35 c -0.83,-1.72 -1.72,-3.45 -2.64,-5.13 z m -184.9,-16.37 c -1.19,1.51 -2.35,3.07 -3.45,4.65 l 8.2,5.73 c 1,-1.43 2.04,-2.84 3.12,-4.21 z m 170.55,-4 -7.48,6.63 c 1.16,1.31 2.29,2.66 3.38,4.01 l 7.81,-6.23 c -1.19,-1.5 -2.44,-2.98 -3.71,-4.41 z m -152.87,-13.66 c -1.52,1.18 -3.01,2.42 -4.45,3.68 l 6.59,7.53 c 1.3,-1.14 2.65,-2.26 4.02,-3.33 z m 134.38,-3.03 -5.83,8.13 c 1.41,1.01 2.82,2.07 4.18,3.16 l 6.24,-7.81 c -1.49,-1.2 -3.04,-2.37 -4.59,-3.48 z m -113.04,-9.9 c -1.74,0.79 -3.48,1.64 -5.17,2.53 l 4.62,8.86 c 1.54,-0.8 3.12,-1.57 4.71,-2.3 z m 91.31,-2.26 -3.87,9.22 c 1.6,0.67 3.2,1.39 4.76,2.15 l 4.35,-9.01 c -1.71,-0.83 -3.48,-1.62 -5.24,-2.36 z m -67.72,-5.56 c -1.87,0.41 -3.74,0.87 -5.57,1.36 l 2.6,9.66 c 1.68,-0.46 3.4,-0.88 5.12,-1.26 z m 43.8,-1.45 -1.71,9.86 c 1.72,0.3 3.45,0.64 5.14,1.03 l 2.22,-9.75 c -1.85,-0.43 -3.75,-0.81 -5.65,-1.14 z m -19.1,-1.64 c -1.97,0.06 -3.94,0.19 -5.88,0.33 l 0.77,9.97 c 1.73,-0.13 3.49,-0.24 5.24,-0.3 -0.16,-2.42 -0.18,-7.55 -0.13,-10"
         style="fill:#324d90;fill-opacity:1;fill-rule:nonzero;stroke:none"
         id="path1525" />
    </g>
    <g
       id="g1527"
       transform="translate(317.027,182.36)">
      <path
         d="M 0,0 C 825.733,5.79 1671.493,5.84 2497.233,0 1671.493,-5.84 825.743,-5.79 0,0"
         style="fill:#152e60;fill-opacity:1;fill-rule:nonzero;stroke:none"
         id="path1529" />
    </g>
  </g>
</svg>
