<?xml version="1.0" standalone="no"?>
<!DOCTYPE svg PUBLIC "-//W3C//DTD SVG 20010904//EN"
 "http://www.w3.org/TR/2001/REC-SVG-20010904/DTD/svg10.dtd">
<svg version="1.0" xmlns="http://www.w3.org/2000/svg"
 width="700.000000pt" height="700.000000pt" viewBox="0 0 700.000000 700.000000"
 preserveAspectRatio="xMidYMid meet">
<metadata>
Created by potrace 1.14, written by Peter Selinger 2001-2017
</metadata>
<g transform="translate(0.000000,700.000000) scale(0.100000,-0.100000)"
fill="#000000" stroke="none">
<path d="M3039 6684 c-90 -17 -120 -28 -374 -139 -121 -53 -389 -170 -595
-260 -206 -90 -402 -175 -435 -190 -33 -14 -73 -32 -90 -40 -16 -7 -77 -33
-135 -58 -58 -24 -125 -54 -150 -65 -25 -11 -151 -66 -280 -122 -129 -56 -253
-110 -275 -119 -22 -10 -69 -31 -105 -46 -36 -15 -90 -39 -120 -53 -210 -97
-349 -269 -395 -490 -16 -76 -14 -224 5 -292 9 -36 129 -337 185 -465 7 -16
82 -196 165 -400 84 -203 159 -383 166 -400 14 -33 278 -672 351 -850 25 -60
51 -123 58 -140 8 -16 116 -277 240 -580 125 -302 233 -563 240 -580 8 -16 78
-185 156 -375 163 -398 174 -421 233 -493 95 -116 182 -179 312 -221 78 -25
92 -28 194 -31 69 -2 116 3 167 16 60 16 294 112 504 207 24 11 91 40 149 65
118 50 1287 560 1405 612 17 7 95 41 175 75 371 159 422 189 525 302 145 161
201 404 144 623 -11 40 -66 176 -324 800 -73 176 -176 426 -230 555 -53 129
-102 249 -110 265 -7 17 -61 147 -120 290 -139 337 -261 632 -318 770 -25 61
-114 274 -197 475 -83 201 -164 397 -180 435 -16 39 -57 138 -91 220 -167 404
-179 427 -279 524 -151 147 -366 213 -571 175z m191 -876 c46 -112 91 -221
100 -243 10 -22 28 -65 40 -95 12 -30 28 -68 35 -85 7 -16 29 -68 48 -115 127
-306 577 -1394 614 -1485 25 -60 51 -123 58 -140 7 -16 61 -147 120 -290 59
-143 113 -273 121 -289 8 -16 14 -32 14 -36 0 -4 10 -29 22 -56 12 -27 23 -51
23 -54 1 -3 7 -18 14 -35 21 -48 45 -105 151 -365 56 -135 106 -256 112 -270
20 -45 27 -64 67 -159 l39 -95 -99 -42 c-54 -24 -113 -50 -131 -58 -18 -8
-366 -160 -773 -337 -407 -176 -760 -330 -784 -341 -24 -11 -132 -58 -240
-105 -198 -85 -211 -91 -312 -136 l-57 -25 -9 22 c-6 11 -47 111 -93 221 -45
110 -139 335 -207 500 -68 165 -176 426 -239 580 -64 154 -127 304 -140 333
-13 29 -24 55 -24 57 0 4 -341 831 -375 910 -7 17 -45 109 -84 205 -40 96 -76
184 -80 195 -5 11 -16 36 -24 55 -8 19 -73 177 -145 350 -72 173 -155 376
-186 450 -31 74 -52 138 -48 142 4 4 153 71 332 149 179 77 349 152 378 165
29 13 55 24 58 24 3 0 25 9 50 20 24 11 64 29 89 40 25 12 222 97 438 191 215
94 410 178 432 188 22 10 126 56 230 101 105 45 215 93 245 107 96 44 115 51
126 52 6 1 48 -90 94 -201z"/>
<path d="M4366 6684 c-144 -46 -238 -174 -238 -324 1 -136 71 -244 200 -306
56 -27 61 -28 260 -30 111 -1 205 -4 209 -7 3 -3 6 -282 6 -619 0 -577 1 -616
19 -670 48 -140 198 -237 347 -224 135 13 253 107 291 234 19 64 19 93 16 727
-1 363 -6 676 -10 695 -53 243 -234 438 -476 513 -56 17 -99 20 -320 23 -211
3 -264 1 -304 -12z"/>
<path d="M6103 6018 c-239 -41 -362 -309 -234 -509 56 -88 105 -119 344 -214
37 -15 67 -28 67 -30 0 -3 -141 -337 -165 -390 -7 -16 -48 -111 -90 -210 -42
-99 -83 -193 -90 -210 -8 -16 -59 -138 -115 -270 -56 -132 -110 -258 -120
-280 -10 -22 -37 -85 -60 -140 -23 -55 -48 -113 -55 -130 -92 -205 -100 -229
-102 -312 -2 -76 1 -88 33 -152 38 -77 79 -118 157 -158 45 -23 65 -27 142
-27 78 0 97 3 146 27 73 35 133 101 171 185 31 71 49 111 72 165 8 17 47 109
86 202 40 94 80 188 90 210 131 295 543 1277 556 1321 21 78 24 222 7 309 -21
109 -91 242 -171 324 -88 90 -149 129 -312 197 -230 95 -275 107 -357 92z"/>
</g>
</svg>
