<svg id="visual" viewBox="0 0 960 64" width="960" height="64" xmlns="http://www.w3.org/2000/svg" xmlns:xlink="http://www.w3.org/1999/xlink" version="1.1"><rect x="0" y="0" width="960" height="64" fill="#001220"></rect><path d="M0 54L16 50.7C32 47.3 64 40.7 96 39.8C128 39 160 44 192 43.8C224 43.7 256 38.3 288 35.7C320 33 352 33 384 35.5C416 38 448 43 480 46.5C512 50 544 52 576 51.3C608 50.7 640 47.3 672 45.5C704 43.7 736 43.3 768 43.2C800 43 832 43 864 42.5C896 42 928 41 944 40.5L960 40L960 0L944 0C928 0 896 0 864 0C832 0 800 0 768 0C736 0 704 0 672 0C640 0 608 0 576 0C544 0 512 0 480 0C448 0 416 0 384 0C352 0 320 0 288 0C256 0 224 0 192 0C160 0 128 0 96 0C64 0 32 0 16 0L0 0Z" fill="#b24d4c"></path><path d="M0 35L16 33.2C32 31.3 64 27.7 96 28.2C128 28.7 160 33.3 192 35.7C224 38 256 38 288 35.8C320 33.7 352 29.3 384 30C416 30.7 448 36.3 480 38.8C512 41.3 544 40.7 576 40.2C608 39.7 640 39.3 672 36.2C704 33 736 27 768 26.2C800 25.3 832 29.7 864 33C896 36.3 928 38.7 944 39.8L960 41L960 0L944 0C928 0 896 0 864 0C832 0 800 0 768 0C736 0 704 0 672 0C640 0 608 0 576 0C544 0 512 0 480 0C448 0 416 0 384 0C352 0 320 0 288 0C256 0 224 0 192 0C160 0 128 0 96 0C64 0 32 0 16 0L0 0Z" fill="#d76464"></path><path d="M0 31L16 29.8C32 28.7 64 26.3 96 24.8C128 23.3 160 22.7 192 23.5C224 24.3 256 26.7 288 26.2C320 25.7 352 22.3 384 20.7C416 19 448 19 480 19.8C512 20.7 544 22.3 576 22C608 21.7 640 19.3 672 19.2C704 19 736 21 768 22.8C800 24.7 832 26.3 864 24.5C896 22.7 928 17.3 944 14.7L960 12L960 0L944 0C928 0 896 0 864 0C832 0 800 0 768 0C736 0 704 0 672 0C640 0 608 0 576 0C544 0 512 0 480 0C448 0 416 0 384 0C352 0 320 0 288 0C256 0 224 0 192 0C160 0 128 0 96 0C64 0 32 0 16 0L0 0Z" fill="#ef7f7f"></path><path d="M0 17L16 15.2C32 13.3 64 9.7 96 9.5C128 9.3 160 12.7 192 12.5C224 12.3 256 8.7 288 7.2C320 5.7 352 6.3 384 7C416 7.7 448 8.3 480 8.2C512 8 544 7 576 8.5C608 10 640 14 672 14.7C704 15.3 736 12.7 768 10.7C800 8.7 832 7.3 864 8.8C896 10.3 928 14.7 944 16.8L960 19L960 0L944 0C928 0 896 0 864 0C832 0 800 0 768 0C736 0 704 0 672 0C640 0 608 0 576 0C544 0 512 0 480 0C448 0 416 0 384 0C352 0 320 0 288 0C256 0 224 0 192 0C160 0 128 0 96 0C64 0 32 0 16 0L0 0Z" fill="#f69d9c"></path></svg>